%TF.GenerationSoftware,KiCad,Pcbnew,9.0.5*%
%TF.CreationDate,2025-10-16T12:34:50-04:00*%
%TF.ProjectId,INFERNO,494e4645-524e-44f2-9e6b-696361645f70,rev?*%
%TF.SameCoordinates,Original*%
%TF.FileFunction,Paste,Top*%
%TF.FilePolarity,Positive*%
%FSLAX46Y46*%
G04 Gerber Fmt 4.6, Leading zero omitted, Abs format (unit mm)*
G04 Created by KiCad (PCBNEW 9.0.5) date 2025-10-16 12:34:50*
%MOMM*%
%LPD*%
G01*
G04 APERTURE LIST*
G04 Aperture macros list*
%AMRoundRect*
0 Rectangle with rounded corners*
0 $1 Rounding radius*
0 $2 $3 $4 $5 $6 $7 $8 $9 X,Y pos of 4 corners*
0 Add a 4 corners polygon primitive as box body*
4,1,4,$2,$3,$4,$5,$6,$7,$8,$9,$2,$3,0*
0 Add four circle primitives for the rounded corners*
1,1,$1+$1,$2,$3*
1,1,$1+$1,$4,$5*
1,1,$1+$1,$6,$7*
1,1,$1+$1,$8,$9*
0 Add four rect primitives between the rounded corners*
20,1,$1+$1,$2,$3,$4,$5,0*
20,1,$1+$1,$4,$5,$6,$7,0*
20,1,$1+$1,$6,$7,$8,$9,0*
20,1,$1+$1,$8,$9,$2,$3,0*%
G04 Aperture macros list end*
%ADD10C,0.000000*%
%ADD11RoundRect,0.200000X0.275000X-0.200000X0.275000X0.200000X-0.275000X0.200000X-0.275000X-0.200000X0*%
%ADD12R,1.100000X0.850000*%
%ADD13R,1.100000X0.750000*%
%ADD14R,1.000000X1.200000*%
%ADD15R,1.350000X1.550000*%
%ADD16R,1.350000X1.900000*%
%ADD17R,1.800000X1.170000*%
%ADD18RoundRect,0.375000X-0.375000X0.625000X-0.375000X-0.625000X0.375000X-0.625000X0.375000X0.625000X0*%
%ADD19RoundRect,0.500000X-1.400000X0.500000X-1.400000X-0.500000X1.400000X-0.500000X1.400000X0.500000X0*%
%ADD20RoundRect,0.200000X0.200000X0.275000X-0.200000X0.275000X-0.200000X-0.275000X0.200000X-0.275000X0*%
%ADD21RoundRect,0.225000X-0.250000X0.225000X-0.250000X-0.225000X0.250000X-0.225000X0.250000X0.225000X0*%
%ADD22RoundRect,0.375000X0.625000X0.375000X-0.625000X0.375000X-0.625000X-0.375000X0.625000X-0.375000X0*%
%ADD23RoundRect,0.500000X0.500000X1.400000X-0.500000X1.400000X-0.500000X-1.400000X0.500000X-1.400000X0*%
%ADD24RoundRect,0.200000X-0.200000X-0.275000X0.200000X-0.275000X0.200000X0.275000X-0.200000X0.275000X0*%
%ADD25R,0.249999X1.000000*%
%ADD26RoundRect,0.317500X0.317500X-1.157500X0.317500X1.157500X-0.317500X1.157500X-0.317500X-1.157500X0*%
%ADD27RoundRect,0.100000X0.100000X0.575000X-0.100000X0.575000X-0.100000X-0.575000X0.100000X-0.575000X0*%
%ADD28O,0.900000X1.600000*%
%ADD29RoundRect,0.250000X0.550000X0.450000X-0.550000X0.450000X-0.550000X-0.450000X0.550000X-0.450000X0*%
%ADD30RoundRect,0.250000X0.700000X0.700000X-0.700000X0.700000X-0.700000X-0.700000X0.700000X-0.700000X0*%
%ADD31RoundRect,0.250000X-1.100000X0.325000X-1.100000X-0.325000X1.100000X-0.325000X1.100000X0.325000X0*%
%ADD32RoundRect,0.200000X-0.275000X0.200000X-0.275000X-0.200000X0.275000X-0.200000X0.275000X0.200000X0*%
%ADD33RoundRect,0.250000X0.650000X-0.325000X0.650000X0.325000X-0.650000X0.325000X-0.650000X-0.325000X0*%
%ADD34RoundRect,0.225000X0.225000X0.250000X-0.225000X0.250000X-0.225000X-0.250000X0.225000X-0.250000X0*%
%ADD35RoundRect,0.225000X0.250000X-0.225000X0.250000X0.225000X-0.250000X0.225000X-0.250000X-0.225000X0*%
%ADD36R,5.080000X2.290000*%
%ADD37R,5.080000X2.420000*%
%ADD38RoundRect,0.225000X-0.225000X-0.250000X0.225000X-0.250000X0.225000X0.250000X-0.225000X0.250000X0*%
%ADD39RoundRect,0.200000X0.250000X-0.200000X0.250000X0.200000X-0.250000X0.200000X-0.250000X-0.200000X0*%
%ADD40RoundRect,0.250000X1.100000X-0.325000X1.100000X0.325000X-1.100000X0.325000X-1.100000X-0.325000X0*%
%ADD41RoundRect,0.218750X0.256250X-0.218750X0.256250X0.218750X-0.256250X0.218750X-0.256250X-0.218750X0*%
%ADD42RoundRect,0.250000X-0.325000X-0.650000X0.325000X-0.650000X0.325000X0.650000X-0.325000X0.650000X0*%
%ADD43R,1.550000X1.300000*%
%ADD44RoundRect,0.112500X0.112500X0.237500X-0.112500X0.237500X-0.112500X-0.237500X0.112500X-0.237500X0*%
%ADD45RoundRect,0.075000X0.075000X-0.700000X0.075000X0.700000X-0.075000X0.700000X-0.075000X-0.700000X0*%
%ADD46RoundRect,0.075000X0.700000X-0.075000X0.700000X0.075000X-0.700000X0.075000X-0.700000X-0.075000X0*%
%ADD47RoundRect,0.250000X-0.650000X0.325000X-0.650000X-0.325000X0.650000X-0.325000X0.650000X0.325000X0*%
%ADD48RoundRect,0.250000X-1.275000X-1.125000X1.275000X-1.125000X1.275000X1.125000X-1.275000X1.125000X0*%
%ADD49RoundRect,0.250000X-0.850000X-0.350000X0.850000X-0.350000X0.850000X0.350000X-0.850000X0.350000X0*%
G04 APERTURE END LIST*
D10*
%TO.C,U4*%
G36*
X206224571Y-97206464D02*
G01*
X206224571Y-98576464D01*
X206174571Y-98626464D01*
X205514572Y-98626464D01*
X205464572Y-98576464D01*
X205464572Y-97206464D01*
X205514572Y-97156464D01*
X206174571Y-97156464D01*
X206224571Y-97206464D01*
G37*
G36*
X207274571Y-97206464D02*
G01*
X207274571Y-98576464D01*
X207224571Y-98626464D01*
X206564573Y-98626464D01*
X206514573Y-98576464D01*
X206514573Y-97206464D01*
X206564573Y-97156464D01*
X207224571Y-97156464D01*
X207274571Y-97206464D01*
G37*
G36*
X208324572Y-97206464D02*
G01*
X208324572Y-98576464D01*
X208274572Y-98626464D01*
X207614573Y-98626464D01*
X207564573Y-98576464D01*
X207564573Y-97206464D01*
X207614573Y-97156464D01*
X208274572Y-97156464D01*
X208324572Y-97206464D01*
G37*
G36*
X204569573Y-95190466D02*
G01*
X204619573Y-95240463D01*
X204619573Y-95808265D01*
X204652572Y-95841265D01*
X204835572Y-95841265D01*
X204869572Y-95814463D01*
X204869572Y-95241464D01*
X204919572Y-95191464D01*
X205069572Y-95191464D01*
X205119572Y-95241464D01*
X205119577Y-96340464D01*
X205069572Y-96390464D01*
X204419573Y-96390466D01*
X204369573Y-96340464D01*
X204369573Y-95240463D01*
X204419573Y-95190464D01*
X204569573Y-95190466D01*
G37*
G36*
X205069572Y-99392464D02*
G01*
X205119574Y-99442464D01*
X205119572Y-100541464D01*
X205069572Y-100591464D01*
X204919572Y-100591464D01*
X204869572Y-100541464D01*
X204869572Y-99968465D01*
X204835572Y-99941462D01*
X204652572Y-99941462D01*
X204619573Y-99974462D01*
X204619573Y-100542465D01*
X204569573Y-100592462D01*
X204419573Y-100592464D01*
X204369573Y-100542465D01*
X204369573Y-99442464D01*
X204419573Y-99392462D01*
X205069572Y-99392464D01*
G37*
G36*
X208869572Y-95190466D02*
G01*
X208919572Y-95240463D01*
X208919572Y-95808265D01*
X208952571Y-95841265D01*
X209135571Y-95841265D01*
X209169571Y-95814463D01*
X209169571Y-95241464D01*
X209219571Y-95191464D01*
X209369571Y-95191464D01*
X209419573Y-95241464D01*
X209419576Y-96340464D01*
X209369573Y-96390464D01*
X208719572Y-96390466D01*
X208669572Y-96340464D01*
X208669572Y-95240463D01*
X208719572Y-95190464D01*
X208869572Y-95190466D01*
G37*
G36*
X209369573Y-99392464D02*
G01*
X209419573Y-99442464D01*
X209419573Y-100541464D01*
X209369571Y-100591464D01*
X209219571Y-100591464D01*
X209169571Y-100541464D01*
X209169571Y-99968465D01*
X209135571Y-99941462D01*
X208952571Y-99941462D01*
X208919572Y-99974462D01*
X208919572Y-100542465D01*
X208869572Y-100592462D01*
X208719572Y-100592464D01*
X208669572Y-100542465D01*
X208669572Y-99442464D01*
X208719572Y-99392462D01*
X209369573Y-99392464D01*
G37*
%TD*%
D11*
%TO.C,R17*%
X207750000Y-113325000D03*
X207750000Y-111675000D03*
%TD*%
D12*
%TO.C,J1*%
X131175000Y-103085000D03*
X131175000Y-101985000D03*
X131175000Y-100885000D03*
X131175000Y-99785000D03*
X131175000Y-98685000D03*
X131175000Y-97585000D03*
X131175000Y-96485000D03*
D13*
X131175000Y-95435000D03*
D14*
X137325000Y-105720000D03*
X141025000Y-105720000D03*
D15*
X131300000Y-105545000D03*
D16*
X142000000Y-102220000D03*
X142000000Y-96250000D03*
D17*
X131525000Y-94225000D03*
%TD*%
D18*
%TO.C,U5*%
X206550000Y-119950000D03*
X204250000Y-119950000D03*
D19*
X204250000Y-126250000D03*
D18*
X201950000Y-119950000D03*
%TD*%
D20*
%TO.C,R4*%
X153225000Y-102200000D03*
X151575000Y-102200000D03*
%TD*%
D21*
%TO.C,C14*%
X209344572Y-103141464D03*
X209344572Y-104691464D03*
%TD*%
D22*
%TO.C,U6*%
X203800000Y-113025000D03*
X203800000Y-110725000D03*
D23*
X197500000Y-110725000D03*
D22*
X203800000Y-108425000D03*
%TD*%
D20*
%TO.C,R2*%
X226125000Y-130602500D03*
X224475000Y-130602500D03*
%TD*%
D11*
%TO.C,R15*%
X195000000Y-143075000D03*
X195000000Y-141425000D03*
%TD*%
D24*
%TO.C,R1*%
X140425000Y-113000000D03*
X142075000Y-113000000D03*
%TD*%
D25*
%TO.C,U4*%
X205644572Y-100091465D03*
X206144571Y-100091465D03*
X206644572Y-100091465D03*
X207144572Y-100091465D03*
X207644573Y-100091465D03*
X208144572Y-100091465D03*
X208144572Y-95691463D03*
X207644573Y-95691463D03*
X207144572Y-95691463D03*
X206644572Y-95691463D03*
X206144571Y-95691463D03*
X205644572Y-95691463D03*
%TD*%
D26*
%TO.C,U1*%
X142000000Y-141275000D03*
X144000000Y-141275000D03*
X146000000Y-141275000D03*
X148000000Y-141275000D03*
X150000000Y-141275000D03*
X152000000Y-141275000D03*
X154000000Y-141275000D03*
X156000000Y-141275000D03*
X156000000Y-126225000D03*
X154000000Y-126225000D03*
X152000000Y-126225000D03*
X150000000Y-126225000D03*
X148000000Y-126225000D03*
X146000000Y-126225000D03*
X144000000Y-126225000D03*
X142000000Y-126225000D03*
%TD*%
D24*
%TO.C,R6*%
X224475000Y-128852500D03*
X226125000Y-128852500D03*
%TD*%
%TO.C,R18*%
X206125899Y-101985718D03*
X207775899Y-101985718D03*
%TD*%
D27*
%TO.C,J16*%
X203107112Y-84737287D03*
X202457112Y-84737287D03*
X201807112Y-84737287D03*
X201157112Y-84737287D03*
X200507112Y-84737287D03*
D28*
X205107112Y-82062287D03*
D29*
X205007112Y-84512287D03*
D30*
X203007112Y-82062287D03*
X200607112Y-82062287D03*
D29*
X198607112Y-84512287D03*
D28*
X198507112Y-82062287D03*
%TD*%
D11*
%TO.C,R14*%
X195000000Y-150575000D03*
X195000000Y-148925000D03*
%TD*%
D31*
%TO.C,C18*%
X202144572Y-93916464D03*
X202144572Y-96866464D03*
%TD*%
D32*
%TO.C,R13*%
X196750000Y-141425000D03*
X196750000Y-143075000D03*
%TD*%
%TO.C,R19*%
X207750899Y-103460718D03*
X207750899Y-105110718D03*
%TD*%
%TO.C,R16*%
X204550899Y-102660718D03*
X204550899Y-104310718D03*
%TD*%
D31*
%TO.C,C15*%
X198644572Y-93916464D03*
X198644572Y-96866464D03*
%TD*%
D33*
%TO.C,C8*%
X211250000Y-101725000D03*
X211250000Y-98775000D03*
%TD*%
D34*
%TO.C,C10*%
X207750000Y-117250000D03*
X206200000Y-117250000D03*
%TD*%
D32*
%TO.C,R11*%
X168400000Y-141375000D03*
X168400000Y-143025000D03*
%TD*%
D35*
%TO.C,C19*%
X206144572Y-105066464D03*
X206144572Y-103516464D03*
%TD*%
D36*
%TO.C,J2*%
X133070000Y-134000000D03*
D37*
X133070000Y-129620000D03*
X133070000Y-138380000D03*
%TD*%
D38*
%TO.C,C1*%
X152225000Y-113000000D03*
X153775000Y-113000000D03*
%TD*%
%TO.C,C2*%
X170975000Y-98000000D03*
X172525000Y-98000000D03*
%TD*%
D32*
%TO.C,R12*%
X196750000Y-148925000D03*
X196750000Y-150575000D03*
%TD*%
D21*
%TO.C,C13*%
X206000000Y-108450000D03*
X206000000Y-110000000D03*
%TD*%
D32*
%TO.C,R7*%
X169250000Y-105925000D03*
X169250000Y-107575000D03*
%TD*%
D39*
%TO.C,Y1*%
X159400000Y-109950000D03*
X161250000Y-109950000D03*
X161250000Y-108500000D03*
X159400000Y-108500000D03*
%TD*%
D38*
%TO.C,C6*%
X170975000Y-96250000D03*
X172525000Y-96250000D03*
%TD*%
D40*
%TO.C,C16*%
X198644572Y-101866464D03*
X198644572Y-98916464D03*
%TD*%
D41*
%TO.C,D1*%
X207750000Y-110037500D03*
X207750000Y-108462500D03*
%TD*%
D42*
%TO.C,C12*%
X201550000Y-117250000D03*
X204500000Y-117250000D03*
%TD*%
D21*
%TO.C,C3*%
X171500000Y-104225000D03*
X171500000Y-105775000D03*
%TD*%
D43*
%TO.C,SW2*%
X149050000Y-115500000D03*
X157000000Y-115500000D03*
X149050000Y-120000000D03*
X157000000Y-120000000D03*
%TD*%
D32*
%TO.C,R10*%
X168400000Y-148975000D03*
X168400000Y-150625000D03*
%TD*%
D34*
%TO.C,C4*%
X165775000Y-109500000D03*
X164225000Y-109500000D03*
%TD*%
D40*
%TO.C,C17*%
X202144572Y-101866464D03*
X202144572Y-98916464D03*
%TD*%
D38*
%TO.C,C7*%
X157725000Y-92250000D03*
X159275000Y-92250000D03*
%TD*%
D35*
%TO.C,C5*%
X154750000Y-106025000D03*
X154750000Y-104475000D03*
%TD*%
D11*
%TO.C,R8*%
X170200000Y-150625000D03*
X170200000Y-148975000D03*
%TD*%
D44*
%TO.C,Q1*%
X186400000Y-109250000D03*
X185100000Y-109250000D03*
X185750000Y-111250000D03*
%TD*%
D11*
%TO.C,R9*%
X170200000Y-143025000D03*
X170200000Y-141375000D03*
%TD*%
D24*
%TO.C,R3*%
X171425000Y-102000000D03*
X173075000Y-102000000D03*
%TD*%
D20*
%TO.C,R5*%
X153225000Y-100600000D03*
X151575000Y-100600000D03*
%TD*%
D45*
%TO.C,U2*%
X159250000Y-106425000D03*
X159750000Y-106425000D03*
X160250000Y-106425000D03*
X160750000Y-106425000D03*
X161250000Y-106425000D03*
X161750000Y-106425000D03*
X162250000Y-106425000D03*
X162750000Y-106425000D03*
X163250000Y-106425000D03*
X163750000Y-106425000D03*
X164250000Y-106425000D03*
X164750000Y-106425000D03*
X165250000Y-106425000D03*
X165750000Y-106425000D03*
X166250000Y-106425000D03*
X166750000Y-106425000D03*
D46*
X168675000Y-104500000D03*
X168675000Y-104000000D03*
X168675000Y-103500000D03*
X168675000Y-103000000D03*
X168675000Y-102500000D03*
X168675000Y-102000000D03*
X168675000Y-101500000D03*
X168675000Y-101000000D03*
X168675000Y-100500000D03*
X168675000Y-100000000D03*
X168675000Y-99500000D03*
X168675000Y-99000000D03*
X168675000Y-98500000D03*
X168675000Y-98000000D03*
X168675000Y-97500000D03*
X168675000Y-97000000D03*
D45*
X166750000Y-95075000D03*
X166250000Y-95075000D03*
X165750000Y-95075000D03*
X165250000Y-95075000D03*
X164750000Y-95075000D03*
X164250000Y-95075000D03*
X163750000Y-95075000D03*
X163250000Y-95075000D03*
X162750000Y-95075000D03*
X162250000Y-95075000D03*
X161750000Y-95075000D03*
X161250000Y-95075000D03*
X160750000Y-95075000D03*
X160250000Y-95075000D03*
X159750000Y-95075000D03*
X159250000Y-95075000D03*
D46*
X157325000Y-97000000D03*
X157325000Y-97500000D03*
X157325000Y-98000000D03*
X157325000Y-98500000D03*
X157325000Y-99000000D03*
X157325000Y-99500000D03*
X157325000Y-100000000D03*
X157325000Y-100500000D03*
X157325000Y-101000000D03*
X157325000Y-101500000D03*
X157325000Y-102000000D03*
X157325000Y-102500000D03*
X157325000Y-103000000D03*
X157325000Y-103500000D03*
X157325000Y-104000000D03*
X157325000Y-104500000D03*
%TD*%
D47*
%TO.C,C9*%
X211250000Y-94025000D03*
X211250000Y-96975000D03*
%TD*%
D35*
%TO.C,C11*%
X206000000Y-113250000D03*
X206000000Y-111700000D03*
%TD*%
D43*
%TO.C,SW1*%
X137275000Y-115500000D03*
X145225000Y-115500000D03*
X137275000Y-120000000D03*
X145225000Y-120000000D03*
%TD*%
D48*
%TO.C,Q2*%
X224425000Y-122797500D03*
X224425000Y-125847500D03*
X227775000Y-122797500D03*
X227775000Y-125847500D03*
D49*
X219800000Y-122042500D03*
X219800000Y-126602500D03*
%TD*%
M02*
