%TF.GenerationSoftware,KiCad,Pcbnew,9.0.5*%
%TF.CreationDate,2025-10-16T12:34:50-04:00*%
%TF.ProjectId,INFERNO,494e4645-524e-44f2-9e6b-696361645f70,rev?*%
%TF.SameCoordinates,Original*%
%TF.FileFunction,Legend,Top*%
%TF.FilePolarity,Positive*%
%FSLAX46Y46*%
G04 Gerber Fmt 4.6, Leading zero omitted, Abs format (unit mm)*
G04 Created by KiCad (PCBNEW 9.0.5) date 2025-10-16 12:34:50*
%MOMM*%
%LPD*%
G01*
G04 APERTURE LIST*
G04 Aperture macros list*
%AMRoundRect*
0 Rectangle with rounded corners*
0 $1 Rounding radius*
0 $2 $3 $4 $5 $6 $7 $8 $9 X,Y pos of 4 corners*
0 Add a 4 corners polygon primitive as box body*
4,1,4,$2,$3,$4,$5,$6,$7,$8,$9,$2,$3,0*
0 Add four circle primitives for the rounded corners*
1,1,$1+$1,$2,$3*
1,1,$1+$1,$4,$5*
1,1,$1+$1,$6,$7*
1,1,$1+$1,$8,$9*
0 Add four rect primitives between the rounded corners*
20,1,$1+$1,$2,$3,$4,$5,0*
20,1,$1+$1,$4,$5,$6,$7,0*
20,1,$1+$1,$6,$7,$8,$9,0*
20,1,$1+$1,$8,$9,$2,$3,0*%
G04 Aperture macros list end*
%ADD10C,0.300000*%
%ADD11C,0.200000*%
%ADD12C,0.400000*%
%ADD13C,0.250000*%
%ADD14C,0.150000*%
%ADD15C,0.120000*%
%ADD16C,0.127000*%
%ADD17C,0.000000*%
%ADD18RoundRect,0.200000X0.275000X-0.200000X0.275000X0.200000X-0.275000X0.200000X-0.275000X-0.200000X0*%
%ADD19RoundRect,0.250000X-0.600000X-0.725000X0.600000X-0.725000X0.600000X0.725000X-0.600000X0.725000X0*%
%ADD20O,1.700000X1.950000*%
%ADD21R,1.100000X0.850000*%
%ADD22R,1.100000X0.750000*%
%ADD23R,1.000000X1.200000*%
%ADD24R,1.350000X1.550000*%
%ADD25R,1.350000X1.900000*%
%ADD26R,1.800000X1.170000*%
%ADD27RoundRect,0.375000X-0.375000X0.625000X-0.375000X-0.625000X0.375000X-0.625000X0.375000X0.625000X0*%
%ADD28RoundRect,0.500000X-1.400000X0.500000X-1.400000X-0.500000X1.400000X-0.500000X1.400000X0.500000X0*%
%ADD29C,3.600000*%
%ADD30C,5.700000*%
%ADD31RoundRect,0.250000X1.050000X-1.050000X1.050000X1.050000X-1.050000X1.050000X-1.050000X-1.050000X0*%
%ADD32C,2.600000*%
%ADD33R,1.700000X1.700000*%
%ADD34C,1.700000*%
%ADD35RoundRect,0.200000X0.200000X0.275000X-0.200000X0.275000X-0.200000X-0.275000X0.200000X-0.275000X0*%
%ADD36RoundRect,0.225000X-0.250000X0.225000X-0.250000X-0.225000X0.250000X-0.225000X0.250000X0.225000X0*%
%ADD37RoundRect,0.375000X0.625000X0.375000X-0.625000X0.375000X-0.625000X-0.375000X0.625000X-0.375000X0*%
%ADD38RoundRect,0.500000X0.500000X1.400000X-0.500000X1.400000X-0.500000X-1.400000X0.500000X-1.400000X0*%
%ADD39RoundRect,0.200000X-0.200000X-0.275000X0.200000X-0.275000X0.200000X0.275000X-0.200000X0.275000X0*%
%ADD40C,0.573194*%
%ADD41R,0.249999X1.000000*%
%ADD42C,0.675000*%
%ADD43R,0.800001X1.599999*%
%ADD44RoundRect,0.317500X0.317500X-1.157500X0.317500X1.157500X-0.317500X1.157500X-0.317500X-1.157500X0*%
%ADD45RoundRect,0.100000X0.100000X0.575000X-0.100000X0.575000X-0.100000X-0.575000X0.100000X-0.575000X0*%
%ADD46O,0.900000X1.600000*%
%ADD47RoundRect,0.250000X0.550000X0.450000X-0.550000X0.450000X-0.550000X-0.450000X0.550000X-0.450000X0*%
%ADD48RoundRect,0.250000X0.700000X0.700000X-0.700000X0.700000X-0.700000X-0.700000X0.700000X-0.700000X0*%
%ADD49RoundRect,0.250000X-1.100000X0.325000X-1.100000X-0.325000X1.100000X-0.325000X1.100000X0.325000X0*%
%ADD50RoundRect,0.200000X-0.275000X0.200000X-0.275000X-0.200000X0.275000X-0.200000X0.275000X0.200000X0*%
%ADD51RoundRect,0.250000X0.650000X-0.325000X0.650000X0.325000X-0.650000X0.325000X-0.650000X-0.325000X0*%
%ADD52RoundRect,0.225000X0.225000X0.250000X-0.225000X0.250000X-0.225000X-0.250000X0.225000X-0.250000X0*%
%ADD53RoundRect,0.225000X0.250000X-0.225000X0.250000X0.225000X-0.250000X0.225000X-0.250000X-0.225000X0*%
%ADD54R,5.080000X2.290000*%
%ADD55R,5.080000X2.420000*%
%ADD56R,2.000000X2.000000*%
%ADD57C,2.000000*%
%ADD58RoundRect,0.225000X-0.225000X-0.250000X0.225000X-0.250000X0.225000X0.250000X-0.225000X0.250000X0*%
%ADD59RoundRect,0.200000X0.250000X-0.200000X0.250000X0.200000X-0.250000X0.200000X-0.250000X-0.200000X0*%
%ADD60RoundRect,0.250000X1.100000X-0.325000X1.100000X0.325000X-1.100000X0.325000X-1.100000X-0.325000X0*%
%ADD61RoundRect,0.218750X0.256250X-0.218750X0.256250X0.218750X-0.256250X0.218750X-0.256250X-0.218750X0*%
%ADD62RoundRect,0.250000X-0.325000X-0.650000X0.325000X-0.650000X0.325000X0.650000X-0.325000X0.650000X0*%
%ADD63R,1.550000X1.300000*%
%ADD64C,1.400000*%
%ADD65RoundRect,0.770000X-0.980000X0.980000X-0.980000X-0.980000X0.980000X-0.980000X0.980000X0.980000X0*%
%ADD66C,3.500000*%
%ADD67RoundRect,0.112500X0.112500X0.237500X-0.112500X0.237500X-0.112500X-0.237500X0.112500X-0.237500X0*%
%ADD68RoundRect,0.075000X0.075000X-0.700000X0.075000X0.700000X-0.075000X0.700000X-0.075000X-0.700000X0*%
%ADD69RoundRect,0.075000X0.700000X-0.075000X0.700000X0.075000X-0.700000X0.075000X-0.700000X-0.075000X0*%
%ADD70C,2.083600*%
%ADD71RoundRect,0.250000X-0.650000X0.325000X-0.650000X-0.325000X0.650000X-0.325000X0.650000X0.325000X0*%
%ADD72RoundRect,0.250000X-0.850000X-0.350000X0.850000X-0.350000X0.850000X0.350000X-0.850000X0.350000X0*%
%ADD73RoundRect,0.249997X-2.950003X-2.650003X2.950003X-2.650003X2.950003X2.650003X-2.950003X2.650003X0*%
G04 APERTURE END LIST*
D10*
G36*
X145727153Y-86210613D02*
G01*
X143956725Y-86210613D01*
X143956725Y-85296136D01*
X144123392Y-85296136D01*
X144123392Y-85354664D01*
X144145790Y-85408736D01*
X144187174Y-85450120D01*
X144241246Y-85472518D01*
X144270510Y-85475400D01*
X144691939Y-85475400D01*
X144691939Y-85896828D01*
X144694821Y-85926092D01*
X144717219Y-85980164D01*
X144758603Y-86021548D01*
X144812675Y-86043946D01*
X144871203Y-86043946D01*
X144925275Y-86021548D01*
X144966659Y-85980164D01*
X144989057Y-85926092D01*
X144991939Y-85896828D01*
X144991939Y-85475400D01*
X145413368Y-85475400D01*
X145442632Y-85472518D01*
X145496704Y-85450120D01*
X145538088Y-85408736D01*
X145560486Y-85354664D01*
X145560486Y-85296136D01*
X145538088Y-85242064D01*
X145496704Y-85200680D01*
X145442632Y-85178282D01*
X145413368Y-85175400D01*
X144991939Y-85175400D01*
X144991939Y-84753971D01*
X144989057Y-84724707D01*
X144966659Y-84670635D01*
X144925275Y-84629251D01*
X144871203Y-84606853D01*
X144812675Y-84606853D01*
X144758603Y-84629251D01*
X144717219Y-84670635D01*
X144694821Y-84724707D01*
X144691939Y-84753971D01*
X144691939Y-85175400D01*
X144270510Y-85175400D01*
X144241246Y-85178282D01*
X144187174Y-85200680D01*
X144145790Y-85242064D01*
X144123392Y-85296136D01*
X143956725Y-85296136D01*
X143956725Y-84440186D01*
X145727153Y-84440186D01*
X145727153Y-86210613D01*
G37*
G36*
X220403153Y-82654613D02*
G01*
X218632725Y-82654613D01*
X218632725Y-81740136D01*
X218799392Y-81740136D01*
X218799392Y-81798664D01*
X218821790Y-81852736D01*
X218863174Y-81894120D01*
X218917246Y-81916518D01*
X218946510Y-81919400D01*
X219367939Y-81919400D01*
X219367939Y-82340828D01*
X219370821Y-82370092D01*
X219393219Y-82424164D01*
X219434603Y-82465548D01*
X219488675Y-82487946D01*
X219547203Y-82487946D01*
X219601275Y-82465548D01*
X219642659Y-82424164D01*
X219665057Y-82370092D01*
X219667939Y-82340828D01*
X219667939Y-81919400D01*
X220089368Y-81919400D01*
X220118632Y-81916518D01*
X220172704Y-81894120D01*
X220214088Y-81852736D01*
X220236486Y-81798664D01*
X220236486Y-81740136D01*
X220214088Y-81686064D01*
X220172704Y-81644680D01*
X220118632Y-81622282D01*
X220089368Y-81619400D01*
X219667939Y-81619400D01*
X219667939Y-81197971D01*
X219665057Y-81168707D01*
X219642659Y-81114635D01*
X219601275Y-81073251D01*
X219547203Y-81050853D01*
X219488675Y-81050853D01*
X219434603Y-81073251D01*
X219393219Y-81114635D01*
X219370821Y-81168707D01*
X219367939Y-81197971D01*
X219367939Y-81619400D01*
X218946510Y-81619400D01*
X218917246Y-81622282D01*
X218863174Y-81644680D01*
X218821790Y-81686064D01*
X218799392Y-81740136D01*
X218632725Y-81740136D01*
X218632725Y-80884186D01*
X220403153Y-80884186D01*
X220403153Y-82654613D01*
G37*
G36*
X209735153Y-82654613D02*
G01*
X207964725Y-82654613D01*
X207964725Y-81740136D01*
X208131392Y-81740136D01*
X208131392Y-81798664D01*
X208153790Y-81852736D01*
X208195174Y-81894120D01*
X208249246Y-81916518D01*
X208278510Y-81919400D01*
X208699939Y-81919400D01*
X208699939Y-82340828D01*
X208702821Y-82370092D01*
X208725219Y-82424164D01*
X208766603Y-82465548D01*
X208820675Y-82487946D01*
X208879203Y-82487946D01*
X208933275Y-82465548D01*
X208974659Y-82424164D01*
X208997057Y-82370092D01*
X208999939Y-82340828D01*
X208999939Y-81919400D01*
X209421368Y-81919400D01*
X209450632Y-81916518D01*
X209504704Y-81894120D01*
X209546088Y-81852736D01*
X209568486Y-81798664D01*
X209568486Y-81740136D01*
X209546088Y-81686064D01*
X209504704Y-81644680D01*
X209450632Y-81622282D01*
X209421368Y-81619400D01*
X208999939Y-81619400D01*
X208999939Y-81197971D01*
X208997057Y-81168707D01*
X208974659Y-81114635D01*
X208933275Y-81073251D01*
X208879203Y-81050853D01*
X208820675Y-81050853D01*
X208766603Y-81073251D01*
X208725219Y-81114635D01*
X208702821Y-81168707D01*
X208699939Y-81197971D01*
X208699939Y-81619400D01*
X208278510Y-81619400D01*
X208249246Y-81622282D01*
X208195174Y-81644680D01*
X208153790Y-81686064D01*
X208131392Y-81740136D01*
X207964725Y-81740136D01*
X207964725Y-80884186D01*
X209735153Y-80884186D01*
X209735153Y-82654613D01*
G37*
D11*
X218560149Y-87585600D02*
X218731578Y-87642742D01*
X218731578Y-87642742D02*
X219017292Y-87642742D01*
X219017292Y-87642742D02*
X219131578Y-87585600D01*
X219131578Y-87585600D02*
X219188720Y-87528457D01*
X219188720Y-87528457D02*
X219245863Y-87414171D01*
X219245863Y-87414171D02*
X219245863Y-87299885D01*
X219245863Y-87299885D02*
X219188720Y-87185600D01*
X219188720Y-87185600D02*
X219131578Y-87128457D01*
X219131578Y-87128457D02*
X219017292Y-87071314D01*
X219017292Y-87071314D02*
X218788720Y-87014171D01*
X218788720Y-87014171D02*
X218674435Y-86957028D01*
X218674435Y-86957028D02*
X218617292Y-86899885D01*
X218617292Y-86899885D02*
X218560149Y-86785600D01*
X218560149Y-86785600D02*
X218560149Y-86671314D01*
X218560149Y-86671314D02*
X218617292Y-86557028D01*
X218617292Y-86557028D02*
X218674435Y-86499885D01*
X218674435Y-86499885D02*
X218788720Y-86442742D01*
X218788720Y-86442742D02*
X219074435Y-86442742D01*
X219074435Y-86442742D02*
X219245863Y-86499885D01*
X219703006Y-86557028D02*
X219760149Y-86499885D01*
X219760149Y-86499885D02*
X219874435Y-86442742D01*
X219874435Y-86442742D02*
X220160149Y-86442742D01*
X220160149Y-86442742D02*
X220274435Y-86499885D01*
X220274435Y-86499885D02*
X220331577Y-86557028D01*
X220331577Y-86557028D02*
X220388720Y-86671314D01*
X220388720Y-86671314D02*
X220388720Y-86785600D01*
X220388720Y-86785600D02*
X220331577Y-86957028D01*
X220331577Y-86957028D02*
X219645863Y-87642742D01*
X219645863Y-87642742D02*
X220388720Y-87642742D01*
X207960149Y-87585600D02*
X208131578Y-87642742D01*
X208131578Y-87642742D02*
X208417292Y-87642742D01*
X208417292Y-87642742D02*
X208531578Y-87585600D01*
X208531578Y-87585600D02*
X208588720Y-87528457D01*
X208588720Y-87528457D02*
X208645863Y-87414171D01*
X208645863Y-87414171D02*
X208645863Y-87299885D01*
X208645863Y-87299885D02*
X208588720Y-87185600D01*
X208588720Y-87185600D02*
X208531578Y-87128457D01*
X208531578Y-87128457D02*
X208417292Y-87071314D01*
X208417292Y-87071314D02*
X208188720Y-87014171D01*
X208188720Y-87014171D02*
X208074435Y-86957028D01*
X208074435Y-86957028D02*
X208017292Y-86899885D01*
X208017292Y-86899885D02*
X207960149Y-86785600D01*
X207960149Y-86785600D02*
X207960149Y-86671314D01*
X207960149Y-86671314D02*
X208017292Y-86557028D01*
X208017292Y-86557028D02*
X208074435Y-86499885D01*
X208074435Y-86499885D02*
X208188720Y-86442742D01*
X208188720Y-86442742D02*
X208474435Y-86442742D01*
X208474435Y-86442742D02*
X208645863Y-86499885D01*
X209788720Y-87642742D02*
X209103006Y-87642742D01*
X209445863Y-87642742D02*
X209445863Y-86442742D01*
X209445863Y-86442742D02*
X209331577Y-86614171D01*
X209331577Y-86614171D02*
X209217292Y-86728457D01*
X209217292Y-86728457D02*
X209103006Y-86785600D01*
D12*
G36*
X217401829Y-89394047D02*
G01*
X217530182Y-89522401D01*
X217606014Y-89825727D01*
X217606014Y-90443148D01*
X217530182Y-90746473D01*
X217401827Y-90874829D01*
X217282611Y-90934438D01*
X216996084Y-90934438D01*
X216876866Y-90874829D01*
X216748511Y-90746472D01*
X216672681Y-90443148D01*
X216672681Y-89825726D01*
X216748511Y-89522401D01*
X216876867Y-89394046D01*
X216996084Y-89334438D01*
X217282611Y-89334438D01*
X217401829Y-89394047D01*
G37*
G36*
X213687543Y-89394047D02*
G01*
X213736881Y-89443385D01*
X213796490Y-89562603D01*
X213796490Y-89753891D01*
X213736881Y-89873107D01*
X213687541Y-89922448D01*
X213568325Y-89982057D01*
X213053633Y-89982057D01*
X213053633Y-89334438D01*
X213568325Y-89334438D01*
X213687543Y-89394047D01*
G37*
G36*
X220132998Y-91556660D02*
G01*
X208621887Y-91556660D01*
X208621887Y-89515390D01*
X208844109Y-89515390D01*
X208844109Y-89705866D01*
X208847952Y-89744884D01*
X208850701Y-89751521D01*
X208851211Y-89758691D01*
X208865224Y-89795309D01*
X208960462Y-89985785D01*
X208971031Y-90002576D01*
X208973053Y-90007456D01*
X208977560Y-90012948D01*
X208981348Y-90018965D01*
X208985339Y-90022427D01*
X208997926Y-90037763D01*
X209093164Y-90133001D01*
X209108499Y-90145587D01*
X209111961Y-90149578D01*
X209117976Y-90153364D01*
X209123471Y-90157874D01*
X209128351Y-90159895D01*
X209145142Y-90170465D01*
X209335617Y-90265704D01*
X209338473Y-90266797D01*
X209339633Y-90267656D01*
X209356014Y-90273509D01*
X209372235Y-90279716D01*
X209373671Y-90279818D01*
X209376554Y-90280848D01*
X209736207Y-90370760D01*
X209878019Y-90441666D01*
X209927357Y-90491004D01*
X209986966Y-90610222D01*
X209986966Y-90706272D01*
X209927357Y-90825488D01*
X209878017Y-90874829D01*
X209758801Y-90934438D01*
X209362280Y-90934438D01*
X209107355Y-90849463D01*
X209069124Y-90840771D01*
X208991284Y-90846302D01*
X208921486Y-90881201D01*
X208870357Y-90940154D01*
X208845680Y-91014185D01*
X208851211Y-91092025D01*
X208886110Y-91161823D01*
X208945063Y-91212952D01*
X208980863Y-91228937D01*
X209266577Y-91324175D01*
X209285926Y-91328574D01*
X209290805Y-91330595D01*
X209297879Y-91331291D01*
X209304808Y-91332867D01*
X209310073Y-91332492D01*
X209329823Y-91334438D01*
X209806014Y-91334438D01*
X209845032Y-91330595D01*
X209851669Y-91327845D01*
X209858839Y-91327336D01*
X209895457Y-91313323D01*
X210085933Y-91218085D01*
X210102726Y-91207513D01*
X210107605Y-91205493D01*
X210113096Y-91200986D01*
X210119113Y-91197199D01*
X210122574Y-91193208D01*
X210137912Y-91180621D01*
X210233150Y-91085381D01*
X210245736Y-91070045D01*
X210249727Y-91066584D01*
X210253513Y-91060568D01*
X210258023Y-91055074D01*
X210260044Y-91050192D01*
X210270613Y-91033404D01*
X210365852Y-90842927D01*
X210379864Y-90806310D01*
X210380373Y-90799140D01*
X210383123Y-90792503D01*
X210386966Y-90753485D01*
X210386966Y-90563009D01*
X210383123Y-90523991D01*
X210380373Y-90517353D01*
X210379864Y-90510184D01*
X210365852Y-90473567D01*
X210270613Y-90283090D01*
X210260043Y-90266298D01*
X210258022Y-90261419D01*
X210253514Y-90255926D01*
X210249727Y-90249910D01*
X210245735Y-90246448D01*
X210233149Y-90231112D01*
X210137911Y-90135874D01*
X210122575Y-90123287D01*
X210119113Y-90119296D01*
X210113096Y-90115508D01*
X210107604Y-90111001D01*
X210102724Y-90108979D01*
X210085933Y-90098410D01*
X209895457Y-90003172D01*
X209892601Y-90002079D01*
X209891442Y-90001220D01*
X209875067Y-89995369D01*
X209858839Y-89989159D01*
X209857400Y-89989056D01*
X209854521Y-89988028D01*
X209494864Y-89898114D01*
X209353056Y-89827209D01*
X209303718Y-89777871D01*
X209244109Y-89658652D01*
X209244109Y-89562603D01*
X209303718Y-89443384D01*
X209353056Y-89394047D01*
X209472274Y-89334438D01*
X209868795Y-89334438D01*
X210123720Y-89419413D01*
X210161951Y-89428105D01*
X210239791Y-89422574D01*
X210309589Y-89387675D01*
X210360718Y-89328722D01*
X210385395Y-89254691D01*
X210379864Y-89176851D01*
X210358657Y-89134438D01*
X210844109Y-89134438D01*
X210844109Y-91134438D01*
X210847952Y-91173456D01*
X210877815Y-91245552D01*
X210932995Y-91300732D01*
X211005091Y-91330595D01*
X211044109Y-91334438D01*
X211996490Y-91334438D01*
X212035508Y-91330595D01*
X212107604Y-91300732D01*
X212162784Y-91245552D01*
X212192647Y-91173456D01*
X212192647Y-91095420D01*
X212162784Y-91023324D01*
X212107604Y-90968144D01*
X212035508Y-90938281D01*
X211996490Y-90934438D01*
X211244109Y-90934438D01*
X211244109Y-90286819D01*
X211710776Y-90286819D01*
X211749794Y-90282976D01*
X211821890Y-90253113D01*
X211877070Y-90197933D01*
X211906933Y-90125837D01*
X211906933Y-90047801D01*
X211877070Y-89975705D01*
X211821890Y-89920525D01*
X211749794Y-89890662D01*
X211710776Y-89886819D01*
X211244109Y-89886819D01*
X211244109Y-89334438D01*
X211996490Y-89334438D01*
X212035508Y-89330595D01*
X212107604Y-89300732D01*
X212162784Y-89245552D01*
X212192647Y-89173456D01*
X212192647Y-89134438D01*
X212653633Y-89134438D01*
X212653633Y-91134438D01*
X212657476Y-91173456D01*
X212687339Y-91245552D01*
X212742519Y-91300732D01*
X212814615Y-91330595D01*
X212892651Y-91330595D01*
X212964747Y-91300732D01*
X213019927Y-91245552D01*
X213049790Y-91173456D01*
X213053633Y-91134438D01*
X213053633Y-90382057D01*
X213225692Y-90382057D01*
X213832643Y-91249130D01*
X213858167Y-91278891D01*
X213923976Y-91320829D01*
X214000825Y-91334391D01*
X214077014Y-91317511D01*
X214140943Y-91272760D01*
X214182881Y-91206951D01*
X214196443Y-91130102D01*
X214179563Y-91053914D01*
X214160336Y-91019745D01*
X213700400Y-90362694D01*
X213704981Y-90360942D01*
X213895457Y-90265704D01*
X213912250Y-90255132D01*
X213917129Y-90253112D01*
X213922620Y-90248605D01*
X213928637Y-90244818D01*
X213932098Y-90240827D01*
X213947436Y-90228240D01*
X214042674Y-90133000D01*
X214055260Y-90117664D01*
X214059251Y-90114203D01*
X214063037Y-90108187D01*
X214067547Y-90102693D01*
X214069568Y-90097811D01*
X214080137Y-90081023D01*
X214175376Y-89890546D01*
X214189388Y-89853929D01*
X214189897Y-89846759D01*
X214192647Y-89840122D01*
X214196490Y-89801104D01*
X214196490Y-89515390D01*
X214192647Y-89476372D01*
X214189897Y-89469734D01*
X214189388Y-89462565D01*
X214175376Y-89425948D01*
X214080137Y-89235471D01*
X214069567Y-89218679D01*
X214067546Y-89213800D01*
X214063038Y-89208307D01*
X214059251Y-89202291D01*
X214055259Y-89198829D01*
X214042673Y-89183493D01*
X214018633Y-89159453D01*
X214369490Y-89159453D01*
X214378182Y-89197683D01*
X215044848Y-91197684D01*
X215060833Y-91233484D01*
X215070194Y-91244278D01*
X215076586Y-91257061D01*
X215095531Y-91273491D01*
X215111962Y-91292437D01*
X215124744Y-91298828D01*
X215135539Y-91308190D01*
X215159326Y-91316119D01*
X215181760Y-91327336D01*
X215196016Y-91328349D01*
X215209570Y-91332867D01*
X215234580Y-91331089D01*
X215259600Y-91332868D01*
X215273157Y-91328348D01*
X215287410Y-91327336D01*
X215309842Y-91316119D01*
X215333631Y-91308190D01*
X215344425Y-91298828D01*
X215357208Y-91292437D01*
X215373638Y-91273491D01*
X215392584Y-91257061D01*
X215398975Y-91244278D01*
X215408337Y-91233484D01*
X215424322Y-91197684D01*
X215889849Y-89801104D01*
X216272681Y-89801104D01*
X216272681Y-90467771D01*
X216273351Y-90474579D01*
X216272918Y-90477493D01*
X216275076Y-90492094D01*
X216276524Y-90506789D01*
X216277651Y-90509511D01*
X216278652Y-90516278D01*
X216373890Y-90897230D01*
X216387082Y-90934151D01*
X216395934Y-90946098D01*
X216401625Y-90959837D01*
X216426497Y-90990144D01*
X216616973Y-91180621D01*
X216632311Y-91193208D01*
X216635772Y-91197199D01*
X216641788Y-91200986D01*
X216647280Y-91205493D01*
X216652158Y-91207513D01*
X216668952Y-91218085D01*
X216859429Y-91313324D01*
X216896046Y-91327336D01*
X216903215Y-91327845D01*
X216909853Y-91330595D01*
X216948871Y-91334438D01*
X217329824Y-91334438D01*
X217368842Y-91330595D01*
X217375479Y-91327845D01*
X217382649Y-91327336D01*
X217419267Y-91313323D01*
X217609743Y-91218085D01*
X217626534Y-91207515D01*
X217631414Y-91205494D01*
X217636907Y-91200985D01*
X217642923Y-91197199D01*
X217646383Y-91193208D01*
X217661722Y-91180621D01*
X217852197Y-90990144D01*
X217877070Y-90959837D01*
X217882760Y-90946098D01*
X217891613Y-90934151D01*
X217904805Y-90897230D01*
X218000042Y-90516278D01*
X218001042Y-90509514D01*
X218002171Y-90506789D01*
X218003619Y-90492086D01*
X218005777Y-90477493D01*
X218005343Y-90474579D01*
X218006014Y-90467771D01*
X218006014Y-89801104D01*
X218005343Y-89794295D01*
X218005777Y-89791382D01*
X218003619Y-89776788D01*
X218002171Y-89762086D01*
X218001042Y-89759360D01*
X218000042Y-89752597D01*
X217940741Y-89515390D01*
X218367919Y-89515390D01*
X218367919Y-89705866D01*
X218371762Y-89744884D01*
X218374511Y-89751521D01*
X218375021Y-89758691D01*
X218389034Y-89795309D01*
X218484272Y-89985785D01*
X218494841Y-90002576D01*
X218496863Y-90007456D01*
X218501370Y-90012948D01*
X218505158Y-90018965D01*
X218509149Y-90022427D01*
X218521736Y-90037763D01*
X218616974Y-90133001D01*
X218632309Y-90145587D01*
X218635771Y-90149578D01*
X218641786Y-90153364D01*
X218647281Y-90157874D01*
X218652161Y-90159895D01*
X218668952Y-90170465D01*
X218859427Y-90265704D01*
X218862283Y-90266797D01*
X218863443Y-90267656D01*
X218879824Y-90273509D01*
X218896045Y-90279716D01*
X218897481Y-90279818D01*
X218900364Y-90280848D01*
X219260017Y-90370760D01*
X219401829Y-90441666D01*
X219451167Y-90491004D01*
X219510776Y-90610222D01*
X219510776Y-90706272D01*
X219451167Y-90825488D01*
X219401827Y-90874829D01*
X219282611Y-90934438D01*
X218886090Y-90934438D01*
X218631165Y-90849463D01*
X218592934Y-90840771D01*
X218515094Y-90846302D01*
X218445296Y-90881201D01*
X218394167Y-90940154D01*
X218369490Y-91014185D01*
X218375021Y-91092025D01*
X218409920Y-91161823D01*
X218468873Y-91212952D01*
X218504673Y-91228937D01*
X218790387Y-91324175D01*
X218809736Y-91328574D01*
X218814615Y-91330595D01*
X218821689Y-91331291D01*
X218828618Y-91332867D01*
X218833883Y-91332492D01*
X218853633Y-91334438D01*
X219329824Y-91334438D01*
X219368842Y-91330595D01*
X219375479Y-91327845D01*
X219382649Y-91327336D01*
X219419267Y-91313323D01*
X219609743Y-91218085D01*
X219626536Y-91207513D01*
X219631415Y-91205493D01*
X219636906Y-91200986D01*
X219642923Y-91197199D01*
X219646384Y-91193208D01*
X219661722Y-91180621D01*
X219756960Y-91085381D01*
X219769546Y-91070045D01*
X219773537Y-91066584D01*
X219777323Y-91060568D01*
X219781833Y-91055074D01*
X219783854Y-91050192D01*
X219794423Y-91033404D01*
X219889662Y-90842927D01*
X219903674Y-90806310D01*
X219904183Y-90799140D01*
X219906933Y-90792503D01*
X219910776Y-90753485D01*
X219910776Y-90563009D01*
X219906933Y-90523991D01*
X219904183Y-90517353D01*
X219903674Y-90510184D01*
X219889662Y-90473567D01*
X219794423Y-90283090D01*
X219783853Y-90266298D01*
X219781832Y-90261419D01*
X219777324Y-90255926D01*
X219773537Y-90249910D01*
X219769545Y-90246448D01*
X219756959Y-90231112D01*
X219661721Y-90135874D01*
X219646385Y-90123287D01*
X219642923Y-90119296D01*
X219636906Y-90115508D01*
X219631414Y-90111001D01*
X219626534Y-90108979D01*
X219609743Y-90098410D01*
X219419267Y-90003172D01*
X219416411Y-90002079D01*
X219415252Y-90001220D01*
X219398877Y-89995369D01*
X219382649Y-89989159D01*
X219381210Y-89989056D01*
X219378331Y-89988028D01*
X219018674Y-89898114D01*
X218876866Y-89827209D01*
X218827528Y-89777871D01*
X218767919Y-89658652D01*
X218767919Y-89562603D01*
X218827528Y-89443384D01*
X218876866Y-89394047D01*
X218996084Y-89334438D01*
X219392605Y-89334438D01*
X219647530Y-89419413D01*
X219685761Y-89428105D01*
X219763601Y-89422574D01*
X219833399Y-89387675D01*
X219884528Y-89328722D01*
X219909205Y-89254691D01*
X219903674Y-89176851D01*
X219868775Y-89107053D01*
X219809822Y-89055924D01*
X219774022Y-89039939D01*
X219488308Y-88944701D01*
X219468958Y-88940301D01*
X219464080Y-88938281D01*
X219457005Y-88937584D01*
X219450077Y-88936009D01*
X219444811Y-88936383D01*
X219425062Y-88934438D01*
X218948871Y-88934438D01*
X218909853Y-88938281D01*
X218903215Y-88941030D01*
X218896046Y-88941540D01*
X218859429Y-88955552D01*
X218668952Y-89050791D01*
X218652160Y-89061360D01*
X218647281Y-89063382D01*
X218641788Y-89067889D01*
X218635772Y-89071677D01*
X218632310Y-89075668D01*
X218616974Y-89088255D01*
X218521736Y-89183493D01*
X218509149Y-89198828D01*
X218505158Y-89202291D01*
X218501370Y-89208307D01*
X218496863Y-89213800D01*
X218494841Y-89218679D01*
X218484272Y-89235471D01*
X218389034Y-89425947D01*
X218375021Y-89462565D01*
X218374511Y-89469734D01*
X218371762Y-89476372D01*
X218367919Y-89515390D01*
X217940741Y-89515390D01*
X217904805Y-89371645D01*
X217891613Y-89334724D01*
X217882760Y-89322776D01*
X217877070Y-89309038D01*
X217852198Y-89278731D01*
X217661721Y-89088255D01*
X217646385Y-89075668D01*
X217642923Y-89071677D01*
X217636906Y-89067889D01*
X217631414Y-89063382D01*
X217626534Y-89061360D01*
X217609743Y-89050791D01*
X217419267Y-88955553D01*
X217382649Y-88941540D01*
X217375479Y-88941030D01*
X217368842Y-88938281D01*
X217329824Y-88934438D01*
X216948871Y-88934438D01*
X216909853Y-88938281D01*
X216903215Y-88941030D01*
X216896046Y-88941540D01*
X216859429Y-88955552D01*
X216668952Y-89050791D01*
X216652160Y-89061360D01*
X216647281Y-89063382D01*
X216641787Y-89067890D01*
X216635772Y-89071677D01*
X216632311Y-89075666D01*
X216616974Y-89088254D01*
X216426498Y-89278731D01*
X216401625Y-89309038D01*
X216395934Y-89322776D01*
X216387082Y-89334724D01*
X216373890Y-89371645D01*
X216278652Y-89752597D01*
X216277651Y-89759363D01*
X216276524Y-89762086D01*
X216275076Y-89776780D01*
X216272918Y-89791382D01*
X216273351Y-89794295D01*
X216272681Y-89801104D01*
X215889849Y-89801104D01*
X216090989Y-89197684D01*
X216099681Y-89159453D01*
X216094150Y-89081613D01*
X216059251Y-89011815D01*
X216000298Y-88960686D01*
X215926267Y-88936009D01*
X215848427Y-88941541D01*
X215778629Y-88976439D01*
X215727500Y-89035392D01*
X215711515Y-89071193D01*
X215234585Y-90501981D01*
X214757656Y-89071193D01*
X214741671Y-89035392D01*
X214690542Y-88976439D01*
X214620744Y-88941540D01*
X214542904Y-88936009D01*
X214468873Y-88960686D01*
X214409920Y-89011815D01*
X214375021Y-89081613D01*
X214369490Y-89159453D01*
X214018633Y-89159453D01*
X213947435Y-89088255D01*
X213932099Y-89075668D01*
X213928637Y-89071677D01*
X213922620Y-89067889D01*
X213917128Y-89063382D01*
X213912248Y-89061360D01*
X213895457Y-89050791D01*
X213704981Y-88955553D01*
X213668363Y-88941540D01*
X213661193Y-88941030D01*
X213654556Y-88938281D01*
X213615538Y-88934438D01*
X212853633Y-88934438D01*
X212814615Y-88938281D01*
X212742519Y-88968144D01*
X212687339Y-89023324D01*
X212657476Y-89095420D01*
X212653633Y-89134438D01*
X212192647Y-89134438D01*
X212192647Y-89095420D01*
X212162784Y-89023324D01*
X212107604Y-88968144D01*
X212035508Y-88938281D01*
X211996490Y-88934438D01*
X211044109Y-88934438D01*
X211005091Y-88938281D01*
X210932995Y-88968144D01*
X210877815Y-89023324D01*
X210847952Y-89095420D01*
X210844109Y-89134438D01*
X210358657Y-89134438D01*
X210344965Y-89107053D01*
X210286012Y-89055924D01*
X210250212Y-89039939D01*
X209964498Y-88944701D01*
X209945148Y-88940301D01*
X209940270Y-88938281D01*
X209933195Y-88937584D01*
X209926267Y-88936009D01*
X209921001Y-88936383D01*
X209901252Y-88934438D01*
X209425061Y-88934438D01*
X209386043Y-88938281D01*
X209379405Y-88941030D01*
X209372236Y-88941540D01*
X209335619Y-88955552D01*
X209145142Y-89050791D01*
X209128350Y-89061360D01*
X209123471Y-89063382D01*
X209117978Y-89067889D01*
X209111962Y-89071677D01*
X209108500Y-89075668D01*
X209093164Y-89088255D01*
X208997926Y-89183493D01*
X208985339Y-89198828D01*
X208981348Y-89202291D01*
X208977560Y-89208307D01*
X208973053Y-89213800D01*
X208971031Y-89218679D01*
X208960462Y-89235471D01*
X208865224Y-89425947D01*
X208851211Y-89462565D01*
X208850701Y-89469734D01*
X208847952Y-89476372D01*
X208844109Y-89515390D01*
X208621887Y-89515390D01*
X208621887Y-88712216D01*
X220132998Y-88712216D01*
X220132998Y-91556660D01*
G37*
G36*
X217373108Y-115461404D02*
G01*
X217422448Y-115510742D01*
X217482057Y-115629960D01*
X217482057Y-116144652D01*
X216834438Y-116144652D01*
X216834438Y-115629960D01*
X216894047Y-115510741D01*
X216943385Y-115461404D01*
X217062603Y-115401795D01*
X217253891Y-115401795D01*
X217373108Y-115461404D01*
G37*
G36*
X217373108Y-111747118D02*
G01*
X217422448Y-111796456D01*
X217482057Y-111915674D01*
X217482057Y-112430366D01*
X216834438Y-112430366D01*
X216834438Y-111915674D01*
X216894047Y-111796455D01*
X216943385Y-111747118D01*
X217062603Y-111687509D01*
X217253891Y-111687509D01*
X217373108Y-111747118D01*
G37*
G36*
X218246472Y-109668101D02*
G01*
X218374829Y-109796456D01*
X218434438Y-109915674D01*
X218434438Y-110202201D01*
X218374829Y-110321418D01*
X218246472Y-110449773D01*
X217943148Y-110525604D01*
X217325727Y-110525604D01*
X217022401Y-110449772D01*
X216894047Y-110321419D01*
X216834438Y-110202200D01*
X216834438Y-109915674D01*
X216894047Y-109796455D01*
X217022401Y-109668102D01*
X217325727Y-109592271D01*
X217943148Y-109592271D01*
X218246472Y-109668101D01*
G37*
G36*
X219056660Y-116766874D02*
G01*
X216212216Y-116766874D01*
X216212216Y-115582747D01*
X216434438Y-115582747D01*
X216434438Y-116344652D01*
X216438281Y-116383670D01*
X216468144Y-116455766D01*
X216523324Y-116510946D01*
X216595420Y-116540809D01*
X216634438Y-116544652D01*
X218634438Y-116544652D01*
X218673456Y-116540809D01*
X218745552Y-116510946D01*
X218800732Y-116455766D01*
X218830595Y-116383670D01*
X218830595Y-116305634D01*
X218800732Y-116233538D01*
X218745552Y-116178358D01*
X218673456Y-116148495D01*
X218634438Y-116144652D01*
X217882057Y-116144652D01*
X217882057Y-115582747D01*
X217878214Y-115543729D01*
X217875464Y-115537091D01*
X217874955Y-115529922D01*
X217860943Y-115493305D01*
X217765704Y-115302828D01*
X217755135Y-115286038D01*
X217753113Y-115281156D01*
X217748602Y-115275659D01*
X217744818Y-115269648D01*
X217740829Y-115266188D01*
X217728240Y-115250849D01*
X217633001Y-115155611D01*
X217617664Y-115143025D01*
X217614203Y-115139034D01*
X217608184Y-115135245D01*
X217602693Y-115130739D01*
X217597816Y-115128719D01*
X217581023Y-115118148D01*
X217390547Y-115022910D01*
X217353929Y-115008897D01*
X217346759Y-115008387D01*
X217340122Y-115005638D01*
X217301104Y-115001795D01*
X217015390Y-115001795D01*
X216976372Y-115005638D01*
X216969734Y-115008387D01*
X216962565Y-115008897D01*
X216925948Y-115022909D01*
X216735471Y-115118148D01*
X216718679Y-115128717D01*
X216713800Y-115130739D01*
X216708307Y-115135246D01*
X216702291Y-115139034D01*
X216698829Y-115143025D01*
X216683493Y-115155612D01*
X216588255Y-115250850D01*
X216575668Y-115266185D01*
X216571677Y-115269648D01*
X216567889Y-115275664D01*
X216563382Y-115281157D01*
X216561360Y-115286036D01*
X216550791Y-115302828D01*
X216455553Y-115493304D01*
X216441540Y-115529922D01*
X216441030Y-115537091D01*
X216438281Y-115543729D01*
X216434438Y-115582747D01*
X216212216Y-115582747D01*
X216212216Y-113301496D01*
X216434488Y-113301496D01*
X216451416Y-113377674D01*
X216496208Y-113441575D01*
X216527063Y-113465765D01*
X217309531Y-113963699D01*
X216527063Y-114461634D01*
X216496208Y-114485824D01*
X216451416Y-114549724D01*
X216434488Y-114625902D01*
X216448000Y-114702760D01*
X216489896Y-114768596D01*
X216553796Y-114813388D01*
X216629974Y-114830316D01*
X216706832Y-114816804D01*
X216741813Y-114799098D01*
X217740298Y-114163700D01*
X218634438Y-114163700D01*
X218673456Y-114159857D01*
X218745552Y-114129994D01*
X218800732Y-114074814D01*
X218830595Y-114002718D01*
X218830595Y-113924682D01*
X218800732Y-113852586D01*
X218745552Y-113797406D01*
X218673456Y-113767543D01*
X218634438Y-113763700D01*
X217740297Y-113763700D01*
X216741813Y-113128301D01*
X216706832Y-113110595D01*
X216629975Y-113097083D01*
X216553797Y-113114011D01*
X216489896Y-113158803D01*
X216448000Y-113224639D01*
X216434488Y-113301496D01*
X216212216Y-113301496D01*
X216212216Y-111868461D01*
X216434438Y-111868461D01*
X216434438Y-112630366D01*
X216438281Y-112669384D01*
X216468144Y-112741480D01*
X216523324Y-112796660D01*
X216595420Y-112826523D01*
X216634438Y-112830366D01*
X218634438Y-112830366D01*
X218673456Y-112826523D01*
X218745552Y-112796660D01*
X218800732Y-112741480D01*
X218830595Y-112669384D01*
X218830595Y-112591348D01*
X218800732Y-112519252D01*
X218745552Y-112464072D01*
X218673456Y-112434209D01*
X218634438Y-112430366D01*
X217882057Y-112430366D01*
X217882057Y-112258307D01*
X218749130Y-111651356D01*
X218778891Y-111625832D01*
X218820829Y-111560023D01*
X218834391Y-111483174D01*
X218817511Y-111406985D01*
X218772760Y-111343056D01*
X218706951Y-111301118D01*
X218630102Y-111287556D01*
X218553914Y-111304436D01*
X218519745Y-111323663D01*
X217862695Y-111783598D01*
X217860943Y-111779019D01*
X217765704Y-111588542D01*
X217755135Y-111571752D01*
X217753113Y-111566870D01*
X217748602Y-111561373D01*
X217744818Y-111555362D01*
X217740829Y-111551902D01*
X217728240Y-111536563D01*
X217633001Y-111441325D01*
X217617664Y-111428739D01*
X217614203Y-111424748D01*
X217608184Y-111420959D01*
X217602693Y-111416453D01*
X217597816Y-111414433D01*
X217581023Y-111403862D01*
X217390547Y-111308624D01*
X217353929Y-111294611D01*
X217346759Y-111294101D01*
X217340122Y-111291352D01*
X217301104Y-111287509D01*
X217015390Y-111287509D01*
X216976372Y-111291352D01*
X216969734Y-111294101D01*
X216962565Y-111294611D01*
X216925948Y-111308623D01*
X216735471Y-111403862D01*
X216718679Y-111414431D01*
X216713800Y-111416453D01*
X216708307Y-111420960D01*
X216702291Y-111424748D01*
X216698829Y-111428739D01*
X216683493Y-111441326D01*
X216588255Y-111536564D01*
X216575668Y-111551899D01*
X216571677Y-111555362D01*
X216567889Y-111561378D01*
X216563382Y-111566871D01*
X216561360Y-111571750D01*
X216550791Y-111588542D01*
X216455553Y-111779018D01*
X216441540Y-111815636D01*
X216441030Y-111822805D01*
X216438281Y-111829443D01*
X216434438Y-111868461D01*
X216212216Y-111868461D01*
X216212216Y-109868461D01*
X216434438Y-109868461D01*
X216434438Y-110249414D01*
X216438281Y-110288432D01*
X216441030Y-110295069D01*
X216441540Y-110302239D01*
X216455553Y-110338857D01*
X216550791Y-110529333D01*
X216561360Y-110546124D01*
X216563382Y-110551004D01*
X216567889Y-110556496D01*
X216571677Y-110562513D01*
X216575668Y-110565975D01*
X216588255Y-110581311D01*
X216778731Y-110771788D01*
X216809038Y-110796660D01*
X216822776Y-110802350D01*
X216834724Y-110811203D01*
X216871645Y-110824395D01*
X217252597Y-110919632D01*
X217259360Y-110920632D01*
X217262086Y-110921761D01*
X217276788Y-110923209D01*
X217291382Y-110925367D01*
X217294295Y-110924933D01*
X217301104Y-110925604D01*
X217967771Y-110925604D01*
X217974579Y-110924933D01*
X217977493Y-110925367D01*
X217992094Y-110923208D01*
X218006789Y-110921761D01*
X218009511Y-110920633D01*
X218016278Y-110919633D01*
X218397230Y-110824395D01*
X218434151Y-110811203D01*
X218446098Y-110802350D01*
X218459837Y-110796660D01*
X218490144Y-110771788D01*
X218680621Y-110581312D01*
X218693208Y-110565973D01*
X218697199Y-110562513D01*
X218700986Y-110556496D01*
X218705493Y-110551005D01*
X218707513Y-110546126D01*
X218718085Y-110529333D01*
X218813324Y-110338856D01*
X218827336Y-110302239D01*
X218827845Y-110295069D01*
X218830595Y-110288432D01*
X218834438Y-110249414D01*
X218834438Y-109868461D01*
X218830595Y-109829443D01*
X218827845Y-109822805D01*
X218827336Y-109815636D01*
X218813324Y-109779019D01*
X218718085Y-109588542D01*
X218707513Y-109571748D01*
X218705493Y-109566870D01*
X218700986Y-109561378D01*
X218697199Y-109555362D01*
X218693208Y-109551901D01*
X218680621Y-109536563D01*
X218490144Y-109346087D01*
X218459837Y-109321215D01*
X218446098Y-109315524D01*
X218434151Y-109306672D01*
X218397230Y-109293480D01*
X218016278Y-109198242D01*
X218009511Y-109197241D01*
X218006789Y-109196114D01*
X217992094Y-109194666D01*
X217977493Y-109192508D01*
X217974579Y-109192941D01*
X217967771Y-109192271D01*
X217301104Y-109192271D01*
X217294295Y-109192941D01*
X217291382Y-109192508D01*
X217276788Y-109194665D01*
X217262086Y-109196114D01*
X217259360Y-109197242D01*
X217252597Y-109198243D01*
X216871645Y-109293480D01*
X216834724Y-109306672D01*
X216822776Y-109315524D01*
X216809038Y-109321215D01*
X216778731Y-109346087D01*
X216588255Y-109536564D01*
X216575668Y-109551899D01*
X216571677Y-109555362D01*
X216567889Y-109561378D01*
X216563382Y-109566871D01*
X216561360Y-109571750D01*
X216550791Y-109588542D01*
X216455553Y-109779018D01*
X216441540Y-109815636D01*
X216441030Y-109822805D01*
X216438281Y-109829443D01*
X216434438Y-109868461D01*
X216212216Y-109868461D01*
X216212216Y-108970049D01*
X219056660Y-108970049D01*
X219056660Y-116766874D01*
G37*
D11*
X141156720Y-149592600D02*
X142299578Y-149592600D01*
X141728149Y-150164028D02*
X141728149Y-149021171D01*
X142942435Y-149735457D02*
X143656721Y-149735457D01*
X142799578Y-150164028D02*
X143299578Y-148664028D01*
X143299578Y-148664028D02*
X143799578Y-150164028D01*
X146998720Y-149592600D02*
X148141578Y-149592600D01*
X147570149Y-150164028D02*
X147570149Y-149021171D01*
X150670742Y-149940707D02*
X149470742Y-149940707D01*
X149470742Y-149940707D02*
X149470742Y-149483564D01*
X149470742Y-149483564D02*
X149527885Y-149369279D01*
X149527885Y-149369279D02*
X149585028Y-149312136D01*
X149585028Y-149312136D02*
X149699314Y-149254993D01*
X149699314Y-149254993D02*
X149870742Y-149254993D01*
X149870742Y-149254993D02*
X149985028Y-149312136D01*
X149985028Y-149312136D02*
X150042171Y-149369279D01*
X150042171Y-149369279D02*
X150099314Y-149483564D01*
X150099314Y-149483564D02*
X150099314Y-149940707D01*
X150556457Y-148054993D02*
X150613600Y-148112136D01*
X150613600Y-148112136D02*
X150670742Y-148283564D01*
X150670742Y-148283564D02*
X150670742Y-148397850D01*
X150670742Y-148397850D02*
X150613600Y-148569279D01*
X150613600Y-148569279D02*
X150499314Y-148683564D01*
X150499314Y-148683564D02*
X150385028Y-148740707D01*
X150385028Y-148740707D02*
X150156457Y-148797850D01*
X150156457Y-148797850D02*
X149985028Y-148797850D01*
X149985028Y-148797850D02*
X149756457Y-148740707D01*
X149756457Y-148740707D02*
X149642171Y-148683564D01*
X149642171Y-148683564D02*
X149527885Y-148569279D01*
X149527885Y-148569279D02*
X149470742Y-148397850D01*
X149470742Y-148397850D02*
X149470742Y-148283564D01*
X149470742Y-148283564D02*
X149527885Y-148112136D01*
X149527885Y-148112136D02*
X149585028Y-148054993D01*
X149870742Y-147026422D02*
X150670742Y-147026422D01*
X149413600Y-147312136D02*
X150270742Y-147597850D01*
X150270742Y-147597850D02*
X150270742Y-146854993D01*
X153210742Y-149940707D02*
X152010742Y-149940707D01*
X152010742Y-149940707D02*
X152010742Y-149483564D01*
X152010742Y-149483564D02*
X152067885Y-149369279D01*
X152067885Y-149369279D02*
X152125028Y-149312136D01*
X152125028Y-149312136D02*
X152239314Y-149254993D01*
X152239314Y-149254993D02*
X152410742Y-149254993D01*
X152410742Y-149254993D02*
X152525028Y-149312136D01*
X152525028Y-149312136D02*
X152582171Y-149369279D01*
X152582171Y-149369279D02*
X152639314Y-149483564D01*
X152639314Y-149483564D02*
X152639314Y-149940707D01*
X152582171Y-148340707D02*
X152639314Y-148169279D01*
X152639314Y-148169279D02*
X152696457Y-148112136D01*
X152696457Y-148112136D02*
X152810742Y-148054993D01*
X152810742Y-148054993D02*
X152982171Y-148054993D01*
X152982171Y-148054993D02*
X153096457Y-148112136D01*
X153096457Y-148112136D02*
X153153600Y-148169279D01*
X153153600Y-148169279D02*
X153210742Y-148283564D01*
X153210742Y-148283564D02*
X153210742Y-148740707D01*
X153210742Y-148740707D02*
X152010742Y-148740707D01*
X152010742Y-148740707D02*
X152010742Y-148340707D01*
X152010742Y-148340707D02*
X152067885Y-148226422D01*
X152067885Y-148226422D02*
X152125028Y-148169279D01*
X152125028Y-148169279D02*
X152239314Y-148112136D01*
X152239314Y-148112136D02*
X152353600Y-148112136D01*
X152353600Y-148112136D02*
X152467885Y-148169279D01*
X152467885Y-148169279D02*
X152525028Y-148226422D01*
X152525028Y-148226422D02*
X152582171Y-148340707D01*
X152582171Y-148340707D02*
X152582171Y-148740707D01*
X152010742Y-147312136D02*
X152010742Y-147197850D01*
X152010742Y-147197850D02*
X152067885Y-147083564D01*
X152067885Y-147083564D02*
X152125028Y-147026422D01*
X152125028Y-147026422D02*
X152239314Y-146969279D01*
X152239314Y-146969279D02*
X152467885Y-146912136D01*
X152467885Y-146912136D02*
X152753600Y-146912136D01*
X152753600Y-146912136D02*
X152982171Y-146969279D01*
X152982171Y-146969279D02*
X153096457Y-147026422D01*
X153096457Y-147026422D02*
X153153600Y-147083564D01*
X153153600Y-147083564D02*
X153210742Y-147197850D01*
X153210742Y-147197850D02*
X153210742Y-147312136D01*
X153210742Y-147312136D02*
X153153600Y-147426422D01*
X153153600Y-147426422D02*
X153096457Y-147483564D01*
X153096457Y-147483564D02*
X152982171Y-147540707D01*
X152982171Y-147540707D02*
X152753600Y-147597850D01*
X152753600Y-147597850D02*
X152467885Y-147597850D01*
X152467885Y-147597850D02*
X152239314Y-147540707D01*
X152239314Y-147540707D02*
X152125028Y-147483564D01*
X152125028Y-147483564D02*
X152067885Y-147426422D01*
X152067885Y-147426422D02*
X152010742Y-147312136D01*
X155750742Y-149940707D02*
X154550742Y-149940707D01*
X154550742Y-149940707D02*
X154550742Y-149483564D01*
X154550742Y-149483564D02*
X154607885Y-149369279D01*
X154607885Y-149369279D02*
X154665028Y-149312136D01*
X154665028Y-149312136D02*
X154779314Y-149254993D01*
X154779314Y-149254993D02*
X154950742Y-149254993D01*
X154950742Y-149254993D02*
X155065028Y-149312136D01*
X155065028Y-149312136D02*
X155122171Y-149369279D01*
X155122171Y-149369279D02*
X155179314Y-149483564D01*
X155179314Y-149483564D02*
X155179314Y-149940707D01*
X155122171Y-148340707D02*
X155179314Y-148169279D01*
X155179314Y-148169279D02*
X155236457Y-148112136D01*
X155236457Y-148112136D02*
X155350742Y-148054993D01*
X155350742Y-148054993D02*
X155522171Y-148054993D01*
X155522171Y-148054993D02*
X155636457Y-148112136D01*
X155636457Y-148112136D02*
X155693600Y-148169279D01*
X155693600Y-148169279D02*
X155750742Y-148283564D01*
X155750742Y-148283564D02*
X155750742Y-148740707D01*
X155750742Y-148740707D02*
X154550742Y-148740707D01*
X154550742Y-148740707D02*
X154550742Y-148340707D01*
X154550742Y-148340707D02*
X154607885Y-148226422D01*
X154607885Y-148226422D02*
X154665028Y-148169279D01*
X154665028Y-148169279D02*
X154779314Y-148112136D01*
X154779314Y-148112136D02*
X154893600Y-148112136D01*
X154893600Y-148112136D02*
X155007885Y-148169279D01*
X155007885Y-148169279D02*
X155065028Y-148226422D01*
X155065028Y-148226422D02*
X155122171Y-148340707D01*
X155122171Y-148340707D02*
X155122171Y-148740707D01*
X155750742Y-146912136D02*
X155750742Y-147597850D01*
X155750742Y-147254993D02*
X154550742Y-147254993D01*
X154550742Y-147254993D02*
X154722171Y-147369279D01*
X154722171Y-147369279D02*
X154836457Y-147483564D01*
X154836457Y-147483564D02*
X154893600Y-147597850D01*
X193793600Y-91323850D02*
X193850742Y-91152422D01*
X193850742Y-91152422D02*
X193850742Y-90866707D01*
X193850742Y-90866707D02*
X193793600Y-90752422D01*
X193793600Y-90752422D02*
X193736457Y-90695279D01*
X193736457Y-90695279D02*
X193622171Y-90638136D01*
X193622171Y-90638136D02*
X193507885Y-90638136D01*
X193507885Y-90638136D02*
X193393600Y-90695279D01*
X193393600Y-90695279D02*
X193336457Y-90752422D01*
X193336457Y-90752422D02*
X193279314Y-90866707D01*
X193279314Y-90866707D02*
X193222171Y-91095279D01*
X193222171Y-91095279D02*
X193165028Y-91209564D01*
X193165028Y-91209564D02*
X193107885Y-91266707D01*
X193107885Y-91266707D02*
X192993600Y-91323850D01*
X192993600Y-91323850D02*
X192879314Y-91323850D01*
X192879314Y-91323850D02*
X192765028Y-91266707D01*
X192765028Y-91266707D02*
X192707885Y-91209564D01*
X192707885Y-91209564D02*
X192650742Y-91095279D01*
X192650742Y-91095279D02*
X192650742Y-90809564D01*
X192650742Y-90809564D02*
X192707885Y-90638136D01*
X193736457Y-89438136D02*
X193793600Y-89495279D01*
X193793600Y-89495279D02*
X193850742Y-89666707D01*
X193850742Y-89666707D02*
X193850742Y-89780993D01*
X193850742Y-89780993D02*
X193793600Y-89952422D01*
X193793600Y-89952422D02*
X193679314Y-90066707D01*
X193679314Y-90066707D02*
X193565028Y-90123850D01*
X193565028Y-90123850D02*
X193336457Y-90180993D01*
X193336457Y-90180993D02*
X193165028Y-90180993D01*
X193165028Y-90180993D02*
X192936457Y-90123850D01*
X192936457Y-90123850D02*
X192822171Y-90066707D01*
X192822171Y-90066707D02*
X192707885Y-89952422D01*
X192707885Y-89952422D02*
X192650742Y-89780993D01*
X192650742Y-89780993D02*
X192650742Y-89666707D01*
X192650742Y-89666707D02*
X192707885Y-89495279D01*
X192707885Y-89495279D02*
X192765028Y-89438136D01*
X193850742Y-88923850D02*
X192650742Y-88923850D01*
X193850742Y-88238136D02*
X193165028Y-88752422D01*
X192650742Y-88238136D02*
X193336457Y-88923850D01*
X191310742Y-92282707D02*
X190110742Y-92282707D01*
X190110742Y-92282707D02*
X190967885Y-91882707D01*
X190967885Y-91882707D02*
X190110742Y-91482707D01*
X190110742Y-91482707D02*
X191310742Y-91482707D01*
X191310742Y-90911278D02*
X190110742Y-90911278D01*
X191253600Y-90396992D02*
X191310742Y-90225564D01*
X191310742Y-90225564D02*
X191310742Y-89939849D01*
X191310742Y-89939849D02*
X191253600Y-89825564D01*
X191253600Y-89825564D02*
X191196457Y-89768421D01*
X191196457Y-89768421D02*
X191082171Y-89711278D01*
X191082171Y-89711278D02*
X190967885Y-89711278D01*
X190967885Y-89711278D02*
X190853600Y-89768421D01*
X190853600Y-89768421D02*
X190796457Y-89825564D01*
X190796457Y-89825564D02*
X190739314Y-89939849D01*
X190739314Y-89939849D02*
X190682171Y-90168421D01*
X190682171Y-90168421D02*
X190625028Y-90282706D01*
X190625028Y-90282706D02*
X190567885Y-90339849D01*
X190567885Y-90339849D02*
X190453600Y-90396992D01*
X190453600Y-90396992D02*
X190339314Y-90396992D01*
X190339314Y-90396992D02*
X190225028Y-90339849D01*
X190225028Y-90339849D02*
X190167885Y-90282706D01*
X190167885Y-90282706D02*
X190110742Y-90168421D01*
X190110742Y-90168421D02*
X190110742Y-89882706D01*
X190110742Y-89882706D02*
X190167885Y-89711278D01*
X190110742Y-88968421D02*
X190110742Y-88739849D01*
X190110742Y-88739849D02*
X190167885Y-88625564D01*
X190167885Y-88625564D02*
X190282171Y-88511278D01*
X190282171Y-88511278D02*
X190510742Y-88454135D01*
X190510742Y-88454135D02*
X190910742Y-88454135D01*
X190910742Y-88454135D02*
X191139314Y-88511278D01*
X191139314Y-88511278D02*
X191253600Y-88625564D01*
X191253600Y-88625564D02*
X191310742Y-88739849D01*
X191310742Y-88739849D02*
X191310742Y-88968421D01*
X191310742Y-88968421D02*
X191253600Y-89082707D01*
X191253600Y-89082707D02*
X191139314Y-89196992D01*
X191139314Y-89196992D02*
X190910742Y-89254135D01*
X190910742Y-89254135D02*
X190510742Y-89254135D01*
X190510742Y-89254135D02*
X190282171Y-89196992D01*
X190282171Y-89196992D02*
X190167885Y-89082707D01*
X190167885Y-89082707D02*
X190110742Y-88968421D01*
X188770742Y-92282707D02*
X187570742Y-92282707D01*
X187570742Y-92282707D02*
X188427885Y-91882707D01*
X188427885Y-91882707D02*
X187570742Y-91482707D01*
X187570742Y-91482707D02*
X188770742Y-91482707D01*
X187570742Y-90682707D02*
X187570742Y-90454135D01*
X187570742Y-90454135D02*
X187627885Y-90339850D01*
X187627885Y-90339850D02*
X187742171Y-90225564D01*
X187742171Y-90225564D02*
X187970742Y-90168421D01*
X187970742Y-90168421D02*
X188370742Y-90168421D01*
X188370742Y-90168421D02*
X188599314Y-90225564D01*
X188599314Y-90225564D02*
X188713600Y-90339850D01*
X188713600Y-90339850D02*
X188770742Y-90454135D01*
X188770742Y-90454135D02*
X188770742Y-90682707D01*
X188770742Y-90682707D02*
X188713600Y-90796993D01*
X188713600Y-90796993D02*
X188599314Y-90911278D01*
X188599314Y-90911278D02*
X188370742Y-90968421D01*
X188370742Y-90968421D02*
X187970742Y-90968421D01*
X187970742Y-90968421D02*
X187742171Y-90911278D01*
X187742171Y-90911278D02*
X187627885Y-90796993D01*
X187627885Y-90796993D02*
X187570742Y-90682707D01*
X188713600Y-89711278D02*
X188770742Y-89539850D01*
X188770742Y-89539850D02*
X188770742Y-89254135D01*
X188770742Y-89254135D02*
X188713600Y-89139850D01*
X188713600Y-89139850D02*
X188656457Y-89082707D01*
X188656457Y-89082707D02*
X188542171Y-89025564D01*
X188542171Y-89025564D02*
X188427885Y-89025564D01*
X188427885Y-89025564D02*
X188313600Y-89082707D01*
X188313600Y-89082707D02*
X188256457Y-89139850D01*
X188256457Y-89139850D02*
X188199314Y-89254135D01*
X188199314Y-89254135D02*
X188142171Y-89482707D01*
X188142171Y-89482707D02*
X188085028Y-89596992D01*
X188085028Y-89596992D02*
X188027885Y-89654135D01*
X188027885Y-89654135D02*
X187913600Y-89711278D01*
X187913600Y-89711278D02*
X187799314Y-89711278D01*
X187799314Y-89711278D02*
X187685028Y-89654135D01*
X187685028Y-89654135D02*
X187627885Y-89596992D01*
X187627885Y-89596992D02*
X187570742Y-89482707D01*
X187570742Y-89482707D02*
X187570742Y-89196992D01*
X187570742Y-89196992D02*
X187627885Y-89025564D01*
X188770742Y-88511278D02*
X187570742Y-88511278D01*
X186173600Y-91323850D02*
X186230742Y-91152422D01*
X186230742Y-91152422D02*
X186230742Y-90866707D01*
X186230742Y-90866707D02*
X186173600Y-90752422D01*
X186173600Y-90752422D02*
X186116457Y-90695279D01*
X186116457Y-90695279D02*
X186002171Y-90638136D01*
X186002171Y-90638136D02*
X185887885Y-90638136D01*
X185887885Y-90638136D02*
X185773600Y-90695279D01*
X185773600Y-90695279D02*
X185716457Y-90752422D01*
X185716457Y-90752422D02*
X185659314Y-90866707D01*
X185659314Y-90866707D02*
X185602171Y-91095279D01*
X185602171Y-91095279D02*
X185545028Y-91209564D01*
X185545028Y-91209564D02*
X185487885Y-91266707D01*
X185487885Y-91266707D02*
X185373600Y-91323850D01*
X185373600Y-91323850D02*
X185259314Y-91323850D01*
X185259314Y-91323850D02*
X185145028Y-91266707D01*
X185145028Y-91266707D02*
X185087885Y-91209564D01*
X185087885Y-91209564D02*
X185030742Y-91095279D01*
X185030742Y-91095279D02*
X185030742Y-90809564D01*
X185030742Y-90809564D02*
X185087885Y-90638136D01*
X186230742Y-90123850D02*
X185030742Y-90123850D01*
X185030742Y-90123850D02*
X185030742Y-89838136D01*
X185030742Y-89838136D02*
X185087885Y-89666707D01*
X185087885Y-89666707D02*
X185202171Y-89552422D01*
X185202171Y-89552422D02*
X185316457Y-89495279D01*
X185316457Y-89495279D02*
X185545028Y-89438136D01*
X185545028Y-89438136D02*
X185716457Y-89438136D01*
X185716457Y-89438136D02*
X185945028Y-89495279D01*
X185945028Y-89495279D02*
X186059314Y-89552422D01*
X186059314Y-89552422D02*
X186173600Y-89666707D01*
X186173600Y-89666707D02*
X186230742Y-89838136D01*
X186230742Y-89838136D02*
X186230742Y-90123850D01*
X185887885Y-88980993D02*
X185887885Y-88409565D01*
X186230742Y-89095279D02*
X185030742Y-88695279D01*
X185030742Y-88695279D02*
X186230742Y-88295279D01*
X183379600Y-91323850D02*
X183436742Y-91152422D01*
X183436742Y-91152422D02*
X183436742Y-90866707D01*
X183436742Y-90866707D02*
X183379600Y-90752422D01*
X183379600Y-90752422D02*
X183322457Y-90695279D01*
X183322457Y-90695279D02*
X183208171Y-90638136D01*
X183208171Y-90638136D02*
X183093885Y-90638136D01*
X183093885Y-90638136D02*
X182979600Y-90695279D01*
X182979600Y-90695279D02*
X182922457Y-90752422D01*
X182922457Y-90752422D02*
X182865314Y-90866707D01*
X182865314Y-90866707D02*
X182808171Y-91095279D01*
X182808171Y-91095279D02*
X182751028Y-91209564D01*
X182751028Y-91209564D02*
X182693885Y-91266707D01*
X182693885Y-91266707D02*
X182579600Y-91323850D01*
X182579600Y-91323850D02*
X182465314Y-91323850D01*
X182465314Y-91323850D02*
X182351028Y-91266707D01*
X182351028Y-91266707D02*
X182293885Y-91209564D01*
X182293885Y-91209564D02*
X182236742Y-91095279D01*
X182236742Y-91095279D02*
X182236742Y-90809564D01*
X182236742Y-90809564D02*
X182293885Y-90638136D01*
X183322457Y-89438136D02*
X183379600Y-89495279D01*
X183379600Y-89495279D02*
X183436742Y-89666707D01*
X183436742Y-89666707D02*
X183436742Y-89780993D01*
X183436742Y-89780993D02*
X183379600Y-89952422D01*
X183379600Y-89952422D02*
X183265314Y-90066707D01*
X183265314Y-90066707D02*
X183151028Y-90123850D01*
X183151028Y-90123850D02*
X182922457Y-90180993D01*
X182922457Y-90180993D02*
X182751028Y-90180993D01*
X182751028Y-90180993D02*
X182522457Y-90123850D01*
X182522457Y-90123850D02*
X182408171Y-90066707D01*
X182408171Y-90066707D02*
X182293885Y-89952422D01*
X182293885Y-89952422D02*
X182236742Y-89780993D01*
X182236742Y-89780993D02*
X182236742Y-89666707D01*
X182236742Y-89666707D02*
X182293885Y-89495279D01*
X182293885Y-89495279D02*
X182351028Y-89438136D01*
X183436742Y-88352422D02*
X183436742Y-88923850D01*
X183436742Y-88923850D02*
X182236742Y-88923850D01*
X172652720Y-87870600D02*
X173795578Y-87870600D01*
X173224149Y-88442028D02*
X173224149Y-87299171D01*
D10*
G36*
X178066340Y-88663361D02*
G01*
X178166947Y-88763968D01*
X178220126Y-88870327D01*
X178283082Y-89122148D01*
X178283082Y-89299507D01*
X178220126Y-89551328D01*
X178166947Y-89657688D01*
X178066341Y-89758294D01*
X177908739Y-89810828D01*
X177725939Y-89810828D01*
X177725939Y-88610828D01*
X177908742Y-88610828D01*
X178066340Y-88663361D01*
G37*
G36*
X178749749Y-90277495D02*
G01*
X174687843Y-90277495D01*
X174687843Y-88460828D01*
X174854510Y-88460828D01*
X174854510Y-89960828D01*
X174857392Y-89990092D01*
X174879790Y-90044164D01*
X174921174Y-90085548D01*
X174975246Y-90107946D01*
X175004510Y-90110828D01*
X175718796Y-90110828D01*
X175748060Y-90107946D01*
X175802132Y-90085548D01*
X175843516Y-90044164D01*
X175865914Y-89990092D01*
X175865914Y-89931564D01*
X175843516Y-89877492D01*
X175802132Y-89836108D01*
X175748060Y-89813710D01*
X175718796Y-89810828D01*
X175154510Y-89810828D01*
X175154510Y-88460828D01*
X176068796Y-88460828D01*
X176068796Y-89960828D01*
X176071678Y-89990092D01*
X176094076Y-90044164D01*
X176135460Y-90085548D01*
X176189532Y-90107946D01*
X176218796Y-90110828D01*
X176933082Y-90110828D01*
X176962346Y-90107946D01*
X177016418Y-90085548D01*
X177057802Y-90044164D01*
X177080200Y-89990092D01*
X177080200Y-89931564D01*
X177057802Y-89877492D01*
X177016418Y-89836108D01*
X176962346Y-89813710D01*
X176933082Y-89810828D01*
X176368796Y-89810828D01*
X176368796Y-89325114D01*
X176718796Y-89325114D01*
X176748060Y-89322232D01*
X176802132Y-89299834D01*
X176843516Y-89258450D01*
X176865914Y-89204378D01*
X176865914Y-89145850D01*
X176843516Y-89091778D01*
X176802132Y-89050394D01*
X176748060Y-89027996D01*
X176718796Y-89025114D01*
X176368796Y-89025114D01*
X176368796Y-88610828D01*
X176933082Y-88610828D01*
X176962346Y-88607946D01*
X177016418Y-88585548D01*
X177057802Y-88544164D01*
X177080200Y-88490092D01*
X177080200Y-88460828D01*
X177425939Y-88460828D01*
X177425939Y-89960828D01*
X177428821Y-89990092D01*
X177451219Y-90044164D01*
X177492603Y-90085548D01*
X177546675Y-90107946D01*
X177575939Y-90110828D01*
X177933082Y-90110828D01*
X177947887Y-90109369D01*
X177951842Y-90109651D01*
X177957043Y-90108468D01*
X177962346Y-90107946D01*
X177966003Y-90106430D01*
X177980516Y-90103131D01*
X178194802Y-90031703D01*
X178221653Y-90019715D01*
X178225724Y-90016183D01*
X178230704Y-90014121D01*
X178253434Y-89995466D01*
X178396291Y-89852608D01*
X178405729Y-89841106D01*
X178408724Y-89838510D01*
X178411564Y-89833996D01*
X178414946Y-89829877D01*
X178416461Y-89826217D01*
X178424389Y-89813624D01*
X178495818Y-89670768D01*
X178496637Y-89668625D01*
X178497282Y-89667756D01*
X178501666Y-89655484D01*
X178506327Y-89643304D01*
X178506403Y-89642223D01*
X178507175Y-89640065D01*
X178578603Y-89354351D01*
X178579352Y-89349279D01*
X178580200Y-89347235D01*
X178581285Y-89336212D01*
X178582905Y-89325262D01*
X178582579Y-89323074D01*
X178583082Y-89317971D01*
X178583082Y-89103685D01*
X178582579Y-89098581D01*
X178582905Y-89096394D01*
X178581285Y-89085443D01*
X178580200Y-89074421D01*
X178579352Y-89072376D01*
X178578603Y-89067305D01*
X178507175Y-88781591D01*
X178506403Y-88779432D01*
X178506327Y-88778352D01*
X178501666Y-88766171D01*
X178497282Y-88753900D01*
X178496637Y-88753030D01*
X178495818Y-88750888D01*
X178424389Y-88608032D01*
X178416462Y-88595440D01*
X178414946Y-88591778D01*
X178411562Y-88587655D01*
X178408724Y-88583146D01*
X178405731Y-88580550D01*
X178396291Y-88569048D01*
X178253434Y-88426191D01*
X178230703Y-88407536D01*
X178225723Y-88405473D01*
X178221653Y-88401943D01*
X178194802Y-88389954D01*
X177980516Y-88318526D01*
X177966008Y-88315227D01*
X177962346Y-88313710D01*
X177957037Y-88313187D01*
X177951843Y-88312006D01*
X177947893Y-88312286D01*
X177933082Y-88310828D01*
X177575939Y-88310828D01*
X177546675Y-88313710D01*
X177492603Y-88336108D01*
X177451219Y-88377492D01*
X177428821Y-88431564D01*
X177425939Y-88460828D01*
X177080200Y-88460828D01*
X177080200Y-88431564D01*
X177057802Y-88377492D01*
X177016418Y-88336108D01*
X176962346Y-88313710D01*
X176933082Y-88310828D01*
X176218796Y-88310828D01*
X176189532Y-88313710D01*
X176135460Y-88336108D01*
X176094076Y-88377492D01*
X176071678Y-88431564D01*
X176068796Y-88460828D01*
X175154510Y-88460828D01*
X175151628Y-88431564D01*
X175129230Y-88377492D01*
X175087846Y-88336108D01*
X175033774Y-88313710D01*
X174975246Y-88313710D01*
X174921174Y-88336108D01*
X174879790Y-88377492D01*
X174857392Y-88431564D01*
X174854510Y-88460828D01*
X174687843Y-88460828D01*
X174687843Y-88144161D01*
X178749749Y-88144161D01*
X178749749Y-90277495D01*
G37*
D11*
X172908457Y-85500993D02*
X172965600Y-85558136D01*
X172965600Y-85558136D02*
X173022742Y-85729564D01*
X173022742Y-85729564D02*
X173022742Y-85843850D01*
X173022742Y-85843850D02*
X172965600Y-86015279D01*
X172965600Y-86015279D02*
X172851314Y-86129564D01*
X172851314Y-86129564D02*
X172737028Y-86186707D01*
X172737028Y-86186707D02*
X172508457Y-86243850D01*
X172508457Y-86243850D02*
X172337028Y-86243850D01*
X172337028Y-86243850D02*
X172108457Y-86186707D01*
X172108457Y-86186707D02*
X171994171Y-86129564D01*
X171994171Y-86129564D02*
X171879885Y-86015279D01*
X171879885Y-86015279D02*
X171822742Y-85843850D01*
X171822742Y-85843850D02*
X171822742Y-85729564D01*
X171822742Y-85729564D02*
X171879885Y-85558136D01*
X171879885Y-85558136D02*
X171937028Y-85500993D01*
X171822742Y-84472422D02*
X171822742Y-84700993D01*
X171822742Y-84700993D02*
X171879885Y-84815279D01*
X171879885Y-84815279D02*
X171937028Y-84872422D01*
X171937028Y-84872422D02*
X172108457Y-84986707D01*
X172108457Y-84986707D02*
X172337028Y-85043850D01*
X172337028Y-85043850D02*
X172794171Y-85043850D01*
X172794171Y-85043850D02*
X172908457Y-84986707D01*
X172908457Y-84986707D02*
X172965600Y-84929564D01*
X172965600Y-84929564D02*
X173022742Y-84815279D01*
X173022742Y-84815279D02*
X173022742Y-84586707D01*
X173022742Y-84586707D02*
X172965600Y-84472422D01*
X172965600Y-84472422D02*
X172908457Y-84415279D01*
X172908457Y-84415279D02*
X172794171Y-84358136D01*
X172794171Y-84358136D02*
X172508457Y-84358136D01*
X172508457Y-84358136D02*
X172394171Y-84415279D01*
X172394171Y-84415279D02*
X172337028Y-84472422D01*
X172337028Y-84472422D02*
X172279885Y-84586707D01*
X172279885Y-84586707D02*
X172279885Y-84815279D01*
X172279885Y-84815279D02*
X172337028Y-84929564D01*
X172337028Y-84929564D02*
X172394171Y-84986707D01*
X172394171Y-84986707D02*
X172508457Y-85043850D01*
X170393885Y-86243850D02*
X170393885Y-85672422D01*
X170736742Y-86358136D02*
X169536742Y-85958136D01*
X169536742Y-85958136D02*
X170736742Y-85558136D01*
X170736742Y-84529565D02*
X170736742Y-85215279D01*
X170736742Y-84872422D02*
X169536742Y-84872422D01*
X169536742Y-84872422D02*
X169708171Y-84986708D01*
X169708171Y-84986708D02*
X169822457Y-85100993D01*
X169822457Y-85100993D02*
X169879600Y-85215279D01*
X169536742Y-83786708D02*
X169536742Y-83672422D01*
X169536742Y-83672422D02*
X169593885Y-83558136D01*
X169593885Y-83558136D02*
X169651028Y-83500994D01*
X169651028Y-83500994D02*
X169765314Y-83443851D01*
X169765314Y-83443851D02*
X169993885Y-83386708D01*
X169993885Y-83386708D02*
X170279600Y-83386708D01*
X170279600Y-83386708D02*
X170508171Y-83443851D01*
X170508171Y-83443851D02*
X170622457Y-83500994D01*
X170622457Y-83500994D02*
X170679600Y-83558136D01*
X170679600Y-83558136D02*
X170736742Y-83672422D01*
X170736742Y-83672422D02*
X170736742Y-83786708D01*
X170736742Y-83786708D02*
X170679600Y-83900994D01*
X170679600Y-83900994D02*
X170622457Y-83958136D01*
X170622457Y-83958136D02*
X170508171Y-84015279D01*
X170508171Y-84015279D02*
X170279600Y-84072422D01*
X170279600Y-84072422D02*
X169993885Y-84072422D01*
X169993885Y-84072422D02*
X169765314Y-84015279D01*
X169765314Y-84015279D02*
X169651028Y-83958136D01*
X169651028Y-83958136D02*
X169593885Y-83900994D01*
X169593885Y-83900994D02*
X169536742Y-83786708D01*
X167853885Y-86243850D02*
X167853885Y-85672422D01*
X168196742Y-86358136D02*
X166996742Y-85958136D01*
X166996742Y-85958136D02*
X168196742Y-85558136D01*
X168196742Y-84529565D02*
X168196742Y-85215279D01*
X168196742Y-84872422D02*
X166996742Y-84872422D01*
X166996742Y-84872422D02*
X167168171Y-84986708D01*
X167168171Y-84986708D02*
X167282457Y-85100993D01*
X167282457Y-85100993D02*
X167339600Y-85215279D01*
X168196742Y-83386708D02*
X168196742Y-84072422D01*
X168196742Y-83729565D02*
X166996742Y-83729565D01*
X166996742Y-83729565D02*
X167168171Y-83843851D01*
X167168171Y-83843851D02*
X167282457Y-83958136D01*
X167282457Y-83958136D02*
X167339600Y-84072422D01*
X165313885Y-86243850D02*
X165313885Y-85672422D01*
X165656742Y-86358136D02*
X164456742Y-85958136D01*
X164456742Y-85958136D02*
X165656742Y-85558136D01*
X165656742Y-84529565D02*
X165656742Y-85215279D01*
X165656742Y-84872422D02*
X164456742Y-84872422D01*
X164456742Y-84872422D02*
X164628171Y-84986708D01*
X164628171Y-84986708D02*
X164742457Y-85100993D01*
X164742457Y-85100993D02*
X164799600Y-85215279D01*
X164571028Y-84072422D02*
X164513885Y-84015279D01*
X164513885Y-84015279D02*
X164456742Y-83900994D01*
X164456742Y-83900994D02*
X164456742Y-83615279D01*
X164456742Y-83615279D02*
X164513885Y-83500994D01*
X164513885Y-83500994D02*
X164571028Y-83443851D01*
X164571028Y-83443851D02*
X164685314Y-83386708D01*
X164685314Y-83386708D02*
X164799600Y-83386708D01*
X164799600Y-83386708D02*
X164971028Y-83443851D01*
X164971028Y-83443851D02*
X165656742Y-84129565D01*
X165656742Y-84129565D02*
X165656742Y-83386708D01*
X162773885Y-86243850D02*
X162773885Y-85672422D01*
X163116742Y-86358136D02*
X161916742Y-85958136D01*
X161916742Y-85958136D02*
X163116742Y-85558136D01*
X163116742Y-84529565D02*
X163116742Y-85215279D01*
X163116742Y-84872422D02*
X161916742Y-84872422D01*
X161916742Y-84872422D02*
X162088171Y-84986708D01*
X162088171Y-84986708D02*
X162202457Y-85100993D01*
X162202457Y-85100993D02*
X162259600Y-85215279D01*
X161916742Y-83443851D02*
X161916742Y-84015279D01*
X161916742Y-84015279D02*
X162488171Y-84072422D01*
X162488171Y-84072422D02*
X162431028Y-84015279D01*
X162431028Y-84015279D02*
X162373885Y-83900994D01*
X162373885Y-83900994D02*
X162373885Y-83615279D01*
X162373885Y-83615279D02*
X162431028Y-83500994D01*
X162431028Y-83500994D02*
X162488171Y-83443851D01*
X162488171Y-83443851D02*
X162602457Y-83386708D01*
X162602457Y-83386708D02*
X162888171Y-83386708D01*
X162888171Y-83386708D02*
X163002457Y-83443851D01*
X163002457Y-83443851D02*
X163059600Y-83500994D01*
X163059600Y-83500994D02*
X163116742Y-83615279D01*
X163116742Y-83615279D02*
X163116742Y-83900994D01*
X163116742Y-83900994D02*
X163059600Y-84015279D01*
X163059600Y-84015279D02*
X163002457Y-84072422D01*
X159948171Y-85786707D02*
X160005314Y-85615279D01*
X160005314Y-85615279D02*
X160062457Y-85558136D01*
X160062457Y-85558136D02*
X160176742Y-85500993D01*
X160176742Y-85500993D02*
X160348171Y-85500993D01*
X160348171Y-85500993D02*
X160462457Y-85558136D01*
X160462457Y-85558136D02*
X160519600Y-85615279D01*
X160519600Y-85615279D02*
X160576742Y-85729564D01*
X160576742Y-85729564D02*
X160576742Y-86186707D01*
X160576742Y-86186707D02*
X159376742Y-86186707D01*
X159376742Y-86186707D02*
X159376742Y-85786707D01*
X159376742Y-85786707D02*
X159433885Y-85672422D01*
X159433885Y-85672422D02*
X159491028Y-85615279D01*
X159491028Y-85615279D02*
X159605314Y-85558136D01*
X159605314Y-85558136D02*
X159719600Y-85558136D01*
X159719600Y-85558136D02*
X159833885Y-85615279D01*
X159833885Y-85615279D02*
X159891028Y-85672422D01*
X159891028Y-85672422D02*
X159948171Y-85786707D01*
X159948171Y-85786707D02*
X159948171Y-86186707D01*
X159376742Y-85100993D02*
X159376742Y-84358136D01*
X159376742Y-84358136D02*
X159833885Y-84758136D01*
X159833885Y-84758136D02*
X159833885Y-84586707D01*
X159833885Y-84586707D02*
X159891028Y-84472422D01*
X159891028Y-84472422D02*
X159948171Y-84415279D01*
X159948171Y-84415279D02*
X160062457Y-84358136D01*
X160062457Y-84358136D02*
X160348171Y-84358136D01*
X160348171Y-84358136D02*
X160462457Y-84415279D01*
X160462457Y-84415279D02*
X160519600Y-84472422D01*
X160519600Y-84472422D02*
X160576742Y-84586707D01*
X160576742Y-84586707D02*
X160576742Y-84929564D01*
X160576742Y-84929564D02*
X160519600Y-85043850D01*
X160519600Y-85043850D02*
X160462457Y-85100993D01*
X157408171Y-85786707D02*
X157465314Y-85615279D01*
X157465314Y-85615279D02*
X157522457Y-85558136D01*
X157522457Y-85558136D02*
X157636742Y-85500993D01*
X157636742Y-85500993D02*
X157808171Y-85500993D01*
X157808171Y-85500993D02*
X157922457Y-85558136D01*
X157922457Y-85558136D02*
X157979600Y-85615279D01*
X157979600Y-85615279D02*
X158036742Y-85729564D01*
X158036742Y-85729564D02*
X158036742Y-86186707D01*
X158036742Y-86186707D02*
X156836742Y-86186707D01*
X156836742Y-86186707D02*
X156836742Y-85786707D01*
X156836742Y-85786707D02*
X156893885Y-85672422D01*
X156893885Y-85672422D02*
X156951028Y-85615279D01*
X156951028Y-85615279D02*
X157065314Y-85558136D01*
X157065314Y-85558136D02*
X157179600Y-85558136D01*
X157179600Y-85558136D02*
X157293885Y-85615279D01*
X157293885Y-85615279D02*
X157351028Y-85672422D01*
X157351028Y-85672422D02*
X157408171Y-85786707D01*
X157408171Y-85786707D02*
X157408171Y-86186707D01*
X157236742Y-84472422D02*
X158036742Y-84472422D01*
X156779600Y-84758136D02*
X157636742Y-85043850D01*
X157636742Y-85043850D02*
X157636742Y-84300993D01*
X154868171Y-85786707D02*
X154925314Y-85615279D01*
X154925314Y-85615279D02*
X154982457Y-85558136D01*
X154982457Y-85558136D02*
X155096742Y-85500993D01*
X155096742Y-85500993D02*
X155268171Y-85500993D01*
X155268171Y-85500993D02*
X155382457Y-85558136D01*
X155382457Y-85558136D02*
X155439600Y-85615279D01*
X155439600Y-85615279D02*
X155496742Y-85729564D01*
X155496742Y-85729564D02*
X155496742Y-86186707D01*
X155496742Y-86186707D02*
X154296742Y-86186707D01*
X154296742Y-86186707D02*
X154296742Y-85786707D01*
X154296742Y-85786707D02*
X154353885Y-85672422D01*
X154353885Y-85672422D02*
X154411028Y-85615279D01*
X154411028Y-85615279D02*
X154525314Y-85558136D01*
X154525314Y-85558136D02*
X154639600Y-85558136D01*
X154639600Y-85558136D02*
X154753885Y-85615279D01*
X154753885Y-85615279D02*
X154811028Y-85672422D01*
X154811028Y-85672422D02*
X154868171Y-85786707D01*
X154868171Y-85786707D02*
X154868171Y-86186707D01*
X154296742Y-84415279D02*
X154296742Y-84986707D01*
X154296742Y-84986707D02*
X154868171Y-85043850D01*
X154868171Y-85043850D02*
X154811028Y-84986707D01*
X154811028Y-84986707D02*
X154753885Y-84872422D01*
X154753885Y-84872422D02*
X154753885Y-84586707D01*
X154753885Y-84586707D02*
X154811028Y-84472422D01*
X154811028Y-84472422D02*
X154868171Y-84415279D01*
X154868171Y-84415279D02*
X154982457Y-84358136D01*
X154982457Y-84358136D02*
X155268171Y-84358136D01*
X155268171Y-84358136D02*
X155382457Y-84415279D01*
X155382457Y-84415279D02*
X155439600Y-84472422D01*
X155439600Y-84472422D02*
X155496742Y-84586707D01*
X155496742Y-84586707D02*
X155496742Y-84872422D01*
X155496742Y-84872422D02*
X155439600Y-84986707D01*
X155439600Y-84986707D02*
X155382457Y-85043850D01*
X152328171Y-85786707D02*
X152385314Y-85615279D01*
X152385314Y-85615279D02*
X152442457Y-85558136D01*
X152442457Y-85558136D02*
X152556742Y-85500993D01*
X152556742Y-85500993D02*
X152728171Y-85500993D01*
X152728171Y-85500993D02*
X152842457Y-85558136D01*
X152842457Y-85558136D02*
X152899600Y-85615279D01*
X152899600Y-85615279D02*
X152956742Y-85729564D01*
X152956742Y-85729564D02*
X152956742Y-86186707D01*
X152956742Y-86186707D02*
X151756742Y-86186707D01*
X151756742Y-86186707D02*
X151756742Y-85786707D01*
X151756742Y-85786707D02*
X151813885Y-85672422D01*
X151813885Y-85672422D02*
X151871028Y-85615279D01*
X151871028Y-85615279D02*
X151985314Y-85558136D01*
X151985314Y-85558136D02*
X152099600Y-85558136D01*
X152099600Y-85558136D02*
X152213885Y-85615279D01*
X152213885Y-85615279D02*
X152271028Y-85672422D01*
X152271028Y-85672422D02*
X152328171Y-85786707D01*
X152328171Y-85786707D02*
X152328171Y-86186707D01*
X152271028Y-84815279D02*
X152213885Y-84929564D01*
X152213885Y-84929564D02*
X152156742Y-84986707D01*
X152156742Y-84986707D02*
X152042457Y-85043850D01*
X152042457Y-85043850D02*
X151985314Y-85043850D01*
X151985314Y-85043850D02*
X151871028Y-84986707D01*
X151871028Y-84986707D02*
X151813885Y-84929564D01*
X151813885Y-84929564D02*
X151756742Y-84815279D01*
X151756742Y-84815279D02*
X151756742Y-84586707D01*
X151756742Y-84586707D02*
X151813885Y-84472422D01*
X151813885Y-84472422D02*
X151871028Y-84415279D01*
X151871028Y-84415279D02*
X151985314Y-84358136D01*
X151985314Y-84358136D02*
X152042457Y-84358136D01*
X152042457Y-84358136D02*
X152156742Y-84415279D01*
X152156742Y-84415279D02*
X152213885Y-84472422D01*
X152213885Y-84472422D02*
X152271028Y-84586707D01*
X152271028Y-84586707D02*
X152271028Y-84815279D01*
X152271028Y-84815279D02*
X152328171Y-84929564D01*
X152328171Y-84929564D02*
X152385314Y-84986707D01*
X152385314Y-84986707D02*
X152499600Y-85043850D01*
X152499600Y-85043850D02*
X152728171Y-85043850D01*
X152728171Y-85043850D02*
X152842457Y-84986707D01*
X152842457Y-84986707D02*
X152899600Y-84929564D01*
X152899600Y-84929564D02*
X152956742Y-84815279D01*
X152956742Y-84815279D02*
X152956742Y-84586707D01*
X152956742Y-84586707D02*
X152899600Y-84472422D01*
X152899600Y-84472422D02*
X152842457Y-84415279D01*
X152842457Y-84415279D02*
X152728171Y-84358136D01*
X152728171Y-84358136D02*
X152499600Y-84358136D01*
X152499600Y-84358136D02*
X152385314Y-84415279D01*
X152385314Y-84415279D02*
X152328171Y-84472422D01*
X152328171Y-84472422D02*
X152271028Y-84586707D01*
X149788171Y-85786707D02*
X149845314Y-85615279D01*
X149845314Y-85615279D02*
X149902457Y-85558136D01*
X149902457Y-85558136D02*
X150016742Y-85500993D01*
X150016742Y-85500993D02*
X150188171Y-85500993D01*
X150188171Y-85500993D02*
X150302457Y-85558136D01*
X150302457Y-85558136D02*
X150359600Y-85615279D01*
X150359600Y-85615279D02*
X150416742Y-85729564D01*
X150416742Y-85729564D02*
X150416742Y-86186707D01*
X150416742Y-86186707D02*
X149216742Y-86186707D01*
X149216742Y-86186707D02*
X149216742Y-85786707D01*
X149216742Y-85786707D02*
X149273885Y-85672422D01*
X149273885Y-85672422D02*
X149331028Y-85615279D01*
X149331028Y-85615279D02*
X149445314Y-85558136D01*
X149445314Y-85558136D02*
X149559600Y-85558136D01*
X149559600Y-85558136D02*
X149673885Y-85615279D01*
X149673885Y-85615279D02*
X149731028Y-85672422D01*
X149731028Y-85672422D02*
X149788171Y-85786707D01*
X149788171Y-85786707D02*
X149788171Y-86186707D01*
X150416742Y-84929564D02*
X150416742Y-84700993D01*
X150416742Y-84700993D02*
X150359600Y-84586707D01*
X150359600Y-84586707D02*
X150302457Y-84529564D01*
X150302457Y-84529564D02*
X150131028Y-84415279D01*
X150131028Y-84415279D02*
X149902457Y-84358136D01*
X149902457Y-84358136D02*
X149445314Y-84358136D01*
X149445314Y-84358136D02*
X149331028Y-84415279D01*
X149331028Y-84415279D02*
X149273885Y-84472422D01*
X149273885Y-84472422D02*
X149216742Y-84586707D01*
X149216742Y-84586707D02*
X149216742Y-84815279D01*
X149216742Y-84815279D02*
X149273885Y-84929564D01*
X149273885Y-84929564D02*
X149331028Y-84986707D01*
X149331028Y-84986707D02*
X149445314Y-85043850D01*
X149445314Y-85043850D02*
X149731028Y-85043850D01*
X149731028Y-85043850D02*
X149845314Y-84986707D01*
X149845314Y-84986707D02*
X149902457Y-84929564D01*
X149902457Y-84929564D02*
X149959600Y-84815279D01*
X149959600Y-84815279D02*
X149959600Y-84586707D01*
X149959600Y-84586707D02*
X149902457Y-84472422D01*
X149902457Y-84472422D02*
X149845314Y-84415279D01*
X149845314Y-84415279D02*
X149731028Y-84358136D01*
D12*
G36*
X152668495Y-109994047D02*
G01*
X152717833Y-110043385D01*
X152777442Y-110162603D01*
X152777442Y-110353891D01*
X152717833Y-110473107D01*
X152668493Y-110522448D01*
X152549277Y-110582057D01*
X152034585Y-110582057D01*
X152034585Y-109934438D01*
X152549277Y-109934438D01*
X152668495Y-109994047D01*
G37*
G36*
X157014869Y-112156660D02*
G01*
X149317125Y-112156660D01*
X149317125Y-109734438D01*
X149539347Y-109734438D01*
X149539347Y-111734438D01*
X149543190Y-111773456D01*
X149573053Y-111845552D01*
X149628233Y-111900732D01*
X149700329Y-111930595D01*
X149778365Y-111930595D01*
X149850461Y-111900732D01*
X149905641Y-111845552D01*
X149935504Y-111773456D01*
X149939347Y-111734438D01*
X149939347Y-110487551D01*
X150708555Y-111833666D01*
X150714393Y-111841890D01*
X150715910Y-111845552D01*
X150719641Y-111849283D01*
X150731250Y-111865636D01*
X150752281Y-111881923D01*
X150771090Y-111900732D01*
X150782867Y-111905610D01*
X150792948Y-111913417D01*
X150818610Y-111920415D01*
X150843186Y-111930595D01*
X150855937Y-111930595D01*
X150868235Y-111933949D01*
X150894619Y-111930595D01*
X150921222Y-111930595D01*
X150933001Y-111925715D01*
X150945648Y-111924108D01*
X150968741Y-111910911D01*
X150993318Y-111900732D01*
X151002332Y-111891717D01*
X151013402Y-111885392D01*
X151029689Y-111864360D01*
X151048498Y-111845552D01*
X151053376Y-111833774D01*
X151061183Y-111823694D01*
X151068182Y-111798028D01*
X151078361Y-111773456D01*
X151080326Y-111753502D01*
X151081716Y-111748407D01*
X151081215Y-111744472D01*
X151082204Y-111734438D01*
X151082204Y-109734438D01*
X151634585Y-109734438D01*
X151634585Y-111734438D01*
X151638428Y-111773456D01*
X151668291Y-111845552D01*
X151723471Y-111900732D01*
X151795567Y-111930595D01*
X151873603Y-111930595D01*
X151945699Y-111900732D01*
X152000879Y-111845552D01*
X152030742Y-111773456D01*
X152034585Y-111734438D01*
X152034585Y-110982057D01*
X152206644Y-110982057D01*
X152813595Y-111849130D01*
X152839119Y-111878891D01*
X152904928Y-111920829D01*
X152981777Y-111934391D01*
X153057966Y-111917511D01*
X153121895Y-111872760D01*
X153163833Y-111806951D01*
X153177395Y-111730102D01*
X153160515Y-111653914D01*
X153141288Y-111619745D01*
X152681352Y-110962694D01*
X152685933Y-110960942D01*
X152876409Y-110865704D01*
X152893202Y-110855132D01*
X152898081Y-110853112D01*
X152903572Y-110848605D01*
X152909589Y-110844818D01*
X152913050Y-110840827D01*
X152928388Y-110828240D01*
X153023626Y-110733000D01*
X153036212Y-110717664D01*
X153040203Y-110714203D01*
X153043989Y-110708187D01*
X153048499Y-110702693D01*
X153050520Y-110697811D01*
X153061089Y-110681023D01*
X153156328Y-110490546D01*
X153170340Y-110453929D01*
X153170849Y-110446759D01*
X153173599Y-110440122D01*
X153177442Y-110401104D01*
X153177442Y-110115390D01*
X153539347Y-110115390D01*
X153539347Y-110305866D01*
X153543190Y-110344884D01*
X153545939Y-110351521D01*
X153546449Y-110358691D01*
X153560462Y-110395309D01*
X153655700Y-110585785D01*
X153666269Y-110602576D01*
X153668291Y-110607456D01*
X153672798Y-110612948D01*
X153676586Y-110618965D01*
X153680577Y-110622427D01*
X153693164Y-110637763D01*
X153788402Y-110733001D01*
X153803737Y-110745587D01*
X153807199Y-110749578D01*
X153813214Y-110753364D01*
X153818709Y-110757874D01*
X153823589Y-110759895D01*
X153840380Y-110770465D01*
X154030855Y-110865704D01*
X154033711Y-110866797D01*
X154034871Y-110867656D01*
X154051252Y-110873509D01*
X154067473Y-110879716D01*
X154068909Y-110879818D01*
X154071792Y-110880848D01*
X154431445Y-110970760D01*
X154573257Y-111041666D01*
X154622595Y-111091004D01*
X154682204Y-111210222D01*
X154682204Y-111306272D01*
X154622595Y-111425488D01*
X154573255Y-111474829D01*
X154454039Y-111534438D01*
X154057518Y-111534438D01*
X153802593Y-111449463D01*
X153764362Y-111440771D01*
X153686522Y-111446302D01*
X153616724Y-111481201D01*
X153565595Y-111540154D01*
X153540918Y-111614185D01*
X153546449Y-111692025D01*
X153581348Y-111761823D01*
X153640301Y-111812952D01*
X153676101Y-111828937D01*
X153961815Y-111924175D01*
X153981164Y-111928574D01*
X153986043Y-111930595D01*
X153993117Y-111931291D01*
X154000046Y-111932867D01*
X154005311Y-111932492D01*
X154025061Y-111934438D01*
X154501252Y-111934438D01*
X154540270Y-111930595D01*
X154546907Y-111927845D01*
X154554077Y-111927336D01*
X154590695Y-111913323D01*
X154781171Y-111818085D01*
X154797964Y-111807513D01*
X154802843Y-111805493D01*
X154808334Y-111800986D01*
X154814351Y-111797199D01*
X154817812Y-111793208D01*
X154833150Y-111780621D01*
X154928388Y-111685381D01*
X154940974Y-111670045D01*
X154944965Y-111666584D01*
X154948751Y-111660568D01*
X154953261Y-111655074D01*
X154955282Y-111650192D01*
X154965851Y-111633404D01*
X155061090Y-111442927D01*
X155075102Y-111406310D01*
X155075611Y-111399140D01*
X155078361Y-111392503D01*
X155082204Y-111353485D01*
X155082204Y-111163009D01*
X155078361Y-111123991D01*
X155075611Y-111117353D01*
X155075102Y-111110184D01*
X155061090Y-111073567D01*
X154965851Y-110883090D01*
X154955281Y-110866298D01*
X154953260Y-110861419D01*
X154948752Y-110855926D01*
X154944965Y-110849910D01*
X154940973Y-110846448D01*
X154928387Y-110831112D01*
X154833149Y-110735874D01*
X154817813Y-110723287D01*
X154814351Y-110719296D01*
X154808334Y-110715508D01*
X154802842Y-110711001D01*
X154797962Y-110708979D01*
X154781171Y-110698410D01*
X154590695Y-110603172D01*
X154587839Y-110602079D01*
X154586680Y-110601220D01*
X154570305Y-110595369D01*
X154554077Y-110589159D01*
X154552638Y-110589056D01*
X154549759Y-110588028D01*
X154190102Y-110498114D01*
X154048294Y-110427209D01*
X153998956Y-110377871D01*
X153939347Y-110258652D01*
X153939347Y-110162603D01*
X153998956Y-110043384D01*
X154048294Y-109994047D01*
X154167512Y-109934438D01*
X154564033Y-109934438D01*
X154818958Y-110019413D01*
X154857189Y-110028105D01*
X154935029Y-110022574D01*
X155004827Y-109987675D01*
X155055956Y-109928722D01*
X155080633Y-109854691D01*
X155075102Y-109776851D01*
X155040203Y-109707053D01*
X155026790Y-109695420D01*
X155257476Y-109695420D01*
X155257476Y-109773456D01*
X155287339Y-109845552D01*
X155342519Y-109900732D01*
X155414615Y-109930595D01*
X155453633Y-109934438D01*
X155825061Y-109934438D01*
X155825061Y-111734438D01*
X155828904Y-111773456D01*
X155858767Y-111845552D01*
X155913947Y-111900732D01*
X155986043Y-111930595D01*
X156064079Y-111930595D01*
X156136175Y-111900732D01*
X156191355Y-111845552D01*
X156221218Y-111773456D01*
X156225061Y-111734438D01*
X156225061Y-109934438D01*
X156596490Y-109934438D01*
X156635508Y-109930595D01*
X156707604Y-109900732D01*
X156762784Y-109845552D01*
X156792647Y-109773456D01*
X156792647Y-109695420D01*
X156762784Y-109623324D01*
X156707604Y-109568144D01*
X156635508Y-109538281D01*
X156596490Y-109534438D01*
X155453633Y-109534438D01*
X155414615Y-109538281D01*
X155342519Y-109568144D01*
X155287339Y-109623324D01*
X155257476Y-109695420D01*
X155026790Y-109695420D01*
X154981250Y-109655924D01*
X154945450Y-109639939D01*
X154659736Y-109544701D01*
X154640386Y-109540301D01*
X154635508Y-109538281D01*
X154628433Y-109537584D01*
X154621505Y-109536009D01*
X154616239Y-109536383D01*
X154596490Y-109534438D01*
X154120299Y-109534438D01*
X154081281Y-109538281D01*
X154074643Y-109541030D01*
X154067474Y-109541540D01*
X154030857Y-109555552D01*
X153840380Y-109650791D01*
X153823588Y-109661360D01*
X153818709Y-109663382D01*
X153813216Y-109667889D01*
X153807200Y-109671677D01*
X153803738Y-109675668D01*
X153788402Y-109688255D01*
X153693164Y-109783493D01*
X153680577Y-109798828D01*
X153676586Y-109802291D01*
X153672798Y-109808307D01*
X153668291Y-109813800D01*
X153666269Y-109818679D01*
X153655700Y-109835471D01*
X153560462Y-110025947D01*
X153546449Y-110062565D01*
X153545939Y-110069734D01*
X153543190Y-110076372D01*
X153539347Y-110115390D01*
X153177442Y-110115390D01*
X153173599Y-110076372D01*
X153170849Y-110069734D01*
X153170340Y-110062565D01*
X153156328Y-110025948D01*
X153061089Y-109835471D01*
X153050519Y-109818679D01*
X153048498Y-109813800D01*
X153043990Y-109808307D01*
X153040203Y-109802291D01*
X153036211Y-109798829D01*
X153023625Y-109783493D01*
X152928387Y-109688255D01*
X152913051Y-109675668D01*
X152909589Y-109671677D01*
X152903572Y-109667889D01*
X152898080Y-109663382D01*
X152893200Y-109661360D01*
X152876409Y-109650791D01*
X152685933Y-109555553D01*
X152649315Y-109541540D01*
X152642145Y-109541030D01*
X152635508Y-109538281D01*
X152596490Y-109534438D01*
X151834585Y-109534438D01*
X151795567Y-109538281D01*
X151723471Y-109568144D01*
X151668291Y-109623324D01*
X151638428Y-109695420D01*
X151634585Y-109734438D01*
X151082204Y-109734438D01*
X151078361Y-109695420D01*
X151048498Y-109623324D01*
X150993318Y-109568144D01*
X150921222Y-109538281D01*
X150843186Y-109538281D01*
X150771090Y-109568144D01*
X150715910Y-109623324D01*
X150686047Y-109695420D01*
X150682204Y-109734438D01*
X150682204Y-110981324D01*
X149912996Y-109635210D01*
X149907157Y-109626985D01*
X149905641Y-109623324D01*
X149901909Y-109619592D01*
X149890301Y-109603240D01*
X149869269Y-109586952D01*
X149850461Y-109568144D01*
X149838683Y-109563265D01*
X149828603Y-109555459D01*
X149802937Y-109548459D01*
X149778365Y-109538281D01*
X149765618Y-109538281D01*
X149753316Y-109534926D01*
X149726927Y-109538281D01*
X149700329Y-109538281D01*
X149688549Y-109543160D01*
X149675903Y-109544768D01*
X149652809Y-109557964D01*
X149628233Y-109568144D01*
X149619218Y-109577158D01*
X149608149Y-109583484D01*
X149591861Y-109604515D01*
X149573053Y-109623324D01*
X149568174Y-109635101D01*
X149560368Y-109645182D01*
X149553368Y-109670847D01*
X149543190Y-109695420D01*
X149541224Y-109715373D01*
X149539835Y-109720469D01*
X149540335Y-109724403D01*
X149539347Y-109734438D01*
X149317125Y-109734438D01*
X149317125Y-109312216D01*
X157014869Y-109312216D01*
X157014869Y-112156660D01*
G37*
G36*
X137833693Y-110956864D02*
G01*
X137872595Y-110995766D01*
X137932204Y-111114984D01*
X137932204Y-111306272D01*
X137872595Y-111425488D01*
X137823255Y-111474829D01*
X137704039Y-111534438D01*
X137189347Y-111534438D01*
X137189347Y-110886819D01*
X137623557Y-110886819D01*
X137833693Y-110956864D01*
G37*
G36*
X137728019Y-109994047D02*
G01*
X137777357Y-110043385D01*
X137836966Y-110162603D01*
X137836966Y-110258653D01*
X137777357Y-110377871D01*
X137728019Y-110427208D01*
X137608800Y-110486819D01*
X137189347Y-110486819D01*
X137189347Y-109934438D01*
X137608801Y-109934438D01*
X137728019Y-109994047D01*
G37*
G36*
X139823257Y-109994047D02*
G01*
X139951610Y-110122401D01*
X140027442Y-110425727D01*
X140027442Y-111043148D01*
X139951610Y-111346473D01*
X139823255Y-111474829D01*
X139704039Y-111534438D01*
X139417512Y-111534438D01*
X139298294Y-111474829D01*
X139169939Y-111346472D01*
X139094109Y-111043148D01*
X139094109Y-110425726D01*
X139169939Y-110122401D01*
X139298295Y-109994046D01*
X139417512Y-109934438D01*
X139704039Y-109934438D01*
X139823257Y-109994047D01*
G37*
G36*
X141918495Y-109994047D02*
G01*
X142046848Y-110122401D01*
X142122680Y-110425727D01*
X142122680Y-111043148D01*
X142046848Y-111346473D01*
X141918493Y-111474829D01*
X141799277Y-111534438D01*
X141512750Y-111534438D01*
X141393532Y-111474829D01*
X141265177Y-111346472D01*
X141189347Y-111043148D01*
X141189347Y-110425726D01*
X141265177Y-110122401D01*
X141393533Y-109994046D01*
X141512750Y-109934438D01*
X141799277Y-109934438D01*
X141918495Y-109994047D01*
G37*
G36*
X145347067Y-109994047D02*
G01*
X145396405Y-110043385D01*
X145467309Y-110185193D01*
X145551252Y-110520965D01*
X145551252Y-110947910D01*
X145467309Y-111283682D01*
X145396405Y-111425488D01*
X145347065Y-111474829D01*
X145227849Y-111534438D01*
X145131798Y-111534438D01*
X145012580Y-111474829D01*
X144963242Y-111425489D01*
X144892336Y-111283678D01*
X144808395Y-110947910D01*
X144808395Y-110520964D01*
X144892336Y-110185196D01*
X144963242Y-110043384D01*
X145012580Y-109994047D01*
X145131798Y-109934438D01*
X145227849Y-109934438D01*
X145347067Y-109994047D01*
G37*
G36*
X146173474Y-112156660D02*
G01*
X136567125Y-112156660D01*
X136567125Y-109734438D01*
X136789347Y-109734438D01*
X136789347Y-111734438D01*
X136793190Y-111773456D01*
X136823053Y-111845552D01*
X136878233Y-111900732D01*
X136950329Y-111930595D01*
X136989347Y-111934438D01*
X137751252Y-111934438D01*
X137790270Y-111930595D01*
X137796907Y-111927845D01*
X137804077Y-111927336D01*
X137840695Y-111913323D01*
X138031171Y-111818085D01*
X138047964Y-111807513D01*
X138052843Y-111805493D01*
X138058334Y-111800986D01*
X138064351Y-111797199D01*
X138067812Y-111793208D01*
X138083150Y-111780621D01*
X138178388Y-111685381D01*
X138190974Y-111670045D01*
X138194965Y-111666584D01*
X138198751Y-111660568D01*
X138203261Y-111655074D01*
X138205282Y-111650192D01*
X138215851Y-111633404D01*
X138311090Y-111442927D01*
X138325102Y-111406310D01*
X138325611Y-111399140D01*
X138328361Y-111392503D01*
X138332204Y-111353485D01*
X138332204Y-111067771D01*
X138328361Y-111028753D01*
X138325611Y-111022115D01*
X138325102Y-111014946D01*
X138311090Y-110978329D01*
X138215851Y-110787852D01*
X138205281Y-110771060D01*
X138203260Y-110766181D01*
X138198752Y-110760688D01*
X138194965Y-110754672D01*
X138190973Y-110751210D01*
X138178387Y-110735874D01*
X138083149Y-110640636D01*
X138081571Y-110639340D01*
X138083149Y-110637763D01*
X138095735Y-110622426D01*
X138099727Y-110618965D01*
X138103514Y-110612948D01*
X138108022Y-110607456D01*
X138110043Y-110602576D01*
X138120613Y-110585785D01*
X138212954Y-110401104D01*
X138694109Y-110401104D01*
X138694109Y-111067771D01*
X138694779Y-111074579D01*
X138694346Y-111077493D01*
X138696504Y-111092094D01*
X138697952Y-111106789D01*
X138699079Y-111109511D01*
X138700080Y-111116278D01*
X138795318Y-111497230D01*
X138808510Y-111534151D01*
X138817362Y-111546098D01*
X138823053Y-111559837D01*
X138847925Y-111590144D01*
X139038401Y-111780621D01*
X139053739Y-111793208D01*
X139057200Y-111797199D01*
X139063216Y-111800986D01*
X139068708Y-111805493D01*
X139073586Y-111807513D01*
X139090380Y-111818085D01*
X139280857Y-111913324D01*
X139317474Y-111927336D01*
X139324643Y-111927845D01*
X139331281Y-111930595D01*
X139370299Y-111934438D01*
X139751252Y-111934438D01*
X139790270Y-111930595D01*
X139796907Y-111927845D01*
X139804077Y-111927336D01*
X139840695Y-111913323D01*
X140031171Y-111818085D01*
X140047962Y-111807515D01*
X140052842Y-111805494D01*
X140058335Y-111800985D01*
X140064351Y-111797199D01*
X140067811Y-111793208D01*
X140083150Y-111780621D01*
X140273625Y-111590144D01*
X140298498Y-111559837D01*
X140304188Y-111546098D01*
X140313041Y-111534151D01*
X140326233Y-111497230D01*
X140421470Y-111116278D01*
X140422470Y-111109514D01*
X140423599Y-111106789D01*
X140425047Y-111092086D01*
X140427205Y-111077493D01*
X140426771Y-111074579D01*
X140427442Y-111067771D01*
X140427442Y-110401104D01*
X140789347Y-110401104D01*
X140789347Y-111067771D01*
X140790017Y-111074579D01*
X140789584Y-111077493D01*
X140791742Y-111092094D01*
X140793190Y-111106789D01*
X140794317Y-111109511D01*
X140795318Y-111116278D01*
X140890556Y-111497230D01*
X140903748Y-111534151D01*
X140912600Y-111546098D01*
X140918291Y-111559837D01*
X140943163Y-111590144D01*
X141133639Y-111780621D01*
X141148977Y-111793208D01*
X141152438Y-111797199D01*
X141158454Y-111800986D01*
X141163946Y-111805493D01*
X141168824Y-111807513D01*
X141185618Y-111818085D01*
X141376095Y-111913324D01*
X141412712Y-111927336D01*
X141419881Y-111927845D01*
X141426519Y-111930595D01*
X141465537Y-111934438D01*
X141846490Y-111934438D01*
X141885508Y-111930595D01*
X141892145Y-111927845D01*
X141899315Y-111927336D01*
X141935933Y-111913323D01*
X142126409Y-111818085D01*
X142143200Y-111807515D01*
X142148080Y-111805494D01*
X142153573Y-111800985D01*
X142159589Y-111797199D01*
X142163049Y-111793208D01*
X142178388Y-111780621D01*
X142368863Y-111590144D01*
X142393736Y-111559837D01*
X142399426Y-111546098D01*
X142408279Y-111534151D01*
X142421471Y-111497230D01*
X142516708Y-111116278D01*
X142517708Y-111109514D01*
X142518837Y-111106789D01*
X142520285Y-111092086D01*
X142522443Y-111077493D01*
X142522009Y-111074579D01*
X142522680Y-111067771D01*
X142522680Y-110401104D01*
X142522009Y-110394295D01*
X142522443Y-110391382D01*
X142520285Y-110376788D01*
X142518837Y-110362086D01*
X142517708Y-110359360D01*
X142516708Y-110352597D01*
X142421471Y-109971645D01*
X142408279Y-109934724D01*
X142399426Y-109922776D01*
X142393736Y-109909038D01*
X142368864Y-109878731D01*
X142185552Y-109695420D01*
X142697952Y-109695420D01*
X142697952Y-109773456D01*
X142727815Y-109845552D01*
X142782995Y-109900732D01*
X142855091Y-109930595D01*
X142894109Y-109934438D01*
X143265537Y-109934438D01*
X143265537Y-111734438D01*
X143269380Y-111773456D01*
X143299243Y-111845552D01*
X143354423Y-111900732D01*
X143426519Y-111930595D01*
X143504555Y-111930595D01*
X143576651Y-111900732D01*
X143631831Y-111845552D01*
X143661694Y-111773456D01*
X143665537Y-111734438D01*
X143665537Y-110496342D01*
X144408395Y-110496342D01*
X144408395Y-110972533D01*
X144409065Y-110979341D01*
X144408632Y-110982255D01*
X144410790Y-110996856D01*
X144412238Y-111011551D01*
X144413365Y-111014273D01*
X144414366Y-111021040D01*
X144509604Y-111401992D01*
X144510632Y-111404871D01*
X144510735Y-111406310D01*
X144516945Y-111422538D01*
X144522796Y-111438913D01*
X144523655Y-111440072D01*
X144524748Y-111442928D01*
X144619986Y-111633404D01*
X144630557Y-111650197D01*
X144632577Y-111655074D01*
X144637083Y-111660565D01*
X144640872Y-111666584D01*
X144644863Y-111670045D01*
X144657449Y-111685382D01*
X144752687Y-111780621D01*
X144768026Y-111793210D01*
X144771486Y-111797199D01*
X144777497Y-111800983D01*
X144782994Y-111805494D01*
X144787876Y-111807516D01*
X144804666Y-111818085D01*
X144995143Y-111913324D01*
X145031760Y-111927336D01*
X145038929Y-111927845D01*
X145045567Y-111930595D01*
X145084585Y-111934438D01*
X145275062Y-111934438D01*
X145314080Y-111930595D01*
X145320717Y-111927845D01*
X145327887Y-111927336D01*
X145364505Y-111913323D01*
X145554981Y-111818085D01*
X145571774Y-111807513D01*
X145576653Y-111805493D01*
X145582144Y-111800986D01*
X145588161Y-111797199D01*
X145591622Y-111793208D01*
X145606960Y-111780621D01*
X145702198Y-111685381D01*
X145714784Y-111670045D01*
X145718775Y-111666584D01*
X145722561Y-111660568D01*
X145727071Y-111655074D01*
X145729092Y-111650192D01*
X145739661Y-111633404D01*
X145834900Y-111442927D01*
X145835992Y-111440071D01*
X145836851Y-111438913D01*
X145842697Y-111422549D01*
X145848912Y-111406310D01*
X145849014Y-111404871D01*
X145850043Y-111401992D01*
X145945280Y-111021040D01*
X145946280Y-111014276D01*
X145947409Y-111011551D01*
X145948857Y-110996848D01*
X145951015Y-110982255D01*
X145950581Y-110979341D01*
X145951252Y-110972533D01*
X145951252Y-110496342D01*
X145950581Y-110489533D01*
X145951015Y-110486620D01*
X145948857Y-110472026D01*
X145947409Y-110457324D01*
X145946280Y-110454598D01*
X145945280Y-110447835D01*
X145850043Y-110066883D01*
X145849014Y-110064003D01*
X145848912Y-110062565D01*
X145842697Y-110046325D01*
X145836851Y-110029962D01*
X145835992Y-110028803D01*
X145834900Y-110025948D01*
X145739661Y-109835471D01*
X145729091Y-109818679D01*
X145727070Y-109813800D01*
X145722562Y-109808307D01*
X145718775Y-109802291D01*
X145714783Y-109798829D01*
X145702197Y-109783493D01*
X145606959Y-109688255D01*
X145591623Y-109675668D01*
X145588161Y-109671677D01*
X145582144Y-109667889D01*
X145576652Y-109663382D01*
X145571772Y-109661360D01*
X145554981Y-109650791D01*
X145364505Y-109555553D01*
X145327887Y-109541540D01*
X145320717Y-109541030D01*
X145314080Y-109538281D01*
X145275062Y-109534438D01*
X145084585Y-109534438D01*
X145045567Y-109538281D01*
X145038929Y-109541030D01*
X145031760Y-109541540D01*
X144995143Y-109555552D01*
X144804666Y-109650791D01*
X144787874Y-109661360D01*
X144782995Y-109663382D01*
X144777502Y-109667889D01*
X144771486Y-109671677D01*
X144768024Y-109675668D01*
X144752688Y-109688255D01*
X144657450Y-109783493D01*
X144644863Y-109798828D01*
X144640872Y-109802291D01*
X144637084Y-109808307D01*
X144632577Y-109813800D01*
X144630555Y-109818679D01*
X144619986Y-109835471D01*
X144524748Y-110025947D01*
X144523655Y-110028802D01*
X144522796Y-110029962D01*
X144516945Y-110046336D01*
X144510735Y-110062565D01*
X144510632Y-110064003D01*
X144509604Y-110066883D01*
X144414366Y-110447835D01*
X144413365Y-110454601D01*
X144412238Y-110457324D01*
X144410790Y-110472018D01*
X144408632Y-110486620D01*
X144409065Y-110489533D01*
X144408395Y-110496342D01*
X143665537Y-110496342D01*
X143665537Y-109934438D01*
X144036966Y-109934438D01*
X144075984Y-109930595D01*
X144148080Y-109900732D01*
X144203260Y-109845552D01*
X144233123Y-109773456D01*
X144233123Y-109695420D01*
X144203260Y-109623324D01*
X144148080Y-109568144D01*
X144075984Y-109538281D01*
X144036966Y-109534438D01*
X142894109Y-109534438D01*
X142855091Y-109538281D01*
X142782995Y-109568144D01*
X142727815Y-109623324D01*
X142697952Y-109695420D01*
X142185552Y-109695420D01*
X142178387Y-109688255D01*
X142163051Y-109675668D01*
X142159589Y-109671677D01*
X142153572Y-109667889D01*
X142148080Y-109663382D01*
X142143200Y-109661360D01*
X142126409Y-109650791D01*
X141935933Y-109555553D01*
X141899315Y-109541540D01*
X141892145Y-109541030D01*
X141885508Y-109538281D01*
X141846490Y-109534438D01*
X141465537Y-109534438D01*
X141426519Y-109538281D01*
X141419881Y-109541030D01*
X141412712Y-109541540D01*
X141376095Y-109555552D01*
X141185618Y-109650791D01*
X141168826Y-109661360D01*
X141163947Y-109663382D01*
X141158453Y-109667890D01*
X141152438Y-109671677D01*
X141148977Y-109675666D01*
X141133640Y-109688254D01*
X140943164Y-109878731D01*
X140918291Y-109909038D01*
X140912600Y-109922776D01*
X140903748Y-109934724D01*
X140890556Y-109971645D01*
X140795318Y-110352597D01*
X140794317Y-110359363D01*
X140793190Y-110362086D01*
X140791742Y-110376780D01*
X140789584Y-110391382D01*
X140790017Y-110394295D01*
X140789347Y-110401104D01*
X140427442Y-110401104D01*
X140426771Y-110394295D01*
X140427205Y-110391382D01*
X140425047Y-110376788D01*
X140423599Y-110362086D01*
X140422470Y-110359360D01*
X140421470Y-110352597D01*
X140326233Y-109971645D01*
X140313041Y-109934724D01*
X140304188Y-109922776D01*
X140298498Y-109909038D01*
X140273626Y-109878731D01*
X140083149Y-109688255D01*
X140067813Y-109675668D01*
X140064351Y-109671677D01*
X140058334Y-109667889D01*
X140052842Y-109663382D01*
X140047962Y-109661360D01*
X140031171Y-109650791D01*
X139840695Y-109555553D01*
X139804077Y-109541540D01*
X139796907Y-109541030D01*
X139790270Y-109538281D01*
X139751252Y-109534438D01*
X139370299Y-109534438D01*
X139331281Y-109538281D01*
X139324643Y-109541030D01*
X139317474Y-109541540D01*
X139280857Y-109555552D01*
X139090380Y-109650791D01*
X139073588Y-109661360D01*
X139068709Y-109663382D01*
X139063215Y-109667890D01*
X139057200Y-109671677D01*
X139053739Y-109675666D01*
X139038402Y-109688254D01*
X138847926Y-109878731D01*
X138823053Y-109909038D01*
X138817362Y-109922776D01*
X138808510Y-109934724D01*
X138795318Y-109971645D01*
X138700080Y-110352597D01*
X138699079Y-110359363D01*
X138697952Y-110362086D01*
X138696504Y-110376780D01*
X138694346Y-110391382D01*
X138694779Y-110394295D01*
X138694109Y-110401104D01*
X138212954Y-110401104D01*
X138215852Y-110395308D01*
X138229864Y-110358691D01*
X138230373Y-110351521D01*
X138233123Y-110344884D01*
X138236966Y-110305866D01*
X138236966Y-110115390D01*
X138233123Y-110076372D01*
X138230373Y-110069734D01*
X138229864Y-110062565D01*
X138215852Y-110025948D01*
X138120613Y-109835471D01*
X138110043Y-109818679D01*
X138108022Y-109813800D01*
X138103514Y-109808307D01*
X138099727Y-109802291D01*
X138095735Y-109798829D01*
X138083149Y-109783493D01*
X137987911Y-109688255D01*
X137972575Y-109675668D01*
X137969113Y-109671677D01*
X137963096Y-109667889D01*
X137957604Y-109663382D01*
X137952724Y-109661360D01*
X137935933Y-109650791D01*
X137745457Y-109555553D01*
X137708839Y-109541540D01*
X137701669Y-109541030D01*
X137695032Y-109538281D01*
X137656014Y-109534438D01*
X136989347Y-109534438D01*
X136950329Y-109538281D01*
X136878233Y-109568144D01*
X136823053Y-109623324D01*
X136793190Y-109695420D01*
X136789347Y-109734438D01*
X136567125Y-109734438D01*
X136567125Y-109312216D01*
X146173474Y-109312216D01*
X146173474Y-112156660D01*
G37*
D13*
X174673996Y-132053428D02*
X174673996Y-133124857D01*
X174673996Y-133124857D02*
X174604949Y-133339142D01*
X174604949Y-133339142D02*
X174466853Y-133482000D01*
X174466853Y-133482000D02*
X174259711Y-133553428D01*
X174259711Y-133553428D02*
X174121615Y-133553428D01*
X176054949Y-133553428D02*
X175364473Y-133553428D01*
X175364473Y-133553428D02*
X175364473Y-132053428D01*
X177366854Y-133410571D02*
X177297806Y-133482000D01*
X177297806Y-133482000D02*
X177090664Y-133553428D01*
X177090664Y-133553428D02*
X176952568Y-133553428D01*
X176952568Y-133553428D02*
X176745425Y-133482000D01*
X176745425Y-133482000D02*
X176607330Y-133339142D01*
X176607330Y-133339142D02*
X176538283Y-133196285D01*
X176538283Y-133196285D02*
X176469235Y-132910571D01*
X176469235Y-132910571D02*
X176469235Y-132696285D01*
X176469235Y-132696285D02*
X176538283Y-132410571D01*
X176538283Y-132410571D02*
X176607330Y-132267714D01*
X176607330Y-132267714D02*
X176745425Y-132124857D01*
X176745425Y-132124857D02*
X176952568Y-132053428D01*
X176952568Y-132053428D02*
X177090664Y-132053428D01*
X177090664Y-132053428D02*
X177297806Y-132124857D01*
X177297806Y-132124857D02*
X177366854Y-132196285D01*
X178402568Y-132053428D02*
X178402568Y-133124857D01*
X178402568Y-133124857D02*
X178333521Y-133339142D01*
X178333521Y-133339142D02*
X178195425Y-133482000D01*
X178195425Y-133482000D02*
X177988283Y-133553428D01*
X177988283Y-133553428D02*
X177850187Y-133553428D01*
X179783521Y-133553428D02*
X179093045Y-133553428D01*
X179093045Y-133553428D02*
X179093045Y-132053428D01*
X181095426Y-133410571D02*
X181026378Y-133482000D01*
X181026378Y-133482000D02*
X180819236Y-133553428D01*
X180819236Y-133553428D02*
X180681140Y-133553428D01*
X180681140Y-133553428D02*
X180473997Y-133482000D01*
X180473997Y-133482000D02*
X180335902Y-133339142D01*
X180335902Y-133339142D02*
X180266855Y-133196285D01*
X180266855Y-133196285D02*
X180197807Y-132910571D01*
X180197807Y-132910571D02*
X180197807Y-132696285D01*
X180197807Y-132696285D02*
X180266855Y-132410571D01*
X180266855Y-132410571D02*
X180335902Y-132267714D01*
X180335902Y-132267714D02*
X180473997Y-132124857D01*
X180473997Y-132124857D02*
X180681140Y-132053428D01*
X180681140Y-132053428D02*
X180819236Y-132053428D01*
X180819236Y-132053428D02*
X181026378Y-132124857D01*
X181026378Y-132124857D02*
X181095426Y-132196285D01*
X182131140Y-132053428D02*
X182131140Y-133124857D01*
X182131140Y-133124857D02*
X182062093Y-133339142D01*
X182062093Y-133339142D02*
X181923997Y-133482000D01*
X181923997Y-133482000D02*
X181716855Y-133553428D01*
X181716855Y-133553428D02*
X181578759Y-133553428D01*
X183512093Y-133553428D02*
X182821617Y-133553428D01*
X182821617Y-133553428D02*
X182821617Y-132053428D01*
X184823998Y-133410571D02*
X184754950Y-133482000D01*
X184754950Y-133482000D02*
X184547808Y-133553428D01*
X184547808Y-133553428D02*
X184409712Y-133553428D01*
X184409712Y-133553428D02*
X184202569Y-133482000D01*
X184202569Y-133482000D02*
X184064474Y-133339142D01*
X184064474Y-133339142D02*
X183995427Y-133196285D01*
X183995427Y-133196285D02*
X183926379Y-132910571D01*
X183926379Y-132910571D02*
X183926379Y-132696285D01*
X183926379Y-132696285D02*
X183995427Y-132410571D01*
X183995427Y-132410571D02*
X184064474Y-132267714D01*
X184064474Y-132267714D02*
X184202569Y-132124857D01*
X184202569Y-132124857D02*
X184409712Y-132053428D01*
X184409712Y-132053428D02*
X184547808Y-132053428D01*
X184547808Y-132053428D02*
X184754950Y-132124857D01*
X184754950Y-132124857D02*
X184823998Y-132196285D01*
X185859712Y-132053428D02*
X185859712Y-133124857D01*
X185859712Y-133124857D02*
X185790665Y-133339142D01*
X185790665Y-133339142D02*
X185652569Y-133482000D01*
X185652569Y-133482000D02*
X185445427Y-133553428D01*
X185445427Y-133553428D02*
X185307331Y-133553428D01*
X187240665Y-133553428D02*
X186550189Y-133553428D01*
X186550189Y-133553428D02*
X186550189Y-132053428D01*
X188552570Y-133410571D02*
X188483522Y-133482000D01*
X188483522Y-133482000D02*
X188276380Y-133553428D01*
X188276380Y-133553428D02*
X188138284Y-133553428D01*
X188138284Y-133553428D02*
X187931141Y-133482000D01*
X187931141Y-133482000D02*
X187793046Y-133339142D01*
X187793046Y-133339142D02*
X187723999Y-133196285D01*
X187723999Y-133196285D02*
X187654951Y-132910571D01*
X187654951Y-132910571D02*
X187654951Y-132696285D01*
X187654951Y-132696285D02*
X187723999Y-132410571D01*
X187723999Y-132410571D02*
X187793046Y-132267714D01*
X187793046Y-132267714D02*
X187931141Y-132124857D01*
X187931141Y-132124857D02*
X188138284Y-132053428D01*
X188138284Y-132053428D02*
X188276380Y-132053428D01*
X188276380Y-132053428D02*
X188483522Y-132124857D01*
X188483522Y-132124857D02*
X188552570Y-132196285D01*
X206338282Y-147553428D02*
X205854949Y-146839142D01*
X205509711Y-147553428D02*
X205509711Y-146053428D01*
X205509711Y-146053428D02*
X206062092Y-146053428D01*
X206062092Y-146053428D02*
X206200187Y-146124857D01*
X206200187Y-146124857D02*
X206269234Y-146196285D01*
X206269234Y-146196285D02*
X206338282Y-146339142D01*
X206338282Y-146339142D02*
X206338282Y-146553428D01*
X206338282Y-146553428D02*
X206269234Y-146696285D01*
X206269234Y-146696285D02*
X206200187Y-146767714D01*
X206200187Y-146767714D02*
X206062092Y-146839142D01*
X206062092Y-146839142D02*
X205509711Y-146839142D01*
X208064473Y-147553428D02*
X208064473Y-146053428D01*
X208893044Y-147553428D02*
X208271615Y-146696285D01*
X208893044Y-146053428D02*
X208064473Y-146910571D01*
X210481139Y-146053428D02*
X210826377Y-147553428D01*
X210826377Y-147553428D02*
X211102568Y-146482000D01*
X211102568Y-146482000D02*
X211378758Y-147553428D01*
X211378758Y-147553428D02*
X211723997Y-146053428D01*
X214140663Y-146124857D02*
X214002568Y-146053428D01*
X214002568Y-146053428D02*
X213795425Y-146053428D01*
X213795425Y-146053428D02*
X213588282Y-146124857D01*
X213588282Y-146124857D02*
X213450187Y-146267714D01*
X213450187Y-146267714D02*
X213381140Y-146410571D01*
X213381140Y-146410571D02*
X213312092Y-146696285D01*
X213312092Y-146696285D02*
X213312092Y-146910571D01*
X213312092Y-146910571D02*
X213381140Y-147196285D01*
X213381140Y-147196285D02*
X213450187Y-147339142D01*
X213450187Y-147339142D02*
X213588282Y-147482000D01*
X213588282Y-147482000D02*
X213795425Y-147553428D01*
X213795425Y-147553428D02*
X213933521Y-147553428D01*
X213933521Y-147553428D02*
X214140663Y-147482000D01*
X214140663Y-147482000D02*
X214209711Y-147410571D01*
X214209711Y-147410571D02*
X214209711Y-146910571D01*
X214209711Y-146910571D02*
X213933521Y-146910571D01*
X216212092Y-146839142D02*
X216212092Y-147553428D01*
X215728759Y-146053428D02*
X216212092Y-146839142D01*
X216212092Y-146839142D02*
X216695425Y-146053428D01*
D12*
G36*
X206942305Y-143494047D02*
G01*
X207070658Y-143622401D01*
X207146490Y-143925727D01*
X207146490Y-144543148D01*
X207070658Y-144846473D01*
X206942303Y-144974829D01*
X206823087Y-145034438D01*
X206536560Y-145034438D01*
X206417342Y-144974829D01*
X206288987Y-144846472D01*
X206213157Y-144543148D01*
X206213157Y-143925726D01*
X206288987Y-143622401D01*
X206417343Y-143494046D01*
X206536560Y-143434438D01*
X206823087Y-143434438D01*
X206942305Y-143494047D01*
G37*
G36*
X210571788Y-143504482D02*
G01*
X210705929Y-143638624D01*
X210776833Y-143780431D01*
X210860776Y-144116203D01*
X210860776Y-144352672D01*
X210776833Y-144688444D01*
X210705929Y-144830250D01*
X210571787Y-144964393D01*
X210361653Y-145034438D01*
X210117919Y-145034438D01*
X210117919Y-143434438D01*
X210361653Y-143434438D01*
X210571788Y-143504482D01*
G37*
G36*
X208783290Y-144463009D02*
G01*
X208385880Y-144463009D01*
X208584585Y-143866894D01*
X208783290Y-144463009D01*
G37*
G36*
X218717251Y-145656660D02*
G01*
X204067125Y-145656660D01*
X204067125Y-143234438D01*
X204289347Y-143234438D01*
X204289347Y-145234438D01*
X204293190Y-145273456D01*
X204323053Y-145345552D01*
X204378233Y-145400732D01*
X204450329Y-145430595D01*
X204489347Y-145434438D01*
X205441728Y-145434438D01*
X205480746Y-145430595D01*
X205552842Y-145400732D01*
X205608022Y-145345552D01*
X205637885Y-145273456D01*
X205637885Y-145195420D01*
X205608022Y-145123324D01*
X205552842Y-145068144D01*
X205480746Y-145038281D01*
X205441728Y-145034438D01*
X204689347Y-145034438D01*
X204689347Y-143901104D01*
X205813157Y-143901104D01*
X205813157Y-144567771D01*
X205813827Y-144574579D01*
X205813394Y-144577493D01*
X205815552Y-144592094D01*
X205817000Y-144606789D01*
X205818127Y-144609511D01*
X205819128Y-144616278D01*
X205914366Y-144997230D01*
X205927558Y-145034151D01*
X205936410Y-145046098D01*
X205942101Y-145059837D01*
X205966973Y-145090144D01*
X206157449Y-145280621D01*
X206172787Y-145293208D01*
X206176248Y-145297199D01*
X206182264Y-145300986D01*
X206187756Y-145305493D01*
X206192634Y-145307513D01*
X206209428Y-145318085D01*
X206399905Y-145413324D01*
X206436522Y-145427336D01*
X206443691Y-145427845D01*
X206450329Y-145430595D01*
X206489347Y-145434438D01*
X206870300Y-145434438D01*
X206909318Y-145430595D01*
X206915955Y-145427845D01*
X206923125Y-145427336D01*
X206959743Y-145413323D01*
X207150219Y-145318085D01*
X207167010Y-145307515D01*
X207171890Y-145305494D01*
X207177383Y-145300985D01*
X207183399Y-145297199D01*
X207186859Y-145293208D01*
X207202198Y-145280621D01*
X207273395Y-145209423D01*
X207719490Y-145209423D01*
X207725021Y-145287263D01*
X207759920Y-145357061D01*
X207818873Y-145408190D01*
X207892904Y-145432867D01*
X207970744Y-145427336D01*
X208040542Y-145392437D01*
X208091671Y-145333484D01*
X208107656Y-145297683D01*
X208252547Y-144863009D01*
X208916624Y-144863009D01*
X209061515Y-145297683D01*
X209077500Y-145333484D01*
X209128629Y-145392437D01*
X209198427Y-145427335D01*
X209276267Y-145432867D01*
X209350298Y-145408190D01*
X209409251Y-145357061D01*
X209444150Y-145287263D01*
X209449681Y-145209423D01*
X209440989Y-145171192D01*
X208795404Y-143234438D01*
X209717919Y-143234438D01*
X209717919Y-145234438D01*
X209721762Y-145273456D01*
X209751625Y-145345552D01*
X209806805Y-145400732D01*
X209878901Y-145430595D01*
X209917919Y-145434438D01*
X210394109Y-145434438D01*
X210413857Y-145432492D01*
X210419123Y-145432867D01*
X210426050Y-145431291D01*
X210433127Y-145430595D01*
X210438007Y-145428573D01*
X210457354Y-145424175D01*
X210743069Y-145328937D01*
X210778870Y-145312952D01*
X210784297Y-145308244D01*
X210790938Y-145305494D01*
X210821246Y-145280621D01*
X211011721Y-145090144D01*
X211024307Y-145074807D01*
X211028299Y-145071346D01*
X211032086Y-145065329D01*
X211036594Y-145059837D01*
X211038615Y-145054957D01*
X211049185Y-145038166D01*
X211144424Y-144847689D01*
X211145516Y-144844833D01*
X211146375Y-144843675D01*
X211152221Y-144827311D01*
X211158436Y-144811072D01*
X211158538Y-144809633D01*
X211159567Y-144806754D01*
X211254804Y-144425802D01*
X211255804Y-144419038D01*
X211256933Y-144416313D01*
X211258381Y-144401610D01*
X211260539Y-144387017D01*
X211260105Y-144384103D01*
X211260776Y-144377295D01*
X211260776Y-144091580D01*
X211622681Y-144091580D01*
X211622681Y-144377295D01*
X211623351Y-144384103D01*
X211622918Y-144387017D01*
X211625076Y-144401618D01*
X211626524Y-144416313D01*
X211627651Y-144419035D01*
X211628652Y-144425802D01*
X211723890Y-144806754D01*
X211724918Y-144809633D01*
X211725021Y-144811072D01*
X211731231Y-144827300D01*
X211737082Y-144843675D01*
X211737941Y-144844834D01*
X211739034Y-144847690D01*
X211834272Y-145038166D01*
X211844841Y-145054957D01*
X211846863Y-145059837D01*
X211851371Y-145065330D01*
X211855158Y-145071346D01*
X211859148Y-145074806D01*
X211871735Y-145090144D01*
X212062211Y-145280621D01*
X212092518Y-145305493D01*
X212099157Y-145308243D01*
X212104587Y-145312952D01*
X212140388Y-145328937D01*
X212426103Y-145424175D01*
X212445449Y-145428573D01*
X212450330Y-145430595D01*
X212457406Y-145431291D01*
X212464334Y-145432867D01*
X212469599Y-145432492D01*
X212489348Y-145434438D01*
X212679824Y-145434438D01*
X212699573Y-145432492D01*
X212704839Y-145432867D01*
X212711767Y-145431291D01*
X212718842Y-145430595D01*
X212723720Y-145428574D01*
X212743070Y-145424175D01*
X213028784Y-145328937D01*
X213064584Y-145312952D01*
X213070013Y-145308243D01*
X213076653Y-145305493D01*
X213106960Y-145280621D01*
X213202198Y-145185381D01*
X213227071Y-145155074D01*
X213256934Y-145082978D01*
X213256933Y-145004942D01*
X213227070Y-144932846D01*
X213171889Y-144877666D01*
X213099793Y-144847803D01*
X213021757Y-144847804D01*
X212949661Y-144877667D01*
X212919354Y-144902540D01*
X212857501Y-144964393D01*
X212647367Y-145034438D01*
X212521804Y-145034438D01*
X212311668Y-144964393D01*
X212177528Y-144830251D01*
X212106622Y-144688440D01*
X212022681Y-144352672D01*
X212022681Y-144116202D01*
X212106622Y-143780434D01*
X212177528Y-143638622D01*
X212311669Y-143504482D01*
X212521804Y-143434438D01*
X212647367Y-143434438D01*
X212857503Y-143504483D01*
X212919355Y-143566335D01*
X212949662Y-143591208D01*
X213021758Y-143621071D01*
X213099794Y-143621071D01*
X213171890Y-143591208D01*
X213227070Y-143536028D01*
X213256933Y-143463932D01*
X213256933Y-143385896D01*
X213227070Y-143313800D01*
X213202197Y-143283493D01*
X213153142Y-143234438D01*
X213717919Y-143234438D01*
X213717919Y-145234438D01*
X213721762Y-145273456D01*
X213751625Y-145345552D01*
X213806805Y-145400732D01*
X213878901Y-145430595D01*
X213917919Y-145434438D01*
X214870300Y-145434438D01*
X214909318Y-145430595D01*
X214981414Y-145400732D01*
X215036594Y-145345552D01*
X215066457Y-145273456D01*
X215066457Y-145195420D01*
X215036594Y-145123324D01*
X214981414Y-145068144D01*
X214909318Y-145038281D01*
X214870300Y-145034438D01*
X214117919Y-145034438D01*
X214117919Y-144386819D01*
X214584586Y-144386819D01*
X214623604Y-144382976D01*
X214695700Y-144353113D01*
X214750880Y-144297933D01*
X214780743Y-144225837D01*
X214780743Y-144147801D01*
X214750880Y-144075705D01*
X214695700Y-144020525D01*
X214623604Y-143990662D01*
X214584586Y-143986819D01*
X214117919Y-143986819D01*
X214117919Y-143434438D01*
X214870300Y-143434438D01*
X214909318Y-143430595D01*
X214981414Y-143400732D01*
X215036594Y-143345552D01*
X215066457Y-143273456D01*
X215066457Y-143234438D01*
X215527443Y-143234438D01*
X215527443Y-145234438D01*
X215531286Y-145273456D01*
X215561149Y-145345552D01*
X215616329Y-145400732D01*
X215688425Y-145430595D01*
X215727443Y-145434438D01*
X216679824Y-145434438D01*
X216718842Y-145430595D01*
X216790938Y-145400732D01*
X216846118Y-145345552D01*
X216875981Y-145273456D01*
X216875981Y-145195420D01*
X216846118Y-145123324D01*
X216790938Y-145068144D01*
X216718842Y-145038281D01*
X216679824Y-145034438D01*
X215927443Y-145034438D01*
X215927443Y-143234438D01*
X217146491Y-143234438D01*
X217146491Y-145234438D01*
X217150334Y-145273456D01*
X217180197Y-145345552D01*
X217235377Y-145400732D01*
X217307473Y-145430595D01*
X217346491Y-145434438D01*
X218298872Y-145434438D01*
X218337890Y-145430595D01*
X218409986Y-145400732D01*
X218465166Y-145345552D01*
X218495029Y-145273456D01*
X218495029Y-145195420D01*
X218465166Y-145123324D01*
X218409986Y-145068144D01*
X218337890Y-145038281D01*
X218298872Y-145034438D01*
X217546491Y-145034438D01*
X217546491Y-143234438D01*
X217542648Y-143195420D01*
X217512785Y-143123324D01*
X217457605Y-143068144D01*
X217385509Y-143038281D01*
X217307473Y-143038281D01*
X217235377Y-143068144D01*
X217180197Y-143123324D01*
X217150334Y-143195420D01*
X217146491Y-143234438D01*
X215927443Y-143234438D01*
X215923600Y-143195420D01*
X215893737Y-143123324D01*
X215838557Y-143068144D01*
X215766461Y-143038281D01*
X215688425Y-143038281D01*
X215616329Y-143068144D01*
X215561149Y-143123324D01*
X215531286Y-143195420D01*
X215527443Y-143234438D01*
X215066457Y-143234438D01*
X215066457Y-143195420D01*
X215036594Y-143123324D01*
X214981414Y-143068144D01*
X214909318Y-143038281D01*
X214870300Y-143034438D01*
X213917919Y-143034438D01*
X213878901Y-143038281D01*
X213806805Y-143068144D01*
X213751625Y-143123324D01*
X213721762Y-143195420D01*
X213717919Y-143234438D01*
X213153142Y-143234438D01*
X213106959Y-143188255D01*
X213076652Y-143163382D01*
X213070012Y-143160631D01*
X213064584Y-143155924D01*
X213028784Y-143139939D01*
X212743070Y-143044701D01*
X212723720Y-143040301D01*
X212718842Y-143038281D01*
X212711767Y-143037584D01*
X212704839Y-143036009D01*
X212699573Y-143036383D01*
X212679824Y-143034438D01*
X212489348Y-143034438D01*
X212469599Y-143036383D01*
X212464334Y-143036009D01*
X212457406Y-143037584D01*
X212450330Y-143038281D01*
X212445449Y-143040302D01*
X212426103Y-143044701D01*
X212140388Y-143139939D01*
X212104587Y-143155924D01*
X212099158Y-143160631D01*
X212092519Y-143163382D01*
X212062212Y-143188254D01*
X211871736Y-143378731D01*
X211859149Y-143394066D01*
X211855158Y-143397529D01*
X211851370Y-143403545D01*
X211846863Y-143409038D01*
X211844841Y-143413917D01*
X211834272Y-143430709D01*
X211739034Y-143621185D01*
X211737941Y-143624040D01*
X211737082Y-143625200D01*
X211731231Y-143641574D01*
X211725021Y-143657803D01*
X211724918Y-143659241D01*
X211723890Y-143662121D01*
X211628652Y-144043073D01*
X211627651Y-144049839D01*
X211626524Y-144052562D01*
X211625076Y-144067256D01*
X211622918Y-144081858D01*
X211623351Y-144084771D01*
X211622681Y-144091580D01*
X211260776Y-144091580D01*
X211260105Y-144084771D01*
X211260539Y-144081858D01*
X211258381Y-144067264D01*
X211256933Y-144052562D01*
X211255804Y-144049836D01*
X211254804Y-144043073D01*
X211159567Y-143662121D01*
X211158538Y-143659241D01*
X211158436Y-143657803D01*
X211152221Y-143641563D01*
X211146375Y-143625200D01*
X211145516Y-143624041D01*
X211144424Y-143621186D01*
X211049185Y-143430709D01*
X211038615Y-143413917D01*
X211036594Y-143409038D01*
X211032085Y-143403544D01*
X211028299Y-143397529D01*
X211024309Y-143394068D01*
X211011722Y-143378731D01*
X210821245Y-143188255D01*
X210790938Y-143163382D01*
X210784298Y-143160631D01*
X210778870Y-143155924D01*
X210743069Y-143139939D01*
X210457354Y-143044701D01*
X210438007Y-143040302D01*
X210433127Y-143038281D01*
X210426050Y-143037584D01*
X210419123Y-143036009D01*
X210413857Y-143036383D01*
X210394109Y-143034438D01*
X209917919Y-143034438D01*
X209878901Y-143038281D01*
X209806805Y-143068144D01*
X209751625Y-143123324D01*
X209721762Y-143195420D01*
X209717919Y-143234438D01*
X208795404Y-143234438D01*
X208774322Y-143171192D01*
X208758337Y-143135392D01*
X208748975Y-143124597D01*
X208742584Y-143111815D01*
X208723638Y-143095384D01*
X208707208Y-143076439D01*
X208694425Y-143070047D01*
X208683631Y-143060686D01*
X208659842Y-143052756D01*
X208637410Y-143041540D01*
X208623157Y-143040527D01*
X208609600Y-143036008D01*
X208584580Y-143037786D01*
X208559570Y-143036009D01*
X208546016Y-143040526D01*
X208531760Y-143041540D01*
X208509326Y-143052757D01*
X208485539Y-143060686D01*
X208474744Y-143070047D01*
X208461962Y-143076439D01*
X208445531Y-143095384D01*
X208426586Y-143111815D01*
X208420194Y-143124597D01*
X208410833Y-143135392D01*
X208394848Y-143171192D01*
X207728182Y-145171193D01*
X207719490Y-145209423D01*
X207273395Y-145209423D01*
X207392673Y-145090144D01*
X207417546Y-145059837D01*
X207423236Y-145046098D01*
X207432089Y-145034151D01*
X207445281Y-144997230D01*
X207540518Y-144616278D01*
X207541518Y-144609514D01*
X207542647Y-144606789D01*
X207544095Y-144592086D01*
X207546253Y-144577493D01*
X207545819Y-144574579D01*
X207546490Y-144567771D01*
X207546490Y-143901104D01*
X207545819Y-143894295D01*
X207546253Y-143891382D01*
X207544095Y-143876788D01*
X207542647Y-143862086D01*
X207541518Y-143859360D01*
X207540518Y-143852597D01*
X207445281Y-143471645D01*
X207432089Y-143434724D01*
X207423236Y-143422776D01*
X207417546Y-143409038D01*
X207392674Y-143378731D01*
X207202197Y-143188255D01*
X207186861Y-143175668D01*
X207183399Y-143171677D01*
X207177382Y-143167889D01*
X207171890Y-143163382D01*
X207167010Y-143161360D01*
X207150219Y-143150791D01*
X206959743Y-143055553D01*
X206923125Y-143041540D01*
X206915955Y-143041030D01*
X206909318Y-143038281D01*
X206870300Y-143034438D01*
X206489347Y-143034438D01*
X206450329Y-143038281D01*
X206443691Y-143041030D01*
X206436522Y-143041540D01*
X206399905Y-143055552D01*
X206209428Y-143150791D01*
X206192636Y-143161360D01*
X206187757Y-143163382D01*
X206182263Y-143167890D01*
X206176248Y-143171677D01*
X206172787Y-143175666D01*
X206157450Y-143188254D01*
X205966974Y-143378731D01*
X205942101Y-143409038D01*
X205936410Y-143422776D01*
X205927558Y-143434724D01*
X205914366Y-143471645D01*
X205819128Y-143852597D01*
X205818127Y-143859363D01*
X205817000Y-143862086D01*
X205815552Y-143876780D01*
X205813394Y-143891382D01*
X205813827Y-143894295D01*
X205813157Y-143901104D01*
X204689347Y-143901104D01*
X204689347Y-143234438D01*
X204685504Y-143195420D01*
X204655641Y-143123324D01*
X204600461Y-143068144D01*
X204528365Y-143038281D01*
X204450329Y-143038281D01*
X204378233Y-143068144D01*
X204323053Y-143123324D01*
X204293190Y-143195420D01*
X204289347Y-143234438D01*
X204067125Y-143234438D01*
X204067125Y-142812216D01*
X218717251Y-142812216D01*
X218717251Y-145656660D01*
G37*
G36*
X167073257Y-151994047D02*
G01*
X167122595Y-152043385D01*
X167182204Y-152162603D01*
X167182204Y-152353891D01*
X167122595Y-152473107D01*
X167073255Y-152522448D01*
X166954039Y-152582057D01*
X166439347Y-152582057D01*
X166439347Y-151934438D01*
X166954039Y-151934438D01*
X167073257Y-151994047D01*
G37*
G36*
X171229155Y-154156660D02*
G01*
X165817125Y-154156660D01*
X165817125Y-151734438D01*
X166039347Y-151734438D01*
X166039347Y-153734438D01*
X166043190Y-153773456D01*
X166073053Y-153845552D01*
X166128233Y-153900732D01*
X166200329Y-153930595D01*
X166278365Y-153930595D01*
X166350461Y-153900732D01*
X166405641Y-153845552D01*
X166435504Y-153773456D01*
X166439347Y-153734438D01*
X166439347Y-152982057D01*
X167001252Y-152982057D01*
X167040270Y-152978214D01*
X167046907Y-152975464D01*
X167054077Y-152974955D01*
X167090695Y-152960942D01*
X167281171Y-152865704D01*
X167297964Y-152855132D01*
X167302843Y-152853112D01*
X167308334Y-152848605D01*
X167314351Y-152844818D01*
X167317812Y-152840827D01*
X167333150Y-152828240D01*
X167428388Y-152733000D01*
X167440974Y-152717664D01*
X167444965Y-152714203D01*
X167448751Y-152708187D01*
X167453261Y-152702693D01*
X167455282Y-152697811D01*
X167465851Y-152681023D01*
X167561090Y-152490546D01*
X167575102Y-152453929D01*
X167575611Y-152446759D01*
X167578361Y-152440122D01*
X167582204Y-152401104D01*
X167582204Y-152115390D01*
X167578361Y-152076372D01*
X167575611Y-152069734D01*
X167575102Y-152062565D01*
X167561090Y-152025948D01*
X167465851Y-151835471D01*
X167455281Y-151818679D01*
X167453260Y-151813800D01*
X167448752Y-151808307D01*
X167444965Y-151802291D01*
X167440973Y-151798829D01*
X167428387Y-151783493D01*
X167340314Y-151695420D01*
X167757476Y-151695420D01*
X167757476Y-151773456D01*
X167787339Y-151845552D01*
X167842519Y-151900732D01*
X167914615Y-151930595D01*
X167953633Y-151934438D01*
X168325061Y-151934438D01*
X168325061Y-153734438D01*
X168328904Y-153773456D01*
X168358767Y-153845552D01*
X168413947Y-153900732D01*
X168486043Y-153930595D01*
X168564079Y-153930595D01*
X168636175Y-153900732D01*
X168691355Y-153845552D01*
X168721218Y-153773456D01*
X168725061Y-153734438D01*
X168725061Y-152280852D01*
X169469489Y-152280852D01*
X169475021Y-152358691D01*
X169509920Y-152428489D01*
X169568873Y-152479618D01*
X169642905Y-152504296D01*
X169720744Y-152498764D01*
X169757362Y-152484751D01*
X169947838Y-152389513D01*
X169964629Y-152378943D01*
X169969509Y-152376922D01*
X169975001Y-152372414D01*
X169981018Y-152368627D01*
X169984480Y-152364635D01*
X169999816Y-152352049D01*
X170039347Y-152312518D01*
X170039347Y-153534438D01*
X169667919Y-153534438D01*
X169628901Y-153538281D01*
X169556805Y-153568144D01*
X169501625Y-153623324D01*
X169471762Y-153695420D01*
X169471762Y-153773456D01*
X169501625Y-153845552D01*
X169556805Y-153900732D01*
X169628901Y-153930595D01*
X169667919Y-153934438D01*
X170810776Y-153934438D01*
X170849794Y-153930595D01*
X170921890Y-153900732D01*
X170977070Y-153845552D01*
X171006933Y-153773456D01*
X171006933Y-153695420D01*
X170977070Y-153623324D01*
X170921890Y-153568144D01*
X170849794Y-153538281D01*
X170810776Y-153534438D01*
X170439347Y-153534438D01*
X170439347Y-151734438D01*
X170439333Y-151734298D01*
X170439347Y-151734229D01*
X170439306Y-151734026D01*
X170435504Y-151695420D01*
X170427925Y-151677123D01*
X170424042Y-151657708D01*
X170413140Y-151641429D01*
X170405641Y-151623324D01*
X170391637Y-151609320D01*
X170380620Y-151592869D01*
X170364318Y-151582001D01*
X170350461Y-151568144D01*
X170332162Y-151560564D01*
X170315690Y-151549583D01*
X170296471Y-151545780D01*
X170278365Y-151538281D01*
X170258563Y-151538281D01*
X170239138Y-151534438D01*
X170219924Y-151538281D01*
X170200329Y-151538281D01*
X170182032Y-151545859D01*
X170162617Y-151549743D01*
X170146338Y-151560644D01*
X170128233Y-151568144D01*
X170114229Y-151582147D01*
X170097778Y-151593165D01*
X170073199Y-151623177D01*
X170073053Y-151623324D01*
X170073025Y-151623389D01*
X170072937Y-151623498D01*
X169893446Y-151892733D01*
X169739924Y-152046256D01*
X169578476Y-152126981D01*
X169545296Y-152147867D01*
X169494167Y-152206820D01*
X169469489Y-152280852D01*
X168725061Y-152280852D01*
X168725061Y-151934438D01*
X169096490Y-151934438D01*
X169135508Y-151930595D01*
X169207604Y-151900732D01*
X169262784Y-151845552D01*
X169292647Y-151773456D01*
X169292647Y-151695420D01*
X169262784Y-151623324D01*
X169207604Y-151568144D01*
X169135508Y-151538281D01*
X169096490Y-151534438D01*
X167953633Y-151534438D01*
X167914615Y-151538281D01*
X167842519Y-151568144D01*
X167787339Y-151623324D01*
X167757476Y-151695420D01*
X167340314Y-151695420D01*
X167333149Y-151688255D01*
X167317813Y-151675668D01*
X167314351Y-151671677D01*
X167308334Y-151667889D01*
X167302842Y-151663382D01*
X167297962Y-151661360D01*
X167281171Y-151650791D01*
X167090695Y-151555553D01*
X167054077Y-151541540D01*
X167046907Y-151541030D01*
X167040270Y-151538281D01*
X167001252Y-151534438D01*
X166239347Y-151534438D01*
X166200329Y-151538281D01*
X166128233Y-151568144D01*
X166073053Y-151623324D01*
X166043190Y-151695420D01*
X166039347Y-151734438D01*
X165817125Y-151734438D01*
X165817125Y-151312216D01*
X171229155Y-151312216D01*
X171229155Y-154156660D01*
G37*
G36*
X199673474Y-146906660D02*
G01*
X194067125Y-146906660D01*
X194067125Y-144484438D01*
X194289347Y-144484438D01*
X194289347Y-146484438D01*
X194293190Y-146523456D01*
X194323053Y-146595552D01*
X194378233Y-146650732D01*
X194450329Y-146680595D01*
X194528365Y-146680595D01*
X194600461Y-146650732D01*
X194655641Y-146595552D01*
X194685504Y-146523456D01*
X194689347Y-146484438D01*
X194689347Y-145636819D01*
X195432204Y-145636819D01*
X195432204Y-146484438D01*
X195436047Y-146523456D01*
X195465910Y-146595552D01*
X195521090Y-146650732D01*
X195593186Y-146680595D01*
X195671222Y-146680595D01*
X195743318Y-146650732D01*
X195798498Y-146595552D01*
X195828361Y-146523456D01*
X195832204Y-146484438D01*
X195832204Y-144484438D01*
X196384585Y-144484438D01*
X196384585Y-146484438D01*
X196388428Y-146523456D01*
X196418291Y-146595552D01*
X196473471Y-146650732D01*
X196545567Y-146680595D01*
X196584585Y-146684438D01*
X197536966Y-146684438D01*
X197575984Y-146680595D01*
X197648080Y-146650732D01*
X197703260Y-146595552D01*
X197733123Y-146523456D01*
X197733123Y-146445420D01*
X197817000Y-146445420D01*
X197817000Y-146523456D01*
X197846863Y-146595552D01*
X197902043Y-146650732D01*
X197974139Y-146680595D01*
X198013157Y-146684438D01*
X199251252Y-146684438D01*
X199290270Y-146680595D01*
X199362366Y-146650732D01*
X199417546Y-146595552D01*
X199447409Y-146523456D01*
X199447409Y-146445420D01*
X199417546Y-146373324D01*
X199362366Y-146318144D01*
X199290270Y-146288281D01*
X199251252Y-146284438D01*
X198495999Y-146284438D01*
X199297436Y-145483001D01*
X199322308Y-145452694D01*
X199325058Y-145446054D01*
X199329766Y-145440626D01*
X199345751Y-145404826D01*
X199440989Y-145119112D01*
X199445388Y-145099762D01*
X199447409Y-145094884D01*
X199448105Y-145087809D01*
X199449681Y-145080881D01*
X199449306Y-145075615D01*
X199451252Y-145055866D01*
X199451252Y-144865390D01*
X199447409Y-144826372D01*
X199444659Y-144819734D01*
X199444150Y-144812565D01*
X199430138Y-144775948D01*
X199334899Y-144585471D01*
X199324329Y-144568679D01*
X199322308Y-144563800D01*
X199317800Y-144558307D01*
X199314013Y-144552291D01*
X199310021Y-144548829D01*
X199297435Y-144533493D01*
X199202197Y-144438255D01*
X199186861Y-144425668D01*
X199183399Y-144421677D01*
X199177382Y-144417889D01*
X199171890Y-144413382D01*
X199167010Y-144411360D01*
X199150219Y-144400791D01*
X198959743Y-144305553D01*
X198923125Y-144291540D01*
X198915955Y-144291030D01*
X198909318Y-144288281D01*
X198870300Y-144284438D01*
X198394109Y-144284438D01*
X198355091Y-144288281D01*
X198348453Y-144291030D01*
X198341284Y-144291540D01*
X198304667Y-144305552D01*
X198114190Y-144400791D01*
X198097398Y-144411360D01*
X198092519Y-144413382D01*
X198087026Y-144417889D01*
X198081010Y-144421677D01*
X198077548Y-144425668D01*
X198062212Y-144438255D01*
X197966974Y-144533493D01*
X197942101Y-144563800D01*
X197912238Y-144635896D01*
X197912238Y-144713932D01*
X197942101Y-144786028D01*
X197997281Y-144841208D01*
X198069377Y-144871071D01*
X198147413Y-144871071D01*
X198219509Y-144841208D01*
X198249816Y-144816335D01*
X198322104Y-144744047D01*
X198441322Y-144684438D01*
X198823087Y-144684438D01*
X198942305Y-144744047D01*
X198991643Y-144793385D01*
X199051252Y-144912603D01*
X199051252Y-145023409D01*
X198981206Y-145233544D01*
X197871736Y-146343017D01*
X197846863Y-146373324D01*
X197817000Y-146445420D01*
X197733123Y-146445420D01*
X197703260Y-146373324D01*
X197648080Y-146318144D01*
X197575984Y-146288281D01*
X197536966Y-146284438D01*
X196784585Y-146284438D01*
X196784585Y-144484438D01*
X196780742Y-144445420D01*
X196750879Y-144373324D01*
X196695699Y-144318144D01*
X196623603Y-144288281D01*
X196545567Y-144288281D01*
X196473471Y-144318144D01*
X196418291Y-144373324D01*
X196388428Y-144445420D01*
X196384585Y-144484438D01*
X195832204Y-144484438D01*
X195828361Y-144445420D01*
X195798498Y-144373324D01*
X195743318Y-144318144D01*
X195671222Y-144288281D01*
X195593186Y-144288281D01*
X195521090Y-144318144D01*
X195465910Y-144373324D01*
X195436047Y-144445420D01*
X195432204Y-144484438D01*
X195432204Y-145236819D01*
X194689347Y-145236819D01*
X194689347Y-144484438D01*
X194685504Y-144445420D01*
X194655641Y-144373324D01*
X194600461Y-144318144D01*
X194528365Y-144288281D01*
X194450329Y-144288281D01*
X194378233Y-144318144D01*
X194323053Y-144373324D01*
X194293190Y-144445420D01*
X194289347Y-144484438D01*
X194067125Y-144484438D01*
X194067125Y-144062216D01*
X199673474Y-144062216D01*
X199673474Y-146906660D01*
G37*
G36*
X199669631Y-154156660D02*
G01*
X194067125Y-154156660D01*
X194067125Y-151734438D01*
X194289347Y-151734438D01*
X194289347Y-153734438D01*
X194293190Y-153773456D01*
X194323053Y-153845552D01*
X194378233Y-153900732D01*
X194450329Y-153930595D01*
X194528365Y-153930595D01*
X194600461Y-153900732D01*
X194655641Y-153845552D01*
X194685504Y-153773456D01*
X194689347Y-153734438D01*
X194689347Y-152886819D01*
X195432204Y-152886819D01*
X195432204Y-153734438D01*
X195436047Y-153773456D01*
X195465910Y-153845552D01*
X195521090Y-153900732D01*
X195593186Y-153930595D01*
X195671222Y-153930595D01*
X195743318Y-153900732D01*
X195798498Y-153845552D01*
X195828361Y-153773456D01*
X195832204Y-153734438D01*
X195832204Y-151734438D01*
X196384585Y-151734438D01*
X196384585Y-153734438D01*
X196388428Y-153773456D01*
X196418291Y-153845552D01*
X196473471Y-153900732D01*
X196545567Y-153930595D01*
X196584585Y-153934438D01*
X197536966Y-153934438D01*
X197575984Y-153930595D01*
X197648080Y-153900732D01*
X197703260Y-153845552D01*
X197733123Y-153773456D01*
X197733123Y-153695420D01*
X197703260Y-153623324D01*
X197648080Y-153568144D01*
X197575984Y-153538281D01*
X197536966Y-153534438D01*
X196784585Y-153534438D01*
X196784585Y-152280852D01*
X197909965Y-152280852D01*
X197915497Y-152358691D01*
X197950396Y-152428489D01*
X198009349Y-152479618D01*
X198083381Y-152504296D01*
X198161220Y-152498764D01*
X198197838Y-152484751D01*
X198388314Y-152389513D01*
X198405105Y-152378943D01*
X198409985Y-152376922D01*
X198415477Y-152372414D01*
X198421494Y-152368627D01*
X198424956Y-152364635D01*
X198440292Y-152352049D01*
X198479823Y-152312518D01*
X198479823Y-153534438D01*
X198108395Y-153534438D01*
X198069377Y-153538281D01*
X197997281Y-153568144D01*
X197942101Y-153623324D01*
X197912238Y-153695420D01*
X197912238Y-153773456D01*
X197942101Y-153845552D01*
X197997281Y-153900732D01*
X198069377Y-153930595D01*
X198108395Y-153934438D01*
X199251252Y-153934438D01*
X199290270Y-153930595D01*
X199362366Y-153900732D01*
X199417546Y-153845552D01*
X199447409Y-153773456D01*
X199447409Y-153695420D01*
X199417546Y-153623324D01*
X199362366Y-153568144D01*
X199290270Y-153538281D01*
X199251252Y-153534438D01*
X198879823Y-153534438D01*
X198879823Y-151734438D01*
X198879809Y-151734298D01*
X198879823Y-151734229D01*
X198879782Y-151734026D01*
X198875980Y-151695420D01*
X198868401Y-151677123D01*
X198864518Y-151657708D01*
X198853616Y-151641429D01*
X198846117Y-151623324D01*
X198832113Y-151609320D01*
X198821096Y-151592869D01*
X198804794Y-151582001D01*
X198790937Y-151568144D01*
X198772638Y-151560564D01*
X198756166Y-151549583D01*
X198736947Y-151545780D01*
X198718841Y-151538281D01*
X198699039Y-151538281D01*
X198679614Y-151534438D01*
X198660400Y-151538281D01*
X198640805Y-151538281D01*
X198622508Y-151545859D01*
X198603093Y-151549743D01*
X198586814Y-151560644D01*
X198568709Y-151568144D01*
X198554705Y-151582147D01*
X198538254Y-151593165D01*
X198513675Y-151623177D01*
X198513529Y-151623324D01*
X198513501Y-151623389D01*
X198513413Y-151623498D01*
X198333922Y-151892733D01*
X198180400Y-152046256D01*
X198018952Y-152126981D01*
X197985772Y-152147867D01*
X197934643Y-152206820D01*
X197909965Y-152280852D01*
X196784585Y-152280852D01*
X196784585Y-151734438D01*
X196780742Y-151695420D01*
X196750879Y-151623324D01*
X196695699Y-151568144D01*
X196623603Y-151538281D01*
X196545567Y-151538281D01*
X196473471Y-151568144D01*
X196418291Y-151623324D01*
X196388428Y-151695420D01*
X196384585Y-151734438D01*
X195832204Y-151734438D01*
X195828361Y-151695420D01*
X195798498Y-151623324D01*
X195743318Y-151568144D01*
X195671222Y-151538281D01*
X195593186Y-151538281D01*
X195521090Y-151568144D01*
X195465910Y-151623324D01*
X195436047Y-151695420D01*
X195432204Y-151734438D01*
X195432204Y-152486819D01*
X194689347Y-152486819D01*
X194689347Y-151734438D01*
X194685504Y-151695420D01*
X194655641Y-151623324D01*
X194600461Y-151568144D01*
X194528365Y-151538281D01*
X194450329Y-151538281D01*
X194378233Y-151568144D01*
X194323053Y-151623324D01*
X194293190Y-151695420D01*
X194289347Y-151734438D01*
X194067125Y-151734438D01*
X194067125Y-151312216D01*
X199669631Y-151312216D01*
X199669631Y-154156660D01*
G37*
G36*
X167073257Y-144744047D02*
G01*
X167122595Y-144793385D01*
X167182204Y-144912603D01*
X167182204Y-145103891D01*
X167122595Y-145223107D01*
X167073255Y-145272448D01*
X166954039Y-145332057D01*
X166439347Y-145332057D01*
X166439347Y-144684438D01*
X166954039Y-144684438D01*
X167073257Y-144744047D01*
G37*
G36*
X171232998Y-146906660D02*
G01*
X165817125Y-146906660D01*
X165817125Y-144484438D01*
X166039347Y-144484438D01*
X166039347Y-146484438D01*
X166043190Y-146523456D01*
X166073053Y-146595552D01*
X166128233Y-146650732D01*
X166200329Y-146680595D01*
X166278365Y-146680595D01*
X166350461Y-146650732D01*
X166405641Y-146595552D01*
X166435504Y-146523456D01*
X166439347Y-146484438D01*
X166439347Y-145732057D01*
X167001252Y-145732057D01*
X167040270Y-145728214D01*
X167046907Y-145725464D01*
X167054077Y-145724955D01*
X167090695Y-145710942D01*
X167281171Y-145615704D01*
X167297964Y-145605132D01*
X167302843Y-145603112D01*
X167308334Y-145598605D01*
X167314351Y-145594818D01*
X167317812Y-145590827D01*
X167333150Y-145578240D01*
X167428388Y-145483000D01*
X167440974Y-145467664D01*
X167444965Y-145464203D01*
X167448751Y-145458187D01*
X167453261Y-145452693D01*
X167455282Y-145447811D01*
X167465851Y-145431023D01*
X167561090Y-145240546D01*
X167575102Y-145203929D01*
X167575611Y-145196759D01*
X167578361Y-145190122D01*
X167582204Y-145151104D01*
X167582204Y-144865390D01*
X167578361Y-144826372D01*
X167575611Y-144819734D01*
X167575102Y-144812565D01*
X167561090Y-144775948D01*
X167465851Y-144585471D01*
X167455281Y-144568679D01*
X167453260Y-144563800D01*
X167448752Y-144558307D01*
X167444965Y-144552291D01*
X167440973Y-144548829D01*
X167428387Y-144533493D01*
X167340314Y-144445420D01*
X167757476Y-144445420D01*
X167757476Y-144523456D01*
X167787339Y-144595552D01*
X167842519Y-144650732D01*
X167914615Y-144680595D01*
X167953633Y-144684438D01*
X168325061Y-144684438D01*
X168325061Y-146484438D01*
X168328904Y-146523456D01*
X168358767Y-146595552D01*
X168413947Y-146650732D01*
X168486043Y-146680595D01*
X168564079Y-146680595D01*
X168636175Y-146650732D01*
X168691355Y-146595552D01*
X168721218Y-146523456D01*
X168725061Y-146484438D01*
X168725061Y-146445420D01*
X169376524Y-146445420D01*
X169376524Y-146523456D01*
X169406387Y-146595552D01*
X169461567Y-146650732D01*
X169533663Y-146680595D01*
X169572681Y-146684438D01*
X170810776Y-146684438D01*
X170849794Y-146680595D01*
X170921890Y-146650732D01*
X170977070Y-146595552D01*
X171006933Y-146523456D01*
X171006933Y-146445420D01*
X170977070Y-146373324D01*
X170921890Y-146318144D01*
X170849794Y-146288281D01*
X170810776Y-146284438D01*
X170055523Y-146284438D01*
X170856960Y-145483001D01*
X170881832Y-145452694D01*
X170884582Y-145446054D01*
X170889290Y-145440626D01*
X170905275Y-145404826D01*
X171000513Y-145119112D01*
X171004912Y-145099762D01*
X171006933Y-145094884D01*
X171007629Y-145087809D01*
X171009205Y-145080881D01*
X171008830Y-145075615D01*
X171010776Y-145055866D01*
X171010776Y-144865390D01*
X171006933Y-144826372D01*
X171004183Y-144819734D01*
X171003674Y-144812565D01*
X170989662Y-144775948D01*
X170894423Y-144585471D01*
X170883853Y-144568679D01*
X170881832Y-144563800D01*
X170877324Y-144558307D01*
X170873537Y-144552291D01*
X170869545Y-144548829D01*
X170856959Y-144533493D01*
X170761721Y-144438255D01*
X170746385Y-144425668D01*
X170742923Y-144421677D01*
X170736906Y-144417889D01*
X170731414Y-144413382D01*
X170726534Y-144411360D01*
X170709743Y-144400791D01*
X170519267Y-144305553D01*
X170482649Y-144291540D01*
X170475479Y-144291030D01*
X170468842Y-144288281D01*
X170429824Y-144284438D01*
X169953633Y-144284438D01*
X169914615Y-144288281D01*
X169907977Y-144291030D01*
X169900808Y-144291540D01*
X169864191Y-144305552D01*
X169673714Y-144400791D01*
X169656922Y-144411360D01*
X169652043Y-144413382D01*
X169646550Y-144417889D01*
X169640534Y-144421677D01*
X169637072Y-144425668D01*
X169621736Y-144438255D01*
X169526498Y-144533493D01*
X169501625Y-144563800D01*
X169471762Y-144635896D01*
X169471762Y-144713932D01*
X169501625Y-144786028D01*
X169556805Y-144841208D01*
X169628901Y-144871071D01*
X169706937Y-144871071D01*
X169779033Y-144841208D01*
X169809340Y-144816335D01*
X169881628Y-144744047D01*
X170000846Y-144684438D01*
X170382611Y-144684438D01*
X170501829Y-144744047D01*
X170551167Y-144793385D01*
X170610776Y-144912603D01*
X170610776Y-145023409D01*
X170540730Y-145233544D01*
X169431260Y-146343017D01*
X169406387Y-146373324D01*
X169376524Y-146445420D01*
X168725061Y-146445420D01*
X168725061Y-144684438D01*
X169096490Y-144684438D01*
X169135508Y-144680595D01*
X169207604Y-144650732D01*
X169262784Y-144595552D01*
X169292647Y-144523456D01*
X169292647Y-144445420D01*
X169262784Y-144373324D01*
X169207604Y-144318144D01*
X169135508Y-144288281D01*
X169096490Y-144284438D01*
X167953633Y-144284438D01*
X167914615Y-144288281D01*
X167842519Y-144318144D01*
X167787339Y-144373324D01*
X167757476Y-144445420D01*
X167340314Y-144445420D01*
X167333149Y-144438255D01*
X167317813Y-144425668D01*
X167314351Y-144421677D01*
X167308334Y-144417889D01*
X167302842Y-144413382D01*
X167297962Y-144411360D01*
X167281171Y-144400791D01*
X167090695Y-144305553D01*
X167054077Y-144291540D01*
X167046907Y-144291030D01*
X167040270Y-144288281D01*
X167001252Y-144284438D01*
X166239347Y-144284438D01*
X166200329Y-144288281D01*
X166128233Y-144318144D01*
X166073053Y-144373324D01*
X166043190Y-144445420D01*
X166039347Y-144484438D01*
X165817125Y-144484438D01*
X165817125Y-144062216D01*
X171232998Y-144062216D01*
X171232998Y-146906660D01*
G37*
D14*
X188363866Y-97070951D02*
X188363866Y-96309047D01*
X188744819Y-96689999D02*
X187982914Y-96689999D01*
D10*
X216747733Y-105961904D02*
X216747733Y-104438095D01*
G36*
X217878978Y-94531244D02*
G01*
X215616488Y-94531244D01*
X215616488Y-93370735D01*
X215838710Y-93370735D01*
X215838710Y-93429263D01*
X215861108Y-93483335D01*
X215902492Y-93524719D01*
X215956564Y-93547117D01*
X215985828Y-93549999D01*
X216597733Y-93549999D01*
X216597733Y-94161904D01*
X216600615Y-94191168D01*
X216623013Y-94245240D01*
X216664397Y-94286624D01*
X216718469Y-94309022D01*
X216776997Y-94309022D01*
X216831069Y-94286624D01*
X216872453Y-94245240D01*
X216894851Y-94191168D01*
X216897733Y-94161904D01*
X216897733Y-93549999D01*
X217509638Y-93549999D01*
X217538902Y-93547117D01*
X217592974Y-93524719D01*
X217634358Y-93483335D01*
X217656756Y-93429263D01*
X217656756Y-93370735D01*
X217634358Y-93316663D01*
X217592974Y-93275279D01*
X217538902Y-93252881D01*
X217509638Y-93249999D01*
X216897733Y-93249999D01*
X216897733Y-92638095D01*
X216894851Y-92608831D01*
X216872453Y-92554759D01*
X216831069Y-92513375D01*
X216776997Y-92490977D01*
X216718469Y-92490977D01*
X216664397Y-92513375D01*
X216623013Y-92554759D01*
X216600615Y-92608831D01*
X216597733Y-92638095D01*
X216597733Y-93249999D01*
X215985828Y-93249999D01*
X215956564Y-93252881D01*
X215902492Y-93275279D01*
X215861108Y-93316663D01*
X215838710Y-93370735D01*
X215616488Y-93370735D01*
X215616488Y-92268755D01*
X217878978Y-92268755D01*
X217878978Y-94531244D01*
G37*
D15*
%TO.C,R17*%
X207227500Y-112737258D02*
X207227500Y-112262742D01*
X208272500Y-112737258D02*
X208272500Y-112262742D01*
%TO.C,J9*%
X183143279Y-147732633D02*
X183143279Y-148982633D01*
X183433279Y-148022633D02*
X183433279Y-153992633D01*
X183433279Y-153992633D02*
X193553279Y-153992633D01*
X183443279Y-148032633D02*
X183443279Y-148782633D01*
X183443279Y-148782633D02*
X185243279Y-148782633D01*
X183443279Y-150282633D02*
X184193279Y-150282633D01*
X184193279Y-150282633D02*
X184193279Y-153232633D01*
X184193279Y-153232633D02*
X188493279Y-153232633D01*
X184393279Y-147732633D02*
X183143279Y-147732633D01*
X185243279Y-148032633D02*
X183443279Y-148032633D01*
X185243279Y-148782633D02*
X185243279Y-148032633D01*
X186743279Y-148032633D02*
X186743279Y-148782633D01*
X186743279Y-148782633D02*
X190243279Y-148782633D01*
X190243279Y-148032633D02*
X186743279Y-148032633D01*
X190243279Y-148782633D02*
X190243279Y-148032633D01*
X191743279Y-148032633D02*
X191743279Y-148782633D01*
X191743279Y-148782633D02*
X193543279Y-148782633D01*
X192793279Y-150282633D02*
X192793279Y-153232633D01*
X192793279Y-153232633D02*
X188493279Y-153232633D01*
X193543279Y-148032633D02*
X191743279Y-148032633D01*
X193543279Y-148782633D02*
X193543279Y-148032633D01*
X193543279Y-150282633D02*
X192793279Y-150282633D01*
X193553279Y-148022633D02*
X183433279Y-148022633D01*
X193553279Y-153992633D02*
X193553279Y-148022633D01*
%TO.C,J1*%
X130805000Y-104570000D02*
X130805000Y-103710000D01*
X132175000Y-106050000D02*
X136625000Y-106050000D01*
X138025000Y-106050000D02*
X140325000Y-106050000D01*
X141725000Y-106050000D02*
X142445000Y-106050000D01*
X142445000Y-93870000D02*
X132625000Y-93870000D01*
X142445000Y-95100000D02*
X142445000Y-93870000D01*
X142445000Y-101070000D02*
X142445000Y-97400000D01*
X142445000Y-106050000D02*
X142445000Y-103370000D01*
%TO.C,U5*%
X200840000Y-121250000D02*
X200840000Y-125010000D01*
X200840000Y-125010000D02*
X202100000Y-125010000D01*
X207660000Y-121250000D02*
X207660000Y-125010000D01*
X207660000Y-125010000D02*
X206400000Y-125010000D01*
X207890000Y-120210000D02*
X207560000Y-119970000D01*
X207890000Y-119730000D01*
X207890000Y-120210000D01*
G36*
X207890000Y-120210000D02*
G01*
X207560000Y-119970000D01*
X207890000Y-119730000D01*
X207890000Y-120210000D01*
G37*
%TO.C,J15*%
X219852500Y-108055000D02*
X229892500Y-108055000D01*
X219852500Y-118455000D02*
X219852500Y-108055000D01*
X222872500Y-118455000D02*
X222872500Y-108055000D01*
X227772500Y-118455000D02*
X227772500Y-108055000D01*
X229272500Y-118455000D02*
X229272500Y-108055000D01*
X229892500Y-108055000D02*
X229892500Y-115495000D01*
X229892500Y-116095000D02*
X229892500Y-118455000D01*
X229892500Y-118455000D02*
X219852500Y-118455000D01*
X230502500Y-116235000D02*
X229892500Y-115795000D01*
X230502500Y-115355000D01*
X230502500Y-116235000D01*
G36*
X230502500Y-116235000D02*
G01*
X229892500Y-115795000D01*
X230502500Y-115355000D01*
X230502500Y-116235000D01*
G37*
%TO.C,J13*%
X141080000Y-153880000D02*
X141080000Y-152500000D01*
X142460000Y-153880000D02*
X141080000Y-153880000D01*
X143730000Y-151120000D02*
X156540000Y-151120000D01*
X143730000Y-153880000D02*
X143730000Y-151120000D01*
X143730000Y-153880000D02*
X156540000Y-153880000D01*
X156540000Y-153880000D02*
X156540000Y-151120000D01*
%TO.C,J7*%
X181690982Y-83119850D02*
X181690982Y-81739850D01*
X183070982Y-83119850D02*
X181690982Y-83119850D01*
X184340982Y-80359850D02*
X194610982Y-80359850D01*
X184340982Y-83119850D02*
X184340982Y-80359850D01*
X184340982Y-83119850D02*
X194610982Y-83119850D01*
X194610982Y-83119850D02*
X194610982Y-80359850D01*
%TO.C,R4*%
X152637258Y-101677500D02*
X152162742Y-101677500D01*
X152637258Y-102722500D02*
X152162742Y-102722500D01*
%TO.C,C14*%
X208834572Y-103775884D02*
X208834572Y-104057044D01*
X209854572Y-103775884D02*
X209854572Y-104057044D01*
%TO.C,J8*%
X143397112Y-83142287D02*
X143397112Y-81762287D01*
X144777112Y-83142287D02*
X143397112Y-83142287D01*
X146047112Y-80382287D02*
X179177112Y-80382287D01*
X146047112Y-83142287D02*
X146047112Y-80382287D01*
X146047112Y-83142287D02*
X179177112Y-83142287D01*
X179177112Y-83142287D02*
X179177112Y-80382287D01*
%TO.C,J17*%
X173920000Y-85145000D02*
X175250000Y-85145000D01*
X173920000Y-86475000D02*
X173920000Y-85145000D01*
X176520000Y-85145000D02*
X179120000Y-85145000D01*
X176520000Y-87805000D02*
X176520000Y-85145000D01*
X176520000Y-87805000D02*
X179120000Y-87805000D01*
X179120000Y-87805000D02*
X179120000Y-85145000D01*
%TO.C,U6*%
X198740000Y-107315000D02*
X198740000Y-108575000D01*
X198740000Y-114135000D02*
X198740000Y-112875000D01*
X202500000Y-107315000D02*
X198740000Y-107315000D01*
X202500000Y-114135000D02*
X198740000Y-114135000D01*
X204020000Y-114365000D02*
X203540000Y-114365000D01*
X203780000Y-114035000D01*
X204020000Y-114365000D01*
G36*
X204020000Y-114365000D02*
G01*
X203540000Y-114365000D01*
X203780000Y-114035000D01*
X204020000Y-114365000D01*
G37*
%TO.C,R2*%
X225537258Y-130080000D02*
X225062742Y-130080000D01*
X225537258Y-131125000D02*
X225062742Y-131125000D01*
%TO.C,R15*%
X194477500Y-142487258D02*
X194477500Y-142012742D01*
X195522500Y-142487258D02*
X195522500Y-142012742D01*
%TO.C,R1*%
X141012742Y-112477500D02*
X141487258Y-112477500D01*
X141012742Y-113522500D02*
X141487258Y-113522500D01*
D14*
%TO.C,U4*%
X204094573Y-99017461D02*
X204094573Y-96765467D01*
X209694571Y-99017461D02*
X209694571Y-96765467D01*
D13*
X204869572Y-101141465D02*
G75*
G02*
X204619570Y-101141465I-125001J0D01*
G01*
X204619570Y-101141465D02*
G75*
G02*
X204869572Y-101141465I125001J0D01*
G01*
D15*
%TO.C,U1*%
X140900000Y-125650000D02*
X141300000Y-125650000D01*
X140900000Y-141850000D02*
X140900000Y-125650000D01*
X156700000Y-141850000D02*
X157100000Y-141850000D01*
X157100000Y-125650000D02*
X156700000Y-125650000D01*
X157100000Y-141850000D02*
X157100000Y-125650000D01*
X141100000Y-142350000D02*
X140764000Y-142590000D01*
X140764000Y-142110000D01*
X141100000Y-142350000D01*
G36*
X141100000Y-142350000D02*
G01*
X140764000Y-142590000D01*
X140764000Y-142110000D01*
X141100000Y-142350000D01*
G37*
%TO.C,R6*%
X225062742Y-128330000D02*
X225537258Y-128330000D01*
X225062742Y-129375000D02*
X225537258Y-129375000D01*
%TO.C,R18*%
X206713641Y-101463218D02*
X207188157Y-101463218D01*
X206713641Y-102508218D02*
X207188157Y-102508218D01*
%TO.C,J16*%
X197547112Y-85472287D02*
X197547112Y-81112287D01*
X200047112Y-85472287D02*
X197547112Y-85472287D01*
X202907112Y-85672287D02*
X203567112Y-85672287D01*
X203567112Y-85472287D02*
X203567112Y-85672287D01*
X206067112Y-85472287D02*
X203567112Y-85472287D01*
X206067112Y-85472287D02*
X206067112Y-81112287D01*
%TO.C,R14*%
X194477500Y-149987258D02*
X194477500Y-149512742D01*
X195522500Y-149987258D02*
X195522500Y-149512742D01*
%TO.C,C18*%
X200784572Y-94680212D02*
X200784572Y-96102716D01*
X203504572Y-94680212D02*
X203504572Y-96102716D01*
%TO.C,R13*%
X196227500Y-142012742D02*
X196227500Y-142487258D01*
X197272500Y-142012742D02*
X197272500Y-142487258D01*
%TO.C,R19*%
X207228399Y-104048460D02*
X207228399Y-104522976D01*
X208273399Y-104048460D02*
X208273399Y-104522976D01*
%TO.C,R16*%
X204028399Y-103248460D02*
X204028399Y-103722976D01*
X205073399Y-103248460D02*
X205073399Y-103722976D01*
%TO.C,C15*%
X197284572Y-94680212D02*
X197284572Y-96102716D01*
X200004572Y-94680212D02*
X200004572Y-96102716D01*
%TO.C,C8*%
X210340000Y-100961252D02*
X210340000Y-99538748D01*
X212160000Y-100961252D02*
X212160000Y-99538748D01*
%TO.C,C10*%
X207115580Y-116740000D02*
X206834420Y-116740000D01*
X207115580Y-117760000D02*
X206834420Y-117760000D01*
%TO.C,R11*%
X167877500Y-141962742D02*
X167877500Y-142437258D01*
X168922500Y-141962742D02*
X168922500Y-142437258D01*
%TO.C,J12*%
X181701184Y-87877856D02*
X181701184Y-86497856D01*
X183081184Y-87877856D02*
X181701184Y-87877856D01*
X184351184Y-85117856D02*
X194621184Y-85117856D01*
X184351184Y-87877856D02*
X184351184Y-85117856D01*
X184351184Y-87877856D02*
X194621184Y-87877856D01*
X194621184Y-87877856D02*
X194621184Y-85117856D01*
%TO.C,C19*%
X205634572Y-104432044D02*
X205634572Y-104150884D01*
X206654572Y-104432044D02*
X206654572Y-104150884D01*
%TO.C,J2*%
X136790000Y-134000000D02*
X137290000Y-133750000D01*
X137290000Y-133750000D02*
X137290000Y-134250000D01*
X137290000Y-134250000D02*
X136790000Y-134000000D01*
%TO.C,J4*%
X171400000Y-147750000D02*
X171400000Y-149000000D01*
X171690000Y-148040000D02*
X171690000Y-154010000D01*
X171690000Y-154010000D02*
X181810000Y-154010000D01*
X171700000Y-148050000D02*
X171700000Y-148800000D01*
X171700000Y-148800000D02*
X173500000Y-148800000D01*
X171700000Y-150300000D02*
X172450000Y-150300000D01*
X172450000Y-150300000D02*
X172450000Y-153250000D01*
X172450000Y-153250000D02*
X176750000Y-153250000D01*
X172650000Y-147750000D02*
X171400000Y-147750000D01*
X173500000Y-148050000D02*
X171700000Y-148050000D01*
X173500000Y-148800000D02*
X173500000Y-148050000D01*
X175000000Y-148050000D02*
X175000000Y-148800000D01*
X175000000Y-148800000D02*
X178500000Y-148800000D01*
X178500000Y-148050000D02*
X175000000Y-148050000D01*
X178500000Y-148800000D02*
X178500000Y-148050000D01*
X180000000Y-148050000D02*
X180000000Y-148800000D01*
X180000000Y-148800000D02*
X181800000Y-148800000D01*
X181050000Y-150300000D02*
X181050000Y-153250000D01*
X181050000Y-153250000D02*
X176750000Y-153250000D01*
X181800000Y-148050000D02*
X180000000Y-148050000D01*
X181800000Y-148800000D02*
X181800000Y-148050000D01*
X181800000Y-150300000D02*
X181050000Y-150300000D01*
X181810000Y-148040000D02*
X171690000Y-148040000D01*
X181810000Y-154010000D02*
X181810000Y-148040000D01*
%TO.C,BZ1*%
X193350000Y-100500000D02*
G75*
G02*
X178150000Y-100500000I-7600000J0D01*
G01*
X178150000Y-100500000D02*
G75*
G02*
X193350000Y-100500000I7600000J0D01*
G01*
%TO.C,C1*%
X152859420Y-112490000D02*
X153140580Y-112490000D01*
X152859420Y-113510000D02*
X153140580Y-113510000D01*
%TO.C,C2*%
X171609420Y-97490000D02*
X171890580Y-97490000D01*
X171609420Y-98510000D02*
X171890580Y-98510000D01*
%TO.C,R12*%
X196227500Y-149512742D02*
X196227500Y-149987258D01*
X197272500Y-149512742D02*
X197272500Y-149987258D01*
%TO.C,C13*%
X205490000Y-109084420D02*
X205490000Y-109365580D01*
X206510000Y-109084420D02*
X206510000Y-109365580D01*
%TO.C,R7*%
X168727500Y-106512742D02*
X168727500Y-106987258D01*
X169772500Y-106512742D02*
X169772500Y-106987258D01*
%TO.C,Y1*%
X158765000Y-109605000D02*
X158765000Y-110295000D01*
X158965000Y-109385000D02*
X158965000Y-109055000D01*
X160645000Y-108115000D02*
X160005000Y-108115000D01*
X160645000Y-110335000D02*
X160005000Y-110335000D01*
X161685000Y-109395000D02*
X161685000Y-109055000D01*
X158765000Y-109605000D02*
G75*
G02*
X158965000Y-109384999I320002J-90001D01*
G01*
%TO.C,C6*%
X171609420Y-95740000D02*
X171890580Y-95740000D01*
X171609420Y-96760000D02*
X171890580Y-96760000D01*
%TO.C,C16*%
X197284572Y-101102716D02*
X197284572Y-99680212D01*
X200004572Y-101102716D02*
X200004572Y-99680212D01*
%TO.C,D1*%
X207015000Y-108450000D02*
X207015000Y-110735000D01*
X207015000Y-110735000D02*
X208485000Y-110735000D01*
X208485000Y-110735000D02*
X208485000Y-108450000D01*
%TO.C,J3*%
X203150000Y-148250000D02*
X203150000Y-149500000D01*
X203440000Y-148540000D02*
X203440000Y-154510000D01*
X203440000Y-154510000D02*
X218560000Y-154510000D01*
X203450000Y-148550000D02*
X203450000Y-149300000D01*
X203450000Y-149300000D02*
X205250000Y-149300000D01*
X203450000Y-150800000D02*
X204200000Y-150800000D01*
X204200000Y-150800000D02*
X204200000Y-152140000D01*
X204400000Y-148250000D02*
X203150000Y-148250000D01*
X205250000Y-148550000D02*
X203450000Y-148550000D01*
X205250000Y-149300000D02*
X205250000Y-148550000D01*
X206750000Y-148550000D02*
X206750000Y-149300000D01*
X206750000Y-149300000D02*
X215250000Y-149300000D01*
X211000000Y-153750000D02*
X205260000Y-153750000D01*
X215250000Y-148550000D02*
X206750000Y-148550000D01*
X215250000Y-149300000D02*
X215250000Y-148550000D01*
X216750000Y-148550000D02*
X216750000Y-149300000D01*
X216750000Y-149300000D02*
X218550000Y-149300000D01*
X217800000Y-150800000D02*
X217800000Y-153750000D01*
X217800000Y-153750000D02*
X211000000Y-153750000D01*
X218550000Y-148550000D02*
X216750000Y-148550000D01*
X218550000Y-149300000D02*
X218550000Y-148550000D01*
X218550000Y-150800000D02*
X217800000Y-150800000D01*
X218560000Y-148540000D02*
X203440000Y-148540000D01*
X218560000Y-154510000D02*
X218560000Y-148540000D01*
%TO.C,C12*%
X202313748Y-116340000D02*
X203736252Y-116340000D01*
X202313748Y-118160000D02*
X203736252Y-118160000D01*
%TO.C,C3*%
X170990000Y-104859420D02*
X170990000Y-105140580D01*
X172010000Y-104859420D02*
X172010000Y-105140580D01*
%TO.C,SW2*%
X149875000Y-114300000D02*
X156175000Y-114300000D01*
X149875000Y-114550000D02*
X149875000Y-114300000D01*
X149875000Y-119050000D02*
X149875000Y-116450000D01*
X149875000Y-121200000D02*
X149875000Y-120950000D01*
X156175000Y-114300000D02*
X156175000Y-114550000D01*
X156175000Y-116450000D02*
X156175000Y-119050000D01*
X156175000Y-120950000D02*
X156175000Y-121200000D01*
X156175000Y-121200000D02*
X149875000Y-121200000D01*
%TO.C,R10*%
X167877500Y-149562742D02*
X167877500Y-150037258D01*
X168922500Y-149562742D02*
X168922500Y-150037258D01*
%TO.C,C4*%
X165140580Y-108990000D02*
X164859420Y-108990000D01*
X165140580Y-110010000D02*
X164859420Y-110010000D01*
%TO.C,J5*%
X171400000Y-140250000D02*
X171400000Y-141500000D01*
X171690000Y-140540000D02*
X171690000Y-146510000D01*
X171690000Y-146510000D02*
X181810000Y-146510000D01*
X171700000Y-140550000D02*
X171700000Y-141300000D01*
X171700000Y-141300000D02*
X173500000Y-141300000D01*
X171700000Y-142800000D02*
X172450000Y-142800000D01*
X172450000Y-142800000D02*
X172450000Y-145750000D01*
X172450000Y-145750000D02*
X176750000Y-145750000D01*
X172650000Y-140250000D02*
X171400000Y-140250000D01*
X173500000Y-140550000D02*
X171700000Y-140550000D01*
X173500000Y-141300000D02*
X173500000Y-140550000D01*
X175000000Y-140550000D02*
X175000000Y-141300000D01*
X175000000Y-141300000D02*
X178500000Y-141300000D01*
X178500000Y-140550000D02*
X175000000Y-140550000D01*
X178500000Y-141300000D02*
X178500000Y-140550000D01*
X180000000Y-140550000D02*
X180000000Y-141300000D01*
X180000000Y-141300000D02*
X181800000Y-141300000D01*
X181050000Y-142800000D02*
X181050000Y-145750000D01*
X181050000Y-145750000D02*
X176750000Y-145750000D01*
X181800000Y-140550000D02*
X180000000Y-140550000D01*
X181800000Y-141300000D02*
X181800000Y-140550000D01*
X181800000Y-142800000D02*
X181050000Y-142800000D01*
X181810000Y-140540000D02*
X171690000Y-140540000D01*
X181810000Y-146510000D02*
X181810000Y-140540000D01*
%TO.C,C17*%
X200784572Y-101102716D02*
X200784572Y-99680212D01*
X203504572Y-101102716D02*
X203504572Y-99680212D01*
%TO.C,C7*%
X158359420Y-91740000D02*
X158640580Y-91740000D01*
X158359420Y-92760000D02*
X158640580Y-92760000D01*
%TO.C,C5*%
X154240000Y-105390580D02*
X154240000Y-105109420D01*
X155260000Y-105390580D02*
X155260000Y-105109420D01*
%TO.C,J14*%
X220740000Y-94190000D02*
X220740000Y-104310000D01*
X225640000Y-93600000D02*
X225640000Y-94190000D01*
X225640000Y-94190000D02*
X220740000Y-94190000D01*
X225640000Y-104310000D02*
X220740000Y-104310000D01*
X225640000Y-104310000D02*
X225640000Y-104900000D01*
X227860000Y-93600000D02*
X227860000Y-94190000D01*
X227860000Y-104310000D02*
X227860000Y-104900000D01*
X229960000Y-94190000D02*
X227860000Y-94190000D01*
X229960000Y-94190000D02*
X229960000Y-104310000D01*
X229960000Y-104310000D02*
X227860000Y-104310000D01*
X225640000Y-93600000D02*
G75*
G02*
X227860000Y-93600000I1110000J0D01*
G01*
X227860000Y-104900000D02*
G75*
G02*
X225640000Y-104900000I-1110000J0D01*
G01*
%TO.C,R8*%
X169677500Y-150037258D02*
X169677500Y-149562742D01*
X170722500Y-150037258D02*
X170722500Y-149562742D01*
%TO.C,J11*%
X215131367Y-83172576D02*
X215131367Y-88312576D01*
X215131367Y-83172576D02*
X217791367Y-83172576D01*
X215131367Y-88312576D02*
X217791367Y-88312576D01*
X216461367Y-80572576D02*
X217791367Y-80572576D01*
X217791367Y-80572576D02*
X217791367Y-81902576D01*
X217791367Y-83172576D02*
X217791367Y-88312576D01*
%TO.C,Q1*%
X184590000Y-109570000D02*
X184590000Y-110980000D01*
X185250000Y-110980000D02*
X184590000Y-110980000D01*
X186910000Y-109570000D02*
X186910000Y-110980000D01*
X186910000Y-110980000D02*
X186250000Y-110980000D01*
X187220000Y-109440000D02*
X186890000Y-109200000D01*
X187220000Y-108960000D01*
X187220000Y-109440000D01*
G36*
X187220000Y-109440000D02*
G01*
X186890000Y-109200000D01*
X187220000Y-108960000D01*
X187220000Y-109440000D01*
G37*
%TO.C,R9*%
X169677500Y-142437258D02*
X169677500Y-141962742D01*
X170722500Y-142437258D02*
X170722500Y-141962742D01*
%TO.C,J10*%
X183143279Y-140232633D02*
X183143279Y-141482633D01*
X183433279Y-140522633D02*
X183433279Y-146492633D01*
X183433279Y-146492633D02*
X193553279Y-146492633D01*
X183443279Y-140532633D02*
X183443279Y-141282633D01*
X183443279Y-141282633D02*
X185243279Y-141282633D01*
X183443279Y-142782633D02*
X184193279Y-142782633D01*
X184193279Y-142782633D02*
X184193279Y-145732633D01*
X184193279Y-145732633D02*
X188493279Y-145732633D01*
X184393279Y-140232633D02*
X183143279Y-140232633D01*
X185243279Y-140532633D02*
X183443279Y-140532633D01*
X185243279Y-141282633D02*
X185243279Y-140532633D01*
X186743279Y-140532633D02*
X186743279Y-141282633D01*
X186743279Y-141282633D02*
X190243279Y-141282633D01*
X190243279Y-140532633D02*
X186743279Y-140532633D01*
X190243279Y-141282633D02*
X190243279Y-140532633D01*
X191743279Y-140532633D02*
X191743279Y-141282633D01*
X191743279Y-141282633D02*
X193543279Y-141282633D01*
X192793279Y-142782633D02*
X192793279Y-145732633D01*
X192793279Y-145732633D02*
X188493279Y-145732633D01*
X193543279Y-140532633D02*
X191743279Y-140532633D01*
X193543279Y-141282633D02*
X193543279Y-140532633D01*
X193543279Y-142782633D02*
X192793279Y-142782633D01*
X193553279Y-140522633D02*
X183433279Y-140522633D01*
X193553279Y-146492633D02*
X193553279Y-140522633D01*
%TO.C,R3*%
X172012742Y-101477500D02*
X172487258Y-101477500D01*
X172012742Y-102522500D02*
X172487258Y-102522500D01*
%TO.C,R5*%
X152637258Y-100077500D02*
X152162742Y-100077500D01*
X152637258Y-101122500D02*
X152162742Y-101122500D01*
%TO.C,U2*%
X157890000Y-95640000D02*
X158840000Y-95640000D01*
X157890000Y-96590000D02*
X157890000Y-95640000D01*
X157890000Y-105860000D02*
X157890000Y-104910000D01*
X158840000Y-105860000D02*
X157890000Y-105860000D01*
X167160000Y-95640000D02*
X168110000Y-95640000D01*
X168110000Y-95640000D02*
X168110000Y-96590000D01*
X168110000Y-104910000D02*
X168110000Y-105860000D01*
X168110000Y-105860000D02*
X167160000Y-105860000D01*
X158840000Y-106500000D02*
X158370000Y-106840000D01*
X158370000Y-106160000D01*
X158840000Y-106500000D01*
G36*
X158840000Y-106500000D02*
G01*
X158370000Y-106840000D01*
X158370000Y-106160000D01*
X158840000Y-106500000D01*
G37*
D16*
%TO.C,U3*%
X165996143Y-116040325D02*
X196476143Y-116040325D01*
X165996143Y-138900325D02*
X165996143Y-116040325D01*
X196476143Y-116040325D02*
X196476143Y-138900325D01*
X196476143Y-138900325D02*
X165996143Y-138900325D01*
D10*
X197642143Y-132804325D02*
G75*
G02*
X197342143Y-132804325I-150000J0D01*
G01*
X197342143Y-132804325D02*
G75*
G02*
X197642143Y-132804325I150000J0D01*
G01*
D15*
%TO.C,C9*%
X210340000Y-94788748D02*
X210340000Y-96211252D01*
X212160000Y-94788748D02*
X212160000Y-96211252D01*
%TO.C,C11*%
X205490000Y-112615580D02*
X205490000Y-112334420D01*
X206510000Y-112615580D02*
X206510000Y-112334420D01*
%TO.C,SW1*%
X138100000Y-114300000D02*
X144400000Y-114300000D01*
X138100000Y-114550000D02*
X138100000Y-114300000D01*
X138100000Y-119050000D02*
X138100000Y-116450000D01*
X138100000Y-121200000D02*
X138100000Y-120950000D01*
X144400000Y-114300000D02*
X144400000Y-114550000D01*
X144400000Y-116450000D02*
X144400000Y-119050000D01*
X144400000Y-120950000D02*
X144400000Y-121200000D01*
X144400000Y-121200000D02*
X138100000Y-121200000D01*
%TO.C,Q2*%
X221530000Y-120872500D02*
X221530000Y-121142500D01*
X221530000Y-127772500D02*
X221530000Y-127502500D01*
X227950000Y-120872500D02*
X221530000Y-120872500D01*
X227950000Y-127772500D02*
X221530000Y-127772500D01*
X219800000Y-121182500D02*
X219460000Y-120712500D01*
X220140000Y-120712500D01*
X219800000Y-121182500D01*
G36*
X219800000Y-121182500D02*
G01*
X219460000Y-120712500D01*
X220140000Y-120712500D01*
X219800000Y-121182500D01*
G37*
%TO.C,J6*%
X210531367Y-83172576D02*
X210531367Y-88312576D01*
X210531367Y-83172576D02*
X213191367Y-83172576D01*
X210531367Y-88312576D02*
X213191367Y-88312576D01*
X211861367Y-80572576D02*
X213191367Y-80572576D01*
X213191367Y-80572576D02*
X213191367Y-81902576D01*
X213191367Y-83172576D02*
X213191367Y-88312576D01*
%TD*%
%LPC*%
D17*
%TO.C,U4*%
G36*
X204569573Y-95190466D02*
G01*
X204619573Y-95240463D01*
X204619573Y-95483465D01*
X204652572Y-95516465D01*
X204835572Y-95516465D01*
X204869572Y-95489465D01*
X204869572Y-95241464D01*
X204919572Y-95191464D01*
X205069572Y-95191464D01*
X205119572Y-95241464D01*
X205119574Y-96340464D01*
X205069572Y-96390464D01*
X204419573Y-96390466D01*
X204369573Y-96340464D01*
X204369573Y-95240463D01*
X204419573Y-95190464D01*
X204569573Y-95190466D01*
G37*
G36*
X205069572Y-99392464D02*
G01*
X205119574Y-99442464D01*
X205119572Y-100541464D01*
X205069572Y-100591464D01*
X204919572Y-100591464D01*
X204869572Y-100541464D01*
X204869572Y-100293463D01*
X204835572Y-100266463D01*
X204652572Y-100266463D01*
X204619573Y-100299463D01*
X204619573Y-100542465D01*
X204569573Y-100592462D01*
X204419573Y-100592464D01*
X204369573Y-100542465D01*
X204369573Y-99442464D01*
X204419573Y-99392462D01*
X205069572Y-99392464D01*
G37*
G36*
X208869572Y-95190466D02*
G01*
X208919572Y-95240463D01*
X208919572Y-95483465D01*
X208952571Y-95516465D01*
X209135571Y-95516465D01*
X209169571Y-95489465D01*
X209169571Y-95241464D01*
X209219571Y-95191464D01*
X209369571Y-95191464D01*
X209419573Y-95241464D01*
X209419573Y-96340464D01*
X209369571Y-96390464D01*
X208719572Y-96390466D01*
X208669572Y-96340464D01*
X208669572Y-95240463D01*
X208719572Y-95190464D01*
X208869572Y-95190466D01*
G37*
G36*
X209369571Y-99392464D02*
G01*
X209419573Y-99442464D01*
X209419573Y-100541464D01*
X209369571Y-100591464D01*
X209219571Y-100591464D01*
X209169571Y-100541464D01*
X209169571Y-100293463D01*
X209135571Y-100266463D01*
X208952571Y-100266463D01*
X208919572Y-100299463D01*
X208919572Y-100542465D01*
X208869572Y-100592462D01*
X208719572Y-100592464D01*
X208669572Y-100542465D01*
X208669572Y-99442464D01*
X208719572Y-99392462D01*
X209369571Y-99392464D01*
G37*
%TD*%
D18*
%TO.C,R17*%
X207750000Y-113325000D03*
X207750000Y-111675000D03*
%TD*%
D19*
%TO.C,J9*%
X185993279Y-150482633D03*
D20*
X188493279Y-150482633D03*
X190993279Y-150482633D03*
%TD*%
D21*
%TO.C,J1*%
X131175000Y-103085000D03*
X131175000Y-101985000D03*
X131175000Y-100885000D03*
X131175000Y-99785000D03*
X131175000Y-98685000D03*
X131175000Y-97585000D03*
X131175000Y-96485000D03*
D22*
X131175000Y-95435000D03*
D23*
X137325000Y-105720000D03*
X141025000Y-105720000D03*
D24*
X131300000Y-105545000D03*
D25*
X142000000Y-102220000D03*
X142000000Y-96250000D03*
D26*
X131525000Y-94225000D03*
%TD*%
D27*
%TO.C,U5*%
X206550000Y-119950000D03*
X204250000Y-119950000D03*
D28*
X204250000Y-126250000D03*
D27*
X201950000Y-119950000D03*
%TD*%
D29*
%TO.C,H4*%
X135000000Y-150000000D03*
D30*
X135000000Y-150000000D03*
%TD*%
D31*
%TO.C,J15*%
X225172500Y-115795000D03*
D32*
X225172500Y-110715000D03*
%TD*%
D33*
%TO.C,J13*%
X142460000Y-152500000D03*
D34*
X145000000Y-152500000D03*
X147540000Y-152500000D03*
X150080000Y-152500000D03*
X152620000Y-152500000D03*
X155160000Y-152500000D03*
%TD*%
D33*
%TO.C,J7*%
X183070982Y-81739850D03*
D34*
X185610982Y-81739850D03*
X188150982Y-81739850D03*
X190690982Y-81739850D03*
X193230982Y-81739850D03*
%TD*%
D35*
%TO.C,R4*%
X153225000Y-102200000D03*
X151575000Y-102200000D03*
%TD*%
D36*
%TO.C,C14*%
X209344572Y-103141464D03*
X209344572Y-104691464D03*
%TD*%
D33*
%TO.C,J8*%
X144777112Y-81762287D03*
D34*
X147317112Y-81762287D03*
X149857112Y-81762287D03*
X152397112Y-81762287D03*
X154937112Y-81762287D03*
X157477112Y-81762287D03*
X160017112Y-81762287D03*
X162557112Y-81762287D03*
X165097112Y-81762287D03*
X167637112Y-81762287D03*
X170177112Y-81762287D03*
X172717112Y-81762287D03*
X175257112Y-81762287D03*
X177797112Y-81762287D03*
%TD*%
D33*
%TO.C,J17*%
X175250000Y-86475000D03*
D34*
X177790000Y-86475000D03*
%TD*%
D37*
%TO.C,U6*%
X203800000Y-113025000D03*
X203800000Y-110725000D03*
D38*
X197500000Y-110725000D03*
D37*
X203800000Y-108425000D03*
%TD*%
D35*
%TO.C,R2*%
X226125000Y-130602500D03*
X224475000Y-130602500D03*
%TD*%
D18*
%TO.C,R15*%
X195000000Y-143075000D03*
X195000000Y-141425000D03*
%TD*%
D39*
%TO.C,R1*%
X140425000Y-113000000D03*
X142075000Y-113000000D03*
%TD*%
D40*
%TO.C,U4*%
X204744508Y-99948023D03*
D41*
X205644572Y-100091465D03*
X206144571Y-100091465D03*
X206644572Y-100091465D03*
X207144572Y-100091465D03*
X207644573Y-100091465D03*
X208144572Y-100091465D03*
D40*
X209044507Y-99948023D03*
D42*
X209044573Y-96015466D03*
D41*
X208144572Y-95691463D03*
X207644573Y-95691463D03*
X207144572Y-95691463D03*
X206644572Y-95691463D03*
X206144571Y-95691463D03*
X205644572Y-95691463D03*
D42*
X204744574Y-96015466D03*
D43*
X205844572Y-97891464D03*
X206894572Y-97891464D03*
X207944572Y-97891464D03*
%TD*%
D44*
%TO.C,U1*%
X142000000Y-141275000D03*
X144000000Y-141275000D03*
X146000000Y-141275000D03*
X148000000Y-141275000D03*
X150000000Y-141275000D03*
X152000000Y-141275000D03*
X154000000Y-141275000D03*
X156000000Y-141275000D03*
X156000000Y-126225000D03*
X154000000Y-126225000D03*
X152000000Y-126225000D03*
X150000000Y-126225000D03*
X148000000Y-126225000D03*
X146000000Y-126225000D03*
X144000000Y-126225000D03*
X142000000Y-126225000D03*
%TD*%
D39*
%TO.C,R6*%
X224475000Y-128852500D03*
X226125000Y-128852500D03*
%TD*%
%TO.C,R18*%
X206125899Y-101985718D03*
X207775899Y-101985718D03*
%TD*%
D45*
%TO.C,J16*%
X203107112Y-84737287D03*
X202457112Y-84737287D03*
X201807112Y-84737287D03*
X201157112Y-84737287D03*
X200507112Y-84737287D03*
D46*
X205107112Y-82062287D03*
D47*
X205007112Y-84512287D03*
D48*
X203007112Y-82062287D03*
X200607112Y-82062287D03*
D47*
X198607112Y-84512287D03*
D46*
X198507112Y-82062287D03*
%TD*%
D18*
%TO.C,R14*%
X195000000Y-150575000D03*
X195000000Y-148925000D03*
%TD*%
D49*
%TO.C,C18*%
X202144572Y-93916464D03*
X202144572Y-96866464D03*
%TD*%
D50*
%TO.C,R13*%
X196750000Y-141425000D03*
X196750000Y-143075000D03*
%TD*%
%TO.C,R19*%
X207750899Y-103460718D03*
X207750899Y-105110718D03*
%TD*%
D29*
%TO.C,H2*%
X224972319Y-84996615D03*
D30*
X224972319Y-84996615D03*
%TD*%
D50*
%TO.C,R16*%
X204550899Y-102660718D03*
X204550899Y-104310718D03*
%TD*%
D49*
%TO.C,C15*%
X198644572Y-93916464D03*
X198644572Y-96866464D03*
%TD*%
D51*
%TO.C,C8*%
X211250000Y-101725000D03*
X211250000Y-98775000D03*
%TD*%
D52*
%TO.C,C10*%
X207750000Y-117250000D03*
X206200000Y-117250000D03*
%TD*%
D50*
%TO.C,R11*%
X168400000Y-141375000D03*
X168400000Y-143025000D03*
%TD*%
D33*
%TO.C,J12*%
X183081184Y-86497856D03*
D34*
X185621184Y-86497856D03*
X188161184Y-86497856D03*
X190701184Y-86497856D03*
X193241184Y-86497856D03*
%TD*%
D53*
%TO.C,C19*%
X206144572Y-105066464D03*
X206144572Y-103516464D03*
%TD*%
D54*
%TO.C,J2*%
X133070000Y-134000000D03*
D55*
X133070000Y-129620000D03*
X133070000Y-138380000D03*
%TD*%
D19*
%TO.C,J4*%
X174250000Y-150500000D03*
D20*
X176750000Y-150500000D03*
X179250000Y-150500000D03*
%TD*%
D56*
%TO.C,BZ1*%
X185750000Y-96700000D03*
D57*
X185750000Y-104300000D03*
%TD*%
D58*
%TO.C,C1*%
X152225000Y-113000000D03*
X153775000Y-113000000D03*
%TD*%
%TO.C,C2*%
X170975000Y-98000000D03*
X172525000Y-98000000D03*
%TD*%
D50*
%TO.C,R12*%
X196750000Y-148925000D03*
X196750000Y-150575000D03*
%TD*%
D36*
%TO.C,C13*%
X206000000Y-108450000D03*
X206000000Y-110000000D03*
%TD*%
D50*
%TO.C,R7*%
X169250000Y-105925000D03*
X169250000Y-107575000D03*
%TD*%
D59*
%TO.C,Y1*%
X159400000Y-109950000D03*
X161250000Y-109950000D03*
X161250000Y-108500000D03*
X159400000Y-108500000D03*
%TD*%
D58*
%TO.C,C6*%
X170975000Y-96250000D03*
X172525000Y-96250000D03*
%TD*%
D60*
%TO.C,C16*%
X198644572Y-101866464D03*
X198644572Y-98916464D03*
%TD*%
D61*
%TO.C,D1*%
X207750000Y-110037500D03*
X207750000Y-108462500D03*
%TD*%
D19*
%TO.C,J3*%
X206000000Y-151000000D03*
D20*
X208500000Y-151000000D03*
X211000000Y-151000000D03*
X213500000Y-151000000D03*
X216000000Y-151000000D03*
%TD*%
D62*
%TO.C,C12*%
X201550000Y-117250000D03*
X204500000Y-117250000D03*
%TD*%
D36*
%TO.C,C3*%
X171500000Y-104225000D03*
X171500000Y-105775000D03*
%TD*%
D63*
%TO.C,SW2*%
X149050000Y-115500000D03*
X157000000Y-115500000D03*
X149050000Y-120000000D03*
X157000000Y-120000000D03*
%TD*%
D50*
%TO.C,R10*%
X168400000Y-148975000D03*
X168400000Y-150625000D03*
%TD*%
D52*
%TO.C,C4*%
X165775000Y-109500000D03*
X164225000Y-109500000D03*
%TD*%
D19*
%TO.C,J5*%
X174250000Y-143000000D03*
D20*
X176750000Y-143000000D03*
X179250000Y-143000000D03*
%TD*%
D60*
%TO.C,C17*%
X202144572Y-101866464D03*
X202144572Y-98916464D03*
%TD*%
D58*
%TO.C,C7*%
X157725000Y-92250000D03*
X159275000Y-92250000D03*
%TD*%
D53*
%TO.C,C5*%
X154750000Y-106025000D03*
X154750000Y-104475000D03*
%TD*%
D64*
%TO.C,J14*%
X226750000Y-93750000D03*
X226750000Y-104750000D03*
D65*
X216750000Y-101750000D03*
D66*
X216750000Y-96750000D03*
%TD*%
D18*
%TO.C,R8*%
X170200000Y-150625000D03*
X170200000Y-148975000D03*
%TD*%
D33*
%TO.C,J11*%
X216461367Y-81902576D03*
D34*
X216461367Y-84442576D03*
X216461367Y-86982576D03*
%TD*%
D67*
%TO.C,Q1*%
X186400000Y-109250000D03*
X185100000Y-109250000D03*
X185750000Y-111250000D03*
%TD*%
D18*
%TO.C,R9*%
X170200000Y-143025000D03*
X170200000Y-141375000D03*
%TD*%
D19*
%TO.C,J10*%
X185993279Y-142982633D03*
D20*
X188493279Y-142982633D03*
X190993279Y-142982633D03*
%TD*%
D39*
%TO.C,R3*%
X171425000Y-102000000D03*
X173075000Y-102000000D03*
%TD*%
D35*
%TO.C,R5*%
X153225000Y-100600000D03*
X151575000Y-100600000D03*
%TD*%
D68*
%TO.C,U2*%
X159250000Y-106425000D03*
X159750000Y-106425000D03*
X160250000Y-106425000D03*
X160750000Y-106425000D03*
X161250000Y-106425000D03*
X161750000Y-106425000D03*
X162250000Y-106425000D03*
X162750000Y-106425000D03*
X163250000Y-106425000D03*
X163750000Y-106425000D03*
X164250000Y-106425000D03*
X164750000Y-106425000D03*
X165250000Y-106425000D03*
X165750000Y-106425000D03*
X166250000Y-106425000D03*
X166750000Y-106425000D03*
D69*
X168675000Y-104500000D03*
X168675000Y-104000000D03*
X168675000Y-103500000D03*
X168675000Y-103000000D03*
X168675000Y-102500000D03*
X168675000Y-102000000D03*
X168675000Y-101500000D03*
X168675000Y-101000000D03*
X168675000Y-100500000D03*
X168675000Y-100000000D03*
X168675000Y-99500000D03*
X168675000Y-99000000D03*
X168675000Y-98500000D03*
X168675000Y-98000000D03*
X168675000Y-97500000D03*
X168675000Y-97000000D03*
D68*
X166750000Y-95075000D03*
X166250000Y-95075000D03*
X165750000Y-95075000D03*
X165250000Y-95075000D03*
X164750000Y-95075000D03*
X164250000Y-95075000D03*
X163750000Y-95075000D03*
X163250000Y-95075000D03*
X162750000Y-95075000D03*
X162250000Y-95075000D03*
X161750000Y-95075000D03*
X161250000Y-95075000D03*
X160750000Y-95075000D03*
X160250000Y-95075000D03*
X159750000Y-95075000D03*
X159250000Y-95075000D03*
D69*
X157325000Y-97000000D03*
X157325000Y-97500000D03*
X157325000Y-98000000D03*
X157325000Y-98500000D03*
X157325000Y-99000000D03*
X157325000Y-99500000D03*
X157325000Y-100000000D03*
X157325000Y-100500000D03*
X157325000Y-101000000D03*
X157325000Y-101500000D03*
X157325000Y-102000000D03*
X157325000Y-102500000D03*
X157325000Y-103000000D03*
X157325000Y-103500000D03*
X157325000Y-104000000D03*
X157325000Y-104500000D03*
%TD*%
D70*
%TO.C,U3*%
X195206143Y-132550325D03*
X195206143Y-130010325D03*
X195206143Y-127470325D03*
X195206143Y-124930325D03*
X195206143Y-122390325D03*
X167266143Y-122390325D03*
X167266143Y-124930325D03*
X167266143Y-127470325D03*
X167266143Y-130010325D03*
X167266143Y-132550325D03*
X174886143Y-124930325D03*
X174886143Y-122390325D03*
%TD*%
D71*
%TO.C,C9*%
X211250000Y-94025000D03*
X211250000Y-96975000D03*
%TD*%
D53*
%TO.C,C11*%
X206000000Y-113250000D03*
X206000000Y-111700000D03*
%TD*%
D29*
%TO.C,H1*%
X135000000Y-85000000D03*
D30*
X135000000Y-85000000D03*
%TD*%
D29*
%TO.C,H3*%
X225000000Y-150000000D03*
D30*
X225000000Y-150000000D03*
%TD*%
D63*
%TO.C,SW1*%
X137275000Y-115500000D03*
X145225000Y-115500000D03*
X137275000Y-120000000D03*
X145225000Y-120000000D03*
%TD*%
D72*
%TO.C,Q2*%
X219800000Y-122042500D03*
D73*
X226100000Y-124322500D03*
D72*
X219800000Y-126602500D03*
%TD*%
D33*
%TO.C,J6*%
X211861367Y-81902576D03*
D34*
X211861367Y-84442576D03*
X211861367Y-86982576D03*
%TD*%
%LPD*%
M02*
