M48
; DRILL file {KiCad 9.0.5} date 2025-10-16T12:34:52-0400
; FORMAT={-:-/ absolute / metric / decimal}
; #@! TF.CreationDate,2025-10-16T12:34:52-04:00
; #@! TF.GenerationSoftware,Kicad,Pcbnew,9.0.5
; #@! TF.FileFunction,Plated,1,4,PTH
FMAT,2
METRIC
; #@! TA.AperFunction,Plated,PTH,ViaDrill
T1C0.300
; #@! TA.AperFunction,Plated,PTH,ComponentDrill
T2C0.460
; #@! TA.AperFunction,Plated,PTH,ComponentDrill
T3C0.500
; #@! TA.AperFunction,Plated,PTH,ComponentDrill
T4C0.950
; #@! TA.AperFunction,Plated,PTH,ComponentDrill
T5C1.000
; #@! TA.AperFunction,Plated,PTH,ComponentDrill
T6C1.016
; #@! TA.AperFunction,Plated,PTH,ComponentDrill
T7C1.300
; #@! TA.AperFunction,Plated,PTH,ComponentDrill
T8C1.900
; #@! TA.AperFunction,Plated,PTH,ComponentDrill
T9C3.200
%
G90
G05
T1
X132.8Y-97.6
X132.8Y-99.8
X136.85Y-133.25
X136.85Y-134.75
X137.4Y-107.0
X138.25Y-133.25
X138.25Y-134.75
X138.25Y-143.75
X139.65Y-133.25
X139.65Y-134.75
X141.05Y-133.25
X141.05Y-134.75
X141.25Y-119.5
X142.0Y-139.0
X142.45Y-133.25
X142.45Y-134.75
X143.0Y-113.0
X143.8Y-100.75
X143.85Y-133.25
X143.85Y-134.75
X144.5Y-123.25
X145.256Y-133.262
X145.256Y-134.762
X145.5Y-123.25
X146.4Y-99.75
X146.65Y-133.25
X146.65Y-134.75
X147.6Y-128.6
X147.75Y-136.75
X147.75Y-137.5
X147.875Y-103.875
X148.056Y-133.262
X148.056Y-134.762
X148.2Y-99.0
X148.2Y-128.6
X148.6Y-93.75
X148.6Y-94.5
X148.8Y-98.4
X148.8Y-124.0
X149.4Y-138.8
X149.45Y-133.25
X149.45Y-134.75
X149.75Y-124.0
X150.25Y-138.75
X150.85Y-133.25
X150.85Y-134.75
X152.2Y-101.4
X152.25Y-133.25
X152.25Y-134.75
X153.0Y-119.5
X153.8Y-133.0
X154.0Y-104.9
X154.0Y-105.6
X154.0Y-128.25
X154.0Y-134.6
X154.6Y-113.0
X154.75Y-132.25
X155.25Y-128.45
X155.25Y-129.85
X155.25Y-131.25
X155.6Y-133.8
X156.0Y-139.0
X156.4Y-132.6
X156.75Y-128.45
X156.75Y-129.85
X156.75Y-131.25
X157.0Y-93.2
X158.3Y-91.5
X158.625Y-100.125
X159.0Y-91.5
X159.0Y-97.75
X159.25Y-102.5
X159.75Y-99.5
X159.75Y-101.25
X160.0Y-98.5
X160.25Y-88.0
X160.25Y-101.8
X160.25Y-108.5
X160.5Y-110.0
X160.711Y-104.489
X161.4Y-105.0
X161.75Y-141.25
X162.0Y-132.55
X162.25Y-109.5
X162.5Y-96.5
X163.014Y-109.514
X163.25Y-97.25
X163.25Y-120.0
X163.25Y-121.75
X163.25Y-123.75
X163.25Y-125.75
X163.25Y-127.75
X163.25Y-129.75
X163.25Y-131.75
X163.25Y-133.75
X163.25Y-135.75
X163.25Y-137.75
X163.25Y-139.75
X163.508Y-105.231
X163.75Y-100.5
X164.0Y-92.5
X164.494Y-105.231
X164.6Y-110.4
X164.75Y-116.5
X165.4Y-110.4
X165.75Y-104.75
X166.548Y-92.548
X167.0Y-114.75
X167.2Y-148.2
X167.25Y-105.2
X167.5Y-93.0
X168.4Y-143.95
X168.4Y-151.55
X169.0Y-88.0
X169.0Y-114.75
X170.0Y-106.4
X170.25Y-107.5
X170.4Y-140.0
X170.5Y-88.0
X171.25Y-110.75
X171.389Y-100.639
X171.4Y-95.4
X172.0Y-114.75
X172.2Y-95.4
X172.25Y-102.75
X172.25Y-108.75
X172.4Y-104.6
X172.4Y-105.4
X172.75Y-101.0
X174.0Y-102.0
X174.014Y-112.514
X175.0Y-114.75
X177.0Y-114.75
X177.25Y-83.75
X178.75Y-112.5
X179.5Y-84.3
X182.0Y-109.25
X183.0Y-114.75
X185.0Y-114.75
X185.75Y-110.25
X187.0Y-114.75
X189.0Y-114.75
X191.0Y-114.75
X193.0Y-114.75
X195.0Y-114.75
X195.0Y-147.6
X196.5Y-96.5
X196.5Y-97.3
X196.5Y-98.5
X196.5Y-99.3
X196.75Y-151.5
X196.762Y-143.923
X196.8Y-140.0
X196.9Y-97.9
X197.0Y-114.75
X197.5Y-95.5
X197.5Y-100.25
X197.7Y-97.9
X198.0Y-95.0
X198.0Y-100.75
X198.5Y-95.5
X198.5Y-100.25
X198.6Y-97.9
X199.0Y-95.0
X199.0Y-100.75
X199.0Y-114.75
X199.25Y-109.75
X199.25Y-110.75
X199.25Y-111.75
X199.5Y-95.5
X199.5Y-97.9
X199.5Y-100.25
X200.0Y-95.0
X200.0Y-100.75
X200.25Y-85.75
X200.25Y-109.75
X200.25Y-110.75
X200.25Y-111.75
X200.4Y-97.9
X200.5Y-95.5
X200.5Y-100.25
X201.0Y-95.0
X201.0Y-100.75
X201.0Y-110.75
X201.0Y-114.75
X201.25Y-108.425
X201.25Y-122.0
X201.25Y-123.0
X201.3Y-97.9
X201.5Y-95.5
X201.5Y-100.25
X201.75Y-110.25
X201.75Y-111.25
X201.9Y-107.8
X201.9Y-109.1
X201.95Y-121.5
X201.95Y-122.5
X201.95Y-123.5
X202.0Y-95.0
X202.0Y-100.75
X202.2Y-97.9
X202.5Y-95.5
X202.5Y-100.25
X202.5Y-108.425
X202.5Y-109.75
X202.5Y-110.75
X202.5Y-111.75
X202.75Y-122.0
X202.75Y-123.0
X203.0Y-95.0
X203.0Y-100.75
X203.0Y-114.75
X203.1Y-97.9
X203.5Y-95.5
X203.5Y-100.25
X204.0Y-97.1
X204.0Y-97.9
X204.0Y-98.7
X204.25Y-121.5
X204.25Y-122.75
X204.25Y-124.0
X204.7Y-97.5
X204.7Y-98.4
X205.2Y-97.9
X206.0Y-110.85
X206.75Y-118.25
X207.0Y-105.75
X207.5Y-115.25
X207.5Y-118.25
X207.75Y-112.65
X208.0Y-118.75
X208.0Y-119.5
X208.0Y-120.25
X208.25Y-114.5
X208.25Y-115.25
X208.25Y-116.0
X208.5Y-121.75
X208.6Y-97.9
X209.0Y-115.25
X209.25Y-97.45
X209.25Y-98.35
X209.75Y-95.5
X209.75Y-100.25
X209.75Y-123.0
X209.9Y-97.0
X209.9Y-97.9
X209.9Y-98.8
X210.15Y-95.0
X210.15Y-100.75
X210.5Y-95.5
X210.5Y-100.25
X210.85Y-95.0
X210.85Y-100.75
X211.0Y-124.25
X211.25Y-95.5
X211.25Y-100.25
X211.3Y-97.9
X211.55Y-95.0
X211.55Y-100.75
X212.0Y-95.5
X212.0Y-100.25
X212.25Y-95.0
X212.25Y-100.75
X212.25Y-125.5
X212.7Y-96.7
X212.7Y-97.4
X212.7Y-98.3
X212.7Y-99.1
X212.75Y-93.75
X212.75Y-94.5
X212.75Y-95.5
X212.75Y-100.25
X212.75Y-101.25
X212.75Y-102.0
X213.5Y-126.75
X214.75Y-128.0
X215.0Y-129.5
X215.0Y-131.5
X215.0Y-133.5
X215.0Y-135.5
X215.0Y-137.5
X215.0Y-139.5
X215.75Y-141.0
X217.0Y-142.25
X217.4Y-121.0
X218.25Y-143.5
X218.6Y-125.703
X218.6Y-127.502
X219.2Y-125.102
X219.2Y-128.102
X219.5Y-145.25
X219.5Y-147.25
X219.5Y-149.25
X219.5Y-151.25
X219.5Y-153.25
X219.8Y-124.502
X219.8Y-125.703
X219.8Y-127.502
X219.8Y-128.702
X220.4Y-125.102
X220.4Y-128.102
X221.0Y-125.703
X221.0Y-127.502
X222.8Y-129.852
X226.9Y-130.602
T2
X136.51Y-129.62
X136.51Y-138.38
T4
X174.25Y-143.0
X174.25Y-150.5
X176.75Y-143.0
X176.75Y-150.5
X179.25Y-143.0
X179.25Y-150.5
X185.993Y-142.983
X185.993Y-150.483
X188.493Y-142.983
X188.493Y-150.483
X190.993Y-142.983
X190.993Y-150.483
X206.0Y-151.0
X208.5Y-151.0
X211.0Y-151.0
X213.5Y-151.0
X216.0Y-151.0
T5
X142.46Y-152.5
X144.777Y-81.762
X145.0Y-152.5
X147.317Y-81.762
X147.54Y-152.5
X149.857Y-81.762
X150.08Y-152.5
X152.397Y-81.762
X152.62Y-152.5
X154.937Y-81.762
X155.16Y-152.5
X157.477Y-81.762
X160.017Y-81.762
X162.557Y-81.762
X165.097Y-81.762
X167.637Y-81.762
X170.177Y-81.762
X172.717Y-81.762
X175.25Y-86.475
X175.257Y-81.762
X177.79Y-86.475
X177.797Y-81.762
X183.071Y-81.74
X183.081Y-86.498
X185.611Y-81.74
X185.621Y-86.498
X185.75Y-96.7
X185.75Y-104.3
X188.151Y-81.74
X188.161Y-86.498
X190.691Y-81.74
X190.701Y-86.498
X193.231Y-81.74
X193.241Y-86.498
X211.861Y-81.903
X211.861Y-84.443
X211.861Y-86.983
X216.461Y-81.903
X216.461Y-84.443
X216.461Y-86.983
X226.75Y-93.75
X226.75Y-104.75
T6
X167.266Y-122.39
X167.266Y-124.93
X167.266Y-127.47
X167.266Y-130.01
X167.266Y-132.55
X174.886Y-122.39
X174.886Y-124.93
X195.206Y-122.39
X195.206Y-124.93
X195.206Y-127.47
X195.206Y-130.01
X195.206Y-132.55
T7
X225.172Y-110.715
X225.172Y-115.795
T8
X216.75Y-96.75
X216.75Y-101.75
T9
X135.0Y-85.0
X135.0Y-150.0
X224.972Y-84.997
X225.0Y-150.0
T3
X198.507Y-81.712G85X198.507Y-82.412
G05
X205.107Y-81.712G85X205.107Y-82.412
G05
M30
