%TF.GenerationSoftware,KiCad,Pcbnew,9.0.5*%
%TF.CreationDate,2025-10-16T12:34:52-04:00*%
%TF.ProjectId,INFERNO,494e4645-524e-44f2-9e6b-696361645f70,rev?*%
%TF.SameCoordinates,Original*%
%TF.FileFunction,Drillmap*%
%TF.FilePolarity,Positive*%
%FSLAX45Y45*%
G04 Gerber Fmt 4.5, Leading zero omitted, Abs format (unit mm)*
G04 Created by KiCad (PCBNEW 9.0.5) date 2025-10-16 12:34:52*
%MOMM*%
%LPD*%
G01*
G04 APERTURE LIST*
%ADD10C,0.050000*%
%ADD11C,0.200000*%
%ADD12C,0.100000*%
%ADD13C,0.101600*%
%ADD14C,0.130000*%
%ADD15C,0.190000*%
%ADD16C,0.320000*%
G04 APERTURE END LIST*
D10*
X13500000Y-8000000D02*
X22500000Y-8000000D01*
X13500000Y-15500000D02*
G75*
G02*
X13000000Y-15000000I0J500000D01*
G01*
X22500000Y-15500000D02*
X13500000Y-15500000D01*
X22500000Y-8000000D02*
G75*
G02*
X23000000Y-8500000I0J-500000D01*
G01*
X23000000Y-8500000D02*
X23000000Y-15000000D01*
X13000000Y-8500000D02*
G75*
G02*
X13500000Y-8000000I500000J0D01*
G01*
X23000000Y-15000000D02*
G75*
G02*
X22500000Y-15500000I-500000J0D01*
G01*
X13000000Y-15000000D02*
X13000000Y-8500000D01*
D11*
D12*
X13265000Y-9745000D02*
X13295000Y-9775000D01*
X13295000Y-9745000D02*
X13265000Y-9775000D01*
X13265000Y-9965000D02*
X13295000Y-9995000D01*
X13295000Y-9965000D02*
X13265000Y-9995000D01*
X13670000Y-13310000D02*
X13700000Y-13340000D01*
X13700000Y-13310000D02*
X13670000Y-13340000D01*
X13670000Y-13460000D02*
X13700000Y-13490000D01*
X13700000Y-13460000D02*
X13670000Y-13490000D01*
X13725000Y-10685000D02*
X13755000Y-10715000D01*
X13755000Y-10685000D02*
X13725000Y-10715000D01*
X13810000Y-13310000D02*
X13840000Y-13340000D01*
X13840000Y-13310000D02*
X13810000Y-13340000D01*
X13810000Y-13460000D02*
X13840000Y-13490000D01*
X13840000Y-13460000D02*
X13810000Y-13490000D01*
X13810000Y-14360000D02*
X13840000Y-14390000D01*
X13840000Y-14360000D02*
X13810000Y-14390000D01*
X13950000Y-13310000D02*
X13980000Y-13340000D01*
X13980000Y-13310000D02*
X13950000Y-13340000D01*
X13950000Y-13460000D02*
X13980000Y-13490000D01*
X13980000Y-13460000D02*
X13950000Y-13490000D01*
X14090000Y-13310000D02*
X14120000Y-13340000D01*
X14120000Y-13310000D02*
X14090000Y-13340000D01*
X14090000Y-13460000D02*
X14120000Y-13490000D01*
X14120000Y-13460000D02*
X14090000Y-13490000D01*
X14110000Y-11935000D02*
X14140000Y-11965000D01*
X14140000Y-11935000D02*
X14110000Y-11965000D01*
X14185000Y-13885000D02*
X14215000Y-13915000D01*
X14215000Y-13885000D02*
X14185000Y-13915000D01*
X14230000Y-13310000D02*
X14260000Y-13340000D01*
X14260000Y-13310000D02*
X14230000Y-13340000D01*
X14230000Y-13460000D02*
X14260000Y-13490000D01*
X14260000Y-13460000D02*
X14230000Y-13490000D01*
X14285000Y-11285000D02*
X14315000Y-11315000D01*
X14315000Y-11285000D02*
X14285000Y-11315000D01*
X14365000Y-10060000D02*
X14395000Y-10090000D01*
X14395000Y-10060000D02*
X14365000Y-10090000D01*
X14370000Y-13310000D02*
X14400000Y-13340000D01*
X14400000Y-13310000D02*
X14370000Y-13340000D01*
X14370000Y-13460000D02*
X14400000Y-13490000D01*
X14400000Y-13460000D02*
X14370000Y-13490000D01*
X14435000Y-12310000D02*
X14465000Y-12340000D01*
X14465000Y-12310000D02*
X14435000Y-12340000D01*
X14510577Y-13311159D02*
X14540577Y-13341159D01*
X14540577Y-13311159D02*
X14510577Y-13341159D01*
X14510577Y-13461159D02*
X14540577Y-13491159D01*
X14540577Y-13461159D02*
X14510577Y-13491159D01*
X14535000Y-12310000D02*
X14565000Y-12340000D01*
X14565000Y-12310000D02*
X14535000Y-12340000D01*
X14625000Y-9960000D02*
X14655000Y-9990000D01*
X14655000Y-9960000D02*
X14625000Y-9990000D01*
X14650000Y-13310000D02*
X14680000Y-13340000D01*
X14680000Y-13310000D02*
X14650000Y-13340000D01*
X14650000Y-13460000D02*
X14680000Y-13490000D01*
X14680000Y-13460000D02*
X14650000Y-13490000D01*
X14745000Y-12845000D02*
X14775000Y-12875000D01*
X14775000Y-12845000D02*
X14745000Y-12875000D01*
X14760000Y-13660000D02*
X14790000Y-13690000D01*
X14790000Y-13660000D02*
X14760000Y-13690000D01*
X14760000Y-13735000D02*
X14790000Y-13765000D01*
X14790000Y-13735000D02*
X14760000Y-13765000D01*
X14772500Y-10372500D02*
X14802500Y-10402500D01*
X14802500Y-10372500D02*
X14772500Y-10402500D01*
X14790577Y-13311159D02*
X14820577Y-13341159D01*
X14820577Y-13311159D02*
X14790577Y-13341159D01*
X14790577Y-13461159D02*
X14820577Y-13491159D01*
X14820577Y-13461159D02*
X14790577Y-13491159D01*
X14805000Y-9885000D02*
X14835000Y-9915000D01*
X14835000Y-9885000D02*
X14805000Y-9915000D01*
X14805000Y-12845000D02*
X14835000Y-12875000D01*
X14835000Y-12845000D02*
X14805000Y-12875000D01*
X14845000Y-9360000D02*
X14875000Y-9390000D01*
X14875000Y-9360000D02*
X14845000Y-9390000D01*
X14845000Y-9435000D02*
X14875000Y-9465000D01*
X14875000Y-9435000D02*
X14845000Y-9465000D01*
X14865000Y-9825000D02*
X14895000Y-9855000D01*
X14895000Y-9825000D02*
X14865000Y-9855000D01*
X14865000Y-12385000D02*
X14895000Y-12415000D01*
X14895000Y-12385000D02*
X14865000Y-12415000D01*
X14925000Y-13865000D02*
X14955000Y-13895000D01*
X14955000Y-13865000D02*
X14925000Y-13895000D01*
X14930000Y-13310000D02*
X14960000Y-13340000D01*
X14960000Y-13310000D02*
X14930000Y-13340000D01*
X14930000Y-13460000D02*
X14960000Y-13490000D01*
X14960000Y-13460000D02*
X14930000Y-13490000D01*
X14960000Y-12385000D02*
X14990000Y-12415000D01*
X14990000Y-12385000D02*
X14960000Y-12415000D01*
X15010000Y-13860000D02*
X15040000Y-13890000D01*
X15040000Y-13860000D02*
X15010000Y-13890000D01*
X15070000Y-13310000D02*
X15100000Y-13340000D01*
X15100000Y-13310000D02*
X15070000Y-13340000D01*
X15070000Y-13460000D02*
X15100000Y-13490000D01*
X15100000Y-13460000D02*
X15070000Y-13490000D01*
X15205000Y-10125000D02*
X15235000Y-10155000D01*
X15235000Y-10125000D02*
X15205000Y-10155000D01*
X15210000Y-13310000D02*
X15240000Y-13340000D01*
X15240000Y-13310000D02*
X15210000Y-13340000D01*
X15210000Y-13460000D02*
X15240000Y-13490000D01*
X15240000Y-13460000D02*
X15210000Y-13490000D01*
X15285000Y-11935000D02*
X15315000Y-11965000D01*
X15315000Y-11935000D02*
X15285000Y-11965000D01*
X15365000Y-13285000D02*
X15395000Y-13315000D01*
X15395000Y-13285000D02*
X15365000Y-13315000D01*
X15385000Y-10475000D02*
X15415000Y-10505000D01*
X15415000Y-10475000D02*
X15385000Y-10505000D01*
X15385000Y-10545000D02*
X15415000Y-10575000D01*
X15415000Y-10545000D02*
X15385000Y-10575000D01*
X15385000Y-12810000D02*
X15415000Y-12840000D01*
X15415000Y-12810000D02*
X15385000Y-12840000D01*
X15385000Y-13445000D02*
X15415000Y-13475000D01*
X15415000Y-13445000D02*
X15385000Y-13475000D01*
X15445000Y-11285000D02*
X15475000Y-11315000D01*
X15475000Y-11285000D02*
X15445000Y-11315000D01*
X15460000Y-13210000D02*
X15490000Y-13240000D01*
X15490000Y-13210000D02*
X15460000Y-13240000D01*
X15510000Y-12830000D02*
X15540000Y-12860000D01*
X15540000Y-12830000D02*
X15510000Y-12860000D01*
X15510000Y-12970000D02*
X15540000Y-13000000D01*
X15540000Y-12970000D02*
X15510000Y-13000000D01*
X15510000Y-13110000D02*
X15540000Y-13140000D01*
X15540000Y-13110000D02*
X15510000Y-13140000D01*
X15545000Y-13365000D02*
X15575000Y-13395000D01*
X15575000Y-13365000D02*
X15545000Y-13395000D01*
X15585000Y-13885000D02*
X15615000Y-13915000D01*
X15615000Y-13885000D02*
X15585000Y-13915000D01*
X15625000Y-13245000D02*
X15655000Y-13275000D01*
X15655000Y-13245000D02*
X15625000Y-13275000D01*
X15660000Y-12830000D02*
X15690000Y-12860000D01*
X15690000Y-12830000D02*
X15660000Y-12860000D01*
X15660000Y-12970000D02*
X15690000Y-13000000D01*
X15690000Y-12970000D02*
X15660000Y-13000000D01*
X15660000Y-13110000D02*
X15690000Y-13140000D01*
X15690000Y-13110000D02*
X15660000Y-13140000D01*
X15685000Y-9305000D02*
X15715000Y-9335000D01*
X15715000Y-9305000D02*
X15685000Y-9335000D01*
X15815000Y-9135000D02*
X15845000Y-9165000D01*
X15845000Y-9135000D02*
X15815000Y-9165000D01*
X15847500Y-9997500D02*
X15877500Y-10027500D01*
X15877500Y-9997500D02*
X15847500Y-10027500D01*
X15885000Y-9135000D02*
X15915000Y-9165000D01*
X15915000Y-9135000D02*
X15885000Y-9165000D01*
X15885000Y-9760000D02*
X15915000Y-9790000D01*
X15915000Y-9760000D02*
X15885000Y-9790000D01*
X15910000Y-10235000D02*
X15940000Y-10265000D01*
X15940000Y-10235000D02*
X15910000Y-10265000D01*
X15960000Y-9935000D02*
X15990000Y-9965000D01*
X15990000Y-9935000D02*
X15960000Y-9965000D01*
X15960000Y-10110000D02*
X15990000Y-10140000D01*
X15990000Y-10110000D02*
X15960000Y-10140000D01*
X15985000Y-9835000D02*
X16015000Y-9865000D01*
X16015000Y-9835000D02*
X15985000Y-9865000D01*
X16010000Y-8785000D02*
X16040000Y-8815000D01*
X16040000Y-8785000D02*
X16010000Y-8815000D01*
X16010000Y-10165000D02*
X16040000Y-10195000D01*
X16040000Y-10165000D02*
X16010000Y-10195000D01*
X16010000Y-10835000D02*
X16040000Y-10865000D01*
X16040000Y-10835000D02*
X16010000Y-10865000D01*
X16035000Y-10985000D02*
X16065000Y-11015000D01*
X16065000Y-10985000D02*
X16035000Y-11015000D01*
X16056109Y-10433891D02*
X16086109Y-10463891D01*
X16086109Y-10433891D02*
X16056109Y-10463891D01*
X16125000Y-10485000D02*
X16155000Y-10515000D01*
X16155000Y-10485000D02*
X16125000Y-10515000D01*
X16160000Y-14110000D02*
X16190000Y-14140000D01*
X16190000Y-14110000D02*
X16160000Y-14140000D01*
X16185000Y-13240032D02*
X16215000Y-13270032D01*
X16215000Y-13240032D02*
X16185000Y-13270032D01*
X16210000Y-10935000D02*
X16240000Y-10965000D01*
X16240000Y-10935000D02*
X16210000Y-10965000D01*
X16235000Y-9635000D02*
X16265000Y-9665000D01*
X16265000Y-9635000D02*
X16235000Y-9665000D01*
X16286391Y-10936391D02*
X16316391Y-10966391D01*
X16316391Y-10936391D02*
X16286391Y-10966391D01*
X16310000Y-9710000D02*
X16340000Y-9740000D01*
X16340000Y-9710000D02*
X16310000Y-9740000D01*
X16310000Y-11985000D02*
X16340000Y-12015000D01*
X16340000Y-11985000D02*
X16310000Y-12015000D01*
X16310000Y-12160000D02*
X16340000Y-12190000D01*
X16340000Y-12160000D02*
X16310000Y-12190000D01*
X16310000Y-12360000D02*
X16340000Y-12390000D01*
X16340000Y-12360000D02*
X16310000Y-12390000D01*
X16310000Y-12560000D02*
X16340000Y-12590000D01*
X16340000Y-12560000D02*
X16310000Y-12590000D01*
X16310000Y-12760000D02*
X16340000Y-12790000D01*
X16340000Y-12760000D02*
X16310000Y-12790000D01*
X16310000Y-12960000D02*
X16340000Y-12990000D01*
X16340000Y-12960000D02*
X16310000Y-12990000D01*
X16310000Y-13160000D02*
X16340000Y-13190000D01*
X16340000Y-13160000D02*
X16310000Y-13190000D01*
X16310000Y-13360000D02*
X16340000Y-13390000D01*
X16340000Y-13360000D02*
X16310000Y-13390000D01*
X16310000Y-13560000D02*
X16340000Y-13590000D01*
X16340000Y-13560000D02*
X16310000Y-13590000D01*
X16310000Y-13760000D02*
X16340000Y-13790000D01*
X16340000Y-13760000D02*
X16310000Y-13790000D01*
X16310000Y-13960000D02*
X16340000Y-13990000D01*
X16340000Y-13960000D02*
X16310000Y-13990000D01*
X16335763Y-10508129D02*
X16365763Y-10538129D01*
X16365763Y-10508129D02*
X16335763Y-10538129D01*
X16360000Y-10035000D02*
X16390000Y-10065000D01*
X16390000Y-10035000D02*
X16360000Y-10065000D01*
X16385000Y-9235000D02*
X16415000Y-9265000D01*
X16415000Y-9235000D02*
X16385000Y-9265000D01*
X16434392Y-10508074D02*
X16464392Y-10538074D01*
X16464392Y-10508074D02*
X16434392Y-10538074D01*
X16445000Y-11025000D02*
X16475000Y-11055000D01*
X16475000Y-11025000D02*
X16445000Y-11055000D01*
X16460000Y-11635000D02*
X16490000Y-11665000D01*
X16490000Y-11635000D02*
X16460000Y-11665000D01*
X16525000Y-11025000D02*
X16555000Y-11055000D01*
X16555000Y-11025000D02*
X16525000Y-11055000D01*
X16560000Y-10460000D02*
X16590000Y-10490000D01*
X16590000Y-10460000D02*
X16560000Y-10490000D01*
X16639801Y-9239801D02*
X16669801Y-9269801D01*
X16669801Y-9239801D02*
X16639801Y-9269801D01*
X16685000Y-11460000D02*
X16715000Y-11490000D01*
X16715000Y-11460000D02*
X16685000Y-11490000D01*
X16705000Y-14805000D02*
X16735000Y-14835000D01*
X16735000Y-14805000D02*
X16705000Y-14835000D01*
X16710000Y-10505000D02*
X16740000Y-10535000D01*
X16740000Y-10505000D02*
X16710000Y-10535000D01*
X16735000Y-9285000D02*
X16765000Y-9315000D01*
X16765000Y-9285000D02*
X16735000Y-9315000D01*
X16825000Y-14380000D02*
X16855000Y-14410000D01*
X16855000Y-14380000D02*
X16825000Y-14410000D01*
X16825000Y-15140000D02*
X16855000Y-15170000D01*
X16855000Y-15140000D02*
X16825000Y-15170000D01*
X16885000Y-8785000D02*
X16915000Y-8815000D01*
X16915000Y-8785000D02*
X16885000Y-8815000D01*
X16885000Y-11460000D02*
X16915000Y-11490000D01*
X16915000Y-11460000D02*
X16885000Y-11490000D01*
X16985000Y-10625000D02*
X17015000Y-10655000D01*
X17015000Y-10625000D02*
X16985000Y-10655000D01*
X17010000Y-10735000D02*
X17040000Y-10765000D01*
X17040000Y-10735000D02*
X17010000Y-10765000D01*
X17025000Y-13985000D02*
X17055000Y-14015000D01*
X17055000Y-13985000D02*
X17025000Y-14015000D01*
X17035000Y-8785000D02*
X17065000Y-8815000D01*
X17065000Y-8785000D02*
X17035000Y-8815000D01*
X17110000Y-11060000D02*
X17140000Y-11090000D01*
X17140000Y-11060000D02*
X17110000Y-11090000D01*
X17123891Y-10048891D02*
X17153891Y-10078891D01*
X17153891Y-10048891D02*
X17123891Y-10078891D01*
X17125000Y-9525000D02*
X17155000Y-9555000D01*
X17155000Y-9525000D02*
X17125000Y-9555000D01*
X17185000Y-11460000D02*
X17215000Y-11490000D01*
X17215000Y-11460000D02*
X17185000Y-11490000D01*
X17205000Y-9525000D02*
X17235000Y-9555000D01*
X17235000Y-9525000D02*
X17205000Y-9555000D01*
X17210000Y-10260000D02*
X17240000Y-10290000D01*
X17240000Y-10260000D02*
X17210000Y-10290000D01*
X17210000Y-10860000D02*
X17240000Y-10890000D01*
X17240000Y-10860000D02*
X17210000Y-10890000D01*
X17225000Y-10445000D02*
X17255000Y-10475000D01*
X17255000Y-10445000D02*
X17225000Y-10475000D01*
X17225000Y-10525000D02*
X17255000Y-10555000D01*
X17255000Y-10525000D02*
X17225000Y-10555000D01*
X17260000Y-10085000D02*
X17290000Y-10115000D01*
X17290000Y-10085000D02*
X17260000Y-10115000D01*
X17385000Y-10185000D02*
X17415000Y-10215000D01*
X17415000Y-10185000D02*
X17385000Y-10215000D01*
X17386391Y-11236391D02*
X17416391Y-11266391D01*
X17416391Y-11236391D02*
X17386391Y-11266391D01*
X17485000Y-11460000D02*
X17515000Y-11490000D01*
X17515000Y-11460000D02*
X17485000Y-11490000D01*
X17685000Y-11460000D02*
X17715000Y-11490000D01*
X17715000Y-11460000D02*
X17685000Y-11490000D01*
X17710000Y-8360000D02*
X17740000Y-8390000D01*
X17740000Y-8360000D02*
X17710000Y-8390000D01*
X17860000Y-11235000D02*
X17890000Y-11265000D01*
X17890000Y-11235000D02*
X17860000Y-11265000D01*
X17935000Y-8415000D02*
X17965000Y-8445000D01*
X17965000Y-8415000D02*
X17935000Y-8445000D01*
X18185000Y-10910000D02*
X18215000Y-10940000D01*
X18215000Y-10910000D02*
X18185000Y-10940000D01*
X18285000Y-11460000D02*
X18315000Y-11490000D01*
X18315000Y-11460000D02*
X18285000Y-11490000D01*
X18485000Y-11460000D02*
X18515000Y-11490000D01*
X18515000Y-11460000D02*
X18485000Y-11490000D01*
X18560000Y-11010000D02*
X18590000Y-11040000D01*
X18590000Y-11010000D02*
X18560000Y-11040000D01*
X18685000Y-11460000D02*
X18715000Y-11490000D01*
X18715000Y-11460000D02*
X18685000Y-11490000D01*
X18885000Y-11460000D02*
X18915000Y-11490000D01*
X18915000Y-11460000D02*
X18885000Y-11490000D01*
X19085000Y-11460000D02*
X19115000Y-11490000D01*
X19115000Y-11460000D02*
X19085000Y-11490000D01*
X19285000Y-11460000D02*
X19315000Y-11490000D01*
X19315000Y-11460000D02*
X19285000Y-11490000D01*
X19485000Y-11460000D02*
X19515000Y-11490000D01*
X19515000Y-11460000D02*
X19485000Y-11490000D01*
X19485000Y-14745000D02*
X19515000Y-14775000D01*
X19515000Y-14745000D02*
X19485000Y-14775000D01*
X19635000Y-9635000D02*
X19665000Y-9665000D01*
X19665000Y-9635000D02*
X19635000Y-9665000D01*
X19635000Y-9715000D02*
X19665000Y-9745000D01*
X19665000Y-9715000D02*
X19635000Y-9745000D01*
X19635000Y-9835000D02*
X19665000Y-9865000D01*
X19665000Y-9835000D02*
X19635000Y-9865000D01*
X19635000Y-9915000D02*
X19665000Y-9945000D01*
X19665000Y-9915000D02*
X19635000Y-9945000D01*
X19660000Y-15135000D02*
X19690000Y-15165000D01*
X19690000Y-15135000D02*
X19660000Y-15165000D01*
X19661247Y-14377271D02*
X19691247Y-14407271D01*
X19691247Y-14377271D02*
X19661247Y-14407271D01*
X19665000Y-13985000D02*
X19695000Y-14015000D01*
X19695000Y-13985000D02*
X19665000Y-14015000D01*
X19675000Y-9775000D02*
X19705000Y-9805000D01*
X19705000Y-9775000D02*
X19675000Y-9805000D01*
X19685000Y-11460000D02*
X19715000Y-11490000D01*
X19715000Y-11460000D02*
X19685000Y-11490000D01*
X19735000Y-9535000D02*
X19765000Y-9565000D01*
X19765000Y-9535000D02*
X19735000Y-9565000D01*
X19735000Y-10010000D02*
X19765000Y-10040000D01*
X19765000Y-10010000D02*
X19735000Y-10040000D01*
X19755000Y-9775000D02*
X19785000Y-9805000D01*
X19785000Y-9775000D02*
X19755000Y-9805000D01*
X19785000Y-9485000D02*
X19815000Y-9515000D01*
X19815000Y-9485000D02*
X19785000Y-9515000D01*
X19785000Y-10060000D02*
X19815000Y-10090000D01*
X19815000Y-10060000D02*
X19785000Y-10090000D01*
X19835000Y-9535000D02*
X19865000Y-9565000D01*
X19865000Y-9535000D02*
X19835000Y-9565000D01*
X19835000Y-10010000D02*
X19865000Y-10040000D01*
X19865000Y-10010000D02*
X19835000Y-10040000D01*
X19845000Y-9775000D02*
X19875000Y-9805000D01*
X19875000Y-9775000D02*
X19845000Y-9805000D01*
X19885000Y-9485000D02*
X19915000Y-9515000D01*
X19915000Y-9485000D02*
X19885000Y-9515000D01*
X19885000Y-10060000D02*
X19915000Y-10090000D01*
X19915000Y-10060000D02*
X19885000Y-10090000D01*
X19885000Y-11460000D02*
X19915000Y-11490000D01*
X19915000Y-11460000D02*
X19885000Y-11490000D01*
X19910000Y-10960000D02*
X19940000Y-10990000D01*
X19940000Y-10960000D02*
X19910000Y-10990000D01*
X19910000Y-11060000D02*
X19940000Y-11090000D01*
X19940000Y-11060000D02*
X19910000Y-11090000D01*
X19910000Y-11160000D02*
X19940000Y-11190000D01*
X19940000Y-11160000D02*
X19910000Y-11190000D01*
X19935000Y-9535000D02*
X19965000Y-9565000D01*
X19965000Y-9535000D02*
X19935000Y-9565000D01*
X19935000Y-9775000D02*
X19965000Y-9805000D01*
X19965000Y-9775000D02*
X19935000Y-9805000D01*
X19935000Y-10010000D02*
X19965000Y-10040000D01*
X19965000Y-10010000D02*
X19935000Y-10040000D01*
X19985000Y-9485000D02*
X20015000Y-9515000D01*
X20015000Y-9485000D02*
X19985000Y-9515000D01*
X19985000Y-10060000D02*
X20015000Y-10090000D01*
X20015000Y-10060000D02*
X19985000Y-10090000D01*
X20010000Y-8560000D02*
X20040000Y-8590000D01*
X20040000Y-8560000D02*
X20010000Y-8590000D01*
X20010000Y-10960000D02*
X20040000Y-10990000D01*
X20040000Y-10960000D02*
X20010000Y-10990000D01*
X20010000Y-11060000D02*
X20040000Y-11090000D01*
X20040000Y-11060000D02*
X20010000Y-11090000D01*
X20010000Y-11160000D02*
X20040000Y-11190000D01*
X20040000Y-11160000D02*
X20010000Y-11190000D01*
X20025000Y-9775000D02*
X20055000Y-9805000D01*
X20055000Y-9775000D02*
X20025000Y-9805000D01*
X20035000Y-9535000D02*
X20065000Y-9565000D01*
X20065000Y-9535000D02*
X20035000Y-9565000D01*
X20035000Y-10010000D02*
X20065000Y-10040000D01*
X20065000Y-10010000D02*
X20035000Y-10040000D01*
X20085000Y-9485000D02*
X20115000Y-9515000D01*
X20115000Y-9485000D02*
X20085000Y-9515000D01*
X20085000Y-10060000D02*
X20115000Y-10090000D01*
X20115000Y-10060000D02*
X20085000Y-10090000D01*
X20085000Y-11060000D02*
X20115000Y-11090000D01*
X20115000Y-11060000D02*
X20085000Y-11090000D01*
X20085000Y-11460000D02*
X20115000Y-11490000D01*
X20115000Y-11460000D02*
X20085000Y-11490000D01*
X20110000Y-10827500D02*
X20140000Y-10857500D01*
X20140000Y-10827500D02*
X20110000Y-10857500D01*
X20110000Y-12185000D02*
X20140000Y-12215000D01*
X20140000Y-12185000D02*
X20110000Y-12215000D01*
X20110000Y-12285000D02*
X20140000Y-12315000D01*
X20140000Y-12285000D02*
X20110000Y-12315000D01*
X20115000Y-9775000D02*
X20145000Y-9805000D01*
X20145000Y-9775000D02*
X20115000Y-9805000D01*
X20135000Y-9535000D02*
X20165000Y-9565000D01*
X20165000Y-9535000D02*
X20135000Y-9565000D01*
X20135000Y-10010000D02*
X20165000Y-10040000D01*
X20165000Y-10010000D02*
X20135000Y-10040000D01*
X20160000Y-11010000D02*
X20190000Y-11040000D01*
X20190000Y-11010000D02*
X20160000Y-11040000D01*
X20160000Y-11110000D02*
X20190000Y-11140000D01*
X20190000Y-11110000D02*
X20160000Y-11140000D01*
X20175000Y-10765000D02*
X20205000Y-10795000D01*
X20205000Y-10765000D02*
X20175000Y-10795000D01*
X20175000Y-10895000D02*
X20205000Y-10925000D01*
X20205000Y-10895000D02*
X20175000Y-10925000D01*
X20180000Y-12135000D02*
X20210000Y-12165000D01*
X20210000Y-12135000D02*
X20180000Y-12165000D01*
X20180000Y-12235000D02*
X20210000Y-12265000D01*
X20210000Y-12235000D02*
X20180000Y-12265000D01*
X20180000Y-12335000D02*
X20210000Y-12365000D01*
X20210000Y-12335000D02*
X20180000Y-12365000D01*
X20185000Y-9485000D02*
X20215000Y-9515000D01*
X20215000Y-9485000D02*
X20185000Y-9515000D01*
X20185000Y-10060000D02*
X20215000Y-10090000D01*
X20215000Y-10060000D02*
X20185000Y-10090000D01*
X20205000Y-9775000D02*
X20235000Y-9805000D01*
X20235000Y-9775000D02*
X20205000Y-9805000D01*
X20235000Y-9535000D02*
X20265000Y-9565000D01*
X20265000Y-9535000D02*
X20235000Y-9565000D01*
X20235000Y-10010000D02*
X20265000Y-10040000D01*
X20265000Y-10010000D02*
X20235000Y-10040000D01*
X20235000Y-10827500D02*
X20265000Y-10857500D01*
X20265000Y-10827500D02*
X20235000Y-10857500D01*
X20235000Y-10960000D02*
X20265000Y-10990000D01*
X20265000Y-10960000D02*
X20235000Y-10990000D01*
X20235000Y-11060000D02*
X20265000Y-11090000D01*
X20265000Y-11060000D02*
X20235000Y-11090000D01*
X20235000Y-11160000D02*
X20265000Y-11190000D01*
X20265000Y-11160000D02*
X20235000Y-11190000D01*
X20260000Y-12185000D02*
X20290000Y-12215000D01*
X20290000Y-12185000D02*
X20260000Y-12215000D01*
X20260000Y-12285000D02*
X20290000Y-12315000D01*
X20290000Y-12285000D02*
X20260000Y-12315000D01*
X20285000Y-9485000D02*
X20315000Y-9515000D01*
X20315000Y-9485000D02*
X20285000Y-9515000D01*
X20285000Y-10060000D02*
X20315000Y-10090000D01*
X20315000Y-10060000D02*
X20285000Y-10090000D01*
X20285000Y-11460000D02*
X20315000Y-11490000D01*
X20315000Y-11460000D02*
X20285000Y-11490000D01*
X20295000Y-9775000D02*
X20325000Y-9805000D01*
X20325000Y-9775000D02*
X20295000Y-9805000D01*
X20335000Y-9535000D02*
X20365000Y-9565000D01*
X20365000Y-9535000D02*
X20335000Y-9565000D01*
X20335000Y-10010000D02*
X20365000Y-10040000D01*
X20365000Y-10010000D02*
X20335000Y-10040000D01*
X20385000Y-9695000D02*
X20415000Y-9725000D01*
X20415000Y-9695000D02*
X20385000Y-9725000D01*
X20385000Y-9775000D02*
X20415000Y-9805000D01*
X20415000Y-9775000D02*
X20385000Y-9805000D01*
X20385000Y-9855000D02*
X20415000Y-9885000D01*
X20415000Y-9855000D02*
X20385000Y-9885000D01*
X20410000Y-12135000D02*
X20440000Y-12165000D01*
X20440000Y-12135000D02*
X20410000Y-12165000D01*
X20410000Y-12260000D02*
X20440000Y-12290000D01*
X20440000Y-12260000D02*
X20410000Y-12290000D01*
X20410000Y-12385000D02*
X20440000Y-12415000D01*
X20440000Y-12385000D02*
X20410000Y-12415000D01*
X20455000Y-9735000D02*
X20485000Y-9765000D01*
X20485000Y-9735000D02*
X20455000Y-9765000D01*
X20455000Y-9825000D02*
X20485000Y-9855000D01*
X20485000Y-9825000D02*
X20455000Y-9855000D01*
X20505000Y-9775000D02*
X20535000Y-9805000D01*
X20535000Y-9775000D02*
X20505000Y-9805000D01*
X20585000Y-11070000D02*
X20615000Y-11100000D01*
X20615000Y-11070000D02*
X20585000Y-11100000D01*
X20660000Y-11810000D02*
X20690000Y-11840000D01*
X20690000Y-11810000D02*
X20660000Y-11840000D01*
X20685000Y-10560000D02*
X20715000Y-10590000D01*
X20715000Y-10560000D02*
X20685000Y-10590000D01*
X20735000Y-11510000D02*
X20765000Y-11540000D01*
X20765000Y-11510000D02*
X20735000Y-11540000D01*
X20735000Y-11810000D02*
X20765000Y-11840000D01*
X20765000Y-11810000D02*
X20735000Y-11840000D01*
X20760000Y-11250000D02*
X20790000Y-11280000D01*
X20790000Y-11250000D02*
X20760000Y-11280000D01*
X20785000Y-11860000D02*
X20815000Y-11890000D01*
X20815000Y-11860000D02*
X20785000Y-11890000D01*
X20785000Y-11935000D02*
X20815000Y-11965000D01*
X20815000Y-11935000D02*
X20785000Y-11965000D01*
X20785000Y-12010000D02*
X20815000Y-12040000D01*
X20815000Y-12010000D02*
X20785000Y-12040000D01*
X20810000Y-11435000D02*
X20840000Y-11465000D01*
X20840000Y-11435000D02*
X20810000Y-11465000D01*
X20810000Y-11510000D02*
X20840000Y-11540000D01*
X20840000Y-11510000D02*
X20810000Y-11540000D01*
X20810000Y-11585000D02*
X20840000Y-11615000D01*
X20840000Y-11585000D02*
X20810000Y-11615000D01*
X20835000Y-12160000D02*
X20865000Y-12190000D01*
X20865000Y-12160000D02*
X20835000Y-12190000D01*
X20845000Y-9775000D02*
X20875000Y-9805000D01*
X20875000Y-9775000D02*
X20845000Y-9805000D01*
X20885000Y-11510000D02*
X20915000Y-11540000D01*
X20915000Y-11510000D02*
X20885000Y-11540000D01*
X20910000Y-9730000D02*
X20940000Y-9760000D01*
X20940000Y-9730000D02*
X20910000Y-9760000D01*
X20910000Y-9820000D02*
X20940000Y-9850000D01*
X20940000Y-9820000D02*
X20910000Y-9850000D01*
X20960000Y-9535000D02*
X20990000Y-9565000D01*
X20990000Y-9535000D02*
X20960000Y-9565000D01*
X20960000Y-10010000D02*
X20990000Y-10040000D01*
X20990000Y-10010000D02*
X20960000Y-10040000D01*
X20960000Y-12285000D02*
X20990000Y-12315000D01*
X20990000Y-12285000D02*
X20960000Y-12315000D01*
X20975000Y-9685000D02*
X21005000Y-9715000D01*
X21005000Y-9685000D02*
X20975000Y-9715000D01*
X20975000Y-9775000D02*
X21005000Y-9805000D01*
X21005000Y-9775000D02*
X20975000Y-9805000D01*
X20975000Y-9865000D02*
X21005000Y-9895000D01*
X21005000Y-9865000D02*
X20975000Y-9895000D01*
X21000000Y-9485000D02*
X21030000Y-9515000D01*
X21030000Y-9485000D02*
X21000000Y-9515000D01*
X21000000Y-10060000D02*
X21030000Y-10090000D01*
X21030000Y-10060000D02*
X21000000Y-10090000D01*
X21035000Y-9535000D02*
X21065000Y-9565000D01*
X21065000Y-9535000D02*
X21035000Y-9565000D01*
X21035000Y-10010000D02*
X21065000Y-10040000D01*
X21065000Y-10010000D02*
X21035000Y-10040000D01*
X21070000Y-9485000D02*
X21100000Y-9515000D01*
X21100000Y-9485000D02*
X21070000Y-9515000D01*
X21070000Y-10060000D02*
X21100000Y-10090000D01*
X21100000Y-10060000D02*
X21070000Y-10090000D01*
X21085000Y-12410000D02*
X21115000Y-12440000D01*
X21115000Y-12410000D02*
X21085000Y-12440000D01*
X21110000Y-9535000D02*
X21140000Y-9565000D01*
X21140000Y-9535000D02*
X21110000Y-9565000D01*
X21110000Y-10010000D02*
X21140000Y-10040000D01*
X21140000Y-10010000D02*
X21110000Y-10040000D01*
X21115000Y-9775000D02*
X21145000Y-9805000D01*
X21145000Y-9775000D02*
X21115000Y-9805000D01*
X21140000Y-9485000D02*
X21170000Y-9515000D01*
X21170000Y-9485000D02*
X21140000Y-9515000D01*
X21140000Y-10060000D02*
X21170000Y-10090000D01*
X21170000Y-10060000D02*
X21140000Y-10090000D01*
X21185000Y-9535000D02*
X21215000Y-9565000D01*
X21215000Y-9535000D02*
X21185000Y-9565000D01*
X21185000Y-10010000D02*
X21215000Y-10040000D01*
X21215000Y-10010000D02*
X21185000Y-10040000D01*
X21210000Y-9485000D02*
X21240000Y-9515000D01*
X21240000Y-9485000D02*
X21210000Y-9515000D01*
X21210000Y-10060000D02*
X21240000Y-10090000D01*
X21240000Y-10060000D02*
X21210000Y-10090000D01*
X21210000Y-12535000D02*
X21240000Y-12565000D01*
X21240000Y-12535000D02*
X21210000Y-12565000D01*
X21255000Y-9655000D02*
X21285000Y-9685000D01*
X21285000Y-9655000D02*
X21255000Y-9685000D01*
X21255000Y-9725000D02*
X21285000Y-9755000D01*
X21285000Y-9725000D02*
X21255000Y-9755000D01*
X21255000Y-9815000D02*
X21285000Y-9845000D01*
X21285000Y-9815000D02*
X21255000Y-9845000D01*
X21255000Y-9895000D02*
X21285000Y-9925000D01*
X21285000Y-9895000D02*
X21255000Y-9925000D01*
X21260000Y-9360000D02*
X21290000Y-9390000D01*
X21290000Y-9360000D02*
X21260000Y-9390000D01*
X21260000Y-9435000D02*
X21290000Y-9465000D01*
X21290000Y-9435000D02*
X21260000Y-9465000D01*
X21260000Y-9535000D02*
X21290000Y-9565000D01*
X21290000Y-9535000D02*
X21260000Y-9565000D01*
X21260000Y-10010000D02*
X21290000Y-10040000D01*
X21290000Y-10010000D02*
X21260000Y-10040000D01*
X21260000Y-10110000D02*
X21290000Y-10140000D01*
X21290000Y-10110000D02*
X21260000Y-10140000D01*
X21260000Y-10185000D02*
X21290000Y-10215000D01*
X21290000Y-10185000D02*
X21260000Y-10215000D01*
X21335000Y-12660000D02*
X21365000Y-12690000D01*
X21365000Y-12660000D02*
X21335000Y-12690000D01*
X21460000Y-12785000D02*
X21490000Y-12815000D01*
X21490000Y-12785000D02*
X21460000Y-12815000D01*
X21485000Y-12935000D02*
X21515000Y-12965000D01*
X21515000Y-12935000D02*
X21485000Y-12965000D01*
X21485000Y-13135000D02*
X21515000Y-13165000D01*
X21515000Y-13135000D02*
X21485000Y-13165000D01*
X21485000Y-13335000D02*
X21515000Y-13365000D01*
X21515000Y-13335000D02*
X21485000Y-13365000D01*
X21485000Y-13535000D02*
X21515000Y-13565000D01*
X21515000Y-13535000D02*
X21485000Y-13565000D01*
X21485000Y-13735000D02*
X21515000Y-13765000D01*
X21515000Y-13735000D02*
X21485000Y-13765000D01*
X21485000Y-13935000D02*
X21515000Y-13965000D01*
X21515000Y-13935000D02*
X21485000Y-13965000D01*
X21560000Y-14085000D02*
X21590000Y-14115000D01*
X21590000Y-14085000D02*
X21560000Y-14115000D01*
X21685000Y-14210000D02*
X21715000Y-14240000D01*
X21715000Y-14210000D02*
X21685000Y-14240000D01*
X21725000Y-12085000D02*
X21755000Y-12115000D01*
X21755000Y-12085000D02*
X21725000Y-12115000D01*
X21810000Y-14335000D02*
X21840000Y-14365000D01*
X21840000Y-14335000D02*
X21810000Y-14365000D01*
X21845000Y-12555250D02*
X21875000Y-12585250D01*
X21875000Y-12555250D02*
X21845000Y-12585250D01*
X21845000Y-12735250D02*
X21875000Y-12765250D01*
X21875000Y-12735250D02*
X21845000Y-12765250D01*
X21905000Y-12495250D02*
X21935000Y-12525250D01*
X21935000Y-12495250D02*
X21905000Y-12525250D01*
X21905000Y-12795250D02*
X21935000Y-12825250D01*
X21935000Y-12795250D02*
X21905000Y-12825250D01*
X21935000Y-14510000D02*
X21965000Y-14540000D01*
X21965000Y-14510000D02*
X21935000Y-14540000D01*
X21935000Y-14710000D02*
X21965000Y-14740000D01*
X21965000Y-14710000D02*
X21935000Y-14740000D01*
X21935000Y-14910000D02*
X21965000Y-14940000D01*
X21965000Y-14910000D02*
X21935000Y-14940000D01*
X21935000Y-15110000D02*
X21965000Y-15140000D01*
X21965000Y-15110000D02*
X21935000Y-15140000D01*
X21935000Y-15310000D02*
X21965000Y-15340000D01*
X21965000Y-15310000D02*
X21935000Y-15340000D01*
X21965000Y-12435250D02*
X21995000Y-12465250D01*
X21995000Y-12435250D02*
X21965000Y-12465250D01*
X21965000Y-12555250D02*
X21995000Y-12585250D01*
X21995000Y-12555250D02*
X21965000Y-12585250D01*
X21965000Y-12735250D02*
X21995000Y-12765250D01*
X21995000Y-12735250D02*
X21965000Y-12765250D01*
X21965000Y-12855250D02*
X21995000Y-12885250D01*
X21995000Y-12855250D02*
X21965000Y-12885250D01*
X22025000Y-12495250D02*
X22055000Y-12525250D01*
X22055000Y-12495250D02*
X22025000Y-12525250D01*
X22025000Y-12795250D02*
X22055000Y-12825250D01*
X22055000Y-12795250D02*
X22025000Y-12825250D01*
X22085000Y-12555250D02*
X22115000Y-12585250D01*
X22115000Y-12555250D02*
X22085000Y-12585250D01*
X22085000Y-12735250D02*
X22115000Y-12765250D01*
X22115000Y-12735250D02*
X22085000Y-12765250D01*
X22265000Y-12970250D02*
X22295000Y-13000250D01*
X22295000Y-12970250D02*
X22265000Y-13000250D01*
X22675000Y-13045250D02*
X22705000Y-13075250D01*
X22705000Y-13045250D02*
X22675000Y-13075250D01*
X13674000Y-12962000D02*
G75*
G02*
X13628000Y-12962000I-23000J0D01*
G01*
X13628000Y-12962000D02*
G75*
G02*
X13674000Y-12962000I23000J0D01*
G01*
X13674000Y-13838000D02*
G75*
G02*
X13628000Y-13838000I-23000J0D01*
G01*
X13628000Y-13838000D02*
G75*
G02*
X13674000Y-13838000I23000J0D01*
G01*
X19850711Y-8181229D02*
X19850711Y-8231229D01*
X19825711Y-8206229D02*
X19875711Y-8206229D01*
X19825711Y-8171229D02*
X19825711Y-8241229D01*
X19875711Y-8241229D02*
G75*
G02*
X19825711Y-8241229I-25000J0D01*
G01*
X19875711Y-8241229D02*
X19875711Y-8171229D01*
X19875711Y-8171229D02*
G75*
G03*
X19825711Y-8171229I-25000J0D01*
G01*
X20510711Y-8181229D02*
X20510711Y-8231229D01*
X20485711Y-8206229D02*
X20535711Y-8206229D01*
X20485711Y-8171229D02*
X20485711Y-8241229D01*
X20535711Y-8241229D02*
G75*
G02*
X20485711Y-8241229I-25000J0D01*
G01*
X20535711Y-8241229D02*
X20535711Y-8171229D01*
X20535711Y-8171229D02*
G75*
G03*
X20485711Y-8171229I-25000J0D01*
G01*
X17458588Y-14333588D02*
X17458588Y-14266412D01*
X17391412Y-14266412D01*
X17391412Y-14333588D01*
X17458588Y-14333588D01*
X17458588Y-15083588D02*
X17458588Y-15016412D01*
X17391412Y-15016412D01*
X17391412Y-15083588D01*
X17458588Y-15083588D01*
X17708588Y-14333588D02*
X17708588Y-14266412D01*
X17641412Y-14266412D01*
X17641412Y-14333588D01*
X17708588Y-14333588D01*
X17708588Y-15083588D02*
X17708588Y-15016412D01*
X17641412Y-15016412D01*
X17641412Y-15083588D01*
X17708588Y-15083588D01*
X17958588Y-14333588D02*
X17958588Y-14266412D01*
X17891412Y-14266412D01*
X17891412Y-14333588D01*
X17958588Y-14333588D01*
X17958588Y-15083588D02*
X17958588Y-15016412D01*
X17891412Y-15016412D01*
X17891412Y-15083588D01*
X17958588Y-15083588D01*
X18632916Y-14331851D02*
X18632916Y-14264675D01*
X18565740Y-14264675D01*
X18565740Y-14331851D01*
X18632916Y-14331851D01*
X18632916Y-15081851D02*
X18632916Y-15014675D01*
X18565740Y-15014675D01*
X18565740Y-15081851D01*
X18632916Y-15081851D01*
X18882916Y-14331851D02*
X18882916Y-14264675D01*
X18815740Y-14264675D01*
X18815740Y-14331851D01*
X18882916Y-14331851D01*
X18882916Y-15081851D02*
X18882916Y-15014675D01*
X18815740Y-15014675D01*
X18815740Y-15081851D01*
X18882916Y-15081851D01*
X19132916Y-14331851D02*
X19132916Y-14264675D01*
X19065740Y-14264675D01*
X19065740Y-14331851D01*
X19132916Y-14331851D01*
X19132916Y-15081851D02*
X19132916Y-15014675D01*
X19065740Y-15014675D01*
X19065740Y-15081851D01*
X19132916Y-15081851D01*
X20633588Y-15133588D02*
X20633588Y-15066412D01*
X20566412Y-15066412D01*
X20566412Y-15133588D01*
X20633588Y-15133588D01*
X20883588Y-15133588D02*
X20883588Y-15066412D01*
X20816412Y-15066412D01*
X20816412Y-15133588D01*
X20883588Y-15133588D01*
X21133588Y-15133588D02*
X21133588Y-15066412D01*
X21066412Y-15066412D01*
X21066412Y-15133588D01*
X21133588Y-15133588D01*
X21383588Y-15133588D02*
X21383588Y-15066412D01*
X21316412Y-15066412D01*
X21316412Y-15133588D01*
X21383588Y-15133588D01*
X21633588Y-15133588D02*
X21633588Y-15066412D01*
X21566412Y-15066412D01*
X21566412Y-15133588D01*
X21633588Y-15133588D01*
X14246000Y-15300000D02*
X14296000Y-15250000D01*
X14246000Y-15200000D01*
X14196000Y-15250000D01*
X14246000Y-15300000D01*
X14477711Y-8226229D02*
X14527711Y-8176229D01*
X14477711Y-8126229D01*
X14427711Y-8176229D01*
X14477711Y-8226229D01*
X14500000Y-15300000D02*
X14550000Y-15250000D01*
X14500000Y-15200000D01*
X14450000Y-15250000D01*
X14500000Y-15300000D01*
X14731711Y-8226229D02*
X14781711Y-8176229D01*
X14731711Y-8126229D01*
X14681711Y-8176229D01*
X14731711Y-8226229D01*
X14754000Y-15300000D02*
X14804000Y-15250000D01*
X14754000Y-15200000D01*
X14704000Y-15250000D01*
X14754000Y-15300000D01*
X14985711Y-8226229D02*
X15035711Y-8176229D01*
X14985711Y-8126229D01*
X14935711Y-8176229D01*
X14985711Y-8226229D01*
X15008000Y-15300000D02*
X15058000Y-15250000D01*
X15008000Y-15200000D01*
X14958000Y-15250000D01*
X15008000Y-15300000D01*
X15239711Y-8226229D02*
X15289711Y-8176229D01*
X15239711Y-8126229D01*
X15189711Y-8176229D01*
X15239711Y-8226229D01*
X15262000Y-15300000D02*
X15312000Y-15250000D01*
X15262000Y-15200000D01*
X15212000Y-15250000D01*
X15262000Y-15300000D01*
X15493711Y-8226229D02*
X15543711Y-8176229D01*
X15493711Y-8126229D01*
X15443711Y-8176229D01*
X15493711Y-8226229D01*
X15516000Y-15300000D02*
X15566000Y-15250000D01*
X15516000Y-15200000D01*
X15466000Y-15250000D01*
X15516000Y-15300000D01*
X15747711Y-8226229D02*
X15797711Y-8176229D01*
X15747711Y-8126229D01*
X15697711Y-8176229D01*
X15747711Y-8226229D01*
X16001711Y-8226229D02*
X16051711Y-8176229D01*
X16001711Y-8126229D01*
X15951711Y-8176229D01*
X16001711Y-8226229D01*
X16255711Y-8226229D02*
X16305711Y-8176229D01*
X16255711Y-8126229D01*
X16205711Y-8176229D01*
X16255711Y-8226229D01*
X16509711Y-8226229D02*
X16559711Y-8176229D01*
X16509711Y-8126229D01*
X16459711Y-8176229D01*
X16509711Y-8226229D01*
X16763711Y-8226229D02*
X16813711Y-8176229D01*
X16763711Y-8126229D01*
X16713711Y-8176229D01*
X16763711Y-8226229D01*
X17017711Y-8226229D02*
X17067711Y-8176229D01*
X17017711Y-8126229D01*
X16967711Y-8176229D01*
X17017711Y-8226229D01*
X17271711Y-8226229D02*
X17321711Y-8176229D01*
X17271711Y-8126229D01*
X17221711Y-8176229D01*
X17271711Y-8226229D01*
X17525000Y-8697500D02*
X17575000Y-8647500D01*
X17525000Y-8597500D01*
X17475000Y-8647500D01*
X17525000Y-8697500D01*
X17525711Y-8226229D02*
X17575711Y-8176229D01*
X17525711Y-8126229D01*
X17475711Y-8176229D01*
X17525711Y-8226229D01*
X17779000Y-8697500D02*
X17829000Y-8647500D01*
X17779000Y-8597500D01*
X17729000Y-8647500D01*
X17779000Y-8697500D01*
X17779711Y-8226229D02*
X17829711Y-8176229D01*
X17779711Y-8126229D01*
X17729711Y-8176229D01*
X17779711Y-8226229D01*
X18307098Y-8223985D02*
X18357098Y-8173985D01*
X18307098Y-8123985D01*
X18257098Y-8173985D01*
X18307098Y-8223985D01*
X18308118Y-8699786D02*
X18358118Y-8649786D01*
X18308118Y-8599786D01*
X18258118Y-8649786D01*
X18308118Y-8699786D01*
X18561098Y-8223985D02*
X18611098Y-8173985D01*
X18561098Y-8123985D01*
X18511098Y-8173985D01*
X18561098Y-8223985D01*
X18562118Y-8699786D02*
X18612118Y-8649786D01*
X18562118Y-8599786D01*
X18512118Y-8649786D01*
X18562118Y-8699786D01*
X18575000Y-9720000D02*
X18625000Y-9670000D01*
X18575000Y-9620000D01*
X18525000Y-9670000D01*
X18575000Y-9720000D01*
X18575000Y-10480000D02*
X18625000Y-10430000D01*
X18575000Y-10380000D01*
X18525000Y-10430000D01*
X18575000Y-10480000D01*
X18815098Y-8223985D02*
X18865098Y-8173985D01*
X18815098Y-8123985D01*
X18765098Y-8173985D01*
X18815098Y-8223985D01*
X18816118Y-8699786D02*
X18866118Y-8649786D01*
X18816118Y-8599786D01*
X18766118Y-8649786D01*
X18816118Y-8699786D01*
X19069098Y-8223985D02*
X19119098Y-8173985D01*
X19069098Y-8123985D01*
X19019098Y-8173985D01*
X19069098Y-8223985D01*
X19070118Y-8699786D02*
X19120118Y-8649786D01*
X19070118Y-8599786D01*
X19020118Y-8649786D01*
X19070118Y-8699786D01*
X19323098Y-8223985D02*
X19373098Y-8173985D01*
X19323098Y-8123985D01*
X19273098Y-8173985D01*
X19323098Y-8223985D01*
X19324118Y-8699786D02*
X19374118Y-8649786D01*
X19324118Y-8599786D01*
X19274118Y-8649786D01*
X19324118Y-8699786D01*
X21186137Y-8240258D02*
X21236137Y-8190258D01*
X21186137Y-8140258D01*
X21136137Y-8190258D01*
X21186137Y-8240258D01*
X21186137Y-8494258D02*
X21236137Y-8444258D01*
X21186137Y-8394258D01*
X21136137Y-8444258D01*
X21186137Y-8494258D01*
X21186137Y-8748258D02*
X21236137Y-8698258D01*
X21186137Y-8648258D01*
X21136137Y-8698258D01*
X21186137Y-8748258D01*
X21646137Y-8240258D02*
X21696137Y-8190258D01*
X21646137Y-8140258D01*
X21596137Y-8190258D01*
X21646137Y-8240258D01*
X21646137Y-8494258D02*
X21696137Y-8444258D01*
X21646137Y-8394258D01*
X21596137Y-8444258D01*
X21646137Y-8494258D01*
X21646137Y-8748258D02*
X21696137Y-8698258D01*
X21646137Y-8648258D01*
X21596137Y-8698258D01*
X21646137Y-8748258D01*
X22675000Y-9425000D02*
X22725000Y-9375000D01*
X22675000Y-9325000D01*
X22625000Y-9375000D01*
X22675000Y-9425000D01*
X22675000Y-10525000D02*
X22725000Y-10475000D01*
X22675000Y-10425000D01*
X22625000Y-10475000D01*
X22675000Y-10525000D01*
D13*
X16675814Y-12188232D02*
X16777414Y-12289832D01*
X16777414Y-12188232D02*
X16675814Y-12289832D01*
X16777414Y-12239032D02*
G75*
G02*
X16675814Y-12239032I-50800J0D01*
G01*
X16675814Y-12239032D02*
G75*
G02*
X16777414Y-12239032I50800J0D01*
G01*
X16675814Y-12442232D02*
X16777414Y-12543832D01*
X16777414Y-12442232D02*
X16675814Y-12543832D01*
X16777414Y-12493032D02*
G75*
G02*
X16675814Y-12493032I-50800J0D01*
G01*
X16675814Y-12493032D02*
G75*
G02*
X16777414Y-12493032I50800J0D01*
G01*
X16675814Y-12696232D02*
X16777414Y-12797832D01*
X16777414Y-12696232D02*
X16675814Y-12797832D01*
X16777414Y-12747032D02*
G75*
G02*
X16675814Y-12747032I-50800J0D01*
G01*
X16675814Y-12747032D02*
G75*
G02*
X16777414Y-12747032I50800J0D01*
G01*
X16675814Y-12950232D02*
X16777414Y-13051832D01*
X16777414Y-12950232D02*
X16675814Y-13051832D01*
X16777414Y-13001032D02*
G75*
G02*
X16675814Y-13001032I-50800J0D01*
G01*
X16675814Y-13001032D02*
G75*
G02*
X16777414Y-13001032I50800J0D01*
G01*
X16675814Y-13204232D02*
X16777414Y-13305832D01*
X16777414Y-13204232D02*
X16675814Y-13305832D01*
X16777414Y-13255032D02*
G75*
G02*
X16675814Y-13255032I-50800J0D01*
G01*
X16675814Y-13255032D02*
G75*
G02*
X16777414Y-13255032I50800J0D01*
G01*
X17437814Y-12188232D02*
X17539414Y-12289832D01*
X17539414Y-12188232D02*
X17437814Y-12289832D01*
X17539414Y-12239032D02*
G75*
G02*
X17437814Y-12239032I-50800J0D01*
G01*
X17437814Y-12239032D02*
G75*
G02*
X17539414Y-12239032I50800J0D01*
G01*
X17437814Y-12442232D02*
X17539414Y-12543832D01*
X17539414Y-12442232D02*
X17437814Y-12543832D01*
X17539414Y-12493032D02*
G75*
G02*
X17437814Y-12493032I-50800J0D01*
G01*
X17437814Y-12493032D02*
G75*
G02*
X17539414Y-12493032I50800J0D01*
G01*
X19469814Y-12188232D02*
X19571414Y-12289832D01*
X19571414Y-12188232D02*
X19469814Y-12289832D01*
X19571414Y-12239032D02*
G75*
G02*
X19469814Y-12239032I-50800J0D01*
G01*
X19469814Y-12239032D02*
G75*
G02*
X19571414Y-12239032I50800J0D01*
G01*
X19469814Y-12442232D02*
X19571414Y-12543832D01*
X19571414Y-12442232D02*
X19469814Y-12543832D01*
X19571414Y-12493032D02*
G75*
G02*
X19469814Y-12493032I-50800J0D01*
G01*
X19469814Y-12493032D02*
G75*
G02*
X19571414Y-12493032I50800J0D01*
G01*
X19469814Y-12696232D02*
X19571414Y-12797832D01*
X19571414Y-12696232D02*
X19469814Y-12797832D01*
X19571414Y-12747032D02*
G75*
G02*
X19469814Y-12747032I-50800J0D01*
G01*
X19469814Y-12747032D02*
G75*
G02*
X19571414Y-12747032I50800J0D01*
G01*
X19469814Y-12950232D02*
X19571414Y-13051832D01*
X19571414Y-12950232D02*
X19469814Y-13051832D01*
X19571414Y-13001032D02*
G75*
G02*
X19469814Y-13001032I-50800J0D01*
G01*
X19469814Y-13001032D02*
G75*
G02*
X19571414Y-13001032I50800J0D01*
G01*
X19469814Y-13204232D02*
X19571414Y-13305832D01*
X19571414Y-13204232D02*
X19469814Y-13305832D01*
X19571414Y-13255032D02*
G75*
G02*
X19469814Y-13255032I-50800J0D01*
G01*
X19469814Y-13255032D02*
G75*
G02*
X19571414Y-13255032I50800J0D01*
G01*
D14*
X22452250Y-11006500D02*
X22582250Y-11136500D01*
X22582250Y-11006500D02*
X22452250Y-11136500D01*
X22517250Y-11006500D02*
X22517250Y-11136500D01*
X22452250Y-11071500D02*
X22582250Y-11071500D01*
X22452250Y-11514500D02*
X22582250Y-11644500D01*
X22582250Y-11514500D02*
X22452250Y-11644500D01*
X22517250Y-11514500D02*
X22517250Y-11644500D01*
X22452250Y-11579500D02*
X22582250Y-11579500D01*
D15*
X21580000Y-9580000D02*
X21770000Y-9770000D01*
X21770000Y-9580000D02*
X21580000Y-9770000D01*
X21742176Y-9742176D02*
X21742176Y-9607824D01*
X21607824Y-9607824D01*
X21607824Y-9742176D01*
X21742176Y-9742176D01*
X21580000Y-10080000D02*
X21770000Y-10270000D01*
X21770000Y-10080000D02*
X21580000Y-10270000D01*
X21742176Y-10242176D02*
X21742176Y-10107824D01*
X21607824Y-10107824D01*
X21607824Y-10242176D01*
X21742176Y-10242176D01*
D16*
X13340000Y-8340000D02*
X13660000Y-8660000D01*
X13660000Y-8340000D02*
X13340000Y-8660000D01*
X13500000Y-8660000D02*
X13660000Y-8500000D01*
X13500000Y-8340000D01*
X13340000Y-8500000D01*
X13500000Y-8660000D01*
X13340000Y-14840000D02*
X13660000Y-15160000D01*
X13660000Y-14840000D02*
X13340000Y-15160000D01*
X13500000Y-15160000D02*
X13660000Y-15000000D01*
X13500000Y-14840000D01*
X13340000Y-15000000D01*
X13500000Y-15160000D01*
X22337232Y-8339661D02*
X22657232Y-8659662D01*
X22657232Y-8339661D02*
X22337232Y-8659662D01*
X22497232Y-8659662D02*
X22657232Y-8499662D01*
X22497232Y-8339661D01*
X22337232Y-8499662D01*
X22497232Y-8659662D01*
X22340000Y-14840000D02*
X22660000Y-15160000D01*
X22660000Y-14840000D02*
X22340000Y-15160000D01*
X22500000Y-15160000D02*
X22660000Y-15000000D01*
X22500000Y-14840000D01*
X22340000Y-15000000D01*
X22500000Y-15160000D01*
D11*
X13258277Y-15813984D02*
X13258277Y-15613984D01*
X13258277Y-15613984D02*
X13305896Y-15613984D01*
X13305896Y-15613984D02*
X13334467Y-15623508D01*
X13334467Y-15623508D02*
X13353515Y-15642555D01*
X13353515Y-15642555D02*
X13363039Y-15661603D01*
X13363039Y-15661603D02*
X13372562Y-15699698D01*
X13372562Y-15699698D02*
X13372562Y-15728269D01*
X13372562Y-15728269D02*
X13363039Y-15766365D01*
X13363039Y-15766365D02*
X13353515Y-15785412D01*
X13353515Y-15785412D02*
X13334467Y-15804460D01*
X13334467Y-15804460D02*
X13305896Y-15813984D01*
X13305896Y-15813984D02*
X13258277Y-15813984D01*
X13458277Y-15813984D02*
X13458277Y-15680650D01*
X13458277Y-15718746D02*
X13467801Y-15699698D01*
X13467801Y-15699698D02*
X13477324Y-15690174D01*
X13477324Y-15690174D02*
X13496372Y-15680650D01*
X13496372Y-15680650D02*
X13515420Y-15680650D01*
X13582086Y-15813984D02*
X13582086Y-15680650D01*
X13582086Y-15613984D02*
X13572562Y-15623508D01*
X13572562Y-15623508D02*
X13582086Y-15633031D01*
X13582086Y-15633031D02*
X13591610Y-15623508D01*
X13591610Y-15623508D02*
X13582086Y-15613984D01*
X13582086Y-15613984D02*
X13582086Y-15633031D01*
X13705896Y-15813984D02*
X13686848Y-15804460D01*
X13686848Y-15804460D02*
X13677324Y-15785412D01*
X13677324Y-15785412D02*
X13677324Y-15613984D01*
X13810658Y-15813984D02*
X13791610Y-15804460D01*
X13791610Y-15804460D02*
X13782086Y-15785412D01*
X13782086Y-15785412D02*
X13782086Y-15613984D01*
X14039229Y-15813984D02*
X14039229Y-15613984D01*
X14039229Y-15613984D02*
X14105896Y-15756841D01*
X14105896Y-15756841D02*
X14172562Y-15613984D01*
X14172562Y-15613984D02*
X14172562Y-15813984D01*
X14353515Y-15813984D02*
X14353515Y-15709222D01*
X14353515Y-15709222D02*
X14343991Y-15690174D01*
X14343991Y-15690174D02*
X14324943Y-15680650D01*
X14324943Y-15680650D02*
X14286848Y-15680650D01*
X14286848Y-15680650D02*
X14267801Y-15690174D01*
X14353515Y-15804460D02*
X14334467Y-15813984D01*
X14334467Y-15813984D02*
X14286848Y-15813984D01*
X14286848Y-15813984D02*
X14267801Y-15804460D01*
X14267801Y-15804460D02*
X14258277Y-15785412D01*
X14258277Y-15785412D02*
X14258277Y-15766365D01*
X14258277Y-15766365D02*
X14267801Y-15747317D01*
X14267801Y-15747317D02*
X14286848Y-15737793D01*
X14286848Y-15737793D02*
X14334467Y-15737793D01*
X14334467Y-15737793D02*
X14353515Y-15728269D01*
X14448753Y-15680650D02*
X14448753Y-15880650D01*
X14448753Y-15690174D02*
X14467801Y-15680650D01*
X14467801Y-15680650D02*
X14505896Y-15680650D01*
X14505896Y-15680650D02*
X14524943Y-15690174D01*
X14524943Y-15690174D02*
X14534467Y-15699698D01*
X14534467Y-15699698D02*
X14543991Y-15718746D01*
X14543991Y-15718746D02*
X14543991Y-15775888D01*
X14543991Y-15775888D02*
X14534467Y-15794936D01*
X14534467Y-15794936D02*
X14524943Y-15804460D01*
X14524943Y-15804460D02*
X14505896Y-15813984D01*
X14505896Y-15813984D02*
X14467801Y-15813984D01*
X14467801Y-15813984D02*
X14448753Y-15804460D01*
X14629705Y-15794936D02*
X14639229Y-15804460D01*
X14639229Y-15804460D02*
X14629705Y-15813984D01*
X14629705Y-15813984D02*
X14620182Y-15804460D01*
X14620182Y-15804460D02*
X14629705Y-15794936D01*
X14629705Y-15794936D02*
X14629705Y-15813984D01*
X14629705Y-15690174D02*
X14639229Y-15699698D01*
X14639229Y-15699698D02*
X14629705Y-15709222D01*
X14629705Y-15709222D02*
X14620182Y-15699698D01*
X14620182Y-15699698D02*
X14629705Y-15690174D01*
X14629705Y-15690174D02*
X14629705Y-15709222D01*
D12*
X12967500Y-16127500D02*
X12997500Y-16157500D01*
X12997500Y-16127500D02*
X12967500Y-16157500D01*
D11*
X13296372Y-16033984D02*
X13315420Y-16033984D01*
X13315420Y-16033984D02*
X13334467Y-16043508D01*
X13334467Y-16043508D02*
X13343991Y-16053031D01*
X13343991Y-16053031D02*
X13353515Y-16072079D01*
X13353515Y-16072079D02*
X13363039Y-16110174D01*
X13363039Y-16110174D02*
X13363039Y-16157793D01*
X13363039Y-16157793D02*
X13353515Y-16195888D01*
X13353515Y-16195888D02*
X13343991Y-16214936D01*
X13343991Y-16214936D02*
X13334467Y-16224460D01*
X13334467Y-16224460D02*
X13315420Y-16233984D01*
X13315420Y-16233984D02*
X13296372Y-16233984D01*
X13296372Y-16233984D02*
X13277324Y-16224460D01*
X13277324Y-16224460D02*
X13267801Y-16214936D01*
X13267801Y-16214936D02*
X13258277Y-16195888D01*
X13258277Y-16195888D02*
X13248753Y-16157793D01*
X13248753Y-16157793D02*
X13248753Y-16110174D01*
X13248753Y-16110174D02*
X13258277Y-16072079D01*
X13258277Y-16072079D02*
X13267801Y-16053031D01*
X13267801Y-16053031D02*
X13277324Y-16043508D01*
X13277324Y-16043508D02*
X13296372Y-16033984D01*
X13448753Y-16214936D02*
X13458277Y-16224460D01*
X13458277Y-16224460D02*
X13448753Y-16233984D01*
X13448753Y-16233984D02*
X13439229Y-16224460D01*
X13439229Y-16224460D02*
X13448753Y-16214936D01*
X13448753Y-16214936D02*
X13448753Y-16233984D01*
X13524943Y-16033984D02*
X13648753Y-16033984D01*
X13648753Y-16033984D02*
X13582086Y-16110174D01*
X13582086Y-16110174D02*
X13610658Y-16110174D01*
X13610658Y-16110174D02*
X13629705Y-16119698D01*
X13629705Y-16119698D02*
X13639229Y-16129222D01*
X13639229Y-16129222D02*
X13648753Y-16148269D01*
X13648753Y-16148269D02*
X13648753Y-16195888D01*
X13648753Y-16195888D02*
X13639229Y-16214936D01*
X13639229Y-16214936D02*
X13629705Y-16224460D01*
X13629705Y-16224460D02*
X13610658Y-16233984D01*
X13610658Y-16233984D02*
X13553515Y-16233984D01*
X13553515Y-16233984D02*
X13534467Y-16224460D01*
X13534467Y-16224460D02*
X13524943Y-16214936D01*
X13772562Y-16033984D02*
X13791610Y-16033984D01*
X13791610Y-16033984D02*
X13810658Y-16043508D01*
X13810658Y-16043508D02*
X13820182Y-16053031D01*
X13820182Y-16053031D02*
X13829705Y-16072079D01*
X13829705Y-16072079D02*
X13839229Y-16110174D01*
X13839229Y-16110174D02*
X13839229Y-16157793D01*
X13839229Y-16157793D02*
X13829705Y-16195888D01*
X13829705Y-16195888D02*
X13820182Y-16214936D01*
X13820182Y-16214936D02*
X13810658Y-16224460D01*
X13810658Y-16224460D02*
X13791610Y-16233984D01*
X13791610Y-16233984D02*
X13772562Y-16233984D01*
X13772562Y-16233984D02*
X13753515Y-16224460D01*
X13753515Y-16224460D02*
X13743991Y-16214936D01*
X13743991Y-16214936D02*
X13734467Y-16195888D01*
X13734467Y-16195888D02*
X13724943Y-16157793D01*
X13724943Y-16157793D02*
X13724943Y-16110174D01*
X13724943Y-16110174D02*
X13734467Y-16072079D01*
X13734467Y-16072079D02*
X13743991Y-16053031D01*
X13743991Y-16053031D02*
X13753515Y-16043508D01*
X13753515Y-16043508D02*
X13772562Y-16033984D01*
X13963039Y-16033984D02*
X13982086Y-16033984D01*
X13982086Y-16033984D02*
X14001134Y-16043508D01*
X14001134Y-16043508D02*
X14010658Y-16053031D01*
X14010658Y-16053031D02*
X14020182Y-16072079D01*
X14020182Y-16072079D02*
X14029705Y-16110174D01*
X14029705Y-16110174D02*
X14029705Y-16157793D01*
X14029705Y-16157793D02*
X14020182Y-16195888D01*
X14020182Y-16195888D02*
X14010658Y-16214936D01*
X14010658Y-16214936D02*
X14001134Y-16224460D01*
X14001134Y-16224460D02*
X13982086Y-16233984D01*
X13982086Y-16233984D02*
X13963039Y-16233984D01*
X13963039Y-16233984D02*
X13943991Y-16224460D01*
X13943991Y-16224460D02*
X13934467Y-16214936D01*
X13934467Y-16214936D02*
X13924943Y-16195888D01*
X13924943Y-16195888D02*
X13915420Y-16157793D01*
X13915420Y-16157793D02*
X13915420Y-16110174D01*
X13915420Y-16110174D02*
X13924943Y-16072079D01*
X13924943Y-16072079D02*
X13934467Y-16053031D01*
X13934467Y-16053031D02*
X13943991Y-16043508D01*
X13943991Y-16043508D02*
X13963039Y-16033984D01*
X14115420Y-16233984D02*
X14115420Y-16100650D01*
X14115420Y-16119698D02*
X14124943Y-16110174D01*
X14124943Y-16110174D02*
X14143991Y-16100650D01*
X14143991Y-16100650D02*
X14172563Y-16100650D01*
X14172563Y-16100650D02*
X14191610Y-16110174D01*
X14191610Y-16110174D02*
X14201134Y-16129222D01*
X14201134Y-16129222D02*
X14201134Y-16233984D01*
X14201134Y-16129222D02*
X14210658Y-16110174D01*
X14210658Y-16110174D02*
X14229705Y-16100650D01*
X14229705Y-16100650D02*
X14258277Y-16100650D01*
X14258277Y-16100650D02*
X14277324Y-16110174D01*
X14277324Y-16110174D02*
X14286848Y-16129222D01*
X14286848Y-16129222D02*
X14286848Y-16233984D01*
X14382086Y-16233984D02*
X14382086Y-16100650D01*
X14382086Y-16119698D02*
X14391610Y-16110174D01*
X14391610Y-16110174D02*
X14410658Y-16100650D01*
X14410658Y-16100650D02*
X14439229Y-16100650D01*
X14439229Y-16100650D02*
X14458277Y-16110174D01*
X14458277Y-16110174D02*
X14467801Y-16129222D01*
X14467801Y-16129222D02*
X14467801Y-16233984D01*
X14467801Y-16129222D02*
X14477324Y-16110174D01*
X14477324Y-16110174D02*
X14496372Y-16100650D01*
X14496372Y-16100650D02*
X14524943Y-16100650D01*
X14524943Y-16100650D02*
X14543991Y-16110174D01*
X14543991Y-16110174D02*
X14553515Y-16129222D01*
X14553515Y-16129222D02*
X14553515Y-16233984D01*
X14943991Y-16024460D02*
X14772563Y-16281603D01*
X15201134Y-16033984D02*
X15220182Y-16033984D01*
X15220182Y-16033984D02*
X15239229Y-16043508D01*
X15239229Y-16043508D02*
X15248753Y-16053031D01*
X15248753Y-16053031D02*
X15258277Y-16072079D01*
X15258277Y-16072079D02*
X15267801Y-16110174D01*
X15267801Y-16110174D02*
X15267801Y-16157793D01*
X15267801Y-16157793D02*
X15258277Y-16195888D01*
X15258277Y-16195888D02*
X15248753Y-16214936D01*
X15248753Y-16214936D02*
X15239229Y-16224460D01*
X15239229Y-16224460D02*
X15220182Y-16233984D01*
X15220182Y-16233984D02*
X15201134Y-16233984D01*
X15201134Y-16233984D02*
X15182086Y-16224460D01*
X15182086Y-16224460D02*
X15172563Y-16214936D01*
X15172563Y-16214936D02*
X15163039Y-16195888D01*
X15163039Y-16195888D02*
X15153515Y-16157793D01*
X15153515Y-16157793D02*
X15153515Y-16110174D01*
X15153515Y-16110174D02*
X15163039Y-16072079D01*
X15163039Y-16072079D02*
X15172563Y-16053031D01*
X15172563Y-16053031D02*
X15182086Y-16043508D01*
X15182086Y-16043508D02*
X15201134Y-16033984D01*
X15353515Y-16214936D02*
X15363039Y-16224460D01*
X15363039Y-16224460D02*
X15353515Y-16233984D01*
X15353515Y-16233984D02*
X15343991Y-16224460D01*
X15343991Y-16224460D02*
X15353515Y-16214936D01*
X15353515Y-16214936D02*
X15353515Y-16233984D01*
X15486848Y-16033984D02*
X15505896Y-16033984D01*
X15505896Y-16033984D02*
X15524944Y-16043508D01*
X15524944Y-16043508D02*
X15534467Y-16053031D01*
X15534467Y-16053031D02*
X15543991Y-16072079D01*
X15543991Y-16072079D02*
X15553515Y-16110174D01*
X15553515Y-16110174D02*
X15553515Y-16157793D01*
X15553515Y-16157793D02*
X15543991Y-16195888D01*
X15543991Y-16195888D02*
X15534467Y-16214936D01*
X15534467Y-16214936D02*
X15524944Y-16224460D01*
X15524944Y-16224460D02*
X15505896Y-16233984D01*
X15505896Y-16233984D02*
X15486848Y-16233984D01*
X15486848Y-16233984D02*
X15467801Y-16224460D01*
X15467801Y-16224460D02*
X15458277Y-16214936D01*
X15458277Y-16214936D02*
X15448753Y-16195888D01*
X15448753Y-16195888D02*
X15439229Y-16157793D01*
X15439229Y-16157793D02*
X15439229Y-16110174D01*
X15439229Y-16110174D02*
X15448753Y-16072079D01*
X15448753Y-16072079D02*
X15458277Y-16053031D01*
X15458277Y-16053031D02*
X15467801Y-16043508D01*
X15467801Y-16043508D02*
X15486848Y-16033984D01*
X15743991Y-16233984D02*
X15629706Y-16233984D01*
X15686848Y-16233984D02*
X15686848Y-16033984D01*
X15686848Y-16033984D02*
X15667801Y-16062555D01*
X15667801Y-16062555D02*
X15648753Y-16081603D01*
X15648753Y-16081603D02*
X15629706Y-16091127D01*
X15934467Y-16233984D02*
X15820182Y-16233984D01*
X15877325Y-16233984D02*
X15877325Y-16033984D01*
X15877325Y-16033984D02*
X15858277Y-16062555D01*
X15858277Y-16062555D02*
X15839229Y-16081603D01*
X15839229Y-16081603D02*
X15820182Y-16091127D01*
X16048753Y-16119698D02*
X16029706Y-16110174D01*
X16029706Y-16110174D02*
X16020182Y-16100650D01*
X16020182Y-16100650D02*
X16010658Y-16081603D01*
X16010658Y-16081603D02*
X16010658Y-16072079D01*
X16010658Y-16072079D02*
X16020182Y-16053031D01*
X16020182Y-16053031D02*
X16029706Y-16043508D01*
X16029706Y-16043508D02*
X16048753Y-16033984D01*
X16048753Y-16033984D02*
X16086848Y-16033984D01*
X16086848Y-16033984D02*
X16105896Y-16043508D01*
X16105896Y-16043508D02*
X16115420Y-16053031D01*
X16115420Y-16053031D02*
X16124944Y-16072079D01*
X16124944Y-16072079D02*
X16124944Y-16081603D01*
X16124944Y-16081603D02*
X16115420Y-16100650D01*
X16115420Y-16100650D02*
X16105896Y-16110174D01*
X16105896Y-16110174D02*
X16086848Y-16119698D01*
X16086848Y-16119698D02*
X16048753Y-16119698D01*
X16048753Y-16119698D02*
X16029706Y-16129222D01*
X16029706Y-16129222D02*
X16020182Y-16138746D01*
X16020182Y-16138746D02*
X16010658Y-16157793D01*
X16010658Y-16157793D02*
X16010658Y-16195888D01*
X16010658Y-16195888D02*
X16020182Y-16214936D01*
X16020182Y-16214936D02*
X16029706Y-16224460D01*
X16029706Y-16224460D02*
X16048753Y-16233984D01*
X16048753Y-16233984D02*
X16086848Y-16233984D01*
X16086848Y-16233984D02*
X16105896Y-16224460D01*
X16105896Y-16224460D02*
X16115420Y-16214936D01*
X16115420Y-16214936D02*
X16124944Y-16195888D01*
X16124944Y-16195888D02*
X16124944Y-16157793D01*
X16124944Y-16157793D02*
X16115420Y-16138746D01*
X16115420Y-16138746D02*
X16105896Y-16129222D01*
X16105896Y-16129222D02*
X16086848Y-16119698D01*
X16201134Y-16033984D02*
X16201134Y-16072079D01*
X16277325Y-16033984D02*
X16277325Y-16072079D01*
X16572563Y-16310174D02*
X16563039Y-16300650D01*
X16563039Y-16300650D02*
X16543991Y-16272079D01*
X16543991Y-16272079D02*
X16534468Y-16253031D01*
X16534468Y-16253031D02*
X16524944Y-16224460D01*
X16524944Y-16224460D02*
X16515420Y-16176841D01*
X16515420Y-16176841D02*
X16515420Y-16138746D01*
X16515420Y-16138746D02*
X16524944Y-16091127D01*
X16524944Y-16091127D02*
X16534468Y-16062555D01*
X16534468Y-16062555D02*
X16543991Y-16043508D01*
X16543991Y-16043508D02*
X16563039Y-16014936D01*
X16563039Y-16014936D02*
X16572563Y-16005412D01*
X16629706Y-16033984D02*
X16753515Y-16033984D01*
X16753515Y-16033984D02*
X16686848Y-16110174D01*
X16686848Y-16110174D02*
X16715420Y-16110174D01*
X16715420Y-16110174D02*
X16734468Y-16119698D01*
X16734468Y-16119698D02*
X16743991Y-16129222D01*
X16743991Y-16129222D02*
X16753515Y-16148269D01*
X16753515Y-16148269D02*
X16753515Y-16195888D01*
X16753515Y-16195888D02*
X16743991Y-16214936D01*
X16743991Y-16214936D02*
X16734468Y-16224460D01*
X16734468Y-16224460D02*
X16715420Y-16233984D01*
X16715420Y-16233984D02*
X16658277Y-16233984D01*
X16658277Y-16233984D02*
X16639229Y-16224460D01*
X16639229Y-16224460D02*
X16629706Y-16214936D01*
X16877325Y-16033984D02*
X16896372Y-16033984D01*
X16896372Y-16033984D02*
X16915420Y-16043508D01*
X16915420Y-16043508D02*
X16924944Y-16053031D01*
X16924944Y-16053031D02*
X16934468Y-16072079D01*
X16934468Y-16072079D02*
X16943991Y-16110174D01*
X16943991Y-16110174D02*
X16943991Y-16157793D01*
X16943991Y-16157793D02*
X16934468Y-16195888D01*
X16934468Y-16195888D02*
X16924944Y-16214936D01*
X16924944Y-16214936D02*
X16915420Y-16224460D01*
X16915420Y-16224460D02*
X16896372Y-16233984D01*
X16896372Y-16233984D02*
X16877325Y-16233984D01*
X16877325Y-16233984D02*
X16858277Y-16224460D01*
X16858277Y-16224460D02*
X16848753Y-16214936D01*
X16848753Y-16214936D02*
X16839230Y-16195888D01*
X16839230Y-16195888D02*
X16829706Y-16157793D01*
X16829706Y-16157793D02*
X16829706Y-16110174D01*
X16829706Y-16110174D02*
X16839230Y-16072079D01*
X16839230Y-16072079D02*
X16848753Y-16053031D01*
X16848753Y-16053031D02*
X16858277Y-16043508D01*
X16858277Y-16043508D02*
X16877325Y-16033984D01*
X17124944Y-16033984D02*
X17029706Y-16033984D01*
X17029706Y-16033984D02*
X17020182Y-16129222D01*
X17020182Y-16129222D02*
X17029706Y-16119698D01*
X17029706Y-16119698D02*
X17048753Y-16110174D01*
X17048753Y-16110174D02*
X17096372Y-16110174D01*
X17096372Y-16110174D02*
X17115420Y-16119698D01*
X17115420Y-16119698D02*
X17124944Y-16129222D01*
X17124944Y-16129222D02*
X17134468Y-16148269D01*
X17134468Y-16148269D02*
X17134468Y-16195888D01*
X17134468Y-16195888D02*
X17124944Y-16214936D01*
X17124944Y-16214936D02*
X17115420Y-16224460D01*
X17115420Y-16224460D02*
X17096372Y-16233984D01*
X17096372Y-16233984D02*
X17048753Y-16233984D01*
X17048753Y-16233984D02*
X17029706Y-16224460D01*
X17029706Y-16224460D02*
X17020182Y-16214936D01*
X17372563Y-16233984D02*
X17372563Y-16033984D01*
X17458277Y-16233984D02*
X17458277Y-16129222D01*
X17458277Y-16129222D02*
X17448753Y-16110174D01*
X17448753Y-16110174D02*
X17429706Y-16100650D01*
X17429706Y-16100650D02*
X17401134Y-16100650D01*
X17401134Y-16100650D02*
X17382087Y-16110174D01*
X17382087Y-16110174D02*
X17372563Y-16119698D01*
X17582087Y-16233984D02*
X17563039Y-16224460D01*
X17563039Y-16224460D02*
X17553515Y-16214936D01*
X17553515Y-16214936D02*
X17543992Y-16195888D01*
X17543992Y-16195888D02*
X17543992Y-16138746D01*
X17543992Y-16138746D02*
X17553515Y-16119698D01*
X17553515Y-16119698D02*
X17563039Y-16110174D01*
X17563039Y-16110174D02*
X17582087Y-16100650D01*
X17582087Y-16100650D02*
X17610658Y-16100650D01*
X17610658Y-16100650D02*
X17629706Y-16110174D01*
X17629706Y-16110174D02*
X17639230Y-16119698D01*
X17639230Y-16119698D02*
X17648753Y-16138746D01*
X17648753Y-16138746D02*
X17648753Y-16195888D01*
X17648753Y-16195888D02*
X17639230Y-16214936D01*
X17639230Y-16214936D02*
X17629706Y-16224460D01*
X17629706Y-16224460D02*
X17610658Y-16233984D01*
X17610658Y-16233984D02*
X17582087Y-16233984D01*
X17763039Y-16233984D02*
X17743992Y-16224460D01*
X17743992Y-16224460D02*
X17734468Y-16205412D01*
X17734468Y-16205412D02*
X17734468Y-16033984D01*
X17915420Y-16224460D02*
X17896373Y-16233984D01*
X17896373Y-16233984D02*
X17858277Y-16233984D01*
X17858277Y-16233984D02*
X17839230Y-16224460D01*
X17839230Y-16224460D02*
X17829706Y-16205412D01*
X17829706Y-16205412D02*
X17829706Y-16129222D01*
X17829706Y-16129222D02*
X17839230Y-16110174D01*
X17839230Y-16110174D02*
X17858277Y-16100650D01*
X17858277Y-16100650D02*
X17896373Y-16100650D01*
X17896373Y-16100650D02*
X17915420Y-16110174D01*
X17915420Y-16110174D02*
X17924944Y-16129222D01*
X17924944Y-16129222D02*
X17924944Y-16148269D01*
X17924944Y-16148269D02*
X17829706Y-16167317D01*
X18001134Y-16224460D02*
X18020182Y-16233984D01*
X18020182Y-16233984D02*
X18058277Y-16233984D01*
X18058277Y-16233984D02*
X18077325Y-16224460D01*
X18077325Y-16224460D02*
X18086849Y-16205412D01*
X18086849Y-16205412D02*
X18086849Y-16195888D01*
X18086849Y-16195888D02*
X18077325Y-16176841D01*
X18077325Y-16176841D02*
X18058277Y-16167317D01*
X18058277Y-16167317D02*
X18029706Y-16167317D01*
X18029706Y-16167317D02*
X18010658Y-16157793D01*
X18010658Y-16157793D02*
X18001134Y-16138746D01*
X18001134Y-16138746D02*
X18001134Y-16129222D01*
X18001134Y-16129222D02*
X18010658Y-16110174D01*
X18010658Y-16110174D02*
X18029706Y-16100650D01*
X18029706Y-16100650D02*
X18058277Y-16100650D01*
X18058277Y-16100650D02*
X18077325Y-16110174D01*
X18153515Y-16310174D02*
X18163039Y-16300650D01*
X18163039Y-16300650D02*
X18182087Y-16272079D01*
X18182087Y-16272079D02*
X18191611Y-16253031D01*
X18191611Y-16253031D02*
X18201134Y-16224460D01*
X18201134Y-16224460D02*
X18210658Y-16176841D01*
X18210658Y-16176841D02*
X18210658Y-16138746D01*
X18210658Y-16138746D02*
X18201134Y-16091127D01*
X18201134Y-16091127D02*
X18191611Y-16062555D01*
X18191611Y-16062555D02*
X18182087Y-16043508D01*
X18182087Y-16043508D02*
X18163039Y-16014936D01*
X18163039Y-16014936D02*
X18153515Y-16005412D01*
D12*
X12997500Y-16406500D02*
G75*
G02*
X12951500Y-16406500I-23000J0D01*
G01*
X12951500Y-16406500D02*
G75*
G02*
X12997500Y-16406500I23000J0D01*
G01*
D11*
X13296372Y-16297984D02*
X13315420Y-16297984D01*
X13315420Y-16297984D02*
X13334467Y-16307508D01*
X13334467Y-16307508D02*
X13343991Y-16317031D01*
X13343991Y-16317031D02*
X13353515Y-16336079D01*
X13353515Y-16336079D02*
X13363039Y-16374174D01*
X13363039Y-16374174D02*
X13363039Y-16421793D01*
X13363039Y-16421793D02*
X13353515Y-16459888D01*
X13353515Y-16459888D02*
X13343991Y-16478936D01*
X13343991Y-16478936D02*
X13334467Y-16488460D01*
X13334467Y-16488460D02*
X13315420Y-16497984D01*
X13315420Y-16497984D02*
X13296372Y-16497984D01*
X13296372Y-16497984D02*
X13277324Y-16488460D01*
X13277324Y-16488460D02*
X13267801Y-16478936D01*
X13267801Y-16478936D02*
X13258277Y-16459888D01*
X13258277Y-16459888D02*
X13248753Y-16421793D01*
X13248753Y-16421793D02*
X13248753Y-16374174D01*
X13248753Y-16374174D02*
X13258277Y-16336079D01*
X13258277Y-16336079D02*
X13267801Y-16317031D01*
X13267801Y-16317031D02*
X13277324Y-16307508D01*
X13277324Y-16307508D02*
X13296372Y-16297984D01*
X13448753Y-16478936D02*
X13458277Y-16488460D01*
X13458277Y-16488460D02*
X13448753Y-16497984D01*
X13448753Y-16497984D02*
X13439229Y-16488460D01*
X13439229Y-16488460D02*
X13448753Y-16478936D01*
X13448753Y-16478936D02*
X13448753Y-16497984D01*
X13629705Y-16364650D02*
X13629705Y-16497984D01*
X13582086Y-16288460D02*
X13534467Y-16431317D01*
X13534467Y-16431317D02*
X13658277Y-16431317D01*
X13820182Y-16297984D02*
X13782086Y-16297984D01*
X13782086Y-16297984D02*
X13763039Y-16307508D01*
X13763039Y-16307508D02*
X13753515Y-16317031D01*
X13753515Y-16317031D02*
X13734467Y-16345603D01*
X13734467Y-16345603D02*
X13724943Y-16383698D01*
X13724943Y-16383698D02*
X13724943Y-16459888D01*
X13724943Y-16459888D02*
X13734467Y-16478936D01*
X13734467Y-16478936D02*
X13743991Y-16488460D01*
X13743991Y-16488460D02*
X13763039Y-16497984D01*
X13763039Y-16497984D02*
X13801134Y-16497984D01*
X13801134Y-16497984D02*
X13820182Y-16488460D01*
X13820182Y-16488460D02*
X13829705Y-16478936D01*
X13829705Y-16478936D02*
X13839229Y-16459888D01*
X13839229Y-16459888D02*
X13839229Y-16412269D01*
X13839229Y-16412269D02*
X13829705Y-16393222D01*
X13829705Y-16393222D02*
X13820182Y-16383698D01*
X13820182Y-16383698D02*
X13801134Y-16374174D01*
X13801134Y-16374174D02*
X13763039Y-16374174D01*
X13763039Y-16374174D02*
X13743991Y-16383698D01*
X13743991Y-16383698D02*
X13734467Y-16393222D01*
X13734467Y-16393222D02*
X13724943Y-16412269D01*
X13963039Y-16297984D02*
X13982086Y-16297984D01*
X13982086Y-16297984D02*
X14001134Y-16307508D01*
X14001134Y-16307508D02*
X14010658Y-16317031D01*
X14010658Y-16317031D02*
X14020182Y-16336079D01*
X14020182Y-16336079D02*
X14029705Y-16374174D01*
X14029705Y-16374174D02*
X14029705Y-16421793D01*
X14029705Y-16421793D02*
X14020182Y-16459888D01*
X14020182Y-16459888D02*
X14010658Y-16478936D01*
X14010658Y-16478936D02*
X14001134Y-16488460D01*
X14001134Y-16488460D02*
X13982086Y-16497984D01*
X13982086Y-16497984D02*
X13963039Y-16497984D01*
X13963039Y-16497984D02*
X13943991Y-16488460D01*
X13943991Y-16488460D02*
X13934467Y-16478936D01*
X13934467Y-16478936D02*
X13924943Y-16459888D01*
X13924943Y-16459888D02*
X13915420Y-16421793D01*
X13915420Y-16421793D02*
X13915420Y-16374174D01*
X13915420Y-16374174D02*
X13924943Y-16336079D01*
X13924943Y-16336079D02*
X13934467Y-16317031D01*
X13934467Y-16317031D02*
X13943991Y-16307508D01*
X13943991Y-16307508D02*
X13963039Y-16297984D01*
X14115420Y-16497984D02*
X14115420Y-16364650D01*
X14115420Y-16383698D02*
X14124943Y-16374174D01*
X14124943Y-16374174D02*
X14143991Y-16364650D01*
X14143991Y-16364650D02*
X14172563Y-16364650D01*
X14172563Y-16364650D02*
X14191610Y-16374174D01*
X14191610Y-16374174D02*
X14201134Y-16393222D01*
X14201134Y-16393222D02*
X14201134Y-16497984D01*
X14201134Y-16393222D02*
X14210658Y-16374174D01*
X14210658Y-16374174D02*
X14229705Y-16364650D01*
X14229705Y-16364650D02*
X14258277Y-16364650D01*
X14258277Y-16364650D02*
X14277324Y-16374174D01*
X14277324Y-16374174D02*
X14286848Y-16393222D01*
X14286848Y-16393222D02*
X14286848Y-16497984D01*
X14382086Y-16497984D02*
X14382086Y-16364650D01*
X14382086Y-16383698D02*
X14391610Y-16374174D01*
X14391610Y-16374174D02*
X14410658Y-16364650D01*
X14410658Y-16364650D02*
X14439229Y-16364650D01*
X14439229Y-16364650D02*
X14458277Y-16374174D01*
X14458277Y-16374174D02*
X14467801Y-16393222D01*
X14467801Y-16393222D02*
X14467801Y-16497984D01*
X14467801Y-16393222D02*
X14477324Y-16374174D01*
X14477324Y-16374174D02*
X14496372Y-16364650D01*
X14496372Y-16364650D02*
X14524943Y-16364650D01*
X14524943Y-16364650D02*
X14543991Y-16374174D01*
X14543991Y-16374174D02*
X14553515Y-16393222D01*
X14553515Y-16393222D02*
X14553515Y-16497984D01*
X14943991Y-16288460D02*
X14772563Y-16545603D01*
X15201134Y-16297984D02*
X15220182Y-16297984D01*
X15220182Y-16297984D02*
X15239229Y-16307508D01*
X15239229Y-16307508D02*
X15248753Y-16317031D01*
X15248753Y-16317031D02*
X15258277Y-16336079D01*
X15258277Y-16336079D02*
X15267801Y-16374174D01*
X15267801Y-16374174D02*
X15267801Y-16421793D01*
X15267801Y-16421793D02*
X15258277Y-16459888D01*
X15258277Y-16459888D02*
X15248753Y-16478936D01*
X15248753Y-16478936D02*
X15239229Y-16488460D01*
X15239229Y-16488460D02*
X15220182Y-16497984D01*
X15220182Y-16497984D02*
X15201134Y-16497984D01*
X15201134Y-16497984D02*
X15182086Y-16488460D01*
X15182086Y-16488460D02*
X15172563Y-16478936D01*
X15172563Y-16478936D02*
X15163039Y-16459888D01*
X15163039Y-16459888D02*
X15153515Y-16421793D01*
X15153515Y-16421793D02*
X15153515Y-16374174D01*
X15153515Y-16374174D02*
X15163039Y-16336079D01*
X15163039Y-16336079D02*
X15172563Y-16317031D01*
X15172563Y-16317031D02*
X15182086Y-16307508D01*
X15182086Y-16307508D02*
X15201134Y-16297984D01*
X15353515Y-16478936D02*
X15363039Y-16488460D01*
X15363039Y-16488460D02*
X15353515Y-16497984D01*
X15353515Y-16497984D02*
X15343991Y-16488460D01*
X15343991Y-16488460D02*
X15353515Y-16478936D01*
X15353515Y-16478936D02*
X15353515Y-16497984D01*
X15486848Y-16297984D02*
X15505896Y-16297984D01*
X15505896Y-16297984D02*
X15524944Y-16307508D01*
X15524944Y-16307508D02*
X15534467Y-16317031D01*
X15534467Y-16317031D02*
X15543991Y-16336079D01*
X15543991Y-16336079D02*
X15553515Y-16374174D01*
X15553515Y-16374174D02*
X15553515Y-16421793D01*
X15553515Y-16421793D02*
X15543991Y-16459888D01*
X15543991Y-16459888D02*
X15534467Y-16478936D01*
X15534467Y-16478936D02*
X15524944Y-16488460D01*
X15524944Y-16488460D02*
X15505896Y-16497984D01*
X15505896Y-16497984D02*
X15486848Y-16497984D01*
X15486848Y-16497984D02*
X15467801Y-16488460D01*
X15467801Y-16488460D02*
X15458277Y-16478936D01*
X15458277Y-16478936D02*
X15448753Y-16459888D01*
X15448753Y-16459888D02*
X15439229Y-16421793D01*
X15439229Y-16421793D02*
X15439229Y-16374174D01*
X15439229Y-16374174D02*
X15448753Y-16336079D01*
X15448753Y-16336079D02*
X15458277Y-16317031D01*
X15458277Y-16317031D02*
X15467801Y-16307508D01*
X15467801Y-16307508D02*
X15486848Y-16297984D01*
X15743991Y-16497984D02*
X15629706Y-16497984D01*
X15686848Y-16497984D02*
X15686848Y-16297984D01*
X15686848Y-16297984D02*
X15667801Y-16326555D01*
X15667801Y-16326555D02*
X15648753Y-16345603D01*
X15648753Y-16345603D02*
X15629706Y-16355127D01*
X15858277Y-16383698D02*
X15839229Y-16374174D01*
X15839229Y-16374174D02*
X15829706Y-16364650D01*
X15829706Y-16364650D02*
X15820182Y-16345603D01*
X15820182Y-16345603D02*
X15820182Y-16336079D01*
X15820182Y-16336079D02*
X15829706Y-16317031D01*
X15829706Y-16317031D02*
X15839229Y-16307508D01*
X15839229Y-16307508D02*
X15858277Y-16297984D01*
X15858277Y-16297984D02*
X15896372Y-16297984D01*
X15896372Y-16297984D02*
X15915420Y-16307508D01*
X15915420Y-16307508D02*
X15924944Y-16317031D01*
X15924944Y-16317031D02*
X15934467Y-16336079D01*
X15934467Y-16336079D02*
X15934467Y-16345603D01*
X15934467Y-16345603D02*
X15924944Y-16364650D01*
X15924944Y-16364650D02*
X15915420Y-16374174D01*
X15915420Y-16374174D02*
X15896372Y-16383698D01*
X15896372Y-16383698D02*
X15858277Y-16383698D01*
X15858277Y-16383698D02*
X15839229Y-16393222D01*
X15839229Y-16393222D02*
X15829706Y-16402746D01*
X15829706Y-16402746D02*
X15820182Y-16421793D01*
X15820182Y-16421793D02*
X15820182Y-16459888D01*
X15820182Y-16459888D02*
X15829706Y-16478936D01*
X15829706Y-16478936D02*
X15839229Y-16488460D01*
X15839229Y-16488460D02*
X15858277Y-16497984D01*
X15858277Y-16497984D02*
X15896372Y-16497984D01*
X15896372Y-16497984D02*
X15915420Y-16488460D01*
X15915420Y-16488460D02*
X15924944Y-16478936D01*
X15924944Y-16478936D02*
X15934467Y-16459888D01*
X15934467Y-16459888D02*
X15934467Y-16421793D01*
X15934467Y-16421793D02*
X15924944Y-16402746D01*
X15924944Y-16402746D02*
X15915420Y-16393222D01*
X15915420Y-16393222D02*
X15896372Y-16383698D01*
X16124944Y-16497984D02*
X16010658Y-16497984D01*
X16067801Y-16497984D02*
X16067801Y-16297984D01*
X16067801Y-16297984D02*
X16048753Y-16326555D01*
X16048753Y-16326555D02*
X16029706Y-16345603D01*
X16029706Y-16345603D02*
X16010658Y-16355127D01*
X16201134Y-16297984D02*
X16201134Y-16336079D01*
X16277325Y-16297984D02*
X16277325Y-16336079D01*
X16572563Y-16574174D02*
X16563039Y-16564650D01*
X16563039Y-16564650D02*
X16543991Y-16536079D01*
X16543991Y-16536079D02*
X16534468Y-16517031D01*
X16534468Y-16517031D02*
X16524944Y-16488460D01*
X16524944Y-16488460D02*
X16515420Y-16440841D01*
X16515420Y-16440841D02*
X16515420Y-16402746D01*
X16515420Y-16402746D02*
X16524944Y-16355127D01*
X16524944Y-16355127D02*
X16534468Y-16326555D01*
X16534468Y-16326555D02*
X16543991Y-16307508D01*
X16543991Y-16307508D02*
X16563039Y-16278936D01*
X16563039Y-16278936D02*
X16572563Y-16269412D01*
X16639229Y-16317031D02*
X16648753Y-16307508D01*
X16648753Y-16307508D02*
X16667801Y-16297984D01*
X16667801Y-16297984D02*
X16715420Y-16297984D01*
X16715420Y-16297984D02*
X16734468Y-16307508D01*
X16734468Y-16307508D02*
X16743991Y-16317031D01*
X16743991Y-16317031D02*
X16753515Y-16336079D01*
X16753515Y-16336079D02*
X16753515Y-16355127D01*
X16753515Y-16355127D02*
X16743991Y-16383698D01*
X16743991Y-16383698D02*
X16629706Y-16497984D01*
X16629706Y-16497984D02*
X16753515Y-16497984D01*
X16991611Y-16497984D02*
X16991611Y-16297984D01*
X17077325Y-16497984D02*
X17077325Y-16393222D01*
X17077325Y-16393222D02*
X17067801Y-16374174D01*
X17067801Y-16374174D02*
X17048753Y-16364650D01*
X17048753Y-16364650D02*
X17020182Y-16364650D01*
X17020182Y-16364650D02*
X17001134Y-16374174D01*
X17001134Y-16374174D02*
X16991611Y-16383698D01*
X17201134Y-16497984D02*
X17182087Y-16488460D01*
X17182087Y-16488460D02*
X17172563Y-16478936D01*
X17172563Y-16478936D02*
X17163039Y-16459888D01*
X17163039Y-16459888D02*
X17163039Y-16402746D01*
X17163039Y-16402746D02*
X17172563Y-16383698D01*
X17172563Y-16383698D02*
X17182087Y-16374174D01*
X17182087Y-16374174D02*
X17201134Y-16364650D01*
X17201134Y-16364650D02*
X17229706Y-16364650D01*
X17229706Y-16364650D02*
X17248753Y-16374174D01*
X17248753Y-16374174D02*
X17258277Y-16383698D01*
X17258277Y-16383698D02*
X17267801Y-16402746D01*
X17267801Y-16402746D02*
X17267801Y-16459888D01*
X17267801Y-16459888D02*
X17258277Y-16478936D01*
X17258277Y-16478936D02*
X17248753Y-16488460D01*
X17248753Y-16488460D02*
X17229706Y-16497984D01*
X17229706Y-16497984D02*
X17201134Y-16497984D01*
X17382087Y-16497984D02*
X17363039Y-16488460D01*
X17363039Y-16488460D02*
X17353515Y-16469412D01*
X17353515Y-16469412D02*
X17353515Y-16297984D01*
X17534468Y-16488460D02*
X17515420Y-16497984D01*
X17515420Y-16497984D02*
X17477325Y-16497984D01*
X17477325Y-16497984D02*
X17458277Y-16488460D01*
X17458277Y-16488460D02*
X17448753Y-16469412D01*
X17448753Y-16469412D02*
X17448753Y-16393222D01*
X17448753Y-16393222D02*
X17458277Y-16374174D01*
X17458277Y-16374174D02*
X17477325Y-16364650D01*
X17477325Y-16364650D02*
X17515420Y-16364650D01*
X17515420Y-16364650D02*
X17534468Y-16374174D01*
X17534468Y-16374174D02*
X17543992Y-16393222D01*
X17543992Y-16393222D02*
X17543992Y-16412269D01*
X17543992Y-16412269D02*
X17448753Y-16431317D01*
X17620182Y-16488460D02*
X17639230Y-16497984D01*
X17639230Y-16497984D02*
X17677325Y-16497984D01*
X17677325Y-16497984D02*
X17696373Y-16488460D01*
X17696373Y-16488460D02*
X17705896Y-16469412D01*
X17705896Y-16469412D02*
X17705896Y-16459888D01*
X17705896Y-16459888D02*
X17696373Y-16440841D01*
X17696373Y-16440841D02*
X17677325Y-16431317D01*
X17677325Y-16431317D02*
X17648753Y-16431317D01*
X17648753Y-16431317D02*
X17629706Y-16421793D01*
X17629706Y-16421793D02*
X17620182Y-16402746D01*
X17620182Y-16402746D02*
X17620182Y-16393222D01*
X17620182Y-16393222D02*
X17629706Y-16374174D01*
X17629706Y-16374174D02*
X17648753Y-16364650D01*
X17648753Y-16364650D02*
X17677325Y-16364650D01*
X17677325Y-16364650D02*
X17696373Y-16374174D01*
X17772563Y-16574174D02*
X17782087Y-16564650D01*
X17782087Y-16564650D02*
X17801134Y-16536079D01*
X17801134Y-16536079D02*
X17810658Y-16517031D01*
X17810658Y-16517031D02*
X17820182Y-16488460D01*
X17820182Y-16488460D02*
X17829706Y-16440841D01*
X17829706Y-16440841D02*
X17829706Y-16402746D01*
X17829706Y-16402746D02*
X17820182Y-16355127D01*
X17820182Y-16355127D02*
X17810658Y-16326555D01*
X17810658Y-16326555D02*
X17801134Y-16307508D01*
X17801134Y-16307508D02*
X17782087Y-16278936D01*
X17782087Y-16278936D02*
X17772563Y-16269412D01*
D12*
X12972500Y-16645500D02*
X12972500Y-16695500D01*
X12947500Y-16670500D02*
X12997500Y-16670500D01*
D11*
X13296372Y-16561984D02*
X13315420Y-16561984D01*
X13315420Y-16561984D02*
X13334467Y-16571508D01*
X13334467Y-16571508D02*
X13343991Y-16581031D01*
X13343991Y-16581031D02*
X13353515Y-16600079D01*
X13353515Y-16600079D02*
X13363039Y-16638174D01*
X13363039Y-16638174D02*
X13363039Y-16685793D01*
X13363039Y-16685793D02*
X13353515Y-16723888D01*
X13353515Y-16723888D02*
X13343991Y-16742936D01*
X13343991Y-16742936D02*
X13334467Y-16752460D01*
X13334467Y-16752460D02*
X13315420Y-16761984D01*
X13315420Y-16761984D02*
X13296372Y-16761984D01*
X13296372Y-16761984D02*
X13277324Y-16752460D01*
X13277324Y-16752460D02*
X13267801Y-16742936D01*
X13267801Y-16742936D02*
X13258277Y-16723888D01*
X13258277Y-16723888D02*
X13248753Y-16685793D01*
X13248753Y-16685793D02*
X13248753Y-16638174D01*
X13248753Y-16638174D02*
X13258277Y-16600079D01*
X13258277Y-16600079D02*
X13267801Y-16581031D01*
X13267801Y-16581031D02*
X13277324Y-16571508D01*
X13277324Y-16571508D02*
X13296372Y-16561984D01*
X13448753Y-16742936D02*
X13458277Y-16752460D01*
X13458277Y-16752460D02*
X13448753Y-16761984D01*
X13448753Y-16761984D02*
X13439229Y-16752460D01*
X13439229Y-16752460D02*
X13448753Y-16742936D01*
X13448753Y-16742936D02*
X13448753Y-16761984D01*
X13639229Y-16561984D02*
X13543991Y-16561984D01*
X13543991Y-16561984D02*
X13534467Y-16657222D01*
X13534467Y-16657222D02*
X13543991Y-16647698D01*
X13543991Y-16647698D02*
X13563039Y-16638174D01*
X13563039Y-16638174D02*
X13610658Y-16638174D01*
X13610658Y-16638174D02*
X13629705Y-16647698D01*
X13629705Y-16647698D02*
X13639229Y-16657222D01*
X13639229Y-16657222D02*
X13648753Y-16676269D01*
X13648753Y-16676269D02*
X13648753Y-16723888D01*
X13648753Y-16723888D02*
X13639229Y-16742936D01*
X13639229Y-16742936D02*
X13629705Y-16752460D01*
X13629705Y-16752460D02*
X13610658Y-16761984D01*
X13610658Y-16761984D02*
X13563039Y-16761984D01*
X13563039Y-16761984D02*
X13543991Y-16752460D01*
X13543991Y-16752460D02*
X13534467Y-16742936D01*
X13772562Y-16561984D02*
X13791610Y-16561984D01*
X13791610Y-16561984D02*
X13810658Y-16571508D01*
X13810658Y-16571508D02*
X13820182Y-16581031D01*
X13820182Y-16581031D02*
X13829705Y-16600079D01*
X13829705Y-16600079D02*
X13839229Y-16638174D01*
X13839229Y-16638174D02*
X13839229Y-16685793D01*
X13839229Y-16685793D02*
X13829705Y-16723888D01*
X13829705Y-16723888D02*
X13820182Y-16742936D01*
X13820182Y-16742936D02*
X13810658Y-16752460D01*
X13810658Y-16752460D02*
X13791610Y-16761984D01*
X13791610Y-16761984D02*
X13772562Y-16761984D01*
X13772562Y-16761984D02*
X13753515Y-16752460D01*
X13753515Y-16752460D02*
X13743991Y-16742936D01*
X13743991Y-16742936D02*
X13734467Y-16723888D01*
X13734467Y-16723888D02*
X13724943Y-16685793D01*
X13724943Y-16685793D02*
X13724943Y-16638174D01*
X13724943Y-16638174D02*
X13734467Y-16600079D01*
X13734467Y-16600079D02*
X13743991Y-16581031D01*
X13743991Y-16581031D02*
X13753515Y-16571508D01*
X13753515Y-16571508D02*
X13772562Y-16561984D01*
X13963039Y-16561984D02*
X13982086Y-16561984D01*
X13982086Y-16561984D02*
X14001134Y-16571508D01*
X14001134Y-16571508D02*
X14010658Y-16581031D01*
X14010658Y-16581031D02*
X14020182Y-16600079D01*
X14020182Y-16600079D02*
X14029705Y-16638174D01*
X14029705Y-16638174D02*
X14029705Y-16685793D01*
X14029705Y-16685793D02*
X14020182Y-16723888D01*
X14020182Y-16723888D02*
X14010658Y-16742936D01*
X14010658Y-16742936D02*
X14001134Y-16752460D01*
X14001134Y-16752460D02*
X13982086Y-16761984D01*
X13982086Y-16761984D02*
X13963039Y-16761984D01*
X13963039Y-16761984D02*
X13943991Y-16752460D01*
X13943991Y-16752460D02*
X13934467Y-16742936D01*
X13934467Y-16742936D02*
X13924943Y-16723888D01*
X13924943Y-16723888D02*
X13915420Y-16685793D01*
X13915420Y-16685793D02*
X13915420Y-16638174D01*
X13915420Y-16638174D02*
X13924943Y-16600079D01*
X13924943Y-16600079D02*
X13934467Y-16581031D01*
X13934467Y-16581031D02*
X13943991Y-16571508D01*
X13943991Y-16571508D02*
X13963039Y-16561984D01*
X14115420Y-16761984D02*
X14115420Y-16628650D01*
X14115420Y-16647698D02*
X14124943Y-16638174D01*
X14124943Y-16638174D02*
X14143991Y-16628650D01*
X14143991Y-16628650D02*
X14172563Y-16628650D01*
X14172563Y-16628650D02*
X14191610Y-16638174D01*
X14191610Y-16638174D02*
X14201134Y-16657222D01*
X14201134Y-16657222D02*
X14201134Y-16761984D01*
X14201134Y-16657222D02*
X14210658Y-16638174D01*
X14210658Y-16638174D02*
X14229705Y-16628650D01*
X14229705Y-16628650D02*
X14258277Y-16628650D01*
X14258277Y-16628650D02*
X14277324Y-16638174D01*
X14277324Y-16638174D02*
X14286848Y-16657222D01*
X14286848Y-16657222D02*
X14286848Y-16761984D01*
X14382086Y-16761984D02*
X14382086Y-16628650D01*
X14382086Y-16647698D02*
X14391610Y-16638174D01*
X14391610Y-16638174D02*
X14410658Y-16628650D01*
X14410658Y-16628650D02*
X14439229Y-16628650D01*
X14439229Y-16628650D02*
X14458277Y-16638174D01*
X14458277Y-16638174D02*
X14467801Y-16657222D01*
X14467801Y-16657222D02*
X14467801Y-16761984D01*
X14467801Y-16657222D02*
X14477324Y-16638174D01*
X14477324Y-16638174D02*
X14496372Y-16628650D01*
X14496372Y-16628650D02*
X14524943Y-16628650D01*
X14524943Y-16628650D02*
X14543991Y-16638174D01*
X14543991Y-16638174D02*
X14553515Y-16657222D01*
X14553515Y-16657222D02*
X14553515Y-16761984D01*
X14943991Y-16552460D02*
X14772563Y-16809603D01*
X15201134Y-16561984D02*
X15220182Y-16561984D01*
X15220182Y-16561984D02*
X15239229Y-16571508D01*
X15239229Y-16571508D02*
X15248753Y-16581031D01*
X15248753Y-16581031D02*
X15258277Y-16600079D01*
X15258277Y-16600079D02*
X15267801Y-16638174D01*
X15267801Y-16638174D02*
X15267801Y-16685793D01*
X15267801Y-16685793D02*
X15258277Y-16723888D01*
X15258277Y-16723888D02*
X15248753Y-16742936D01*
X15248753Y-16742936D02*
X15239229Y-16752460D01*
X15239229Y-16752460D02*
X15220182Y-16761984D01*
X15220182Y-16761984D02*
X15201134Y-16761984D01*
X15201134Y-16761984D02*
X15182086Y-16752460D01*
X15182086Y-16752460D02*
X15172563Y-16742936D01*
X15172563Y-16742936D02*
X15163039Y-16723888D01*
X15163039Y-16723888D02*
X15153515Y-16685793D01*
X15153515Y-16685793D02*
X15153515Y-16638174D01*
X15153515Y-16638174D02*
X15163039Y-16600079D01*
X15163039Y-16600079D02*
X15172563Y-16581031D01*
X15172563Y-16581031D02*
X15182086Y-16571508D01*
X15182086Y-16571508D02*
X15201134Y-16561984D01*
X15353515Y-16742936D02*
X15363039Y-16752460D01*
X15363039Y-16752460D02*
X15353515Y-16761984D01*
X15353515Y-16761984D02*
X15343991Y-16752460D01*
X15343991Y-16752460D02*
X15353515Y-16742936D01*
X15353515Y-16742936D02*
X15353515Y-16761984D01*
X15486848Y-16561984D02*
X15505896Y-16561984D01*
X15505896Y-16561984D02*
X15524944Y-16571508D01*
X15524944Y-16571508D02*
X15534467Y-16581031D01*
X15534467Y-16581031D02*
X15543991Y-16600079D01*
X15543991Y-16600079D02*
X15553515Y-16638174D01*
X15553515Y-16638174D02*
X15553515Y-16685793D01*
X15553515Y-16685793D02*
X15543991Y-16723888D01*
X15543991Y-16723888D02*
X15534467Y-16742936D01*
X15534467Y-16742936D02*
X15524944Y-16752460D01*
X15524944Y-16752460D02*
X15505896Y-16761984D01*
X15505896Y-16761984D02*
X15486848Y-16761984D01*
X15486848Y-16761984D02*
X15467801Y-16752460D01*
X15467801Y-16752460D02*
X15458277Y-16742936D01*
X15458277Y-16742936D02*
X15448753Y-16723888D01*
X15448753Y-16723888D02*
X15439229Y-16685793D01*
X15439229Y-16685793D02*
X15439229Y-16638174D01*
X15439229Y-16638174D02*
X15448753Y-16600079D01*
X15448753Y-16600079D02*
X15458277Y-16581031D01*
X15458277Y-16581031D02*
X15467801Y-16571508D01*
X15467801Y-16571508D02*
X15486848Y-16561984D01*
X15743991Y-16761984D02*
X15629706Y-16761984D01*
X15686848Y-16761984D02*
X15686848Y-16561984D01*
X15686848Y-16561984D02*
X15667801Y-16590555D01*
X15667801Y-16590555D02*
X15648753Y-16609603D01*
X15648753Y-16609603D02*
X15629706Y-16619127D01*
X15839229Y-16761984D02*
X15877325Y-16761984D01*
X15877325Y-16761984D02*
X15896372Y-16752460D01*
X15896372Y-16752460D02*
X15905896Y-16742936D01*
X15905896Y-16742936D02*
X15924944Y-16714365D01*
X15924944Y-16714365D02*
X15934467Y-16676269D01*
X15934467Y-16676269D02*
X15934467Y-16600079D01*
X15934467Y-16600079D02*
X15924944Y-16581031D01*
X15924944Y-16581031D02*
X15915420Y-16571508D01*
X15915420Y-16571508D02*
X15896372Y-16561984D01*
X15896372Y-16561984D02*
X15858277Y-16561984D01*
X15858277Y-16561984D02*
X15839229Y-16571508D01*
X15839229Y-16571508D02*
X15829706Y-16581031D01*
X15829706Y-16581031D02*
X15820182Y-16600079D01*
X15820182Y-16600079D02*
X15820182Y-16647698D01*
X15820182Y-16647698D02*
X15829706Y-16666746D01*
X15829706Y-16666746D02*
X15839229Y-16676269D01*
X15839229Y-16676269D02*
X15858277Y-16685793D01*
X15858277Y-16685793D02*
X15896372Y-16685793D01*
X15896372Y-16685793D02*
X15915420Y-16676269D01*
X15915420Y-16676269D02*
X15924944Y-16666746D01*
X15924944Y-16666746D02*
X15934467Y-16647698D01*
X16001134Y-16561984D02*
X16134467Y-16561984D01*
X16134467Y-16561984D02*
X16048753Y-16761984D01*
X16201134Y-16561984D02*
X16201134Y-16600079D01*
X16277325Y-16561984D02*
X16277325Y-16600079D01*
X16572563Y-16838174D02*
X16563039Y-16828650D01*
X16563039Y-16828650D02*
X16543991Y-16800079D01*
X16543991Y-16800079D02*
X16534468Y-16781031D01*
X16534468Y-16781031D02*
X16524944Y-16752460D01*
X16524944Y-16752460D02*
X16515420Y-16704841D01*
X16515420Y-16704841D02*
X16515420Y-16666746D01*
X16515420Y-16666746D02*
X16524944Y-16619127D01*
X16524944Y-16619127D02*
X16534468Y-16590555D01*
X16534468Y-16590555D02*
X16543991Y-16571508D01*
X16543991Y-16571508D02*
X16563039Y-16542936D01*
X16563039Y-16542936D02*
X16572563Y-16533412D01*
X16686848Y-16561984D02*
X16705896Y-16561984D01*
X16705896Y-16561984D02*
X16724944Y-16571508D01*
X16724944Y-16571508D02*
X16734468Y-16581031D01*
X16734468Y-16581031D02*
X16743991Y-16600079D01*
X16743991Y-16600079D02*
X16753515Y-16638174D01*
X16753515Y-16638174D02*
X16753515Y-16685793D01*
X16753515Y-16685793D02*
X16743991Y-16723888D01*
X16743991Y-16723888D02*
X16734468Y-16742936D01*
X16734468Y-16742936D02*
X16724944Y-16752460D01*
X16724944Y-16752460D02*
X16705896Y-16761984D01*
X16705896Y-16761984D02*
X16686848Y-16761984D01*
X16686848Y-16761984D02*
X16667801Y-16752460D01*
X16667801Y-16752460D02*
X16658277Y-16742936D01*
X16658277Y-16742936D02*
X16648753Y-16723888D01*
X16648753Y-16723888D02*
X16639229Y-16685793D01*
X16639229Y-16685793D02*
X16639229Y-16638174D01*
X16639229Y-16638174D02*
X16648753Y-16600079D01*
X16648753Y-16600079D02*
X16658277Y-16581031D01*
X16658277Y-16581031D02*
X16667801Y-16571508D01*
X16667801Y-16571508D02*
X16686848Y-16561984D01*
X16991611Y-16761984D02*
X16991611Y-16561984D01*
X17077325Y-16761984D02*
X17077325Y-16657222D01*
X17077325Y-16657222D02*
X17067801Y-16638174D01*
X17067801Y-16638174D02*
X17048753Y-16628650D01*
X17048753Y-16628650D02*
X17020182Y-16628650D01*
X17020182Y-16628650D02*
X17001134Y-16638174D01*
X17001134Y-16638174D02*
X16991611Y-16647698D01*
X17201134Y-16761984D02*
X17182087Y-16752460D01*
X17182087Y-16752460D02*
X17172563Y-16742936D01*
X17172563Y-16742936D02*
X17163039Y-16723888D01*
X17163039Y-16723888D02*
X17163039Y-16666746D01*
X17163039Y-16666746D02*
X17172563Y-16647698D01*
X17172563Y-16647698D02*
X17182087Y-16638174D01*
X17182087Y-16638174D02*
X17201134Y-16628650D01*
X17201134Y-16628650D02*
X17229706Y-16628650D01*
X17229706Y-16628650D02*
X17248753Y-16638174D01*
X17248753Y-16638174D02*
X17258277Y-16647698D01*
X17258277Y-16647698D02*
X17267801Y-16666746D01*
X17267801Y-16666746D02*
X17267801Y-16723888D01*
X17267801Y-16723888D02*
X17258277Y-16742936D01*
X17258277Y-16742936D02*
X17248753Y-16752460D01*
X17248753Y-16752460D02*
X17229706Y-16761984D01*
X17229706Y-16761984D02*
X17201134Y-16761984D01*
X17382087Y-16761984D02*
X17363039Y-16752460D01*
X17363039Y-16752460D02*
X17353515Y-16733412D01*
X17353515Y-16733412D02*
X17353515Y-16561984D01*
X17534468Y-16752460D02*
X17515420Y-16761984D01*
X17515420Y-16761984D02*
X17477325Y-16761984D01*
X17477325Y-16761984D02*
X17458277Y-16752460D01*
X17458277Y-16752460D02*
X17448753Y-16733412D01*
X17448753Y-16733412D02*
X17448753Y-16657222D01*
X17448753Y-16657222D02*
X17458277Y-16638174D01*
X17458277Y-16638174D02*
X17477325Y-16628650D01*
X17477325Y-16628650D02*
X17515420Y-16628650D01*
X17515420Y-16628650D02*
X17534468Y-16638174D01*
X17534468Y-16638174D02*
X17543992Y-16657222D01*
X17543992Y-16657222D02*
X17543992Y-16676269D01*
X17543992Y-16676269D02*
X17448753Y-16695317D01*
X17620182Y-16752460D02*
X17639230Y-16761984D01*
X17639230Y-16761984D02*
X17677325Y-16761984D01*
X17677325Y-16761984D02*
X17696373Y-16752460D01*
X17696373Y-16752460D02*
X17705896Y-16733412D01*
X17705896Y-16733412D02*
X17705896Y-16723888D01*
X17705896Y-16723888D02*
X17696373Y-16704841D01*
X17696373Y-16704841D02*
X17677325Y-16695317D01*
X17677325Y-16695317D02*
X17648753Y-16695317D01*
X17648753Y-16695317D02*
X17629706Y-16685793D01*
X17629706Y-16685793D02*
X17620182Y-16666746D01*
X17620182Y-16666746D02*
X17620182Y-16657222D01*
X17620182Y-16657222D02*
X17629706Y-16638174D01*
X17629706Y-16638174D02*
X17648753Y-16628650D01*
X17648753Y-16628650D02*
X17677325Y-16628650D01*
X17677325Y-16628650D02*
X17696373Y-16638174D01*
X17943992Y-16685793D02*
X18096373Y-16685793D01*
X18020182Y-16761984D02*
X18020182Y-16609603D01*
X18334468Y-16581031D02*
X18343992Y-16571508D01*
X18343992Y-16571508D02*
X18363039Y-16561984D01*
X18363039Y-16561984D02*
X18410658Y-16561984D01*
X18410658Y-16561984D02*
X18429706Y-16571508D01*
X18429706Y-16571508D02*
X18439230Y-16581031D01*
X18439230Y-16581031D02*
X18448754Y-16600079D01*
X18448754Y-16600079D02*
X18448754Y-16619127D01*
X18448754Y-16619127D02*
X18439230Y-16647698D01*
X18439230Y-16647698D02*
X18324944Y-16761984D01*
X18324944Y-16761984D02*
X18448754Y-16761984D01*
X18677325Y-16752460D02*
X18696373Y-16761984D01*
X18696373Y-16761984D02*
X18734468Y-16761984D01*
X18734468Y-16761984D02*
X18753516Y-16752460D01*
X18753516Y-16752460D02*
X18763039Y-16733412D01*
X18763039Y-16733412D02*
X18763039Y-16723888D01*
X18763039Y-16723888D02*
X18753516Y-16704841D01*
X18753516Y-16704841D02*
X18734468Y-16695317D01*
X18734468Y-16695317D02*
X18705896Y-16695317D01*
X18705896Y-16695317D02*
X18686849Y-16685793D01*
X18686849Y-16685793D02*
X18677325Y-16666746D01*
X18677325Y-16666746D02*
X18677325Y-16657222D01*
X18677325Y-16657222D02*
X18686849Y-16638174D01*
X18686849Y-16638174D02*
X18705896Y-16628650D01*
X18705896Y-16628650D02*
X18734468Y-16628650D01*
X18734468Y-16628650D02*
X18753516Y-16638174D01*
X18877325Y-16761984D02*
X18858277Y-16752460D01*
X18858277Y-16752460D02*
X18848754Y-16733412D01*
X18848754Y-16733412D02*
X18848754Y-16561984D01*
X18982087Y-16761984D02*
X18963039Y-16752460D01*
X18963039Y-16752460D02*
X18953516Y-16742936D01*
X18953516Y-16742936D02*
X18943992Y-16723888D01*
X18943992Y-16723888D02*
X18943992Y-16666746D01*
X18943992Y-16666746D02*
X18953516Y-16647698D01*
X18953516Y-16647698D02*
X18963039Y-16638174D01*
X18963039Y-16638174D02*
X18982087Y-16628650D01*
X18982087Y-16628650D02*
X19010658Y-16628650D01*
X19010658Y-16628650D02*
X19029706Y-16638174D01*
X19029706Y-16638174D02*
X19039230Y-16647698D01*
X19039230Y-16647698D02*
X19048754Y-16666746D01*
X19048754Y-16666746D02*
X19048754Y-16723888D01*
X19048754Y-16723888D02*
X19039230Y-16742936D01*
X19039230Y-16742936D02*
X19029706Y-16752460D01*
X19029706Y-16752460D02*
X19010658Y-16761984D01*
X19010658Y-16761984D02*
X18982087Y-16761984D01*
X19105897Y-16628650D02*
X19182087Y-16628650D01*
X19134468Y-16561984D02*
X19134468Y-16733412D01*
X19134468Y-16733412D02*
X19143992Y-16752460D01*
X19143992Y-16752460D02*
X19163039Y-16761984D01*
X19163039Y-16761984D02*
X19182087Y-16761984D01*
X19239230Y-16752460D02*
X19258277Y-16761984D01*
X19258277Y-16761984D02*
X19296373Y-16761984D01*
X19296373Y-16761984D02*
X19315420Y-16752460D01*
X19315420Y-16752460D02*
X19324944Y-16733412D01*
X19324944Y-16733412D02*
X19324944Y-16723888D01*
X19324944Y-16723888D02*
X19315420Y-16704841D01*
X19315420Y-16704841D02*
X19296373Y-16695317D01*
X19296373Y-16695317D02*
X19267801Y-16695317D01*
X19267801Y-16695317D02*
X19248754Y-16685793D01*
X19248754Y-16685793D02*
X19239230Y-16666746D01*
X19239230Y-16666746D02*
X19239230Y-16657222D01*
X19239230Y-16657222D02*
X19248754Y-16638174D01*
X19248754Y-16638174D02*
X19267801Y-16628650D01*
X19267801Y-16628650D02*
X19296373Y-16628650D01*
X19296373Y-16628650D02*
X19315420Y-16638174D01*
X19391611Y-16838174D02*
X19401135Y-16828650D01*
X19401135Y-16828650D02*
X19420182Y-16800079D01*
X19420182Y-16800079D02*
X19429706Y-16781031D01*
X19429706Y-16781031D02*
X19439230Y-16752460D01*
X19439230Y-16752460D02*
X19448754Y-16704841D01*
X19448754Y-16704841D02*
X19448754Y-16666746D01*
X19448754Y-16666746D02*
X19439230Y-16619127D01*
X19439230Y-16619127D02*
X19429706Y-16590555D01*
X19429706Y-16590555D02*
X19420182Y-16571508D01*
X19420182Y-16571508D02*
X19401135Y-16542936D01*
X19401135Y-16542936D02*
X19391611Y-16533412D01*
D12*
X12983588Y-16968088D02*
X12983588Y-16900912D01*
X12916412Y-16900912D01*
X12916412Y-16968088D01*
X12983588Y-16968088D01*
D11*
X13296372Y-16825984D02*
X13315420Y-16825984D01*
X13315420Y-16825984D02*
X13334467Y-16835508D01*
X13334467Y-16835508D02*
X13343991Y-16845031D01*
X13343991Y-16845031D02*
X13353515Y-16864079D01*
X13353515Y-16864079D02*
X13363039Y-16902174D01*
X13363039Y-16902174D02*
X13363039Y-16949793D01*
X13363039Y-16949793D02*
X13353515Y-16987889D01*
X13353515Y-16987889D02*
X13343991Y-17006936D01*
X13343991Y-17006936D02*
X13334467Y-17016460D01*
X13334467Y-17016460D02*
X13315420Y-17025984D01*
X13315420Y-17025984D02*
X13296372Y-17025984D01*
X13296372Y-17025984D02*
X13277324Y-17016460D01*
X13277324Y-17016460D02*
X13267801Y-17006936D01*
X13267801Y-17006936D02*
X13258277Y-16987889D01*
X13258277Y-16987889D02*
X13248753Y-16949793D01*
X13248753Y-16949793D02*
X13248753Y-16902174D01*
X13248753Y-16902174D02*
X13258277Y-16864079D01*
X13258277Y-16864079D02*
X13267801Y-16845031D01*
X13267801Y-16845031D02*
X13277324Y-16835508D01*
X13277324Y-16835508D02*
X13296372Y-16825984D01*
X13448753Y-17006936D02*
X13458277Y-17016460D01*
X13458277Y-17016460D02*
X13448753Y-17025984D01*
X13448753Y-17025984D02*
X13439229Y-17016460D01*
X13439229Y-17016460D02*
X13448753Y-17006936D01*
X13448753Y-17006936D02*
X13448753Y-17025984D01*
X13553515Y-17025984D02*
X13591610Y-17025984D01*
X13591610Y-17025984D02*
X13610658Y-17016460D01*
X13610658Y-17016460D02*
X13620182Y-17006936D01*
X13620182Y-17006936D02*
X13639229Y-16978365D01*
X13639229Y-16978365D02*
X13648753Y-16940270D01*
X13648753Y-16940270D02*
X13648753Y-16864079D01*
X13648753Y-16864079D02*
X13639229Y-16845031D01*
X13639229Y-16845031D02*
X13629705Y-16835508D01*
X13629705Y-16835508D02*
X13610658Y-16825984D01*
X13610658Y-16825984D02*
X13572562Y-16825984D01*
X13572562Y-16825984D02*
X13553515Y-16835508D01*
X13553515Y-16835508D02*
X13543991Y-16845031D01*
X13543991Y-16845031D02*
X13534467Y-16864079D01*
X13534467Y-16864079D02*
X13534467Y-16911698D01*
X13534467Y-16911698D02*
X13543991Y-16930746D01*
X13543991Y-16930746D02*
X13553515Y-16940270D01*
X13553515Y-16940270D02*
X13572562Y-16949793D01*
X13572562Y-16949793D02*
X13610658Y-16949793D01*
X13610658Y-16949793D02*
X13629705Y-16940270D01*
X13629705Y-16940270D02*
X13639229Y-16930746D01*
X13639229Y-16930746D02*
X13648753Y-16911698D01*
X13829705Y-16825984D02*
X13734467Y-16825984D01*
X13734467Y-16825984D02*
X13724943Y-16921222D01*
X13724943Y-16921222D02*
X13734467Y-16911698D01*
X13734467Y-16911698D02*
X13753515Y-16902174D01*
X13753515Y-16902174D02*
X13801134Y-16902174D01*
X13801134Y-16902174D02*
X13820182Y-16911698D01*
X13820182Y-16911698D02*
X13829705Y-16921222D01*
X13829705Y-16921222D02*
X13839229Y-16940270D01*
X13839229Y-16940270D02*
X13839229Y-16987889D01*
X13839229Y-16987889D02*
X13829705Y-17006936D01*
X13829705Y-17006936D02*
X13820182Y-17016460D01*
X13820182Y-17016460D02*
X13801134Y-17025984D01*
X13801134Y-17025984D02*
X13753515Y-17025984D01*
X13753515Y-17025984D02*
X13734467Y-17016460D01*
X13734467Y-17016460D02*
X13724943Y-17006936D01*
X13963039Y-16825984D02*
X13982086Y-16825984D01*
X13982086Y-16825984D02*
X14001134Y-16835508D01*
X14001134Y-16835508D02*
X14010658Y-16845031D01*
X14010658Y-16845031D02*
X14020182Y-16864079D01*
X14020182Y-16864079D02*
X14029705Y-16902174D01*
X14029705Y-16902174D02*
X14029705Y-16949793D01*
X14029705Y-16949793D02*
X14020182Y-16987889D01*
X14020182Y-16987889D02*
X14010658Y-17006936D01*
X14010658Y-17006936D02*
X14001134Y-17016460D01*
X14001134Y-17016460D02*
X13982086Y-17025984D01*
X13982086Y-17025984D02*
X13963039Y-17025984D01*
X13963039Y-17025984D02*
X13943991Y-17016460D01*
X13943991Y-17016460D02*
X13934467Y-17006936D01*
X13934467Y-17006936D02*
X13924943Y-16987889D01*
X13924943Y-16987889D02*
X13915420Y-16949793D01*
X13915420Y-16949793D02*
X13915420Y-16902174D01*
X13915420Y-16902174D02*
X13924943Y-16864079D01*
X13924943Y-16864079D02*
X13934467Y-16845031D01*
X13934467Y-16845031D02*
X13943991Y-16835508D01*
X13943991Y-16835508D02*
X13963039Y-16825984D01*
X14115420Y-17025984D02*
X14115420Y-16892650D01*
X14115420Y-16911698D02*
X14124943Y-16902174D01*
X14124943Y-16902174D02*
X14143991Y-16892650D01*
X14143991Y-16892650D02*
X14172563Y-16892650D01*
X14172563Y-16892650D02*
X14191610Y-16902174D01*
X14191610Y-16902174D02*
X14201134Y-16921222D01*
X14201134Y-16921222D02*
X14201134Y-17025984D01*
X14201134Y-16921222D02*
X14210658Y-16902174D01*
X14210658Y-16902174D02*
X14229705Y-16892650D01*
X14229705Y-16892650D02*
X14258277Y-16892650D01*
X14258277Y-16892650D02*
X14277324Y-16902174D01*
X14277324Y-16902174D02*
X14286848Y-16921222D01*
X14286848Y-16921222D02*
X14286848Y-17025984D01*
X14382086Y-17025984D02*
X14382086Y-16892650D01*
X14382086Y-16911698D02*
X14391610Y-16902174D01*
X14391610Y-16902174D02*
X14410658Y-16892650D01*
X14410658Y-16892650D02*
X14439229Y-16892650D01*
X14439229Y-16892650D02*
X14458277Y-16902174D01*
X14458277Y-16902174D02*
X14467801Y-16921222D01*
X14467801Y-16921222D02*
X14467801Y-17025984D01*
X14467801Y-16921222D02*
X14477324Y-16902174D01*
X14477324Y-16902174D02*
X14496372Y-16892650D01*
X14496372Y-16892650D02*
X14524943Y-16892650D01*
X14524943Y-16892650D02*
X14543991Y-16902174D01*
X14543991Y-16902174D02*
X14553515Y-16921222D01*
X14553515Y-16921222D02*
X14553515Y-17025984D01*
X14943991Y-16816460D02*
X14772563Y-17073603D01*
X15201134Y-16825984D02*
X15220182Y-16825984D01*
X15220182Y-16825984D02*
X15239229Y-16835508D01*
X15239229Y-16835508D02*
X15248753Y-16845031D01*
X15248753Y-16845031D02*
X15258277Y-16864079D01*
X15258277Y-16864079D02*
X15267801Y-16902174D01*
X15267801Y-16902174D02*
X15267801Y-16949793D01*
X15267801Y-16949793D02*
X15258277Y-16987889D01*
X15258277Y-16987889D02*
X15248753Y-17006936D01*
X15248753Y-17006936D02*
X15239229Y-17016460D01*
X15239229Y-17016460D02*
X15220182Y-17025984D01*
X15220182Y-17025984D02*
X15201134Y-17025984D01*
X15201134Y-17025984D02*
X15182086Y-17016460D01*
X15182086Y-17016460D02*
X15172563Y-17006936D01*
X15172563Y-17006936D02*
X15163039Y-16987889D01*
X15163039Y-16987889D02*
X15153515Y-16949793D01*
X15153515Y-16949793D02*
X15153515Y-16902174D01*
X15153515Y-16902174D02*
X15163039Y-16864079D01*
X15163039Y-16864079D02*
X15172563Y-16845031D01*
X15172563Y-16845031D02*
X15182086Y-16835508D01*
X15182086Y-16835508D02*
X15201134Y-16825984D01*
X15353515Y-17006936D02*
X15363039Y-17016460D01*
X15363039Y-17016460D02*
X15353515Y-17025984D01*
X15353515Y-17025984D02*
X15343991Y-17016460D01*
X15343991Y-17016460D02*
X15353515Y-17006936D01*
X15353515Y-17006936D02*
X15353515Y-17025984D01*
X15486848Y-16825984D02*
X15505896Y-16825984D01*
X15505896Y-16825984D02*
X15524944Y-16835508D01*
X15524944Y-16835508D02*
X15534467Y-16845031D01*
X15534467Y-16845031D02*
X15543991Y-16864079D01*
X15543991Y-16864079D02*
X15553515Y-16902174D01*
X15553515Y-16902174D02*
X15553515Y-16949793D01*
X15553515Y-16949793D02*
X15543991Y-16987889D01*
X15543991Y-16987889D02*
X15534467Y-17006936D01*
X15534467Y-17006936D02*
X15524944Y-17016460D01*
X15524944Y-17016460D02*
X15505896Y-17025984D01*
X15505896Y-17025984D02*
X15486848Y-17025984D01*
X15486848Y-17025984D02*
X15467801Y-17016460D01*
X15467801Y-17016460D02*
X15458277Y-17006936D01*
X15458277Y-17006936D02*
X15448753Y-16987889D01*
X15448753Y-16987889D02*
X15439229Y-16949793D01*
X15439229Y-16949793D02*
X15439229Y-16902174D01*
X15439229Y-16902174D02*
X15448753Y-16864079D01*
X15448753Y-16864079D02*
X15458277Y-16845031D01*
X15458277Y-16845031D02*
X15467801Y-16835508D01*
X15467801Y-16835508D02*
X15486848Y-16825984D01*
X15620182Y-16825984D02*
X15743991Y-16825984D01*
X15743991Y-16825984D02*
X15677325Y-16902174D01*
X15677325Y-16902174D02*
X15705896Y-16902174D01*
X15705896Y-16902174D02*
X15724944Y-16911698D01*
X15724944Y-16911698D02*
X15734467Y-16921222D01*
X15734467Y-16921222D02*
X15743991Y-16940270D01*
X15743991Y-16940270D02*
X15743991Y-16987889D01*
X15743991Y-16987889D02*
X15734467Y-17006936D01*
X15734467Y-17006936D02*
X15724944Y-17016460D01*
X15724944Y-17016460D02*
X15705896Y-17025984D01*
X15705896Y-17025984D02*
X15648753Y-17025984D01*
X15648753Y-17025984D02*
X15629706Y-17016460D01*
X15629706Y-17016460D02*
X15620182Y-17006936D01*
X15810658Y-16825984D02*
X15943991Y-16825984D01*
X15943991Y-16825984D02*
X15858277Y-17025984D01*
X16105896Y-16892650D02*
X16105896Y-17025984D01*
X16058277Y-16816460D02*
X16010658Y-16959317D01*
X16010658Y-16959317D02*
X16134467Y-16959317D01*
X16201134Y-16825984D02*
X16201134Y-16864079D01*
X16277325Y-16825984D02*
X16277325Y-16864079D01*
X16572563Y-17102174D02*
X16563039Y-17092650D01*
X16563039Y-17092650D02*
X16543991Y-17064079D01*
X16543991Y-17064079D02*
X16534468Y-17045031D01*
X16534468Y-17045031D02*
X16524944Y-17016460D01*
X16524944Y-17016460D02*
X16515420Y-16968841D01*
X16515420Y-16968841D02*
X16515420Y-16930746D01*
X16515420Y-16930746D02*
X16524944Y-16883127D01*
X16524944Y-16883127D02*
X16534468Y-16854555D01*
X16534468Y-16854555D02*
X16543991Y-16835508D01*
X16543991Y-16835508D02*
X16563039Y-16806936D01*
X16563039Y-16806936D02*
X16572563Y-16797412D01*
X16753515Y-17025984D02*
X16639229Y-17025984D01*
X16696372Y-17025984D02*
X16696372Y-16825984D01*
X16696372Y-16825984D02*
X16677325Y-16854555D01*
X16677325Y-16854555D02*
X16658277Y-16873603D01*
X16658277Y-16873603D02*
X16639229Y-16883127D01*
X16820182Y-16825984D02*
X16953515Y-16825984D01*
X16953515Y-16825984D02*
X16867801Y-17025984D01*
X17182087Y-17025984D02*
X17182087Y-16825984D01*
X17267801Y-17025984D02*
X17267801Y-16921222D01*
X17267801Y-16921222D02*
X17258277Y-16902174D01*
X17258277Y-16902174D02*
X17239230Y-16892650D01*
X17239230Y-16892650D02*
X17210658Y-16892650D01*
X17210658Y-16892650D02*
X17191611Y-16902174D01*
X17191611Y-16902174D02*
X17182087Y-16911698D01*
X17391611Y-17025984D02*
X17372563Y-17016460D01*
X17372563Y-17016460D02*
X17363039Y-17006936D01*
X17363039Y-17006936D02*
X17353515Y-16987889D01*
X17353515Y-16987889D02*
X17353515Y-16930746D01*
X17353515Y-16930746D02*
X17363039Y-16911698D01*
X17363039Y-16911698D02*
X17372563Y-16902174D01*
X17372563Y-16902174D02*
X17391611Y-16892650D01*
X17391611Y-16892650D02*
X17420182Y-16892650D01*
X17420182Y-16892650D02*
X17439230Y-16902174D01*
X17439230Y-16902174D02*
X17448753Y-16911698D01*
X17448753Y-16911698D02*
X17458277Y-16930746D01*
X17458277Y-16930746D02*
X17458277Y-16987889D01*
X17458277Y-16987889D02*
X17448753Y-17006936D01*
X17448753Y-17006936D02*
X17439230Y-17016460D01*
X17439230Y-17016460D02*
X17420182Y-17025984D01*
X17420182Y-17025984D02*
X17391611Y-17025984D01*
X17572563Y-17025984D02*
X17553515Y-17016460D01*
X17553515Y-17016460D02*
X17543992Y-16997412D01*
X17543992Y-16997412D02*
X17543992Y-16825984D01*
X17724944Y-17016460D02*
X17705896Y-17025984D01*
X17705896Y-17025984D02*
X17667801Y-17025984D01*
X17667801Y-17025984D02*
X17648753Y-17016460D01*
X17648753Y-17016460D02*
X17639230Y-16997412D01*
X17639230Y-16997412D02*
X17639230Y-16921222D01*
X17639230Y-16921222D02*
X17648753Y-16902174D01*
X17648753Y-16902174D02*
X17667801Y-16892650D01*
X17667801Y-16892650D02*
X17705896Y-16892650D01*
X17705896Y-16892650D02*
X17724944Y-16902174D01*
X17724944Y-16902174D02*
X17734468Y-16921222D01*
X17734468Y-16921222D02*
X17734468Y-16940270D01*
X17734468Y-16940270D02*
X17639230Y-16959317D01*
X17810658Y-17016460D02*
X17829706Y-17025984D01*
X17829706Y-17025984D02*
X17867801Y-17025984D01*
X17867801Y-17025984D02*
X17886849Y-17016460D01*
X17886849Y-17016460D02*
X17896373Y-16997412D01*
X17896373Y-16997412D02*
X17896373Y-16987889D01*
X17896373Y-16987889D02*
X17886849Y-16968841D01*
X17886849Y-16968841D02*
X17867801Y-16959317D01*
X17867801Y-16959317D02*
X17839230Y-16959317D01*
X17839230Y-16959317D02*
X17820182Y-16949793D01*
X17820182Y-16949793D02*
X17810658Y-16930746D01*
X17810658Y-16930746D02*
X17810658Y-16921222D01*
X17810658Y-16921222D02*
X17820182Y-16902174D01*
X17820182Y-16902174D02*
X17839230Y-16892650D01*
X17839230Y-16892650D02*
X17867801Y-16892650D01*
X17867801Y-16892650D02*
X17886849Y-16902174D01*
X17963039Y-17102174D02*
X17972563Y-17092650D01*
X17972563Y-17092650D02*
X17991611Y-17064079D01*
X17991611Y-17064079D02*
X18001134Y-17045031D01*
X18001134Y-17045031D02*
X18010658Y-17016460D01*
X18010658Y-17016460D02*
X18020182Y-16968841D01*
X18020182Y-16968841D02*
X18020182Y-16930746D01*
X18020182Y-16930746D02*
X18010658Y-16883127D01*
X18010658Y-16883127D02*
X18001134Y-16854555D01*
X18001134Y-16854555D02*
X17991611Y-16835508D01*
X17991611Y-16835508D02*
X17972563Y-16806936D01*
X17972563Y-16806936D02*
X17963039Y-16797412D01*
D12*
X12947500Y-17248500D02*
X12997500Y-17198500D01*
X12947500Y-17148500D01*
X12897500Y-17198500D01*
X12947500Y-17248500D01*
D11*
X13363039Y-17289984D02*
X13248753Y-17289984D01*
X13305896Y-17289984D02*
X13305896Y-17089984D01*
X13305896Y-17089984D02*
X13286848Y-17118555D01*
X13286848Y-17118555D02*
X13267801Y-17137603D01*
X13267801Y-17137603D02*
X13248753Y-17147127D01*
X13448753Y-17270936D02*
X13458277Y-17280460D01*
X13458277Y-17280460D02*
X13448753Y-17289984D01*
X13448753Y-17289984D02*
X13439229Y-17280460D01*
X13439229Y-17280460D02*
X13448753Y-17270936D01*
X13448753Y-17270936D02*
X13448753Y-17289984D01*
X13582086Y-17089984D02*
X13601134Y-17089984D01*
X13601134Y-17089984D02*
X13620182Y-17099508D01*
X13620182Y-17099508D02*
X13629705Y-17109031D01*
X13629705Y-17109031D02*
X13639229Y-17128079D01*
X13639229Y-17128079D02*
X13648753Y-17166174D01*
X13648753Y-17166174D02*
X13648753Y-17213793D01*
X13648753Y-17213793D02*
X13639229Y-17251889D01*
X13639229Y-17251889D02*
X13629705Y-17270936D01*
X13629705Y-17270936D02*
X13620182Y-17280460D01*
X13620182Y-17280460D02*
X13601134Y-17289984D01*
X13601134Y-17289984D02*
X13582086Y-17289984D01*
X13582086Y-17289984D02*
X13563039Y-17280460D01*
X13563039Y-17280460D02*
X13553515Y-17270936D01*
X13553515Y-17270936D02*
X13543991Y-17251889D01*
X13543991Y-17251889D02*
X13534467Y-17213793D01*
X13534467Y-17213793D02*
X13534467Y-17166174D01*
X13534467Y-17166174D02*
X13543991Y-17128079D01*
X13543991Y-17128079D02*
X13553515Y-17109031D01*
X13553515Y-17109031D02*
X13563039Y-17099508D01*
X13563039Y-17099508D02*
X13582086Y-17089984D01*
X13772562Y-17089984D02*
X13791610Y-17089984D01*
X13791610Y-17089984D02*
X13810658Y-17099508D01*
X13810658Y-17099508D02*
X13820182Y-17109031D01*
X13820182Y-17109031D02*
X13829705Y-17128079D01*
X13829705Y-17128079D02*
X13839229Y-17166174D01*
X13839229Y-17166174D02*
X13839229Y-17213793D01*
X13839229Y-17213793D02*
X13829705Y-17251889D01*
X13829705Y-17251889D02*
X13820182Y-17270936D01*
X13820182Y-17270936D02*
X13810658Y-17280460D01*
X13810658Y-17280460D02*
X13791610Y-17289984D01*
X13791610Y-17289984D02*
X13772562Y-17289984D01*
X13772562Y-17289984D02*
X13753515Y-17280460D01*
X13753515Y-17280460D02*
X13743991Y-17270936D01*
X13743991Y-17270936D02*
X13734467Y-17251889D01*
X13734467Y-17251889D02*
X13724943Y-17213793D01*
X13724943Y-17213793D02*
X13724943Y-17166174D01*
X13724943Y-17166174D02*
X13734467Y-17128079D01*
X13734467Y-17128079D02*
X13743991Y-17109031D01*
X13743991Y-17109031D02*
X13753515Y-17099508D01*
X13753515Y-17099508D02*
X13772562Y-17089984D01*
X13963039Y-17089984D02*
X13982086Y-17089984D01*
X13982086Y-17089984D02*
X14001134Y-17099508D01*
X14001134Y-17099508D02*
X14010658Y-17109031D01*
X14010658Y-17109031D02*
X14020182Y-17128079D01*
X14020182Y-17128079D02*
X14029705Y-17166174D01*
X14029705Y-17166174D02*
X14029705Y-17213793D01*
X14029705Y-17213793D02*
X14020182Y-17251889D01*
X14020182Y-17251889D02*
X14010658Y-17270936D01*
X14010658Y-17270936D02*
X14001134Y-17280460D01*
X14001134Y-17280460D02*
X13982086Y-17289984D01*
X13982086Y-17289984D02*
X13963039Y-17289984D01*
X13963039Y-17289984D02*
X13943991Y-17280460D01*
X13943991Y-17280460D02*
X13934467Y-17270936D01*
X13934467Y-17270936D02*
X13924943Y-17251889D01*
X13924943Y-17251889D02*
X13915420Y-17213793D01*
X13915420Y-17213793D02*
X13915420Y-17166174D01*
X13915420Y-17166174D02*
X13924943Y-17128079D01*
X13924943Y-17128079D02*
X13934467Y-17109031D01*
X13934467Y-17109031D02*
X13943991Y-17099508D01*
X13943991Y-17099508D02*
X13963039Y-17089984D01*
X14115420Y-17289984D02*
X14115420Y-17156650D01*
X14115420Y-17175698D02*
X14124943Y-17166174D01*
X14124943Y-17166174D02*
X14143991Y-17156650D01*
X14143991Y-17156650D02*
X14172563Y-17156650D01*
X14172563Y-17156650D02*
X14191610Y-17166174D01*
X14191610Y-17166174D02*
X14201134Y-17185222D01*
X14201134Y-17185222D02*
X14201134Y-17289984D01*
X14201134Y-17185222D02*
X14210658Y-17166174D01*
X14210658Y-17166174D02*
X14229705Y-17156650D01*
X14229705Y-17156650D02*
X14258277Y-17156650D01*
X14258277Y-17156650D02*
X14277324Y-17166174D01*
X14277324Y-17166174D02*
X14286848Y-17185222D01*
X14286848Y-17185222D02*
X14286848Y-17289984D01*
X14382086Y-17289984D02*
X14382086Y-17156650D01*
X14382086Y-17175698D02*
X14391610Y-17166174D01*
X14391610Y-17166174D02*
X14410658Y-17156650D01*
X14410658Y-17156650D02*
X14439229Y-17156650D01*
X14439229Y-17156650D02*
X14458277Y-17166174D01*
X14458277Y-17166174D02*
X14467801Y-17185222D01*
X14467801Y-17185222D02*
X14467801Y-17289984D01*
X14467801Y-17185222D02*
X14477324Y-17166174D01*
X14477324Y-17166174D02*
X14496372Y-17156650D01*
X14496372Y-17156650D02*
X14524943Y-17156650D01*
X14524943Y-17156650D02*
X14543991Y-17166174D01*
X14543991Y-17166174D02*
X14553515Y-17185222D01*
X14553515Y-17185222D02*
X14553515Y-17289984D01*
X14943991Y-17080460D02*
X14772563Y-17337603D01*
X15201134Y-17089984D02*
X15220182Y-17089984D01*
X15220182Y-17089984D02*
X15239229Y-17099508D01*
X15239229Y-17099508D02*
X15248753Y-17109031D01*
X15248753Y-17109031D02*
X15258277Y-17128079D01*
X15258277Y-17128079D02*
X15267801Y-17166174D01*
X15267801Y-17166174D02*
X15267801Y-17213793D01*
X15267801Y-17213793D02*
X15258277Y-17251889D01*
X15258277Y-17251889D02*
X15248753Y-17270936D01*
X15248753Y-17270936D02*
X15239229Y-17280460D01*
X15239229Y-17280460D02*
X15220182Y-17289984D01*
X15220182Y-17289984D02*
X15201134Y-17289984D01*
X15201134Y-17289984D02*
X15182086Y-17280460D01*
X15182086Y-17280460D02*
X15172563Y-17270936D01*
X15172563Y-17270936D02*
X15163039Y-17251889D01*
X15163039Y-17251889D02*
X15153515Y-17213793D01*
X15153515Y-17213793D02*
X15153515Y-17166174D01*
X15153515Y-17166174D02*
X15163039Y-17128079D01*
X15163039Y-17128079D02*
X15172563Y-17109031D01*
X15172563Y-17109031D02*
X15182086Y-17099508D01*
X15182086Y-17099508D02*
X15201134Y-17089984D01*
X15353515Y-17270936D02*
X15363039Y-17280460D01*
X15363039Y-17280460D02*
X15353515Y-17289984D01*
X15353515Y-17289984D02*
X15343991Y-17280460D01*
X15343991Y-17280460D02*
X15353515Y-17270936D01*
X15353515Y-17270936D02*
X15353515Y-17289984D01*
X15486848Y-17089984D02*
X15505896Y-17089984D01*
X15505896Y-17089984D02*
X15524944Y-17099508D01*
X15524944Y-17099508D02*
X15534467Y-17109031D01*
X15534467Y-17109031D02*
X15543991Y-17128079D01*
X15543991Y-17128079D02*
X15553515Y-17166174D01*
X15553515Y-17166174D02*
X15553515Y-17213793D01*
X15553515Y-17213793D02*
X15543991Y-17251889D01*
X15543991Y-17251889D02*
X15534467Y-17270936D01*
X15534467Y-17270936D02*
X15524944Y-17280460D01*
X15524944Y-17280460D02*
X15505896Y-17289984D01*
X15505896Y-17289984D02*
X15486848Y-17289984D01*
X15486848Y-17289984D02*
X15467801Y-17280460D01*
X15467801Y-17280460D02*
X15458277Y-17270936D01*
X15458277Y-17270936D02*
X15448753Y-17251889D01*
X15448753Y-17251889D02*
X15439229Y-17213793D01*
X15439229Y-17213793D02*
X15439229Y-17166174D01*
X15439229Y-17166174D02*
X15448753Y-17128079D01*
X15448753Y-17128079D02*
X15458277Y-17109031D01*
X15458277Y-17109031D02*
X15467801Y-17099508D01*
X15467801Y-17099508D02*
X15486848Y-17089984D01*
X15620182Y-17089984D02*
X15743991Y-17089984D01*
X15743991Y-17089984D02*
X15677325Y-17166174D01*
X15677325Y-17166174D02*
X15705896Y-17166174D01*
X15705896Y-17166174D02*
X15724944Y-17175698D01*
X15724944Y-17175698D02*
X15734467Y-17185222D01*
X15734467Y-17185222D02*
X15743991Y-17204270D01*
X15743991Y-17204270D02*
X15743991Y-17251889D01*
X15743991Y-17251889D02*
X15734467Y-17270936D01*
X15734467Y-17270936D02*
X15724944Y-17280460D01*
X15724944Y-17280460D02*
X15705896Y-17289984D01*
X15705896Y-17289984D02*
X15648753Y-17289984D01*
X15648753Y-17289984D02*
X15629706Y-17280460D01*
X15629706Y-17280460D02*
X15620182Y-17270936D01*
X15839229Y-17289984D02*
X15877325Y-17289984D01*
X15877325Y-17289984D02*
X15896372Y-17280460D01*
X15896372Y-17280460D02*
X15905896Y-17270936D01*
X15905896Y-17270936D02*
X15924944Y-17242365D01*
X15924944Y-17242365D02*
X15934467Y-17204270D01*
X15934467Y-17204270D02*
X15934467Y-17128079D01*
X15934467Y-17128079D02*
X15924944Y-17109031D01*
X15924944Y-17109031D02*
X15915420Y-17099508D01*
X15915420Y-17099508D02*
X15896372Y-17089984D01*
X15896372Y-17089984D02*
X15858277Y-17089984D01*
X15858277Y-17089984D02*
X15839229Y-17099508D01*
X15839229Y-17099508D02*
X15829706Y-17109031D01*
X15829706Y-17109031D02*
X15820182Y-17128079D01*
X15820182Y-17128079D02*
X15820182Y-17175698D01*
X15820182Y-17175698D02*
X15829706Y-17194746D01*
X15829706Y-17194746D02*
X15839229Y-17204270D01*
X15839229Y-17204270D02*
X15858277Y-17213793D01*
X15858277Y-17213793D02*
X15896372Y-17213793D01*
X15896372Y-17213793D02*
X15915420Y-17204270D01*
X15915420Y-17204270D02*
X15924944Y-17194746D01*
X15924944Y-17194746D02*
X15934467Y-17175698D01*
X16105896Y-17156650D02*
X16105896Y-17289984D01*
X16058277Y-17080460D02*
X16010658Y-17223317D01*
X16010658Y-17223317D02*
X16134467Y-17223317D01*
X16201134Y-17089984D02*
X16201134Y-17128079D01*
X16277325Y-17089984D02*
X16277325Y-17128079D01*
X16572563Y-17366174D02*
X16563039Y-17356650D01*
X16563039Y-17356650D02*
X16543991Y-17328079D01*
X16543991Y-17328079D02*
X16534468Y-17309031D01*
X16534468Y-17309031D02*
X16524944Y-17280460D01*
X16524944Y-17280460D02*
X16515420Y-17232841D01*
X16515420Y-17232841D02*
X16515420Y-17194746D01*
X16515420Y-17194746D02*
X16524944Y-17147127D01*
X16524944Y-17147127D02*
X16534468Y-17118555D01*
X16534468Y-17118555D02*
X16543991Y-17099508D01*
X16543991Y-17099508D02*
X16563039Y-17070936D01*
X16563039Y-17070936D02*
X16572563Y-17061412D01*
X16734468Y-17156650D02*
X16734468Y-17289984D01*
X16686848Y-17080460D02*
X16639229Y-17223317D01*
X16639229Y-17223317D02*
X16763039Y-17223317D01*
X16829706Y-17109031D02*
X16839230Y-17099508D01*
X16839230Y-17099508D02*
X16858277Y-17089984D01*
X16858277Y-17089984D02*
X16905896Y-17089984D01*
X16905896Y-17089984D02*
X16924944Y-17099508D01*
X16924944Y-17099508D02*
X16934468Y-17109031D01*
X16934468Y-17109031D02*
X16943991Y-17128079D01*
X16943991Y-17128079D02*
X16943991Y-17147127D01*
X16943991Y-17147127D02*
X16934468Y-17175698D01*
X16934468Y-17175698D02*
X16820182Y-17289984D01*
X16820182Y-17289984D02*
X16943991Y-17289984D01*
X17182087Y-17289984D02*
X17182087Y-17089984D01*
X17267801Y-17289984D02*
X17267801Y-17185222D01*
X17267801Y-17185222D02*
X17258277Y-17166174D01*
X17258277Y-17166174D02*
X17239230Y-17156650D01*
X17239230Y-17156650D02*
X17210658Y-17156650D01*
X17210658Y-17156650D02*
X17191611Y-17166174D01*
X17191611Y-17166174D02*
X17182087Y-17175698D01*
X17391611Y-17289984D02*
X17372563Y-17280460D01*
X17372563Y-17280460D02*
X17363039Y-17270936D01*
X17363039Y-17270936D02*
X17353515Y-17251889D01*
X17353515Y-17251889D02*
X17353515Y-17194746D01*
X17353515Y-17194746D02*
X17363039Y-17175698D01*
X17363039Y-17175698D02*
X17372563Y-17166174D01*
X17372563Y-17166174D02*
X17391611Y-17156650D01*
X17391611Y-17156650D02*
X17420182Y-17156650D01*
X17420182Y-17156650D02*
X17439230Y-17166174D01*
X17439230Y-17166174D02*
X17448753Y-17175698D01*
X17448753Y-17175698D02*
X17458277Y-17194746D01*
X17458277Y-17194746D02*
X17458277Y-17251889D01*
X17458277Y-17251889D02*
X17448753Y-17270936D01*
X17448753Y-17270936D02*
X17439230Y-17280460D01*
X17439230Y-17280460D02*
X17420182Y-17289984D01*
X17420182Y-17289984D02*
X17391611Y-17289984D01*
X17572563Y-17289984D02*
X17553515Y-17280460D01*
X17553515Y-17280460D02*
X17543992Y-17261412D01*
X17543992Y-17261412D02*
X17543992Y-17089984D01*
X17724944Y-17280460D02*
X17705896Y-17289984D01*
X17705896Y-17289984D02*
X17667801Y-17289984D01*
X17667801Y-17289984D02*
X17648753Y-17280460D01*
X17648753Y-17280460D02*
X17639230Y-17261412D01*
X17639230Y-17261412D02*
X17639230Y-17185222D01*
X17639230Y-17185222D02*
X17648753Y-17166174D01*
X17648753Y-17166174D02*
X17667801Y-17156650D01*
X17667801Y-17156650D02*
X17705896Y-17156650D01*
X17705896Y-17156650D02*
X17724944Y-17166174D01*
X17724944Y-17166174D02*
X17734468Y-17185222D01*
X17734468Y-17185222D02*
X17734468Y-17204270D01*
X17734468Y-17204270D02*
X17639230Y-17223317D01*
X17810658Y-17280460D02*
X17829706Y-17289984D01*
X17829706Y-17289984D02*
X17867801Y-17289984D01*
X17867801Y-17289984D02*
X17886849Y-17280460D01*
X17886849Y-17280460D02*
X17896373Y-17261412D01*
X17896373Y-17261412D02*
X17896373Y-17251889D01*
X17896373Y-17251889D02*
X17886849Y-17232841D01*
X17886849Y-17232841D02*
X17867801Y-17223317D01*
X17867801Y-17223317D02*
X17839230Y-17223317D01*
X17839230Y-17223317D02*
X17820182Y-17213793D01*
X17820182Y-17213793D02*
X17810658Y-17194746D01*
X17810658Y-17194746D02*
X17810658Y-17185222D01*
X17810658Y-17185222D02*
X17820182Y-17166174D01*
X17820182Y-17166174D02*
X17839230Y-17156650D01*
X17839230Y-17156650D02*
X17867801Y-17156650D01*
X17867801Y-17156650D02*
X17886849Y-17166174D01*
X17963039Y-17366174D02*
X17972563Y-17356650D01*
X17972563Y-17356650D02*
X17991611Y-17328079D01*
X17991611Y-17328079D02*
X18001134Y-17309031D01*
X18001134Y-17309031D02*
X18010658Y-17280460D01*
X18010658Y-17280460D02*
X18020182Y-17232841D01*
X18020182Y-17232841D02*
X18020182Y-17194746D01*
X18020182Y-17194746D02*
X18010658Y-17147127D01*
X18010658Y-17147127D02*
X18001134Y-17118555D01*
X18001134Y-17118555D02*
X17991611Y-17099508D01*
X17991611Y-17099508D02*
X17972563Y-17070936D01*
X17972563Y-17070936D02*
X17963039Y-17061412D01*
D13*
X12895900Y-17411700D02*
X12997500Y-17513300D01*
X12997500Y-17411700D02*
X12895900Y-17513300D01*
X12997500Y-17462500D02*
G75*
G02*
X12895900Y-17462500I-50800J0D01*
G01*
X12895900Y-17462500D02*
G75*
G02*
X12997500Y-17462500I50800J0D01*
G01*
D11*
X13363039Y-17553984D02*
X13248753Y-17553984D01*
X13305896Y-17553984D02*
X13305896Y-17353984D01*
X13305896Y-17353984D02*
X13286848Y-17382555D01*
X13286848Y-17382555D02*
X13267801Y-17401603D01*
X13267801Y-17401603D02*
X13248753Y-17411127D01*
X13448753Y-17534936D02*
X13458277Y-17544460D01*
X13458277Y-17544460D02*
X13448753Y-17553984D01*
X13448753Y-17553984D02*
X13439229Y-17544460D01*
X13439229Y-17544460D02*
X13448753Y-17534936D01*
X13448753Y-17534936D02*
X13448753Y-17553984D01*
X13582086Y-17353984D02*
X13601134Y-17353984D01*
X13601134Y-17353984D02*
X13620182Y-17363508D01*
X13620182Y-17363508D02*
X13629705Y-17373031D01*
X13629705Y-17373031D02*
X13639229Y-17392079D01*
X13639229Y-17392079D02*
X13648753Y-17430174D01*
X13648753Y-17430174D02*
X13648753Y-17477793D01*
X13648753Y-17477793D02*
X13639229Y-17515889D01*
X13639229Y-17515889D02*
X13629705Y-17534936D01*
X13629705Y-17534936D02*
X13620182Y-17544460D01*
X13620182Y-17544460D02*
X13601134Y-17553984D01*
X13601134Y-17553984D02*
X13582086Y-17553984D01*
X13582086Y-17553984D02*
X13563039Y-17544460D01*
X13563039Y-17544460D02*
X13553515Y-17534936D01*
X13553515Y-17534936D02*
X13543991Y-17515889D01*
X13543991Y-17515889D02*
X13534467Y-17477793D01*
X13534467Y-17477793D02*
X13534467Y-17430174D01*
X13534467Y-17430174D02*
X13543991Y-17392079D01*
X13543991Y-17392079D02*
X13553515Y-17373031D01*
X13553515Y-17373031D02*
X13563039Y-17363508D01*
X13563039Y-17363508D02*
X13582086Y-17353984D01*
X13839229Y-17553984D02*
X13724943Y-17553984D01*
X13782086Y-17553984D02*
X13782086Y-17353984D01*
X13782086Y-17353984D02*
X13763039Y-17382555D01*
X13763039Y-17382555D02*
X13743991Y-17401603D01*
X13743991Y-17401603D02*
X13724943Y-17411127D01*
X14010658Y-17353984D02*
X13972562Y-17353984D01*
X13972562Y-17353984D02*
X13953515Y-17363508D01*
X13953515Y-17363508D02*
X13943991Y-17373031D01*
X13943991Y-17373031D02*
X13924943Y-17401603D01*
X13924943Y-17401603D02*
X13915420Y-17439698D01*
X13915420Y-17439698D02*
X13915420Y-17515889D01*
X13915420Y-17515889D02*
X13924943Y-17534936D01*
X13924943Y-17534936D02*
X13934467Y-17544460D01*
X13934467Y-17544460D02*
X13953515Y-17553984D01*
X13953515Y-17553984D02*
X13991610Y-17553984D01*
X13991610Y-17553984D02*
X14010658Y-17544460D01*
X14010658Y-17544460D02*
X14020182Y-17534936D01*
X14020182Y-17534936D02*
X14029705Y-17515889D01*
X14029705Y-17515889D02*
X14029705Y-17468270D01*
X14029705Y-17468270D02*
X14020182Y-17449222D01*
X14020182Y-17449222D02*
X14010658Y-17439698D01*
X14010658Y-17439698D02*
X13991610Y-17430174D01*
X13991610Y-17430174D02*
X13953515Y-17430174D01*
X13953515Y-17430174D02*
X13934467Y-17439698D01*
X13934467Y-17439698D02*
X13924943Y-17449222D01*
X13924943Y-17449222D02*
X13915420Y-17468270D01*
X14115420Y-17553984D02*
X14115420Y-17420650D01*
X14115420Y-17439698D02*
X14124943Y-17430174D01*
X14124943Y-17430174D02*
X14143991Y-17420650D01*
X14143991Y-17420650D02*
X14172563Y-17420650D01*
X14172563Y-17420650D02*
X14191610Y-17430174D01*
X14191610Y-17430174D02*
X14201134Y-17449222D01*
X14201134Y-17449222D02*
X14201134Y-17553984D01*
X14201134Y-17449222D02*
X14210658Y-17430174D01*
X14210658Y-17430174D02*
X14229705Y-17420650D01*
X14229705Y-17420650D02*
X14258277Y-17420650D01*
X14258277Y-17420650D02*
X14277324Y-17430174D01*
X14277324Y-17430174D02*
X14286848Y-17449222D01*
X14286848Y-17449222D02*
X14286848Y-17553984D01*
X14382086Y-17553984D02*
X14382086Y-17420650D01*
X14382086Y-17439698D02*
X14391610Y-17430174D01*
X14391610Y-17430174D02*
X14410658Y-17420650D01*
X14410658Y-17420650D02*
X14439229Y-17420650D01*
X14439229Y-17420650D02*
X14458277Y-17430174D01*
X14458277Y-17430174D02*
X14467801Y-17449222D01*
X14467801Y-17449222D02*
X14467801Y-17553984D01*
X14467801Y-17449222D02*
X14477324Y-17430174D01*
X14477324Y-17430174D02*
X14496372Y-17420650D01*
X14496372Y-17420650D02*
X14524943Y-17420650D01*
X14524943Y-17420650D02*
X14543991Y-17430174D01*
X14543991Y-17430174D02*
X14553515Y-17449222D01*
X14553515Y-17449222D02*
X14553515Y-17553984D01*
X14943991Y-17344460D02*
X14772563Y-17601603D01*
X15201134Y-17353984D02*
X15220182Y-17353984D01*
X15220182Y-17353984D02*
X15239229Y-17363508D01*
X15239229Y-17363508D02*
X15248753Y-17373031D01*
X15248753Y-17373031D02*
X15258277Y-17392079D01*
X15258277Y-17392079D02*
X15267801Y-17430174D01*
X15267801Y-17430174D02*
X15267801Y-17477793D01*
X15267801Y-17477793D02*
X15258277Y-17515889D01*
X15258277Y-17515889D02*
X15248753Y-17534936D01*
X15248753Y-17534936D02*
X15239229Y-17544460D01*
X15239229Y-17544460D02*
X15220182Y-17553984D01*
X15220182Y-17553984D02*
X15201134Y-17553984D01*
X15201134Y-17553984D02*
X15182086Y-17544460D01*
X15182086Y-17544460D02*
X15172563Y-17534936D01*
X15172563Y-17534936D02*
X15163039Y-17515889D01*
X15163039Y-17515889D02*
X15153515Y-17477793D01*
X15153515Y-17477793D02*
X15153515Y-17430174D01*
X15153515Y-17430174D02*
X15163039Y-17392079D01*
X15163039Y-17392079D02*
X15172563Y-17373031D01*
X15172563Y-17373031D02*
X15182086Y-17363508D01*
X15182086Y-17363508D02*
X15201134Y-17353984D01*
X15353515Y-17534936D02*
X15363039Y-17544460D01*
X15363039Y-17544460D02*
X15353515Y-17553984D01*
X15353515Y-17553984D02*
X15343991Y-17544460D01*
X15343991Y-17544460D02*
X15353515Y-17534936D01*
X15353515Y-17534936D02*
X15353515Y-17553984D01*
X15486848Y-17353984D02*
X15505896Y-17353984D01*
X15505896Y-17353984D02*
X15524944Y-17363508D01*
X15524944Y-17363508D02*
X15534467Y-17373031D01*
X15534467Y-17373031D02*
X15543991Y-17392079D01*
X15543991Y-17392079D02*
X15553515Y-17430174D01*
X15553515Y-17430174D02*
X15553515Y-17477793D01*
X15553515Y-17477793D02*
X15543991Y-17515889D01*
X15543991Y-17515889D02*
X15534467Y-17534936D01*
X15534467Y-17534936D02*
X15524944Y-17544460D01*
X15524944Y-17544460D02*
X15505896Y-17553984D01*
X15505896Y-17553984D02*
X15486848Y-17553984D01*
X15486848Y-17553984D02*
X15467801Y-17544460D01*
X15467801Y-17544460D02*
X15458277Y-17534936D01*
X15458277Y-17534936D02*
X15448753Y-17515889D01*
X15448753Y-17515889D02*
X15439229Y-17477793D01*
X15439229Y-17477793D02*
X15439229Y-17430174D01*
X15439229Y-17430174D02*
X15448753Y-17392079D01*
X15448753Y-17392079D02*
X15458277Y-17373031D01*
X15458277Y-17373031D02*
X15467801Y-17363508D01*
X15467801Y-17363508D02*
X15486848Y-17353984D01*
X15724944Y-17420650D02*
X15724944Y-17553984D01*
X15677325Y-17344460D02*
X15629706Y-17487317D01*
X15629706Y-17487317D02*
X15753515Y-17487317D01*
X15867801Y-17353984D02*
X15886848Y-17353984D01*
X15886848Y-17353984D02*
X15905896Y-17363508D01*
X15905896Y-17363508D02*
X15915420Y-17373031D01*
X15915420Y-17373031D02*
X15924944Y-17392079D01*
X15924944Y-17392079D02*
X15934467Y-17430174D01*
X15934467Y-17430174D02*
X15934467Y-17477793D01*
X15934467Y-17477793D02*
X15924944Y-17515889D01*
X15924944Y-17515889D02*
X15915420Y-17534936D01*
X15915420Y-17534936D02*
X15905896Y-17544460D01*
X15905896Y-17544460D02*
X15886848Y-17553984D01*
X15886848Y-17553984D02*
X15867801Y-17553984D01*
X15867801Y-17553984D02*
X15848753Y-17544460D01*
X15848753Y-17544460D02*
X15839229Y-17534936D01*
X15839229Y-17534936D02*
X15829706Y-17515889D01*
X15829706Y-17515889D02*
X15820182Y-17477793D01*
X15820182Y-17477793D02*
X15820182Y-17430174D01*
X15820182Y-17430174D02*
X15829706Y-17392079D01*
X15829706Y-17392079D02*
X15839229Y-17373031D01*
X15839229Y-17373031D02*
X15848753Y-17363508D01*
X15848753Y-17363508D02*
X15867801Y-17353984D01*
X16058277Y-17353984D02*
X16077325Y-17353984D01*
X16077325Y-17353984D02*
X16096372Y-17363508D01*
X16096372Y-17363508D02*
X16105896Y-17373031D01*
X16105896Y-17373031D02*
X16115420Y-17392079D01*
X16115420Y-17392079D02*
X16124944Y-17430174D01*
X16124944Y-17430174D02*
X16124944Y-17477793D01*
X16124944Y-17477793D02*
X16115420Y-17515889D01*
X16115420Y-17515889D02*
X16105896Y-17534936D01*
X16105896Y-17534936D02*
X16096372Y-17544460D01*
X16096372Y-17544460D02*
X16077325Y-17553984D01*
X16077325Y-17553984D02*
X16058277Y-17553984D01*
X16058277Y-17553984D02*
X16039229Y-17544460D01*
X16039229Y-17544460D02*
X16029706Y-17534936D01*
X16029706Y-17534936D02*
X16020182Y-17515889D01*
X16020182Y-17515889D02*
X16010658Y-17477793D01*
X16010658Y-17477793D02*
X16010658Y-17430174D01*
X16010658Y-17430174D02*
X16020182Y-17392079D01*
X16020182Y-17392079D02*
X16029706Y-17373031D01*
X16029706Y-17373031D02*
X16039229Y-17363508D01*
X16039229Y-17363508D02*
X16058277Y-17353984D01*
X16201134Y-17353984D02*
X16201134Y-17392079D01*
X16277325Y-17353984D02*
X16277325Y-17392079D01*
X16572563Y-17630174D02*
X16563039Y-17620650D01*
X16563039Y-17620650D02*
X16543991Y-17592079D01*
X16543991Y-17592079D02*
X16534468Y-17573031D01*
X16534468Y-17573031D02*
X16524944Y-17544460D01*
X16524944Y-17544460D02*
X16515420Y-17496841D01*
X16515420Y-17496841D02*
X16515420Y-17458746D01*
X16515420Y-17458746D02*
X16524944Y-17411127D01*
X16524944Y-17411127D02*
X16534468Y-17382555D01*
X16534468Y-17382555D02*
X16543991Y-17363508D01*
X16543991Y-17363508D02*
X16563039Y-17334936D01*
X16563039Y-17334936D02*
X16572563Y-17325412D01*
X16753515Y-17553984D02*
X16639229Y-17553984D01*
X16696372Y-17553984D02*
X16696372Y-17353984D01*
X16696372Y-17353984D02*
X16677325Y-17382555D01*
X16677325Y-17382555D02*
X16658277Y-17401603D01*
X16658277Y-17401603D02*
X16639229Y-17411127D01*
X16829706Y-17373031D02*
X16839230Y-17363508D01*
X16839230Y-17363508D02*
X16858277Y-17353984D01*
X16858277Y-17353984D02*
X16905896Y-17353984D01*
X16905896Y-17353984D02*
X16924944Y-17363508D01*
X16924944Y-17363508D02*
X16934468Y-17373031D01*
X16934468Y-17373031D02*
X16943991Y-17392079D01*
X16943991Y-17392079D02*
X16943991Y-17411127D01*
X16943991Y-17411127D02*
X16934468Y-17439698D01*
X16934468Y-17439698D02*
X16820182Y-17553984D01*
X16820182Y-17553984D02*
X16943991Y-17553984D01*
X17182087Y-17553984D02*
X17182087Y-17353984D01*
X17267801Y-17553984D02*
X17267801Y-17449222D01*
X17267801Y-17449222D02*
X17258277Y-17430174D01*
X17258277Y-17430174D02*
X17239230Y-17420650D01*
X17239230Y-17420650D02*
X17210658Y-17420650D01*
X17210658Y-17420650D02*
X17191611Y-17430174D01*
X17191611Y-17430174D02*
X17182087Y-17439698D01*
X17391611Y-17553984D02*
X17372563Y-17544460D01*
X17372563Y-17544460D02*
X17363039Y-17534936D01*
X17363039Y-17534936D02*
X17353515Y-17515889D01*
X17353515Y-17515889D02*
X17353515Y-17458746D01*
X17353515Y-17458746D02*
X17363039Y-17439698D01*
X17363039Y-17439698D02*
X17372563Y-17430174D01*
X17372563Y-17430174D02*
X17391611Y-17420650D01*
X17391611Y-17420650D02*
X17420182Y-17420650D01*
X17420182Y-17420650D02*
X17439230Y-17430174D01*
X17439230Y-17430174D02*
X17448753Y-17439698D01*
X17448753Y-17439698D02*
X17458277Y-17458746D01*
X17458277Y-17458746D02*
X17458277Y-17515889D01*
X17458277Y-17515889D02*
X17448753Y-17534936D01*
X17448753Y-17534936D02*
X17439230Y-17544460D01*
X17439230Y-17544460D02*
X17420182Y-17553984D01*
X17420182Y-17553984D02*
X17391611Y-17553984D01*
X17572563Y-17553984D02*
X17553515Y-17544460D01*
X17553515Y-17544460D02*
X17543992Y-17525412D01*
X17543992Y-17525412D02*
X17543992Y-17353984D01*
X17724944Y-17544460D02*
X17705896Y-17553984D01*
X17705896Y-17553984D02*
X17667801Y-17553984D01*
X17667801Y-17553984D02*
X17648753Y-17544460D01*
X17648753Y-17544460D02*
X17639230Y-17525412D01*
X17639230Y-17525412D02*
X17639230Y-17449222D01*
X17639230Y-17449222D02*
X17648753Y-17430174D01*
X17648753Y-17430174D02*
X17667801Y-17420650D01*
X17667801Y-17420650D02*
X17705896Y-17420650D01*
X17705896Y-17420650D02*
X17724944Y-17430174D01*
X17724944Y-17430174D02*
X17734468Y-17449222D01*
X17734468Y-17449222D02*
X17734468Y-17468270D01*
X17734468Y-17468270D02*
X17639230Y-17487317D01*
X17810658Y-17544460D02*
X17829706Y-17553984D01*
X17829706Y-17553984D02*
X17867801Y-17553984D01*
X17867801Y-17553984D02*
X17886849Y-17544460D01*
X17886849Y-17544460D02*
X17896373Y-17525412D01*
X17896373Y-17525412D02*
X17896373Y-17515889D01*
X17896373Y-17515889D02*
X17886849Y-17496841D01*
X17886849Y-17496841D02*
X17867801Y-17487317D01*
X17867801Y-17487317D02*
X17839230Y-17487317D01*
X17839230Y-17487317D02*
X17820182Y-17477793D01*
X17820182Y-17477793D02*
X17810658Y-17458746D01*
X17810658Y-17458746D02*
X17810658Y-17449222D01*
X17810658Y-17449222D02*
X17820182Y-17430174D01*
X17820182Y-17430174D02*
X17839230Y-17420650D01*
X17839230Y-17420650D02*
X17867801Y-17420650D01*
X17867801Y-17420650D02*
X17886849Y-17430174D01*
X17963039Y-17630174D02*
X17972563Y-17620650D01*
X17972563Y-17620650D02*
X17991611Y-17592079D01*
X17991611Y-17592079D02*
X18001134Y-17573031D01*
X18001134Y-17573031D02*
X18010658Y-17544460D01*
X18010658Y-17544460D02*
X18020182Y-17496841D01*
X18020182Y-17496841D02*
X18020182Y-17458746D01*
X18020182Y-17458746D02*
X18010658Y-17411127D01*
X18010658Y-17411127D02*
X18001134Y-17382555D01*
X18001134Y-17382555D02*
X17991611Y-17363508D01*
X17991611Y-17363508D02*
X17972563Y-17334936D01*
X17972563Y-17334936D02*
X17963039Y-17325412D01*
D14*
X12867500Y-17661500D02*
X12997500Y-17791500D01*
X12997500Y-17661500D02*
X12867500Y-17791500D01*
X12932500Y-17661500D02*
X12932500Y-17791500D01*
X12867500Y-17726500D02*
X12997500Y-17726500D01*
D11*
X13363039Y-17817984D02*
X13248753Y-17817984D01*
X13305896Y-17817984D02*
X13305896Y-17617984D01*
X13305896Y-17617984D02*
X13286848Y-17646555D01*
X13286848Y-17646555D02*
X13267801Y-17665603D01*
X13267801Y-17665603D02*
X13248753Y-17675127D01*
X13448753Y-17798936D02*
X13458277Y-17808460D01*
X13458277Y-17808460D02*
X13448753Y-17817984D01*
X13448753Y-17817984D02*
X13439229Y-17808460D01*
X13439229Y-17808460D02*
X13448753Y-17798936D01*
X13448753Y-17798936D02*
X13448753Y-17817984D01*
X13524943Y-17617984D02*
X13648753Y-17617984D01*
X13648753Y-17617984D02*
X13582086Y-17694174D01*
X13582086Y-17694174D02*
X13610658Y-17694174D01*
X13610658Y-17694174D02*
X13629705Y-17703698D01*
X13629705Y-17703698D02*
X13639229Y-17713222D01*
X13639229Y-17713222D02*
X13648753Y-17732270D01*
X13648753Y-17732270D02*
X13648753Y-17779889D01*
X13648753Y-17779889D02*
X13639229Y-17798936D01*
X13639229Y-17798936D02*
X13629705Y-17808460D01*
X13629705Y-17808460D02*
X13610658Y-17817984D01*
X13610658Y-17817984D02*
X13553515Y-17817984D01*
X13553515Y-17817984D02*
X13534467Y-17808460D01*
X13534467Y-17808460D02*
X13524943Y-17798936D01*
X13772562Y-17617984D02*
X13791610Y-17617984D01*
X13791610Y-17617984D02*
X13810658Y-17627508D01*
X13810658Y-17627508D02*
X13820182Y-17637031D01*
X13820182Y-17637031D02*
X13829705Y-17656079D01*
X13829705Y-17656079D02*
X13839229Y-17694174D01*
X13839229Y-17694174D02*
X13839229Y-17741793D01*
X13839229Y-17741793D02*
X13829705Y-17779889D01*
X13829705Y-17779889D02*
X13820182Y-17798936D01*
X13820182Y-17798936D02*
X13810658Y-17808460D01*
X13810658Y-17808460D02*
X13791610Y-17817984D01*
X13791610Y-17817984D02*
X13772562Y-17817984D01*
X13772562Y-17817984D02*
X13753515Y-17808460D01*
X13753515Y-17808460D02*
X13743991Y-17798936D01*
X13743991Y-17798936D02*
X13734467Y-17779889D01*
X13734467Y-17779889D02*
X13724943Y-17741793D01*
X13724943Y-17741793D02*
X13724943Y-17694174D01*
X13724943Y-17694174D02*
X13734467Y-17656079D01*
X13734467Y-17656079D02*
X13743991Y-17637031D01*
X13743991Y-17637031D02*
X13753515Y-17627508D01*
X13753515Y-17627508D02*
X13772562Y-17617984D01*
X13963039Y-17617984D02*
X13982086Y-17617984D01*
X13982086Y-17617984D02*
X14001134Y-17627508D01*
X14001134Y-17627508D02*
X14010658Y-17637031D01*
X14010658Y-17637031D02*
X14020182Y-17656079D01*
X14020182Y-17656079D02*
X14029705Y-17694174D01*
X14029705Y-17694174D02*
X14029705Y-17741793D01*
X14029705Y-17741793D02*
X14020182Y-17779889D01*
X14020182Y-17779889D02*
X14010658Y-17798936D01*
X14010658Y-17798936D02*
X14001134Y-17808460D01*
X14001134Y-17808460D02*
X13982086Y-17817984D01*
X13982086Y-17817984D02*
X13963039Y-17817984D01*
X13963039Y-17817984D02*
X13943991Y-17808460D01*
X13943991Y-17808460D02*
X13934467Y-17798936D01*
X13934467Y-17798936D02*
X13924943Y-17779889D01*
X13924943Y-17779889D02*
X13915420Y-17741793D01*
X13915420Y-17741793D02*
X13915420Y-17694174D01*
X13915420Y-17694174D02*
X13924943Y-17656079D01*
X13924943Y-17656079D02*
X13934467Y-17637031D01*
X13934467Y-17637031D02*
X13943991Y-17627508D01*
X13943991Y-17627508D02*
X13963039Y-17617984D01*
X14115420Y-17817984D02*
X14115420Y-17684650D01*
X14115420Y-17703698D02*
X14124943Y-17694174D01*
X14124943Y-17694174D02*
X14143991Y-17684650D01*
X14143991Y-17684650D02*
X14172563Y-17684650D01*
X14172563Y-17684650D02*
X14191610Y-17694174D01*
X14191610Y-17694174D02*
X14201134Y-17713222D01*
X14201134Y-17713222D02*
X14201134Y-17817984D01*
X14201134Y-17713222D02*
X14210658Y-17694174D01*
X14210658Y-17694174D02*
X14229705Y-17684650D01*
X14229705Y-17684650D02*
X14258277Y-17684650D01*
X14258277Y-17684650D02*
X14277324Y-17694174D01*
X14277324Y-17694174D02*
X14286848Y-17713222D01*
X14286848Y-17713222D02*
X14286848Y-17817984D01*
X14382086Y-17817984D02*
X14382086Y-17684650D01*
X14382086Y-17703698D02*
X14391610Y-17694174D01*
X14391610Y-17694174D02*
X14410658Y-17684650D01*
X14410658Y-17684650D02*
X14439229Y-17684650D01*
X14439229Y-17684650D02*
X14458277Y-17694174D01*
X14458277Y-17694174D02*
X14467801Y-17713222D01*
X14467801Y-17713222D02*
X14467801Y-17817984D01*
X14467801Y-17713222D02*
X14477324Y-17694174D01*
X14477324Y-17694174D02*
X14496372Y-17684650D01*
X14496372Y-17684650D02*
X14524943Y-17684650D01*
X14524943Y-17684650D02*
X14543991Y-17694174D01*
X14543991Y-17694174D02*
X14553515Y-17713222D01*
X14553515Y-17713222D02*
X14553515Y-17817984D01*
X14943991Y-17608460D02*
X14772563Y-17865603D01*
X15201134Y-17617984D02*
X15220182Y-17617984D01*
X15220182Y-17617984D02*
X15239229Y-17627508D01*
X15239229Y-17627508D02*
X15248753Y-17637031D01*
X15248753Y-17637031D02*
X15258277Y-17656079D01*
X15258277Y-17656079D02*
X15267801Y-17694174D01*
X15267801Y-17694174D02*
X15267801Y-17741793D01*
X15267801Y-17741793D02*
X15258277Y-17779889D01*
X15258277Y-17779889D02*
X15248753Y-17798936D01*
X15248753Y-17798936D02*
X15239229Y-17808460D01*
X15239229Y-17808460D02*
X15220182Y-17817984D01*
X15220182Y-17817984D02*
X15201134Y-17817984D01*
X15201134Y-17817984D02*
X15182086Y-17808460D01*
X15182086Y-17808460D02*
X15172563Y-17798936D01*
X15172563Y-17798936D02*
X15163039Y-17779889D01*
X15163039Y-17779889D02*
X15153515Y-17741793D01*
X15153515Y-17741793D02*
X15153515Y-17694174D01*
X15153515Y-17694174D02*
X15163039Y-17656079D01*
X15163039Y-17656079D02*
X15172563Y-17637031D01*
X15172563Y-17637031D02*
X15182086Y-17627508D01*
X15182086Y-17627508D02*
X15201134Y-17617984D01*
X15353515Y-17798936D02*
X15363039Y-17808460D01*
X15363039Y-17808460D02*
X15353515Y-17817984D01*
X15353515Y-17817984D02*
X15343991Y-17808460D01*
X15343991Y-17808460D02*
X15353515Y-17798936D01*
X15353515Y-17798936D02*
X15353515Y-17817984D01*
X15486848Y-17617984D02*
X15505896Y-17617984D01*
X15505896Y-17617984D02*
X15524944Y-17627508D01*
X15524944Y-17627508D02*
X15534467Y-17637031D01*
X15534467Y-17637031D02*
X15543991Y-17656079D01*
X15543991Y-17656079D02*
X15553515Y-17694174D01*
X15553515Y-17694174D02*
X15553515Y-17741793D01*
X15553515Y-17741793D02*
X15543991Y-17779889D01*
X15543991Y-17779889D02*
X15534467Y-17798936D01*
X15534467Y-17798936D02*
X15524944Y-17808460D01*
X15524944Y-17808460D02*
X15505896Y-17817984D01*
X15505896Y-17817984D02*
X15486848Y-17817984D01*
X15486848Y-17817984D02*
X15467801Y-17808460D01*
X15467801Y-17808460D02*
X15458277Y-17798936D01*
X15458277Y-17798936D02*
X15448753Y-17779889D01*
X15448753Y-17779889D02*
X15439229Y-17741793D01*
X15439229Y-17741793D02*
X15439229Y-17694174D01*
X15439229Y-17694174D02*
X15448753Y-17656079D01*
X15448753Y-17656079D02*
X15458277Y-17637031D01*
X15458277Y-17637031D02*
X15467801Y-17627508D01*
X15467801Y-17627508D02*
X15486848Y-17617984D01*
X15734467Y-17617984D02*
X15639229Y-17617984D01*
X15639229Y-17617984D02*
X15629706Y-17713222D01*
X15629706Y-17713222D02*
X15639229Y-17703698D01*
X15639229Y-17703698D02*
X15658277Y-17694174D01*
X15658277Y-17694174D02*
X15705896Y-17694174D01*
X15705896Y-17694174D02*
X15724944Y-17703698D01*
X15724944Y-17703698D02*
X15734467Y-17713222D01*
X15734467Y-17713222D02*
X15743991Y-17732270D01*
X15743991Y-17732270D02*
X15743991Y-17779889D01*
X15743991Y-17779889D02*
X15734467Y-17798936D01*
X15734467Y-17798936D02*
X15724944Y-17808460D01*
X15724944Y-17808460D02*
X15705896Y-17817984D01*
X15705896Y-17817984D02*
X15658277Y-17817984D01*
X15658277Y-17817984D02*
X15639229Y-17808460D01*
X15639229Y-17808460D02*
X15629706Y-17798936D01*
X15934467Y-17817984D02*
X15820182Y-17817984D01*
X15877325Y-17817984D02*
X15877325Y-17617984D01*
X15877325Y-17617984D02*
X15858277Y-17646555D01*
X15858277Y-17646555D02*
X15839229Y-17665603D01*
X15839229Y-17665603D02*
X15820182Y-17675127D01*
X16010658Y-17637031D02*
X16020182Y-17627508D01*
X16020182Y-17627508D02*
X16039229Y-17617984D01*
X16039229Y-17617984D02*
X16086848Y-17617984D01*
X16086848Y-17617984D02*
X16105896Y-17627508D01*
X16105896Y-17627508D02*
X16115420Y-17637031D01*
X16115420Y-17637031D02*
X16124944Y-17656079D01*
X16124944Y-17656079D02*
X16124944Y-17675127D01*
X16124944Y-17675127D02*
X16115420Y-17703698D01*
X16115420Y-17703698D02*
X16001134Y-17817984D01*
X16001134Y-17817984D02*
X16124944Y-17817984D01*
X16201134Y-17617984D02*
X16201134Y-17656079D01*
X16277325Y-17617984D02*
X16277325Y-17656079D01*
X16572563Y-17894174D02*
X16563039Y-17884650D01*
X16563039Y-17884650D02*
X16543991Y-17856079D01*
X16543991Y-17856079D02*
X16534468Y-17837031D01*
X16534468Y-17837031D02*
X16524944Y-17808460D01*
X16524944Y-17808460D02*
X16515420Y-17760841D01*
X16515420Y-17760841D02*
X16515420Y-17722746D01*
X16515420Y-17722746D02*
X16524944Y-17675127D01*
X16524944Y-17675127D02*
X16534468Y-17646555D01*
X16534468Y-17646555D02*
X16543991Y-17627508D01*
X16543991Y-17627508D02*
X16563039Y-17598936D01*
X16563039Y-17598936D02*
X16572563Y-17589412D01*
X16639229Y-17637031D02*
X16648753Y-17627508D01*
X16648753Y-17627508D02*
X16667801Y-17617984D01*
X16667801Y-17617984D02*
X16715420Y-17617984D01*
X16715420Y-17617984D02*
X16734468Y-17627508D01*
X16734468Y-17627508D02*
X16743991Y-17637031D01*
X16743991Y-17637031D02*
X16753515Y-17656079D01*
X16753515Y-17656079D02*
X16753515Y-17675127D01*
X16753515Y-17675127D02*
X16743991Y-17703698D01*
X16743991Y-17703698D02*
X16629706Y-17817984D01*
X16629706Y-17817984D02*
X16753515Y-17817984D01*
X16991611Y-17817984D02*
X16991611Y-17617984D01*
X17077325Y-17817984D02*
X17077325Y-17713222D01*
X17077325Y-17713222D02*
X17067801Y-17694174D01*
X17067801Y-17694174D02*
X17048753Y-17684650D01*
X17048753Y-17684650D02*
X17020182Y-17684650D01*
X17020182Y-17684650D02*
X17001134Y-17694174D01*
X17001134Y-17694174D02*
X16991611Y-17703698D01*
X17201134Y-17817984D02*
X17182087Y-17808460D01*
X17182087Y-17808460D02*
X17172563Y-17798936D01*
X17172563Y-17798936D02*
X17163039Y-17779889D01*
X17163039Y-17779889D02*
X17163039Y-17722746D01*
X17163039Y-17722746D02*
X17172563Y-17703698D01*
X17172563Y-17703698D02*
X17182087Y-17694174D01*
X17182087Y-17694174D02*
X17201134Y-17684650D01*
X17201134Y-17684650D02*
X17229706Y-17684650D01*
X17229706Y-17684650D02*
X17248753Y-17694174D01*
X17248753Y-17694174D02*
X17258277Y-17703698D01*
X17258277Y-17703698D02*
X17267801Y-17722746D01*
X17267801Y-17722746D02*
X17267801Y-17779889D01*
X17267801Y-17779889D02*
X17258277Y-17798936D01*
X17258277Y-17798936D02*
X17248753Y-17808460D01*
X17248753Y-17808460D02*
X17229706Y-17817984D01*
X17229706Y-17817984D02*
X17201134Y-17817984D01*
X17382087Y-17817984D02*
X17363039Y-17808460D01*
X17363039Y-17808460D02*
X17353515Y-17789412D01*
X17353515Y-17789412D02*
X17353515Y-17617984D01*
X17534468Y-17808460D02*
X17515420Y-17817984D01*
X17515420Y-17817984D02*
X17477325Y-17817984D01*
X17477325Y-17817984D02*
X17458277Y-17808460D01*
X17458277Y-17808460D02*
X17448753Y-17789412D01*
X17448753Y-17789412D02*
X17448753Y-17713222D01*
X17448753Y-17713222D02*
X17458277Y-17694174D01*
X17458277Y-17694174D02*
X17477325Y-17684650D01*
X17477325Y-17684650D02*
X17515420Y-17684650D01*
X17515420Y-17684650D02*
X17534468Y-17694174D01*
X17534468Y-17694174D02*
X17543992Y-17713222D01*
X17543992Y-17713222D02*
X17543992Y-17732270D01*
X17543992Y-17732270D02*
X17448753Y-17751317D01*
X17620182Y-17808460D02*
X17639230Y-17817984D01*
X17639230Y-17817984D02*
X17677325Y-17817984D01*
X17677325Y-17817984D02*
X17696373Y-17808460D01*
X17696373Y-17808460D02*
X17705896Y-17789412D01*
X17705896Y-17789412D02*
X17705896Y-17779889D01*
X17705896Y-17779889D02*
X17696373Y-17760841D01*
X17696373Y-17760841D02*
X17677325Y-17751317D01*
X17677325Y-17751317D02*
X17648753Y-17751317D01*
X17648753Y-17751317D02*
X17629706Y-17741793D01*
X17629706Y-17741793D02*
X17620182Y-17722746D01*
X17620182Y-17722746D02*
X17620182Y-17713222D01*
X17620182Y-17713222D02*
X17629706Y-17694174D01*
X17629706Y-17694174D02*
X17648753Y-17684650D01*
X17648753Y-17684650D02*
X17677325Y-17684650D01*
X17677325Y-17684650D02*
X17696373Y-17694174D01*
X17772563Y-17894174D02*
X17782087Y-17884650D01*
X17782087Y-17884650D02*
X17801134Y-17856079D01*
X17801134Y-17856079D02*
X17810658Y-17837031D01*
X17810658Y-17837031D02*
X17820182Y-17808460D01*
X17820182Y-17808460D02*
X17829706Y-17760841D01*
X17829706Y-17760841D02*
X17829706Y-17722746D01*
X17829706Y-17722746D02*
X17820182Y-17675127D01*
X17820182Y-17675127D02*
X17810658Y-17646555D01*
X17810658Y-17646555D02*
X17801134Y-17627508D01*
X17801134Y-17627508D02*
X17782087Y-17598936D01*
X17782087Y-17598936D02*
X17772563Y-17589412D01*
D15*
X12807500Y-17895500D02*
X12997500Y-18085500D01*
X12997500Y-17895500D02*
X12807500Y-18085500D01*
X12969676Y-18057676D02*
X12969676Y-17923324D01*
X12835324Y-17923324D01*
X12835324Y-18057676D01*
X12969676Y-18057676D01*
D11*
X13363039Y-18081984D02*
X13248753Y-18081984D01*
X13305896Y-18081984D02*
X13305896Y-17881984D01*
X13305896Y-17881984D02*
X13286848Y-17910555D01*
X13286848Y-17910555D02*
X13267801Y-17929603D01*
X13267801Y-17929603D02*
X13248753Y-17939127D01*
X13448753Y-18062936D02*
X13458277Y-18072460D01*
X13458277Y-18072460D02*
X13448753Y-18081984D01*
X13448753Y-18081984D02*
X13439229Y-18072460D01*
X13439229Y-18072460D02*
X13448753Y-18062936D01*
X13448753Y-18062936D02*
X13448753Y-18081984D01*
X13553515Y-18081984D02*
X13591610Y-18081984D01*
X13591610Y-18081984D02*
X13610658Y-18072460D01*
X13610658Y-18072460D02*
X13620182Y-18062936D01*
X13620182Y-18062936D02*
X13639229Y-18034365D01*
X13639229Y-18034365D02*
X13648753Y-17996270D01*
X13648753Y-17996270D02*
X13648753Y-17920079D01*
X13648753Y-17920079D02*
X13639229Y-17901031D01*
X13639229Y-17901031D02*
X13629705Y-17891508D01*
X13629705Y-17891508D02*
X13610658Y-17881984D01*
X13610658Y-17881984D02*
X13572562Y-17881984D01*
X13572562Y-17881984D02*
X13553515Y-17891508D01*
X13553515Y-17891508D02*
X13543991Y-17901031D01*
X13543991Y-17901031D02*
X13534467Y-17920079D01*
X13534467Y-17920079D02*
X13534467Y-17967698D01*
X13534467Y-17967698D02*
X13543991Y-17986746D01*
X13543991Y-17986746D02*
X13553515Y-17996270D01*
X13553515Y-17996270D02*
X13572562Y-18005793D01*
X13572562Y-18005793D02*
X13610658Y-18005793D01*
X13610658Y-18005793D02*
X13629705Y-17996270D01*
X13629705Y-17996270D02*
X13639229Y-17986746D01*
X13639229Y-17986746D02*
X13648753Y-17967698D01*
X13772562Y-17881984D02*
X13791610Y-17881984D01*
X13791610Y-17881984D02*
X13810658Y-17891508D01*
X13810658Y-17891508D02*
X13820182Y-17901031D01*
X13820182Y-17901031D02*
X13829705Y-17920079D01*
X13829705Y-17920079D02*
X13839229Y-17958174D01*
X13839229Y-17958174D02*
X13839229Y-18005793D01*
X13839229Y-18005793D02*
X13829705Y-18043889D01*
X13829705Y-18043889D02*
X13820182Y-18062936D01*
X13820182Y-18062936D02*
X13810658Y-18072460D01*
X13810658Y-18072460D02*
X13791610Y-18081984D01*
X13791610Y-18081984D02*
X13772562Y-18081984D01*
X13772562Y-18081984D02*
X13753515Y-18072460D01*
X13753515Y-18072460D02*
X13743991Y-18062936D01*
X13743991Y-18062936D02*
X13734467Y-18043889D01*
X13734467Y-18043889D02*
X13724943Y-18005793D01*
X13724943Y-18005793D02*
X13724943Y-17958174D01*
X13724943Y-17958174D02*
X13734467Y-17920079D01*
X13734467Y-17920079D02*
X13743991Y-17901031D01*
X13743991Y-17901031D02*
X13753515Y-17891508D01*
X13753515Y-17891508D02*
X13772562Y-17881984D01*
X13963039Y-17881984D02*
X13982086Y-17881984D01*
X13982086Y-17881984D02*
X14001134Y-17891508D01*
X14001134Y-17891508D02*
X14010658Y-17901031D01*
X14010658Y-17901031D02*
X14020182Y-17920079D01*
X14020182Y-17920079D02*
X14029705Y-17958174D01*
X14029705Y-17958174D02*
X14029705Y-18005793D01*
X14029705Y-18005793D02*
X14020182Y-18043889D01*
X14020182Y-18043889D02*
X14010658Y-18062936D01*
X14010658Y-18062936D02*
X14001134Y-18072460D01*
X14001134Y-18072460D02*
X13982086Y-18081984D01*
X13982086Y-18081984D02*
X13963039Y-18081984D01*
X13963039Y-18081984D02*
X13943991Y-18072460D01*
X13943991Y-18072460D02*
X13934467Y-18062936D01*
X13934467Y-18062936D02*
X13924943Y-18043889D01*
X13924943Y-18043889D02*
X13915420Y-18005793D01*
X13915420Y-18005793D02*
X13915420Y-17958174D01*
X13915420Y-17958174D02*
X13924943Y-17920079D01*
X13924943Y-17920079D02*
X13934467Y-17901031D01*
X13934467Y-17901031D02*
X13943991Y-17891508D01*
X13943991Y-17891508D02*
X13963039Y-17881984D01*
X14115420Y-18081984D02*
X14115420Y-17948650D01*
X14115420Y-17967698D02*
X14124943Y-17958174D01*
X14124943Y-17958174D02*
X14143991Y-17948650D01*
X14143991Y-17948650D02*
X14172563Y-17948650D01*
X14172563Y-17948650D02*
X14191610Y-17958174D01*
X14191610Y-17958174D02*
X14201134Y-17977222D01*
X14201134Y-17977222D02*
X14201134Y-18081984D01*
X14201134Y-17977222D02*
X14210658Y-17958174D01*
X14210658Y-17958174D02*
X14229705Y-17948650D01*
X14229705Y-17948650D02*
X14258277Y-17948650D01*
X14258277Y-17948650D02*
X14277324Y-17958174D01*
X14277324Y-17958174D02*
X14286848Y-17977222D01*
X14286848Y-17977222D02*
X14286848Y-18081984D01*
X14382086Y-18081984D02*
X14382086Y-17948650D01*
X14382086Y-17967698D02*
X14391610Y-17958174D01*
X14391610Y-17958174D02*
X14410658Y-17948650D01*
X14410658Y-17948650D02*
X14439229Y-17948650D01*
X14439229Y-17948650D02*
X14458277Y-17958174D01*
X14458277Y-17958174D02*
X14467801Y-17977222D01*
X14467801Y-17977222D02*
X14467801Y-18081984D01*
X14467801Y-17977222D02*
X14477324Y-17958174D01*
X14477324Y-17958174D02*
X14496372Y-17948650D01*
X14496372Y-17948650D02*
X14524943Y-17948650D01*
X14524943Y-17948650D02*
X14543991Y-17958174D01*
X14543991Y-17958174D02*
X14553515Y-17977222D01*
X14553515Y-17977222D02*
X14553515Y-18081984D01*
X14943991Y-17872460D02*
X14772563Y-18129603D01*
X15201134Y-17881984D02*
X15220182Y-17881984D01*
X15220182Y-17881984D02*
X15239229Y-17891508D01*
X15239229Y-17891508D02*
X15248753Y-17901031D01*
X15248753Y-17901031D02*
X15258277Y-17920079D01*
X15258277Y-17920079D02*
X15267801Y-17958174D01*
X15267801Y-17958174D02*
X15267801Y-18005793D01*
X15267801Y-18005793D02*
X15258277Y-18043889D01*
X15258277Y-18043889D02*
X15248753Y-18062936D01*
X15248753Y-18062936D02*
X15239229Y-18072460D01*
X15239229Y-18072460D02*
X15220182Y-18081984D01*
X15220182Y-18081984D02*
X15201134Y-18081984D01*
X15201134Y-18081984D02*
X15182086Y-18072460D01*
X15182086Y-18072460D02*
X15172563Y-18062936D01*
X15172563Y-18062936D02*
X15163039Y-18043889D01*
X15163039Y-18043889D02*
X15153515Y-18005793D01*
X15153515Y-18005793D02*
X15153515Y-17958174D01*
X15153515Y-17958174D02*
X15163039Y-17920079D01*
X15163039Y-17920079D02*
X15172563Y-17901031D01*
X15172563Y-17901031D02*
X15182086Y-17891508D01*
X15182086Y-17891508D02*
X15201134Y-17881984D01*
X15353515Y-18062936D02*
X15363039Y-18072460D01*
X15363039Y-18072460D02*
X15353515Y-18081984D01*
X15353515Y-18081984D02*
X15343991Y-18072460D01*
X15343991Y-18072460D02*
X15353515Y-18062936D01*
X15353515Y-18062936D02*
X15353515Y-18081984D01*
X15486848Y-17881984D02*
X15505896Y-17881984D01*
X15505896Y-17881984D02*
X15524944Y-17891508D01*
X15524944Y-17891508D02*
X15534467Y-17901031D01*
X15534467Y-17901031D02*
X15543991Y-17920079D01*
X15543991Y-17920079D02*
X15553515Y-17958174D01*
X15553515Y-17958174D02*
X15553515Y-18005793D01*
X15553515Y-18005793D02*
X15543991Y-18043889D01*
X15543991Y-18043889D02*
X15534467Y-18062936D01*
X15534467Y-18062936D02*
X15524944Y-18072460D01*
X15524944Y-18072460D02*
X15505896Y-18081984D01*
X15505896Y-18081984D02*
X15486848Y-18081984D01*
X15486848Y-18081984D02*
X15467801Y-18072460D01*
X15467801Y-18072460D02*
X15458277Y-18062936D01*
X15458277Y-18062936D02*
X15448753Y-18043889D01*
X15448753Y-18043889D02*
X15439229Y-18005793D01*
X15439229Y-18005793D02*
X15439229Y-17958174D01*
X15439229Y-17958174D02*
X15448753Y-17920079D01*
X15448753Y-17920079D02*
X15458277Y-17901031D01*
X15458277Y-17901031D02*
X15467801Y-17891508D01*
X15467801Y-17891508D02*
X15486848Y-17881984D01*
X15620182Y-17881984D02*
X15753515Y-17881984D01*
X15753515Y-17881984D02*
X15667801Y-18081984D01*
X15915420Y-17948650D02*
X15915420Y-18081984D01*
X15867801Y-17872460D02*
X15820182Y-18015317D01*
X15820182Y-18015317D02*
X15943991Y-18015317D01*
X16048753Y-17967698D02*
X16029706Y-17958174D01*
X16029706Y-17958174D02*
X16020182Y-17948650D01*
X16020182Y-17948650D02*
X16010658Y-17929603D01*
X16010658Y-17929603D02*
X16010658Y-17920079D01*
X16010658Y-17920079D02*
X16020182Y-17901031D01*
X16020182Y-17901031D02*
X16029706Y-17891508D01*
X16029706Y-17891508D02*
X16048753Y-17881984D01*
X16048753Y-17881984D02*
X16086848Y-17881984D01*
X16086848Y-17881984D02*
X16105896Y-17891508D01*
X16105896Y-17891508D02*
X16115420Y-17901031D01*
X16115420Y-17901031D02*
X16124944Y-17920079D01*
X16124944Y-17920079D02*
X16124944Y-17929603D01*
X16124944Y-17929603D02*
X16115420Y-17948650D01*
X16115420Y-17948650D02*
X16105896Y-17958174D01*
X16105896Y-17958174D02*
X16086848Y-17967698D01*
X16086848Y-17967698D02*
X16048753Y-17967698D01*
X16048753Y-17967698D02*
X16029706Y-17977222D01*
X16029706Y-17977222D02*
X16020182Y-17986746D01*
X16020182Y-17986746D02*
X16010658Y-18005793D01*
X16010658Y-18005793D02*
X16010658Y-18043889D01*
X16010658Y-18043889D02*
X16020182Y-18062936D01*
X16020182Y-18062936D02*
X16029706Y-18072460D01*
X16029706Y-18072460D02*
X16048753Y-18081984D01*
X16048753Y-18081984D02*
X16086848Y-18081984D01*
X16086848Y-18081984D02*
X16105896Y-18072460D01*
X16105896Y-18072460D02*
X16115420Y-18062936D01*
X16115420Y-18062936D02*
X16124944Y-18043889D01*
X16124944Y-18043889D02*
X16124944Y-18005793D01*
X16124944Y-18005793D02*
X16115420Y-17986746D01*
X16115420Y-17986746D02*
X16105896Y-17977222D01*
X16105896Y-17977222D02*
X16086848Y-17967698D01*
X16201134Y-17881984D02*
X16201134Y-17920079D01*
X16277325Y-17881984D02*
X16277325Y-17920079D01*
X16572563Y-18158174D02*
X16563039Y-18148650D01*
X16563039Y-18148650D02*
X16543991Y-18120079D01*
X16543991Y-18120079D02*
X16534468Y-18101031D01*
X16534468Y-18101031D02*
X16524944Y-18072460D01*
X16524944Y-18072460D02*
X16515420Y-18024841D01*
X16515420Y-18024841D02*
X16515420Y-17986746D01*
X16515420Y-17986746D02*
X16524944Y-17939127D01*
X16524944Y-17939127D02*
X16534468Y-17910555D01*
X16534468Y-17910555D02*
X16543991Y-17891508D01*
X16543991Y-17891508D02*
X16563039Y-17862936D01*
X16563039Y-17862936D02*
X16572563Y-17853412D01*
X16639229Y-17901031D02*
X16648753Y-17891508D01*
X16648753Y-17891508D02*
X16667801Y-17881984D01*
X16667801Y-17881984D02*
X16715420Y-17881984D01*
X16715420Y-17881984D02*
X16734468Y-17891508D01*
X16734468Y-17891508D02*
X16743991Y-17901031D01*
X16743991Y-17901031D02*
X16753515Y-17920079D01*
X16753515Y-17920079D02*
X16753515Y-17939127D01*
X16753515Y-17939127D02*
X16743991Y-17967698D01*
X16743991Y-17967698D02*
X16629706Y-18081984D01*
X16629706Y-18081984D02*
X16753515Y-18081984D01*
X16991611Y-18081984D02*
X16991611Y-17881984D01*
X17077325Y-18081984D02*
X17077325Y-17977222D01*
X17077325Y-17977222D02*
X17067801Y-17958174D01*
X17067801Y-17958174D02*
X17048753Y-17948650D01*
X17048753Y-17948650D02*
X17020182Y-17948650D01*
X17020182Y-17948650D02*
X17001134Y-17958174D01*
X17001134Y-17958174D02*
X16991611Y-17967698D01*
X17201134Y-18081984D02*
X17182087Y-18072460D01*
X17182087Y-18072460D02*
X17172563Y-18062936D01*
X17172563Y-18062936D02*
X17163039Y-18043889D01*
X17163039Y-18043889D02*
X17163039Y-17986746D01*
X17163039Y-17986746D02*
X17172563Y-17967698D01*
X17172563Y-17967698D02*
X17182087Y-17958174D01*
X17182087Y-17958174D02*
X17201134Y-17948650D01*
X17201134Y-17948650D02*
X17229706Y-17948650D01*
X17229706Y-17948650D02*
X17248753Y-17958174D01*
X17248753Y-17958174D02*
X17258277Y-17967698D01*
X17258277Y-17967698D02*
X17267801Y-17986746D01*
X17267801Y-17986746D02*
X17267801Y-18043889D01*
X17267801Y-18043889D02*
X17258277Y-18062936D01*
X17258277Y-18062936D02*
X17248753Y-18072460D01*
X17248753Y-18072460D02*
X17229706Y-18081984D01*
X17229706Y-18081984D02*
X17201134Y-18081984D01*
X17382087Y-18081984D02*
X17363039Y-18072460D01*
X17363039Y-18072460D02*
X17353515Y-18053412D01*
X17353515Y-18053412D02*
X17353515Y-17881984D01*
X17534468Y-18072460D02*
X17515420Y-18081984D01*
X17515420Y-18081984D02*
X17477325Y-18081984D01*
X17477325Y-18081984D02*
X17458277Y-18072460D01*
X17458277Y-18072460D02*
X17448753Y-18053412D01*
X17448753Y-18053412D02*
X17448753Y-17977222D01*
X17448753Y-17977222D02*
X17458277Y-17958174D01*
X17458277Y-17958174D02*
X17477325Y-17948650D01*
X17477325Y-17948650D02*
X17515420Y-17948650D01*
X17515420Y-17948650D02*
X17534468Y-17958174D01*
X17534468Y-17958174D02*
X17543992Y-17977222D01*
X17543992Y-17977222D02*
X17543992Y-17996270D01*
X17543992Y-17996270D02*
X17448753Y-18015317D01*
X17620182Y-18072460D02*
X17639230Y-18081984D01*
X17639230Y-18081984D02*
X17677325Y-18081984D01*
X17677325Y-18081984D02*
X17696373Y-18072460D01*
X17696373Y-18072460D02*
X17705896Y-18053412D01*
X17705896Y-18053412D02*
X17705896Y-18043889D01*
X17705896Y-18043889D02*
X17696373Y-18024841D01*
X17696373Y-18024841D02*
X17677325Y-18015317D01*
X17677325Y-18015317D02*
X17648753Y-18015317D01*
X17648753Y-18015317D02*
X17629706Y-18005793D01*
X17629706Y-18005793D02*
X17620182Y-17986746D01*
X17620182Y-17986746D02*
X17620182Y-17977222D01*
X17620182Y-17977222D02*
X17629706Y-17958174D01*
X17629706Y-17958174D02*
X17648753Y-17948650D01*
X17648753Y-17948650D02*
X17677325Y-17948650D01*
X17677325Y-17948650D02*
X17696373Y-17958174D01*
X17772563Y-18158174D02*
X17782087Y-18148650D01*
X17782087Y-18148650D02*
X17801134Y-18120079D01*
X17801134Y-18120079D02*
X17810658Y-18101031D01*
X17810658Y-18101031D02*
X17820182Y-18072460D01*
X17820182Y-18072460D02*
X17829706Y-18024841D01*
X17829706Y-18024841D02*
X17829706Y-17986746D01*
X17829706Y-17986746D02*
X17820182Y-17939127D01*
X17820182Y-17939127D02*
X17810658Y-17910555D01*
X17810658Y-17910555D02*
X17801134Y-17891508D01*
X17801134Y-17891508D02*
X17782087Y-17862936D01*
X17782087Y-17862936D02*
X17772563Y-17853412D01*
X12797500Y-18200500D02*
X12997500Y-18400500D01*
X12997500Y-18200500D02*
X12797500Y-18400500D01*
X12897500Y-18400500D02*
X12997500Y-18300500D01*
X12897500Y-18200500D01*
X12797500Y-18300500D01*
X12897500Y-18400500D01*
X13239229Y-18191984D02*
X13363039Y-18191984D01*
X13363039Y-18191984D02*
X13296372Y-18268174D01*
X13296372Y-18268174D02*
X13324943Y-18268174D01*
X13324943Y-18268174D02*
X13343991Y-18277698D01*
X13343991Y-18277698D02*
X13353515Y-18287222D01*
X13353515Y-18287222D02*
X13363039Y-18306270D01*
X13363039Y-18306270D02*
X13363039Y-18353889D01*
X13363039Y-18353889D02*
X13353515Y-18372936D01*
X13353515Y-18372936D02*
X13343991Y-18382460D01*
X13343991Y-18382460D02*
X13324943Y-18391984D01*
X13324943Y-18391984D02*
X13267801Y-18391984D01*
X13267801Y-18391984D02*
X13248753Y-18382460D01*
X13248753Y-18382460D02*
X13239229Y-18372936D01*
X13448753Y-18372936D02*
X13458277Y-18382460D01*
X13458277Y-18382460D02*
X13448753Y-18391984D01*
X13448753Y-18391984D02*
X13439229Y-18382460D01*
X13439229Y-18382460D02*
X13448753Y-18372936D01*
X13448753Y-18372936D02*
X13448753Y-18391984D01*
X13534467Y-18211031D02*
X13543991Y-18201508D01*
X13543991Y-18201508D02*
X13563039Y-18191984D01*
X13563039Y-18191984D02*
X13610658Y-18191984D01*
X13610658Y-18191984D02*
X13629705Y-18201508D01*
X13629705Y-18201508D02*
X13639229Y-18211031D01*
X13639229Y-18211031D02*
X13648753Y-18230079D01*
X13648753Y-18230079D02*
X13648753Y-18249127D01*
X13648753Y-18249127D02*
X13639229Y-18277698D01*
X13639229Y-18277698D02*
X13524943Y-18391984D01*
X13524943Y-18391984D02*
X13648753Y-18391984D01*
X13772562Y-18191984D02*
X13791610Y-18191984D01*
X13791610Y-18191984D02*
X13810658Y-18201508D01*
X13810658Y-18201508D02*
X13820182Y-18211031D01*
X13820182Y-18211031D02*
X13829705Y-18230079D01*
X13829705Y-18230079D02*
X13839229Y-18268174D01*
X13839229Y-18268174D02*
X13839229Y-18315793D01*
X13839229Y-18315793D02*
X13829705Y-18353889D01*
X13829705Y-18353889D02*
X13820182Y-18372936D01*
X13820182Y-18372936D02*
X13810658Y-18382460D01*
X13810658Y-18382460D02*
X13791610Y-18391984D01*
X13791610Y-18391984D02*
X13772562Y-18391984D01*
X13772562Y-18391984D02*
X13753515Y-18382460D01*
X13753515Y-18382460D02*
X13743991Y-18372936D01*
X13743991Y-18372936D02*
X13734467Y-18353889D01*
X13734467Y-18353889D02*
X13724943Y-18315793D01*
X13724943Y-18315793D02*
X13724943Y-18268174D01*
X13724943Y-18268174D02*
X13734467Y-18230079D01*
X13734467Y-18230079D02*
X13743991Y-18211031D01*
X13743991Y-18211031D02*
X13753515Y-18201508D01*
X13753515Y-18201508D02*
X13772562Y-18191984D01*
X13963039Y-18191984D02*
X13982086Y-18191984D01*
X13982086Y-18191984D02*
X14001134Y-18201508D01*
X14001134Y-18201508D02*
X14010658Y-18211031D01*
X14010658Y-18211031D02*
X14020182Y-18230079D01*
X14020182Y-18230079D02*
X14029705Y-18268174D01*
X14029705Y-18268174D02*
X14029705Y-18315793D01*
X14029705Y-18315793D02*
X14020182Y-18353889D01*
X14020182Y-18353889D02*
X14010658Y-18372936D01*
X14010658Y-18372936D02*
X14001134Y-18382460D01*
X14001134Y-18382460D02*
X13982086Y-18391984D01*
X13982086Y-18391984D02*
X13963039Y-18391984D01*
X13963039Y-18391984D02*
X13943991Y-18382460D01*
X13943991Y-18382460D02*
X13934467Y-18372936D01*
X13934467Y-18372936D02*
X13924943Y-18353889D01*
X13924943Y-18353889D02*
X13915420Y-18315793D01*
X13915420Y-18315793D02*
X13915420Y-18268174D01*
X13915420Y-18268174D02*
X13924943Y-18230079D01*
X13924943Y-18230079D02*
X13934467Y-18211031D01*
X13934467Y-18211031D02*
X13943991Y-18201508D01*
X13943991Y-18201508D02*
X13963039Y-18191984D01*
X14115420Y-18391984D02*
X14115420Y-18258650D01*
X14115420Y-18277698D02*
X14124943Y-18268174D01*
X14124943Y-18268174D02*
X14143991Y-18258650D01*
X14143991Y-18258650D02*
X14172563Y-18258650D01*
X14172563Y-18258650D02*
X14191610Y-18268174D01*
X14191610Y-18268174D02*
X14201134Y-18287222D01*
X14201134Y-18287222D02*
X14201134Y-18391984D01*
X14201134Y-18287222D02*
X14210658Y-18268174D01*
X14210658Y-18268174D02*
X14229705Y-18258650D01*
X14229705Y-18258650D02*
X14258277Y-18258650D01*
X14258277Y-18258650D02*
X14277324Y-18268174D01*
X14277324Y-18268174D02*
X14286848Y-18287222D01*
X14286848Y-18287222D02*
X14286848Y-18391984D01*
X14382086Y-18391984D02*
X14382086Y-18258650D01*
X14382086Y-18277698D02*
X14391610Y-18268174D01*
X14391610Y-18268174D02*
X14410658Y-18258650D01*
X14410658Y-18258650D02*
X14439229Y-18258650D01*
X14439229Y-18258650D02*
X14458277Y-18268174D01*
X14458277Y-18268174D02*
X14467801Y-18287222D01*
X14467801Y-18287222D02*
X14467801Y-18391984D01*
X14467801Y-18287222D02*
X14477324Y-18268174D01*
X14477324Y-18268174D02*
X14496372Y-18258650D01*
X14496372Y-18258650D02*
X14524943Y-18258650D01*
X14524943Y-18258650D02*
X14543991Y-18268174D01*
X14543991Y-18268174D02*
X14553515Y-18287222D01*
X14553515Y-18287222D02*
X14553515Y-18391984D01*
X14943991Y-18182460D02*
X14772563Y-18439603D01*
X15201134Y-18191984D02*
X15220182Y-18191984D01*
X15220182Y-18191984D02*
X15239229Y-18201508D01*
X15239229Y-18201508D02*
X15248753Y-18211031D01*
X15248753Y-18211031D02*
X15258277Y-18230079D01*
X15258277Y-18230079D02*
X15267801Y-18268174D01*
X15267801Y-18268174D02*
X15267801Y-18315793D01*
X15267801Y-18315793D02*
X15258277Y-18353889D01*
X15258277Y-18353889D02*
X15248753Y-18372936D01*
X15248753Y-18372936D02*
X15239229Y-18382460D01*
X15239229Y-18382460D02*
X15220182Y-18391984D01*
X15220182Y-18391984D02*
X15201134Y-18391984D01*
X15201134Y-18391984D02*
X15182086Y-18382460D01*
X15182086Y-18382460D02*
X15172563Y-18372936D01*
X15172563Y-18372936D02*
X15163039Y-18353889D01*
X15163039Y-18353889D02*
X15153515Y-18315793D01*
X15153515Y-18315793D02*
X15153515Y-18268174D01*
X15153515Y-18268174D02*
X15163039Y-18230079D01*
X15163039Y-18230079D02*
X15172563Y-18211031D01*
X15172563Y-18211031D02*
X15182086Y-18201508D01*
X15182086Y-18201508D02*
X15201134Y-18191984D01*
X15353515Y-18372936D02*
X15363039Y-18382460D01*
X15363039Y-18382460D02*
X15353515Y-18391984D01*
X15353515Y-18391984D02*
X15343991Y-18382460D01*
X15343991Y-18382460D02*
X15353515Y-18372936D01*
X15353515Y-18372936D02*
X15353515Y-18391984D01*
X15553515Y-18391984D02*
X15439229Y-18391984D01*
X15496372Y-18391984D02*
X15496372Y-18191984D01*
X15496372Y-18191984D02*
X15477325Y-18220555D01*
X15477325Y-18220555D02*
X15458277Y-18239603D01*
X15458277Y-18239603D02*
X15439229Y-18249127D01*
X15629706Y-18211031D02*
X15639229Y-18201508D01*
X15639229Y-18201508D02*
X15658277Y-18191984D01*
X15658277Y-18191984D02*
X15705896Y-18191984D01*
X15705896Y-18191984D02*
X15724944Y-18201508D01*
X15724944Y-18201508D02*
X15734467Y-18211031D01*
X15734467Y-18211031D02*
X15743991Y-18230079D01*
X15743991Y-18230079D02*
X15743991Y-18249127D01*
X15743991Y-18249127D02*
X15734467Y-18277698D01*
X15734467Y-18277698D02*
X15620182Y-18391984D01*
X15620182Y-18391984D02*
X15743991Y-18391984D01*
X15915420Y-18191984D02*
X15877325Y-18191984D01*
X15877325Y-18191984D02*
X15858277Y-18201508D01*
X15858277Y-18201508D02*
X15848753Y-18211031D01*
X15848753Y-18211031D02*
X15829706Y-18239603D01*
X15829706Y-18239603D02*
X15820182Y-18277698D01*
X15820182Y-18277698D02*
X15820182Y-18353889D01*
X15820182Y-18353889D02*
X15829706Y-18372936D01*
X15829706Y-18372936D02*
X15839229Y-18382460D01*
X15839229Y-18382460D02*
X15858277Y-18391984D01*
X15858277Y-18391984D02*
X15896372Y-18391984D01*
X15896372Y-18391984D02*
X15915420Y-18382460D01*
X15915420Y-18382460D02*
X15924944Y-18372936D01*
X15924944Y-18372936D02*
X15934467Y-18353889D01*
X15934467Y-18353889D02*
X15934467Y-18306270D01*
X15934467Y-18306270D02*
X15924944Y-18287222D01*
X15924944Y-18287222D02*
X15915420Y-18277698D01*
X15915420Y-18277698D02*
X15896372Y-18268174D01*
X15896372Y-18268174D02*
X15858277Y-18268174D01*
X15858277Y-18268174D02*
X15839229Y-18277698D01*
X15839229Y-18277698D02*
X15829706Y-18287222D01*
X15829706Y-18287222D02*
X15820182Y-18306270D01*
X16058277Y-18191984D02*
X16077325Y-18191984D01*
X16077325Y-18191984D02*
X16096372Y-18201508D01*
X16096372Y-18201508D02*
X16105896Y-18211031D01*
X16105896Y-18211031D02*
X16115420Y-18230079D01*
X16115420Y-18230079D02*
X16124944Y-18268174D01*
X16124944Y-18268174D02*
X16124944Y-18315793D01*
X16124944Y-18315793D02*
X16115420Y-18353889D01*
X16115420Y-18353889D02*
X16105896Y-18372936D01*
X16105896Y-18372936D02*
X16096372Y-18382460D01*
X16096372Y-18382460D02*
X16077325Y-18391984D01*
X16077325Y-18391984D02*
X16058277Y-18391984D01*
X16058277Y-18391984D02*
X16039229Y-18382460D01*
X16039229Y-18382460D02*
X16029706Y-18372936D01*
X16029706Y-18372936D02*
X16020182Y-18353889D01*
X16020182Y-18353889D02*
X16010658Y-18315793D01*
X16010658Y-18315793D02*
X16010658Y-18268174D01*
X16010658Y-18268174D02*
X16020182Y-18230079D01*
X16020182Y-18230079D02*
X16029706Y-18211031D01*
X16029706Y-18211031D02*
X16039229Y-18201508D01*
X16039229Y-18201508D02*
X16058277Y-18191984D01*
X16201134Y-18191984D02*
X16201134Y-18230079D01*
X16277325Y-18191984D02*
X16277325Y-18230079D01*
X16572563Y-18468174D02*
X16563039Y-18458650D01*
X16563039Y-18458650D02*
X16543991Y-18430079D01*
X16543991Y-18430079D02*
X16534468Y-18411031D01*
X16534468Y-18411031D02*
X16524944Y-18382460D01*
X16524944Y-18382460D02*
X16515420Y-18334841D01*
X16515420Y-18334841D02*
X16515420Y-18296746D01*
X16515420Y-18296746D02*
X16524944Y-18249127D01*
X16524944Y-18249127D02*
X16534468Y-18220555D01*
X16534468Y-18220555D02*
X16543991Y-18201508D01*
X16543991Y-18201508D02*
X16563039Y-18172936D01*
X16563039Y-18172936D02*
X16572563Y-18163412D01*
X16734468Y-18258650D02*
X16734468Y-18391984D01*
X16686848Y-18182460D02*
X16639229Y-18325317D01*
X16639229Y-18325317D02*
X16763039Y-18325317D01*
X16991611Y-18391984D02*
X16991611Y-18191984D01*
X17077325Y-18391984D02*
X17077325Y-18287222D01*
X17077325Y-18287222D02*
X17067801Y-18268174D01*
X17067801Y-18268174D02*
X17048753Y-18258650D01*
X17048753Y-18258650D02*
X17020182Y-18258650D01*
X17020182Y-18258650D02*
X17001134Y-18268174D01*
X17001134Y-18268174D02*
X16991611Y-18277698D01*
X17201134Y-18391984D02*
X17182087Y-18382460D01*
X17182087Y-18382460D02*
X17172563Y-18372936D01*
X17172563Y-18372936D02*
X17163039Y-18353889D01*
X17163039Y-18353889D02*
X17163039Y-18296746D01*
X17163039Y-18296746D02*
X17172563Y-18277698D01*
X17172563Y-18277698D02*
X17182087Y-18268174D01*
X17182087Y-18268174D02*
X17201134Y-18258650D01*
X17201134Y-18258650D02*
X17229706Y-18258650D01*
X17229706Y-18258650D02*
X17248753Y-18268174D01*
X17248753Y-18268174D02*
X17258277Y-18277698D01*
X17258277Y-18277698D02*
X17267801Y-18296746D01*
X17267801Y-18296746D02*
X17267801Y-18353889D01*
X17267801Y-18353889D02*
X17258277Y-18372936D01*
X17258277Y-18372936D02*
X17248753Y-18382460D01*
X17248753Y-18382460D02*
X17229706Y-18391984D01*
X17229706Y-18391984D02*
X17201134Y-18391984D01*
X17382087Y-18391984D02*
X17363039Y-18382460D01*
X17363039Y-18382460D02*
X17353515Y-18363412D01*
X17353515Y-18363412D02*
X17353515Y-18191984D01*
X17534468Y-18382460D02*
X17515420Y-18391984D01*
X17515420Y-18391984D02*
X17477325Y-18391984D01*
X17477325Y-18391984D02*
X17458277Y-18382460D01*
X17458277Y-18382460D02*
X17448753Y-18363412D01*
X17448753Y-18363412D02*
X17448753Y-18287222D01*
X17448753Y-18287222D02*
X17458277Y-18268174D01*
X17458277Y-18268174D02*
X17477325Y-18258650D01*
X17477325Y-18258650D02*
X17515420Y-18258650D01*
X17515420Y-18258650D02*
X17534468Y-18268174D01*
X17534468Y-18268174D02*
X17543992Y-18287222D01*
X17543992Y-18287222D02*
X17543992Y-18306270D01*
X17543992Y-18306270D02*
X17448753Y-18325317D01*
X17620182Y-18382460D02*
X17639230Y-18391984D01*
X17639230Y-18391984D02*
X17677325Y-18391984D01*
X17677325Y-18391984D02*
X17696373Y-18382460D01*
X17696373Y-18382460D02*
X17705896Y-18363412D01*
X17705896Y-18363412D02*
X17705896Y-18353889D01*
X17705896Y-18353889D02*
X17696373Y-18334841D01*
X17696373Y-18334841D02*
X17677325Y-18325317D01*
X17677325Y-18325317D02*
X17648753Y-18325317D01*
X17648753Y-18325317D02*
X17629706Y-18315793D01*
X17629706Y-18315793D02*
X17620182Y-18296746D01*
X17620182Y-18296746D02*
X17620182Y-18287222D01*
X17620182Y-18287222D02*
X17629706Y-18268174D01*
X17629706Y-18268174D02*
X17648753Y-18258650D01*
X17648753Y-18258650D02*
X17677325Y-18258650D01*
X17677325Y-18258650D02*
X17696373Y-18268174D01*
X17772563Y-18468174D02*
X17782087Y-18458650D01*
X17782087Y-18458650D02*
X17801134Y-18430079D01*
X17801134Y-18430079D02*
X17810658Y-18411031D01*
X17810658Y-18411031D02*
X17820182Y-18382460D01*
X17820182Y-18382460D02*
X17829706Y-18334841D01*
X17829706Y-18334841D02*
X17829706Y-18296746D01*
X17829706Y-18296746D02*
X17820182Y-18249127D01*
X17820182Y-18249127D02*
X17810658Y-18220555D01*
X17810658Y-18220555D02*
X17801134Y-18201508D01*
X17801134Y-18201508D02*
X17782087Y-18172936D01*
X17782087Y-18172936D02*
X17772563Y-18163412D01*
M02*
